G04 EAGLE Gerber RS-274X export*
G75*
%MOMM*%
%FSLAX34Y34*%
%LPD*%
%INLötstopplack unten*%
%IPPOS*%
%AMOC8*
5,1,8,0,0,1.08239X$1,22.5*%
G01*
%ADD10C,0.000000*%
%ADD11R,1.101600X1.201600*%
%ADD12R,1.201600X1.101600*%
%ADD13R,0.600000X1.000000*%
%ADD14R,0.651600X1.301600*%
%ADD15C,1.609600*%
%ADD16R,1.701800X1.270000*%
%ADD17R,1.828800X0.152400*%


D10*
X6350Y0D02*
X499110Y0D01*
X505460Y6350D02*
X505460Y304800D01*
X499110Y311150D02*
X6350Y311150D01*
X0Y304800D02*
X0Y6350D01*
X6350Y0D01*
X0Y304800D02*
X6350Y311150D01*
X499110Y311150D02*
X505460Y304800D01*
X505460Y6350D02*
X499110Y0D01*
D11*
X165100Y167250D03*
X165100Y150250D03*
D12*
X226450Y120650D03*
X243450Y120650D03*
D11*
X276860Y183270D03*
X276860Y200270D03*
D12*
X222640Y231140D03*
X239640Y231140D03*
X108830Y187960D03*
X91830Y187960D03*
X187080Y60960D03*
X204080Y60960D03*
X256150Y60960D03*
X239150Y60960D03*
D11*
X276860Y145660D03*
X276860Y128660D03*
D12*
X260740Y287020D03*
X277740Y287020D03*
X190890Y287020D03*
X207890Y287020D03*
D11*
X360680Y148200D03*
X360680Y131200D03*
X341630Y148200D03*
X341630Y131200D03*
D12*
X406010Y193040D03*
X389010Y193040D03*
X406010Y173990D03*
X389010Y173990D03*
X406010Y212090D03*
X389010Y212090D03*
X406010Y231140D03*
X389010Y231140D03*
X419490Y231140D03*
X436490Y231140D03*
X419490Y212090D03*
X436490Y212090D03*
D11*
X320040Y50410D03*
X320040Y33410D03*
X83820Y282330D03*
X83820Y299330D03*
X160020Y282330D03*
X160020Y299330D03*
D12*
X25400Y52950D03*
X25400Y35950D03*
D11*
X118990Y95250D03*
X101990Y95250D03*
D12*
X158750Y88020D03*
X158750Y105020D03*
D11*
X378070Y262890D03*
X361070Y262890D03*
D13*
X431230Y164210D03*
X439230Y164210D03*
X447230Y164210D03*
X455230Y164210D03*
X455230Y148210D03*
X447230Y148210D03*
X439230Y148210D03*
X431230Y148210D03*
D14*
X131420Y274020D03*
X121920Y274020D03*
X112420Y274020D03*
X112420Y300020D03*
X131420Y300020D03*
D15*
X55880Y29210D03*
X55880Y54610D03*
X81280Y29210D03*
X81280Y54610D03*
X106680Y29210D03*
X106680Y54610D03*
X132080Y29210D03*
X132080Y54610D03*
X157480Y29210D03*
X157480Y54610D03*
D12*
X160020Y237880D03*
X160020Y254880D03*
D16*
X190500Y217170D03*
X190500Y201930D03*
D17*
X190500Y209550D03*
M02*
