M48
;GenerationSoftware,Autodesk,EAGLE,9.3.0*%
;CreationDate,2019-01-25T06:12:27Z*%
FMAT,2
ICI,OFF
METRIC,TZ,000.000
T4C0.350
T3C0.400
T2C0.500
T1C1.000
%
G90
M71
T1
X15748Y2921
X8128Y5461
X15748Y5461
X5588Y2921
X5588Y5461
X8128Y2921
X10668Y2921
X10668Y5461
X13208Y2921
X13208Y5461
T2
X41910Y14224
X41910Y15875
X49530Y20904
X47650Y20930
X46406Y22250
X46914Y23901
X43155Y24333
X5715Y12040
X5131Y7569
X4039Y10770
X5740Y1245
X43815Y13589
X2515Y1270
X22047Y762
X17704Y2743
X3607Y26340
X9017Y23749
X9017Y25019
X10414Y23749
X13208Y25527
X14605Y25527
X40005Y28448
X7620Y22479
X3607Y27610
X9017Y22479
X6223Y22479
X10414Y22479
X1245Y7595
X43180Y11811
X45085Y11811
X46990Y14478
X46990Y11811
X40005Y27051
T3
X28575Y2921
X25019Y2921
X33528Y2540
X41910Y8890
X48260Y6350
X24765Y28194
X33579Y28727
X17780Y11430
X29972Y10287
X26670Y11430
X21463Y18796
X24638Y20701
X25273Y14351
X35027Y3810
X6731Y30404
X29464Y29972
X45009Y28372
X11176Y26035
X11176Y24765
X43688Y19888
X17526Y27178
X17526Y28829
X22098Y28194
X10414Y30404
X27686Y15240
X26035Y27178
X19101Y27178
X18593Y7366
X25603Y7366
X11938Y18796
X11430Y12090
X14986Y27305
X15875Y11430
X10236Y8306
X15748Y18796
X15748Y22606
X27686Y17526
X16510Y17526
X19050Y23114
X47498Y19431
X47498Y17526
X47498Y15621
X34163Y16026
X40640Y20511
X40601Y18352
X32004Y5715
X20320Y23876
X28194Y23749
X8255Y10160
X45593Y23114
X44323Y23241
X18059Y4140
X7239Y9525
X3175Y23876
X18923Y1524
X6350Y8636
X2413Y22606
X3810Y18796
X6426Y21260
X5080Y17780
X5740Y20472
X36195Y22860
X31496Y18034
X35179Y21717
X31496Y16526
X22098Y23749
X22598Y11430
X30480Y26035
X35560Y18415
X37211Y20320
X37211Y22047
X38735Y28448
X49149Y27813
X16510Y13335
X20955Y13335
X20320Y8128
T4
X36723Y17526
X28194Y22225
X38989Y25781
M30