G04 EAGLE Gerber RS-274X export*
G75*
%MOMM*%
%FSLAX34Y34*%
%LPD*%
%INseide top*%
%IPPOS*%
%AMOC8*
5,1,8,0,0,1.08239X$1,22.5*%
G01*
%ADD10C,0.000000*%
%ADD11C,0.127000*%
%ADD12C,0.152400*%
%ADD13C,0.304800*%
%ADD14C,0.203200*%
%ADD15C,0.200000*%
%ADD16C,0.101600*%
%ADD17C,0.254000*%
%ADD18C,0.076200*%
%ADD19R,1.049800X0.300200*%
%ADD20R,1.049800X0.300000*%
%ADD21R,0.300200X1.049800*%
%ADD22R,0.300000X1.049800*%


D10*
X6350Y0D02*
X499110Y0D01*
X505460Y6350D02*
X505460Y304800D01*
X499110Y311150D02*
X6350Y311150D01*
X0Y304800D02*
X0Y6350D01*
X6350Y0D01*
X0Y304800D02*
X6350Y311150D01*
X499110Y311150D02*
X505460Y304800D01*
X505460Y6350D02*
X499110Y0D01*
D11*
X27305Y209933D02*
X27305Y214509D01*
X27305Y209933D02*
X29593Y207645D01*
X31881Y209933D01*
X31881Y214509D01*
X38221Y214509D02*
X39365Y213365D01*
X38221Y214509D02*
X35933Y214509D01*
X34789Y213365D01*
X34789Y208789D01*
X35933Y207645D01*
X38221Y207645D01*
X39365Y208789D01*
X42273Y207645D02*
X42273Y214509D01*
X42273Y207645D02*
X46849Y207645D01*
X49757Y207645D02*
X49757Y214509D01*
X49757Y209933D02*
X54333Y214509D01*
X50901Y211077D02*
X54333Y207645D01*
X31881Y201809D02*
X27305Y194945D01*
X34789Y194945D02*
X34789Y201809D01*
X34789Y194945D02*
X38221Y194945D01*
X39365Y196089D01*
X39365Y200665D01*
X38221Y201809D01*
X34789Y201809D01*
X45705Y201809D02*
X46849Y200665D01*
X45705Y201809D02*
X43417Y201809D01*
X42273Y200665D01*
X42273Y199521D01*
X43417Y198377D01*
X45705Y198377D01*
X46849Y197233D01*
X46849Y196089D01*
X45705Y194945D01*
X43417Y194945D01*
X42273Y196089D01*
X33909Y138135D02*
X27045Y138135D01*
X33909Y138135D02*
X33909Y141567D01*
X32765Y142711D01*
X28189Y142711D01*
X27045Y141567D01*
X27045Y138135D01*
X28189Y145619D02*
X32765Y145619D01*
X28189Y145619D02*
X27045Y146763D01*
X27045Y149051D01*
X28189Y150195D01*
X32765Y150195D01*
X33909Y149051D01*
X33909Y146763D01*
X32765Y145619D01*
X28189Y150195D01*
X30477Y153103D02*
X30477Y157679D01*
X27045Y160587D02*
X33909Y160587D01*
X33909Y164019D01*
X32765Y165163D01*
X28189Y165163D01*
X27045Y164019D01*
X27045Y160587D01*
X28189Y170359D02*
X27045Y172647D01*
X28189Y170359D02*
X30477Y168071D01*
X32765Y168071D01*
X33909Y169215D01*
X33909Y171503D01*
X32765Y172647D01*
X31621Y172647D01*
X30477Y171503D01*
X30477Y168071D01*
D12*
X21590Y194310D02*
X19050Y194310D01*
X21590Y194310D02*
X22860Y193040D01*
X22860Y158750D01*
X25400Y156210D01*
X22860Y153670D01*
X22860Y106680D01*
X21590Y105410D01*
X19050Y105410D01*
D11*
X54741Y304805D02*
X53597Y305949D01*
X51309Y305949D01*
X50165Y304805D01*
X50165Y300229D01*
X51309Y299085D01*
X53597Y299085D01*
X54741Y300229D01*
X57649Y303661D02*
X59937Y305949D01*
X59937Y299085D01*
X57649Y299085D02*
X62225Y299085D01*
X49149Y278517D02*
X49149Y271653D01*
X49149Y278517D02*
X53725Y278517D01*
X51437Y275085D02*
X49149Y275085D01*
X56633Y271653D02*
X56633Y278517D01*
X60065Y278517D01*
X61209Y277373D01*
X61209Y276229D01*
X60065Y275085D01*
X61209Y273941D01*
X61209Y272797D01*
X60065Y271653D01*
X56633Y271653D01*
X56633Y275085D02*
X60065Y275085D01*
X64117Y276229D02*
X66405Y278517D01*
X66405Y271653D01*
X64117Y271653D02*
X68693Y271653D01*
X100451Y278387D02*
X101595Y279531D01*
X100451Y278387D02*
X100451Y276099D01*
X101595Y274955D01*
X106171Y274955D01*
X107315Y276099D01*
X107315Y278387D01*
X106171Y279531D01*
X107315Y282439D02*
X107315Y287015D01*
X107315Y282439D02*
X102739Y287015D01*
X101595Y287015D01*
X100451Y285871D01*
X100451Y283583D01*
X101595Y282439D01*
X115691Y278387D02*
X116835Y279531D01*
X115691Y278387D02*
X115691Y276099D01*
X116835Y274955D01*
X121411Y274955D01*
X122555Y276099D01*
X122555Y278387D01*
X121411Y279531D01*
X116835Y282439D02*
X115691Y283583D01*
X115691Y285871D01*
X116835Y287015D01*
X117979Y287015D01*
X119123Y285871D01*
X119123Y284727D01*
X119123Y285871D02*
X120267Y287015D01*
X121411Y287015D01*
X122555Y285871D01*
X122555Y283583D01*
X121411Y282439D01*
D12*
X112776Y241307D02*
X112776Y234105D01*
X114217Y232664D01*
X117098Y232664D01*
X118538Y234105D01*
X118538Y241307D01*
X122131Y238426D02*
X125012Y241307D01*
X125012Y232664D01*
X122131Y232664D02*
X127893Y232664D01*
D11*
X107315Y187833D02*
X100451Y187833D01*
X100451Y191265D01*
X101595Y192409D01*
X103883Y192409D01*
X105027Y191265D01*
X105027Y187833D01*
X105027Y190121D02*
X107315Y192409D01*
X107315Y195317D02*
X100451Y195317D01*
X107315Y199893D01*
X100451Y199893D01*
X102739Y202801D02*
X100451Y205089D01*
X107315Y205089D01*
X107315Y202801D02*
X107315Y207377D01*
X107315Y210285D02*
X107315Y214861D01*
X107315Y210285D02*
X102739Y214861D01*
X101595Y214861D01*
X100451Y213717D01*
X100451Y211429D01*
X101595Y210285D01*
X100197Y150241D02*
X107061Y150241D01*
X100197Y150241D02*
X100197Y153673D01*
X101341Y154817D01*
X103629Y154817D01*
X104773Y153673D01*
X104773Y150241D01*
X104773Y152529D02*
X107061Y154817D01*
X107061Y157725D02*
X100197Y157725D01*
X107061Y162301D01*
X100197Y162301D01*
X102485Y165209D02*
X100197Y167497D01*
X107061Y167497D01*
X107061Y165209D02*
X107061Y169785D01*
X102485Y172693D02*
X100197Y174981D01*
X107061Y174981D01*
X107061Y172693D02*
X107061Y177269D01*
X106807Y112141D02*
X99943Y112141D01*
X99943Y115573D01*
X101087Y116717D01*
X103375Y116717D01*
X104519Y115573D01*
X104519Y112141D01*
X104519Y114429D02*
X106807Y116717D01*
X106807Y119625D02*
X99943Y119625D01*
X106807Y124201D01*
X99943Y124201D01*
X102231Y127109D02*
X99943Y129397D01*
X106807Y129397D01*
X106807Y127109D02*
X106807Y131685D01*
X105663Y134593D02*
X101087Y134593D01*
X99943Y135737D01*
X99943Y138025D01*
X101087Y139169D01*
X105663Y139169D01*
X106807Y138025D01*
X106807Y135737D01*
X105663Y134593D01*
X101087Y139169D01*
X260223Y69475D02*
X260223Y62611D01*
X260223Y69475D02*
X263655Y69475D01*
X264799Y68331D01*
X264799Y66043D01*
X263655Y64899D01*
X260223Y64899D01*
X262511Y64899D02*
X264799Y62611D01*
X267707Y68331D02*
X268851Y69475D01*
X271139Y69475D01*
X272283Y68331D01*
X272283Y67187D01*
X271139Y66043D01*
X269995Y66043D01*
X271139Y66043D02*
X272283Y64899D01*
X272283Y63755D01*
X271139Y62611D01*
X268851Y62611D01*
X267707Y63755D01*
X275191Y62611D02*
X279767Y62611D01*
X275191Y62611D02*
X279767Y67187D01*
X279767Y68331D01*
X278623Y69475D01*
X276335Y69475D01*
X275191Y68331D01*
X291211Y69475D02*
X291211Y62611D01*
X291211Y69475D02*
X294643Y69475D01*
X295787Y68331D01*
X295787Y66043D01*
X294643Y64899D01*
X291211Y64899D01*
X293499Y64899D02*
X295787Y62611D01*
X298695Y68331D02*
X299839Y69475D01*
X302127Y69475D01*
X303271Y68331D01*
X303271Y67187D01*
X302127Y66043D01*
X300983Y66043D01*
X302127Y66043D02*
X303271Y64899D01*
X303271Y63755D01*
X302127Y62611D01*
X299839Y62611D01*
X298695Y63755D01*
X306179Y67187D02*
X308467Y69475D01*
X308467Y62611D01*
X306179Y62611D02*
X310755Y62611D01*
D12*
X308610Y36837D02*
X308610Y29635D01*
X310051Y28194D01*
X312932Y28194D01*
X314372Y29635D01*
X314372Y36837D01*
X317965Y35397D02*
X319406Y36837D01*
X322287Y36837D01*
X323727Y35397D01*
X323727Y33956D01*
X322287Y32516D01*
X320846Y32516D01*
X322287Y32516D02*
X323727Y31075D01*
X323727Y29635D01*
X322287Y28194D01*
X319406Y28194D01*
X317965Y29635D01*
D11*
X329311Y86995D02*
X329311Y93859D01*
X332743Y93859D01*
X333887Y92715D01*
X333887Y90427D01*
X332743Y89283D01*
X329311Y89283D01*
X331599Y89283D02*
X333887Y86995D01*
X336795Y91571D02*
X339083Y93859D01*
X339083Y86995D01*
X336795Y86995D02*
X341371Y86995D01*
X344279Y92715D02*
X345423Y93859D01*
X347711Y93859D01*
X348855Y92715D01*
X348855Y91571D01*
X347711Y90427D01*
X346567Y90427D01*
X347711Y90427D02*
X348855Y89283D01*
X348855Y88139D01*
X347711Y86995D01*
X345423Y86995D01*
X344279Y88139D01*
X372367Y77349D02*
X373511Y76205D01*
X372367Y77349D02*
X370079Y77349D01*
X368935Y76205D01*
X368935Y71629D01*
X370079Y70485D01*
X372367Y70485D01*
X373511Y71629D01*
X376419Y76205D02*
X377563Y77349D01*
X379851Y77349D01*
X380995Y76205D01*
X380995Y75061D01*
X379851Y73917D01*
X378707Y73917D01*
X379851Y73917D02*
X380995Y72773D01*
X380995Y71629D01*
X379851Y70485D01*
X377563Y70485D01*
X376419Y71629D01*
X383903Y75061D02*
X386191Y77349D01*
X386191Y70485D01*
X383903Y70485D02*
X388479Y70485D01*
X419611Y77095D02*
X420755Y75951D01*
X419611Y77095D02*
X417323Y77095D01*
X416179Y75951D01*
X416179Y71375D01*
X417323Y70231D01*
X419611Y70231D01*
X420755Y71375D01*
X423663Y75951D02*
X424807Y77095D01*
X427095Y77095D01*
X428239Y75951D01*
X428239Y74807D01*
X427095Y73663D01*
X425951Y73663D01*
X427095Y73663D02*
X428239Y72519D01*
X428239Y71375D01*
X427095Y70231D01*
X424807Y70231D01*
X423663Y71375D01*
X431147Y75951D02*
X432291Y77095D01*
X434579Y77095D01*
X435723Y75951D01*
X435723Y74807D01*
X434579Y73663D01*
X433435Y73663D01*
X434579Y73663D02*
X435723Y72519D01*
X435723Y71375D01*
X434579Y70231D01*
X432291Y70231D01*
X431147Y71375D01*
X376559Y45979D02*
X375415Y47123D01*
X373127Y47123D01*
X371983Y45979D01*
X371983Y41403D01*
X373127Y40259D01*
X375415Y40259D01*
X376559Y41403D01*
X379467Y45979D02*
X380611Y47123D01*
X382899Y47123D01*
X384043Y45979D01*
X384043Y44835D01*
X382899Y43691D01*
X381755Y43691D01*
X382899Y43691D02*
X384043Y42547D01*
X384043Y41403D01*
X382899Y40259D01*
X380611Y40259D01*
X379467Y41403D01*
X390383Y40259D02*
X390383Y47123D01*
X386951Y43691D01*
X391527Y43691D01*
X448183Y65151D02*
X448183Y72015D01*
X451615Y72015D01*
X452759Y70871D01*
X452759Y68583D01*
X451615Y67439D01*
X448183Y67439D01*
X450471Y67439D02*
X452759Y65151D01*
X455667Y70871D02*
X456811Y72015D01*
X459099Y72015D01*
X460243Y70871D01*
X460243Y69727D01*
X459099Y68583D01*
X457955Y68583D01*
X459099Y68583D02*
X460243Y67439D01*
X460243Y66295D01*
X459099Y65151D01*
X456811Y65151D01*
X455667Y66295D01*
X463151Y70871D02*
X464295Y72015D01*
X466583Y72015D01*
X467727Y70871D01*
X467727Y69727D01*
X466583Y68583D01*
X465439Y68583D01*
X466583Y68583D02*
X467727Y67439D01*
X467727Y66295D01*
X466583Y65151D01*
X464295Y65151D01*
X463151Y66295D01*
D12*
X321056Y250361D02*
X321056Y257563D01*
X321056Y250361D02*
X322497Y248920D01*
X325378Y248920D01*
X326818Y250361D01*
X326818Y257563D01*
X330411Y248920D02*
X336173Y248920D01*
X330411Y248920D02*
X336173Y254682D01*
X336173Y256123D01*
X334733Y257563D01*
X331852Y257563D01*
X330411Y256123D01*
X170605Y296672D02*
X169164Y298113D01*
X170605Y296672D02*
X172045Y296672D01*
X173486Y298113D01*
X173486Y305315D01*
X174926Y305315D02*
X172045Y305315D01*
X178519Y302434D02*
X181400Y305315D01*
X181400Y296672D01*
X178519Y296672D02*
X184281Y296672D01*
X187874Y302434D02*
X190756Y305315D01*
X190756Y296672D01*
X193637Y296672D02*
X187874Y296672D01*
X334518Y115995D02*
X335959Y114554D01*
X337399Y114554D01*
X338840Y115995D01*
X338840Y123197D01*
X340280Y123197D02*
X337399Y123197D01*
X343873Y114554D02*
X349635Y114554D01*
X343873Y114554D02*
X349635Y120316D01*
X349635Y121757D01*
X348195Y123197D01*
X345314Y123197D01*
X343873Y121757D01*
X353228Y120316D02*
X356110Y123197D01*
X356110Y114554D01*
X358991Y114554D02*
X353228Y114554D01*
D11*
X477651Y283469D02*
X476507Y284613D01*
X474219Y284613D01*
X473075Y283469D01*
X473075Y278893D01*
X474219Y277749D01*
X476507Y277749D01*
X477651Y278893D01*
X483991Y277749D02*
X483991Y284613D01*
X480559Y281181D01*
X485135Y281181D01*
X426085Y294005D02*
X426085Y300869D01*
X430661Y300869D01*
X428373Y297437D02*
X426085Y297437D01*
X433569Y294005D02*
X433569Y300869D01*
X437001Y300869D01*
X438145Y299725D01*
X438145Y298581D01*
X437001Y297437D01*
X438145Y296293D01*
X438145Y295149D01*
X437001Y294005D01*
X433569Y294005D01*
X433569Y297437D02*
X437001Y297437D01*
X441053Y294005D02*
X445629Y294005D01*
X441053Y294005D02*
X445629Y298581D01*
X445629Y299725D01*
X444485Y300869D01*
X442197Y300869D01*
X441053Y299725D01*
X359541Y284485D02*
X358397Y285629D01*
X356109Y285629D01*
X354965Y284485D01*
X354965Y279909D01*
X356109Y278765D01*
X358397Y278765D01*
X359541Y279909D01*
X362449Y285629D02*
X367025Y285629D01*
X362449Y285629D02*
X362449Y282197D01*
X364737Y283341D01*
X365881Y283341D01*
X367025Y282197D01*
X367025Y279909D01*
X365881Y278765D01*
X363593Y278765D01*
X362449Y279909D01*
X415925Y279279D02*
X415925Y272415D01*
X415925Y279279D02*
X419357Y279279D01*
X420501Y278135D01*
X420501Y275847D01*
X419357Y274703D01*
X415925Y274703D01*
X418213Y274703D02*
X420501Y272415D01*
X423409Y272415D02*
X427985Y272415D01*
X423409Y272415D02*
X427985Y276991D01*
X427985Y278135D01*
X426841Y279279D01*
X424553Y279279D01*
X423409Y278135D01*
X430893Y276991D02*
X433181Y279279D01*
X433181Y272415D01*
X430893Y272415D02*
X435469Y272415D01*
D12*
X449072Y263910D02*
X454834Y263910D01*
X451953Y266791D02*
X451953Y261029D01*
X458427Y268231D02*
X464189Y268231D01*
X458427Y268231D02*
X458427Y263910D01*
X461308Y265350D01*
X462749Y265350D01*
X464189Y263910D01*
X464189Y261029D01*
X462749Y259588D01*
X459868Y259588D01*
X458427Y261029D01*
X467782Y262469D02*
X467782Y268231D01*
X467782Y262469D02*
X470664Y259588D01*
X473545Y262469D01*
X473545Y268231D01*
X480572Y225813D02*
X482012Y224373D01*
X480572Y225813D02*
X477691Y225813D01*
X476250Y224373D01*
X476250Y218611D01*
X477691Y217170D01*
X480572Y217170D01*
X482012Y218611D01*
X482012Y221492D01*
X479131Y221492D01*
X485605Y225813D02*
X485605Y217170D01*
X491367Y217170D02*
X485605Y225813D01*
X491367Y225813D02*
X491367Y217170D01*
X494960Y217170D02*
X494960Y225813D01*
X494960Y217170D02*
X499282Y217170D01*
X500723Y218611D01*
X500723Y224373D01*
X499282Y225813D01*
X494960Y225813D01*
X462534Y199905D02*
X462534Y191262D01*
X462534Y199905D02*
X466856Y199905D01*
X468296Y198465D01*
X468296Y195584D01*
X466856Y194143D01*
X462534Y194143D01*
X465415Y194143D02*
X468296Y191262D01*
X466856Y180601D02*
X468296Y179161D01*
X466856Y180601D02*
X463975Y180601D01*
X462534Y179161D01*
X462534Y173399D01*
X463975Y171958D01*
X466856Y171958D01*
X468296Y173399D01*
X468296Y176280D01*
X465415Y176280D01*
X462534Y161805D02*
X462534Y153162D01*
X462534Y161805D02*
X466856Y161805D01*
X468296Y160365D01*
X468296Y158924D01*
X466856Y157484D01*
X468296Y156043D01*
X468296Y154603D01*
X466856Y153162D01*
X462534Y153162D01*
X462534Y157484D02*
X466856Y157484D01*
X452632Y135389D02*
X454072Y133949D01*
X452632Y135389D02*
X449751Y135389D01*
X448310Y133949D01*
X448310Y128187D01*
X449751Y126746D01*
X452632Y126746D01*
X454072Y128187D01*
X454072Y131068D01*
X451191Y131068D01*
X457665Y135389D02*
X457665Y126746D01*
X463427Y126746D02*
X457665Y135389D01*
X463427Y135389D02*
X463427Y126746D01*
X467020Y126746D02*
X467020Y135389D01*
X467020Y126746D02*
X471342Y126746D01*
X472783Y128187D01*
X472783Y133949D01*
X471342Y135389D01*
X467020Y135389D01*
X451783Y109989D02*
X451783Y101346D01*
X454664Y101346D02*
X454664Y109989D01*
X454664Y107108D02*
X450342Y107108D01*
X454664Y107108D02*
X456104Y107108D01*
X456104Y104227D02*
X450342Y104227D01*
X464019Y109989D02*
X465459Y108549D01*
X464019Y109989D02*
X461138Y109989D01*
X459697Y108549D01*
X459697Y102787D01*
X461138Y101346D01*
X464019Y101346D01*
X465459Y102787D01*
X473374Y109989D02*
X474815Y108549D01*
X473374Y109989D02*
X470493Y109989D01*
X469052Y108549D01*
X469052Y107108D01*
X470493Y105668D01*
X473374Y105668D01*
X474815Y104227D01*
X474815Y102787D01*
X473374Y101346D01*
X470493Y101346D01*
X469052Y102787D01*
X434003Y90685D02*
X434003Y82042D01*
X436884Y82042D02*
X436884Y90685D01*
X436884Y87804D02*
X432562Y87804D01*
X436884Y87804D02*
X438324Y87804D01*
X438324Y84923D02*
X432562Y84923D01*
X446239Y90685D02*
X447679Y89245D01*
X446239Y90685D02*
X443358Y90685D01*
X441917Y89245D01*
X441917Y83483D01*
X443358Y82042D01*
X446239Y82042D01*
X447679Y83483D01*
X455594Y90685D02*
X457035Y89245D01*
X455594Y90685D02*
X452713Y90685D01*
X451272Y89245D01*
X451272Y87804D01*
X452713Y86364D01*
X455594Y86364D01*
X457035Y84923D01*
X457035Y83483D01*
X455594Y82042D01*
X452713Y82042D01*
X451272Y83483D01*
X460628Y90685D02*
X466390Y90685D01*
X466390Y89245D01*
X460628Y83483D01*
X460628Y82042D01*
X469983Y90685D02*
X475745Y90685D01*
X469983Y90685D02*
X469983Y86364D01*
X472864Y87804D01*
X474304Y87804D01*
X475745Y86364D01*
X475745Y83483D01*
X474304Y82042D01*
X471423Y82042D01*
X469983Y83483D01*
X443147Y30233D02*
X443147Y21590D01*
X446028Y21590D02*
X446028Y30233D01*
X446028Y27352D02*
X441706Y27352D01*
X446028Y27352D02*
X447468Y27352D01*
X447468Y24471D02*
X441706Y24471D01*
X451061Y21590D02*
X451061Y30233D01*
X455383Y30233D01*
X456823Y28793D01*
X456823Y25912D01*
X455383Y24471D01*
X451061Y24471D01*
X453942Y24471D02*
X456823Y21590D01*
X464738Y30233D02*
X466179Y28793D01*
X464738Y30233D02*
X461857Y30233D01*
X460416Y28793D01*
X460416Y27352D01*
X461857Y25912D01*
X464738Y25912D01*
X466179Y24471D01*
X466179Y23031D01*
X464738Y21590D01*
X461857Y21590D01*
X460416Y23031D01*
X472653Y21590D02*
X472653Y30233D01*
X469772Y30233D02*
X475534Y30233D01*
X447468Y13553D02*
X446028Y14993D01*
X443147Y14993D01*
X441706Y13553D01*
X441706Y7791D01*
X443147Y6350D01*
X446028Y6350D01*
X447468Y7791D01*
X453942Y6350D02*
X453942Y14993D01*
X451061Y14993D02*
X456823Y14993D01*
X460416Y14993D02*
X460416Y6350D01*
X460416Y14993D02*
X464738Y14993D01*
X466179Y13553D01*
X466179Y10672D01*
X464738Y9231D01*
X460416Y9231D01*
X463298Y9231D02*
X466179Y6350D01*
X469772Y6350D02*
X469772Y14993D01*
X469772Y6350D02*
X475534Y6350D01*
X245110Y49955D02*
X243669Y48514D01*
X245110Y49955D02*
X245110Y51395D01*
X243669Y52836D01*
X236467Y52836D01*
X236467Y54276D02*
X236467Y51395D01*
X239348Y57869D02*
X236467Y60750D01*
X245110Y60750D01*
X245110Y57869D02*
X245110Y63631D01*
X245110Y67224D02*
X245110Y72987D01*
X239348Y72987D02*
X245110Y67224D01*
X239348Y72987D02*
X237907Y72987D01*
X236467Y71546D01*
X236467Y68665D01*
X237907Y67224D01*
D13*
X204470Y281432D02*
X204472Y281503D01*
X204478Y281574D01*
X204488Y281645D01*
X204502Y281715D01*
X204520Y281784D01*
X204541Y281851D01*
X204567Y281918D01*
X204596Y281983D01*
X204628Y282046D01*
X204665Y282108D01*
X204704Y282167D01*
X204747Y282224D01*
X204793Y282278D01*
X204842Y282330D01*
X204894Y282379D01*
X204948Y282425D01*
X205005Y282468D01*
X205064Y282507D01*
X205126Y282544D01*
X205189Y282576D01*
X205254Y282605D01*
X205321Y282631D01*
X205388Y282652D01*
X205457Y282670D01*
X205527Y282684D01*
X205598Y282694D01*
X205669Y282700D01*
X205740Y282702D01*
X205811Y282700D01*
X205882Y282694D01*
X205953Y282684D01*
X206023Y282670D01*
X206092Y282652D01*
X206159Y282631D01*
X206226Y282605D01*
X206291Y282576D01*
X206354Y282544D01*
X206416Y282507D01*
X206475Y282468D01*
X206532Y282425D01*
X206586Y282379D01*
X206638Y282330D01*
X206687Y282278D01*
X206733Y282224D01*
X206776Y282167D01*
X206815Y282108D01*
X206852Y282046D01*
X206884Y281983D01*
X206913Y281918D01*
X206939Y281851D01*
X206960Y281784D01*
X206978Y281715D01*
X206992Y281645D01*
X207002Y281574D01*
X207008Y281503D01*
X207010Y281432D01*
X207008Y281361D01*
X207002Y281290D01*
X206992Y281219D01*
X206978Y281149D01*
X206960Y281080D01*
X206939Y281013D01*
X206913Y280946D01*
X206884Y280881D01*
X206852Y280818D01*
X206815Y280756D01*
X206776Y280697D01*
X206733Y280640D01*
X206687Y280586D01*
X206638Y280534D01*
X206586Y280485D01*
X206532Y280439D01*
X206475Y280396D01*
X206416Y280357D01*
X206354Y280320D01*
X206291Y280288D01*
X206226Y280259D01*
X206159Y280233D01*
X206092Y280212D01*
X206023Y280194D01*
X205953Y280180D01*
X205882Y280170D01*
X205811Y280164D01*
X205740Y280162D01*
X205669Y280164D01*
X205598Y280170D01*
X205527Y280180D01*
X205457Y280194D01*
X205388Y280212D01*
X205321Y280233D01*
X205254Y280259D01*
X205189Y280288D01*
X205126Y280320D01*
X205064Y280357D01*
X205005Y280396D01*
X204948Y280439D01*
X204894Y280485D01*
X204842Y280534D01*
X204793Y280586D01*
X204747Y280640D01*
X204704Y280697D01*
X204665Y280756D01*
X204628Y280818D01*
X204596Y280881D01*
X204567Y280946D01*
X204541Y281013D01*
X204520Y281080D01*
X204502Y281149D01*
X204488Y281219D01*
X204478Y281290D01*
X204472Y281361D01*
X204470Y281432D01*
D12*
X27178Y63163D02*
X28619Y61722D01*
X30059Y61722D01*
X31500Y63163D01*
X31500Y70365D01*
X32940Y70365D02*
X30059Y70365D01*
X36533Y68925D02*
X37974Y70365D01*
X40855Y70365D01*
X42295Y68925D01*
X42295Y67484D01*
X40855Y66044D01*
X39414Y66044D01*
X40855Y66044D02*
X42295Y64603D01*
X42295Y63163D01*
X40855Y61722D01*
X37974Y61722D01*
X36533Y63163D01*
X40560Y96357D02*
X39120Y97797D01*
X36239Y97797D01*
X34798Y96357D01*
X34798Y90595D01*
X36239Y89154D01*
X39120Y89154D01*
X40560Y90595D01*
X40560Y93476D01*
X37679Y93476D01*
X44153Y97797D02*
X44153Y89154D01*
X49915Y89154D02*
X44153Y97797D01*
X49915Y97797D02*
X49915Y89154D01*
X53508Y89154D02*
X53508Y97797D01*
X53508Y89154D02*
X57830Y89154D01*
X59271Y90595D01*
X59271Y96357D01*
X57830Y97797D01*
X53508Y97797D01*
D13*
X239268Y38100D02*
X239270Y38171D01*
X239276Y38242D01*
X239286Y38313D01*
X239300Y38383D01*
X239318Y38452D01*
X239339Y38519D01*
X239365Y38586D01*
X239394Y38651D01*
X239426Y38714D01*
X239463Y38776D01*
X239502Y38835D01*
X239545Y38892D01*
X239591Y38946D01*
X239640Y38998D01*
X239692Y39047D01*
X239746Y39093D01*
X239803Y39136D01*
X239862Y39175D01*
X239924Y39212D01*
X239987Y39244D01*
X240052Y39273D01*
X240119Y39299D01*
X240186Y39320D01*
X240255Y39338D01*
X240325Y39352D01*
X240396Y39362D01*
X240467Y39368D01*
X240538Y39370D01*
X240609Y39368D01*
X240680Y39362D01*
X240751Y39352D01*
X240821Y39338D01*
X240890Y39320D01*
X240957Y39299D01*
X241024Y39273D01*
X241089Y39244D01*
X241152Y39212D01*
X241214Y39175D01*
X241273Y39136D01*
X241330Y39093D01*
X241384Y39047D01*
X241436Y38998D01*
X241485Y38946D01*
X241531Y38892D01*
X241574Y38835D01*
X241613Y38776D01*
X241650Y38714D01*
X241682Y38651D01*
X241711Y38586D01*
X241737Y38519D01*
X241758Y38452D01*
X241776Y38383D01*
X241790Y38313D01*
X241800Y38242D01*
X241806Y38171D01*
X241808Y38100D01*
X241806Y38029D01*
X241800Y37958D01*
X241790Y37887D01*
X241776Y37817D01*
X241758Y37748D01*
X241737Y37681D01*
X241711Y37614D01*
X241682Y37549D01*
X241650Y37486D01*
X241613Y37424D01*
X241574Y37365D01*
X241531Y37308D01*
X241485Y37254D01*
X241436Y37202D01*
X241384Y37153D01*
X241330Y37107D01*
X241273Y37064D01*
X241214Y37025D01*
X241152Y36988D01*
X241089Y36956D01*
X241024Y36927D01*
X240957Y36901D01*
X240890Y36880D01*
X240821Y36862D01*
X240751Y36848D01*
X240680Y36838D01*
X240609Y36832D01*
X240538Y36830D01*
X240467Y36832D01*
X240396Y36838D01*
X240325Y36848D01*
X240255Y36862D01*
X240186Y36880D01*
X240119Y36901D01*
X240052Y36927D01*
X239987Y36956D01*
X239924Y36988D01*
X239862Y37025D01*
X239803Y37064D01*
X239746Y37107D01*
X239692Y37153D01*
X239640Y37202D01*
X239591Y37254D01*
X239545Y37308D01*
X239502Y37365D01*
X239463Y37424D01*
X239426Y37486D01*
X239394Y37549D01*
X239365Y37614D01*
X239339Y37681D01*
X239318Y37748D01*
X239300Y37817D01*
X239286Y37887D01*
X239276Y37958D01*
X239270Y38029D01*
X239268Y38100D01*
D14*
X241808Y17536D02*
X241808Y5334D01*
X249943Y5334D02*
X241808Y17536D01*
X249943Y17536D02*
X249943Y5334D01*
X258973Y15503D02*
X263040Y17536D01*
X258973Y15503D02*
X254905Y11435D01*
X254905Y7368D01*
X256939Y5334D01*
X261006Y5334D01*
X263040Y7368D01*
X263040Y9401D01*
X261006Y11435D01*
X254905Y11435D01*
X274104Y5334D02*
X274104Y17536D01*
X268003Y11435D01*
X276137Y11435D01*
X281100Y5334D02*
X281100Y17536D01*
X287201Y17536D01*
X289235Y15503D01*
X289235Y11435D01*
X287201Y9401D01*
X281100Y9401D01*
X285167Y9401D02*
X289235Y5334D01*
X300298Y17536D02*
X302332Y15503D01*
X300298Y17536D02*
X296231Y17536D01*
X294197Y15503D01*
X294197Y7368D01*
X296231Y5334D01*
X300298Y5334D01*
X302332Y7368D01*
X302332Y11435D01*
X298264Y11435D01*
X307294Y5334D02*
X307294Y17536D01*
X313395Y17536D01*
X315429Y15503D01*
X315429Y13469D01*
X313395Y11435D01*
X315429Y9401D01*
X315429Y7368D01*
X313395Y5334D01*
X307294Y5334D01*
X307294Y11435D02*
X313395Y11435D01*
X320392Y13469D02*
X324459Y5334D01*
X328526Y13469D01*
X333489Y5334D02*
X341624Y5334D01*
X333489Y5334D02*
X341624Y13469D01*
X341624Y15503D01*
X339590Y17536D01*
X335522Y17536D01*
X333489Y15503D01*
D12*
X260524Y291421D02*
X254762Y291421D01*
X264117Y291421D02*
X269879Y291421D01*
X273472Y292862D02*
X279235Y301505D01*
X285709Y295743D02*
X282828Y292862D01*
X285709Y295743D02*
X285709Y298624D01*
X282828Y301505D01*
X289064Y291421D02*
X294827Y291421D01*
X298420Y291421D02*
X304182Y291421D01*
X307775Y292862D02*
X313537Y301505D01*
X320011Y295743D02*
X317130Y292862D01*
X320011Y295743D02*
X320011Y298624D01*
X317130Y301505D01*
X323367Y291421D02*
X329129Y291421D01*
X411480Y49530D02*
X411480Y36830D01*
X436880Y36830D02*
X436880Y49530D01*
D15*
X389829Y123731D02*
X386476Y130529D01*
X390494Y137870D01*
X391672Y124788D02*
X389829Y124063D01*
X389829Y123731D01*
X403121Y125031D02*
X405630Y124003D01*
X403121Y125031D02*
X408771Y130860D01*
X404542Y126511D02*
X404542Y137899D01*
X397744Y135211D02*
X391672Y124788D01*
X397744Y127236D01*
X403121Y125031D01*
X397744Y135211D02*
X390494Y137870D01*
X397472Y140316D01*
X404542Y137899D01*
X397744Y135211D01*
X379104Y133579D02*
X372156Y131313D01*
X379104Y133579D02*
X386295Y130891D01*
X408771Y130860D02*
X416234Y133942D01*
X423484Y131313D01*
X415841Y128172D02*
X408771Y130860D01*
X397744Y127236D02*
X389829Y124063D01*
X397744Y127236D02*
X405630Y124003D01*
X405357Y112100D02*
X405357Y104246D01*
X407835Y100953D01*
X416234Y98052D01*
X386295Y100923D02*
X379377Y113520D01*
X386295Y100923D02*
X379377Y98083D01*
X397835Y120800D02*
X405630Y124003D01*
X415841Y128172D02*
X423484Y131313D01*
X423484Y101043D01*
X416234Y98052D01*
X405357Y112100D01*
X405357Y104246D02*
X405357Y93612D01*
X397835Y90500D01*
X397835Y120800D02*
X389829Y124063D01*
X397835Y120800D02*
X397835Y90500D01*
X390344Y93581D01*
X379377Y113520D01*
X379377Y98083D01*
X372156Y101043D01*
X372156Y131313D01*
X379708Y128232D01*
X389829Y108566D01*
X379708Y128232D02*
X386295Y130891D01*
X389829Y123731D01*
X389829Y108566D01*
X405630Y124003D02*
X415841Y109532D01*
X415841Y128172D01*
D12*
X15414Y253075D02*
X13974Y254515D01*
X11093Y254515D01*
X9652Y253075D01*
X9652Y247313D01*
X11093Y245872D01*
X13974Y245872D01*
X15414Y247313D01*
X15414Y250194D01*
X12533Y250194D01*
X19007Y254515D02*
X19007Y245872D01*
X24769Y245872D02*
X19007Y254515D01*
X24769Y254515D02*
X24769Y245872D01*
X28362Y245872D02*
X28362Y254515D01*
X28362Y245872D02*
X32684Y245872D01*
X34125Y247313D01*
X34125Y253075D01*
X32684Y254515D01*
X28362Y254515D01*
D11*
X37339Y238639D02*
X37339Y231775D01*
X39627Y231775D02*
X39627Y238639D01*
X39627Y236351D02*
X36195Y236351D01*
X39627Y236351D02*
X40771Y236351D01*
X40771Y234063D02*
X36195Y234063D01*
X43679Y231775D02*
X43679Y238639D01*
X47111Y238639D01*
X48255Y237495D01*
X48255Y235207D01*
X47111Y234063D01*
X43679Y234063D01*
X45967Y234063D02*
X48255Y231775D01*
X54595Y238639D02*
X55739Y237495D01*
X54595Y238639D02*
X52307Y238639D01*
X51163Y237495D01*
X51163Y236351D01*
X52307Y235207D01*
X54595Y235207D01*
X55739Y234063D01*
X55739Y232919D01*
X54595Y231775D01*
X52307Y231775D01*
X51163Y232919D01*
X60935Y231775D02*
X60935Y238639D01*
X58647Y238639D02*
X63223Y238639D01*
X34421Y226065D02*
X33277Y227209D01*
X30989Y227209D01*
X29845Y226065D01*
X29845Y221489D01*
X30989Y220345D01*
X33277Y220345D01*
X34421Y221489D01*
X39617Y220345D02*
X39617Y227209D01*
X37329Y227209D02*
X41905Y227209D01*
X44813Y227209D02*
X44813Y220345D01*
X44813Y227209D02*
X48245Y227209D01*
X49389Y226065D01*
X49389Y223777D01*
X48245Y222633D01*
X44813Y222633D01*
X47101Y222633D02*
X49389Y220345D01*
X52297Y220345D02*
X52297Y227209D01*
X52297Y220345D02*
X56873Y220345D01*
X14101Y302517D02*
X9525Y302517D01*
X11813Y304805D02*
X11813Y300229D01*
X17009Y304805D02*
X18153Y305949D01*
X20441Y305949D01*
X21585Y304805D01*
X21585Y303661D01*
X20441Y302517D01*
X19297Y302517D01*
X20441Y302517D02*
X21585Y301373D01*
X21585Y300229D01*
X20441Y299085D01*
X18153Y299085D01*
X17009Y300229D01*
X24493Y300229D02*
X24493Y299085D01*
X24493Y300229D02*
X25637Y300229D01*
X25637Y299085D01*
X24493Y299085D01*
X28235Y304805D02*
X29379Y305949D01*
X31667Y305949D01*
X32811Y304805D01*
X32811Y303661D01*
X31667Y302517D01*
X30523Y302517D01*
X31667Y302517D02*
X32811Y301373D01*
X32811Y300229D01*
X31667Y299085D01*
X29379Y299085D01*
X28235Y300229D01*
X35720Y301373D02*
X35720Y305949D01*
X35720Y301373D02*
X38007Y299085D01*
X40295Y301373D01*
X40295Y305949D01*
D12*
X53340Y296164D02*
X60960Y296164D01*
X60960Y282956D02*
X53340Y282956D01*
X374650Y66294D02*
X382270Y66294D01*
X382270Y53086D02*
X374650Y53086D01*
X373380Y35878D02*
X386080Y35878D01*
X386080Y20003D02*
X373380Y20003D01*
X82296Y274320D02*
X82296Y281940D01*
X95504Y281940D02*
X95504Y274320D01*
X126746Y275590D02*
X126746Y283210D01*
X139954Y283210D02*
X139954Y275590D01*
X473710Y302514D02*
X481330Y302514D01*
X481330Y289306D02*
X473710Y289306D01*
X364490Y289306D02*
X356870Y289306D01*
X356870Y302514D02*
X364490Y302514D01*
X61595Y268129D02*
X55245Y268129D01*
X55245Y260191D02*
X61595Y260191D01*
X405765Y299879D02*
X412115Y299879D01*
X412115Y291941D02*
X405765Y291941D01*
X242570Y288290D02*
X199390Y288290D01*
X242570Y308610D02*
X242670Y308608D01*
X242769Y308602D01*
X242869Y308592D01*
X242967Y308579D01*
X243066Y308561D01*
X243163Y308540D01*
X243259Y308515D01*
X243355Y308486D01*
X243449Y308453D01*
X243542Y308417D01*
X243633Y308377D01*
X243723Y308333D01*
X243811Y308286D01*
X243897Y308236D01*
X243981Y308182D01*
X244063Y308125D01*
X244142Y308065D01*
X244220Y308001D01*
X244294Y307935D01*
X244366Y307866D01*
X244435Y307794D01*
X244501Y307720D01*
X244565Y307642D01*
X244625Y307563D01*
X244682Y307481D01*
X244736Y307397D01*
X244786Y307311D01*
X244833Y307223D01*
X244877Y307133D01*
X244917Y307042D01*
X244953Y306949D01*
X244986Y306855D01*
X245015Y306759D01*
X245040Y306663D01*
X245061Y306566D01*
X245079Y306467D01*
X245092Y306369D01*
X245102Y306269D01*
X245108Y306170D01*
X245110Y306070D01*
X199390Y308610D02*
X199290Y308608D01*
X199191Y308602D01*
X199091Y308592D01*
X198993Y308579D01*
X198894Y308561D01*
X198797Y308540D01*
X198701Y308515D01*
X198605Y308486D01*
X198511Y308453D01*
X198418Y308417D01*
X198327Y308377D01*
X198237Y308333D01*
X198149Y308286D01*
X198063Y308236D01*
X197979Y308182D01*
X197897Y308125D01*
X197818Y308065D01*
X197740Y308001D01*
X197666Y307935D01*
X197594Y307866D01*
X197525Y307794D01*
X197459Y307720D01*
X197395Y307642D01*
X197335Y307563D01*
X197278Y307481D01*
X197224Y307397D01*
X197174Y307311D01*
X197127Y307223D01*
X197083Y307133D01*
X197043Y307042D01*
X197007Y306949D01*
X196974Y306855D01*
X196945Y306759D01*
X196920Y306663D01*
X196899Y306566D01*
X196881Y306467D01*
X196868Y306369D01*
X196858Y306269D01*
X196852Y306170D01*
X196850Y306070D01*
X196850Y290830D02*
X196852Y290730D01*
X196858Y290631D01*
X196868Y290531D01*
X196881Y290433D01*
X196899Y290334D01*
X196920Y290237D01*
X196945Y290141D01*
X196974Y290045D01*
X197007Y289951D01*
X197043Y289858D01*
X197083Y289767D01*
X197127Y289677D01*
X197174Y289589D01*
X197224Y289503D01*
X197278Y289419D01*
X197335Y289337D01*
X197395Y289258D01*
X197459Y289180D01*
X197525Y289106D01*
X197594Y289034D01*
X197666Y288965D01*
X197740Y288899D01*
X197818Y288835D01*
X197897Y288775D01*
X197979Y288718D01*
X198063Y288664D01*
X198149Y288614D01*
X198237Y288567D01*
X198327Y288523D01*
X198418Y288483D01*
X198511Y288447D01*
X198605Y288414D01*
X198701Y288385D01*
X198797Y288360D01*
X198894Y288339D01*
X198993Y288321D01*
X199091Y288308D01*
X199191Y288298D01*
X199290Y288292D01*
X199390Y288290D01*
X242570Y288290D02*
X242670Y288292D01*
X242769Y288298D01*
X242869Y288308D01*
X242967Y288321D01*
X243066Y288339D01*
X243163Y288360D01*
X243259Y288385D01*
X243355Y288414D01*
X243449Y288447D01*
X243542Y288483D01*
X243633Y288523D01*
X243723Y288567D01*
X243811Y288614D01*
X243897Y288664D01*
X243981Y288718D01*
X244063Y288775D01*
X244142Y288835D01*
X244220Y288899D01*
X244294Y288965D01*
X244366Y289034D01*
X244435Y289106D01*
X244501Y289180D01*
X244565Y289258D01*
X244625Y289337D01*
X244682Y289419D01*
X244736Y289503D01*
X244786Y289589D01*
X244833Y289677D01*
X244877Y289767D01*
X244917Y289858D01*
X244953Y289951D01*
X244986Y290045D01*
X245015Y290141D01*
X245040Y290237D01*
X245061Y290334D01*
X245079Y290433D01*
X245092Y290531D01*
X245102Y290631D01*
X245108Y290730D01*
X245110Y290830D01*
X245110Y306070D01*
X196850Y306070D02*
X196850Y290830D01*
X199390Y308610D02*
X242570Y308610D01*
X335280Y127000D02*
X363220Y127000D01*
X365760Y144780D02*
X365758Y144880D01*
X365752Y144979D01*
X365742Y145079D01*
X365729Y145177D01*
X365711Y145276D01*
X365690Y145373D01*
X365665Y145469D01*
X365636Y145565D01*
X365603Y145659D01*
X365567Y145752D01*
X365527Y145843D01*
X365483Y145933D01*
X365436Y146021D01*
X365386Y146107D01*
X365332Y146191D01*
X365275Y146273D01*
X365215Y146352D01*
X365151Y146430D01*
X365085Y146504D01*
X365016Y146576D01*
X364944Y146645D01*
X364870Y146711D01*
X364792Y146775D01*
X364713Y146835D01*
X364631Y146892D01*
X364547Y146946D01*
X364461Y146996D01*
X364373Y147043D01*
X364283Y147087D01*
X364192Y147127D01*
X364099Y147163D01*
X364005Y147196D01*
X363909Y147225D01*
X363813Y147250D01*
X363716Y147271D01*
X363617Y147289D01*
X363519Y147302D01*
X363419Y147312D01*
X363320Y147318D01*
X363220Y147320D01*
X335280Y147320D02*
X335180Y147318D01*
X335081Y147312D01*
X334981Y147302D01*
X334883Y147289D01*
X334784Y147271D01*
X334687Y147250D01*
X334591Y147225D01*
X334495Y147196D01*
X334401Y147163D01*
X334308Y147127D01*
X334217Y147087D01*
X334127Y147043D01*
X334039Y146996D01*
X333953Y146946D01*
X333869Y146892D01*
X333787Y146835D01*
X333708Y146775D01*
X333630Y146711D01*
X333556Y146645D01*
X333484Y146576D01*
X333415Y146504D01*
X333349Y146430D01*
X333285Y146352D01*
X333225Y146273D01*
X333168Y146191D01*
X333114Y146107D01*
X333064Y146021D01*
X333017Y145933D01*
X332973Y145843D01*
X332933Y145752D01*
X332897Y145659D01*
X332864Y145565D01*
X332835Y145469D01*
X332810Y145373D01*
X332789Y145276D01*
X332771Y145177D01*
X332758Y145079D01*
X332748Y144979D01*
X332742Y144880D01*
X332740Y144780D01*
X332740Y129540D02*
X332742Y129440D01*
X332748Y129341D01*
X332758Y129241D01*
X332771Y129143D01*
X332789Y129044D01*
X332810Y128947D01*
X332835Y128851D01*
X332864Y128755D01*
X332897Y128661D01*
X332933Y128568D01*
X332973Y128477D01*
X333017Y128387D01*
X333064Y128299D01*
X333114Y128213D01*
X333168Y128129D01*
X333225Y128047D01*
X333285Y127968D01*
X333349Y127890D01*
X333415Y127816D01*
X333484Y127744D01*
X333556Y127675D01*
X333630Y127609D01*
X333708Y127545D01*
X333787Y127485D01*
X333869Y127428D01*
X333953Y127374D01*
X334039Y127324D01*
X334127Y127277D01*
X334217Y127233D01*
X334308Y127193D01*
X334401Y127157D01*
X334495Y127124D01*
X334591Y127095D01*
X334687Y127070D01*
X334784Y127049D01*
X334883Y127031D01*
X334981Y127018D01*
X335081Y127008D01*
X335180Y127002D01*
X335280Y127000D01*
X363220Y127000D02*
X363320Y127002D01*
X363419Y127008D01*
X363519Y127018D01*
X363617Y127031D01*
X363716Y127049D01*
X363813Y127070D01*
X363909Y127095D01*
X364005Y127124D01*
X364099Y127157D01*
X364192Y127193D01*
X364283Y127233D01*
X364373Y127277D01*
X364461Y127324D01*
X364547Y127374D01*
X364631Y127428D01*
X364713Y127485D01*
X364792Y127545D01*
X364870Y127609D01*
X364944Y127675D01*
X365016Y127744D01*
X365085Y127816D01*
X365151Y127890D01*
X365215Y127968D01*
X365275Y128047D01*
X365332Y128129D01*
X365386Y128213D01*
X365436Y128299D01*
X365483Y128387D01*
X365527Y128477D01*
X365567Y128568D01*
X365603Y128661D01*
X365636Y128755D01*
X365665Y128851D01*
X365690Y128947D01*
X365711Y129044D01*
X365729Y129143D01*
X365742Y129241D01*
X365752Y129341D01*
X365758Y129440D01*
X365760Y129540D01*
X365760Y144780D01*
X332740Y144780D02*
X332740Y129540D01*
X335280Y147320D02*
X363220Y147320D01*
X340995Y81439D02*
X334645Y81439D01*
X334645Y73501D02*
X340995Y73501D01*
X422275Y266859D02*
X428625Y266859D01*
X428625Y258921D02*
X422275Y258921D01*
X302895Y57309D02*
X296545Y57309D01*
X296545Y49371D02*
X302895Y49371D01*
X272415Y57309D02*
X266065Y57309D01*
X266065Y49371D02*
X272415Y49371D01*
X451961Y51435D02*
X451961Y45085D01*
X459899Y45085D02*
X459899Y51435D01*
D16*
X88780Y108960D02*
X73780Y108960D01*
X73780Y139960D02*
X88780Y139960D01*
X88780Y147060D02*
X73780Y147060D01*
X73780Y178060D02*
X88780Y178060D01*
X88780Y185160D02*
X73780Y185160D01*
X73780Y216160D02*
X88780Y216160D01*
D17*
X150980Y237760D02*
X158480Y245260D01*
X288480Y245260D01*
X290980Y242760D01*
X290980Y107760D01*
X288480Y105260D01*
X153480Y105260D01*
X150980Y107760D01*
X150980Y237760D01*
D11*
X232370Y179470D02*
X232440Y179468D01*
X232510Y179462D01*
X232579Y179453D01*
X232648Y179439D01*
X232716Y179422D01*
X232782Y179401D01*
X232848Y179377D01*
X232912Y179349D01*
X232974Y179317D01*
X233035Y179282D01*
X233094Y179244D01*
X233150Y179202D01*
X233204Y179158D01*
X233256Y179110D01*
X233304Y179060D01*
X233350Y179007D01*
X233393Y178952D01*
X233433Y178895D01*
X233470Y178835D01*
X233503Y178773D01*
X233533Y178710D01*
X233559Y178645D01*
X233582Y178579D01*
X233601Y178512D01*
X233616Y178443D01*
X233628Y178374D01*
X233636Y178305D01*
X233640Y178235D01*
X233640Y178165D01*
X233636Y178095D01*
X233628Y178026D01*
X233616Y177957D01*
X233601Y177888D01*
X233582Y177821D01*
X233559Y177755D01*
X233533Y177690D01*
X233503Y177627D01*
X233470Y177565D01*
X233433Y177505D01*
X233393Y177448D01*
X233350Y177393D01*
X233304Y177340D01*
X233256Y177290D01*
X233204Y177242D01*
X233150Y177198D01*
X233094Y177156D01*
X233035Y177118D01*
X232974Y177083D01*
X232912Y177051D01*
X232848Y177023D01*
X232782Y176999D01*
X232716Y176978D01*
X232648Y176961D01*
X232579Y176947D01*
X232510Y176938D01*
X232440Y176932D01*
X232370Y176930D01*
X231730Y174390D02*
X231799Y174388D01*
X231867Y174383D01*
X231935Y174373D01*
X232003Y174360D01*
X232070Y174344D01*
X232136Y174324D01*
X232200Y174300D01*
X232263Y174273D01*
X232325Y174242D01*
X232385Y174208D01*
X232443Y174171D01*
X232499Y174131D01*
X232552Y174088D01*
X232603Y174042D01*
X232652Y173993D01*
X232698Y173942D01*
X232741Y173889D01*
X232781Y173833D01*
X232818Y173775D01*
X232852Y173715D01*
X232883Y173653D01*
X232910Y173590D01*
X232934Y173526D01*
X232954Y173460D01*
X232970Y173393D01*
X232983Y173325D01*
X232993Y173257D01*
X232998Y173189D01*
X233000Y173120D01*
X234908Y175021D02*
X235007Y175093D01*
X235103Y175169D01*
X235197Y175247D01*
X235288Y175328D01*
X235377Y175413D01*
X235463Y175499D01*
X235546Y175589D01*
X235627Y175681D01*
X235704Y175776D01*
X235778Y175873D01*
X235850Y175972D01*
X235918Y176074D01*
X235982Y176178D01*
X236044Y176283D01*
X236102Y176391D01*
X236157Y176500D01*
X236208Y176612D01*
X236255Y176724D01*
X236299Y176838D01*
X236340Y176954D01*
X236376Y177070D01*
X236409Y177188D01*
X236439Y177307D01*
X236464Y177427D01*
X236486Y177547D01*
X236503Y177668D01*
X236517Y177789D01*
X236527Y177911D01*
X236534Y178034D01*
X236536Y178156D01*
X236534Y178278D01*
X236529Y178400D01*
X236520Y178522D01*
X236507Y178644D01*
X236490Y178765D01*
X236469Y178885D01*
X236444Y179005D01*
X236416Y179124D01*
X236383Y179242D01*
X236347Y179359D01*
X236308Y179475D01*
X236264Y179589D01*
X236218Y179702D01*
X236167Y179813D01*
X236113Y179923D01*
X236056Y180031D01*
X235995Y180137D01*
X235931Y180241D01*
X235863Y180344D01*
X235793Y180443D01*
X235719Y180541D01*
X235642Y180636D01*
X235563Y180729D01*
X235480Y180819D01*
X235394Y180906D01*
X235306Y180991D01*
X235215Y181073D01*
X235122Y181152D01*
X235026Y181228D01*
X234928Y181301D01*
X234827Y181370D01*
X234725Y181437D01*
X234620Y181500D01*
X234513Y181560D01*
X234405Y181616D01*
X234294Y181669D01*
X234183Y181719D01*
X234069Y181764D01*
X233954Y181807D01*
X233838Y181845D01*
X233721Y181880D01*
X233603Y181911D01*
X233484Y181939D01*
X233364Y181962D01*
X233243Y181982D01*
X233122Y181998D01*
X233000Y182010D01*
X234909Y175026D02*
X234993Y174985D01*
X235074Y174941D01*
X235154Y174894D01*
X235232Y174843D01*
X235308Y174789D01*
X235382Y174732D01*
X235453Y174673D01*
X235522Y174610D01*
X235588Y174545D01*
X235651Y174476D01*
X235711Y174406D01*
X235769Y174333D01*
X235823Y174257D01*
X235875Y174180D01*
X235923Y174100D01*
X235968Y174019D01*
X236009Y173936D01*
X236047Y173851D01*
X236082Y173765D01*
X236113Y173677D01*
X236140Y173588D01*
X236164Y173498D01*
X236184Y173407D01*
X236200Y173316D01*
X236213Y173224D01*
X236222Y173131D01*
X236227Y173038D01*
X236228Y172945D01*
X236225Y172852D01*
X236219Y172760D01*
X236209Y172667D01*
X236195Y172575D01*
X236177Y172484D01*
X201890Y182010D02*
X196810Y168670D01*
X201890Y182010D02*
X204430Y182010D01*
X208870Y171210D01*
X208870Y182010D01*
X211410Y182010D01*
X211410Y179470D01*
X211410Y171210D01*
X215860Y171210D01*
X215860Y179470D01*
X211410Y179470D01*
X211410Y182010D02*
X222210Y182010D01*
X222210Y179470D01*
X218400Y179470D01*
X218400Y168670D01*
X206970Y168670D01*
X205700Y171210D01*
X200620Y171210D01*
X199350Y168670D01*
X196810Y168670D01*
X201250Y173750D02*
X203160Y179470D01*
X205060Y173750D02*
X201250Y173750D01*
X205060Y173750D02*
X203160Y179470D01*
X222210Y179470D02*
X222210Y176930D01*
X227290Y176930D01*
X227290Y179470D01*
X222210Y179470D01*
X222210Y182010D02*
X233000Y182010D01*
X242530Y182010D02*
X247610Y168670D01*
X242530Y182010D02*
X239990Y182010D01*
X236180Y173120D01*
X237450Y168670D02*
X233000Y168670D01*
X237450Y168670D02*
X238720Y171210D01*
X243800Y171210D01*
X245070Y168670D01*
X247610Y168670D01*
X243160Y173750D02*
X241260Y179470D01*
X243160Y173750D02*
X239350Y173750D01*
X241260Y179470D01*
X232370Y179470D02*
X230460Y179470D01*
X230460Y176930D01*
X232370Y176930D01*
X231730Y174390D02*
X230460Y174390D01*
X230460Y168670D01*
X219030Y168670D01*
X222210Y174390D02*
X227290Y174390D01*
X227290Y171850D01*
X222210Y171850D01*
X222210Y174390D01*
X233000Y173120D02*
X233000Y168670D01*
D17*
X158481Y235260D02*
X158483Y235359D01*
X158489Y235459D01*
X158499Y235557D01*
X158513Y235656D01*
X158530Y235754D01*
X158552Y235851D01*
X158577Y235947D01*
X158606Y236042D01*
X158639Y236135D01*
X158676Y236228D01*
X158716Y236319D01*
X158760Y236408D01*
X158808Y236495D01*
X158858Y236581D01*
X158913Y236664D01*
X158970Y236745D01*
X159031Y236824D01*
X159094Y236900D01*
X159161Y236974D01*
X159231Y237045D01*
X159303Y237113D01*
X159378Y237178D01*
X159455Y237240D01*
X159535Y237299D01*
X159618Y237355D01*
X159702Y237407D01*
X159788Y237457D01*
X159877Y237502D01*
X159967Y237544D01*
X160058Y237583D01*
X160151Y237618D01*
X160246Y237649D01*
X160341Y237676D01*
X160438Y237699D01*
X160535Y237719D01*
X160633Y237735D01*
X160732Y237747D01*
X160831Y237755D01*
X160930Y237759D01*
X161030Y237759D01*
X161129Y237755D01*
X161228Y237747D01*
X161327Y237735D01*
X161425Y237719D01*
X161522Y237699D01*
X161619Y237676D01*
X161714Y237649D01*
X161809Y237618D01*
X161902Y237583D01*
X161993Y237544D01*
X162083Y237502D01*
X162172Y237457D01*
X162258Y237407D01*
X162342Y237355D01*
X162425Y237299D01*
X162505Y237240D01*
X162582Y237178D01*
X162657Y237113D01*
X162729Y237045D01*
X162799Y236974D01*
X162866Y236900D01*
X162929Y236824D01*
X162990Y236745D01*
X163047Y236664D01*
X163102Y236581D01*
X163152Y236495D01*
X163200Y236408D01*
X163244Y236319D01*
X163284Y236228D01*
X163321Y236135D01*
X163354Y236042D01*
X163383Y235947D01*
X163408Y235851D01*
X163430Y235754D01*
X163447Y235656D01*
X163461Y235557D01*
X163471Y235459D01*
X163477Y235359D01*
X163479Y235260D01*
X163477Y235161D01*
X163471Y235061D01*
X163461Y234963D01*
X163447Y234864D01*
X163430Y234766D01*
X163408Y234669D01*
X163383Y234573D01*
X163354Y234478D01*
X163321Y234385D01*
X163284Y234292D01*
X163244Y234201D01*
X163200Y234112D01*
X163152Y234025D01*
X163102Y233939D01*
X163047Y233856D01*
X162990Y233775D01*
X162929Y233696D01*
X162866Y233620D01*
X162799Y233546D01*
X162729Y233475D01*
X162657Y233407D01*
X162582Y233342D01*
X162505Y233280D01*
X162425Y233221D01*
X162342Y233165D01*
X162258Y233113D01*
X162172Y233063D01*
X162083Y233018D01*
X161993Y232976D01*
X161902Y232937D01*
X161809Y232902D01*
X161714Y232871D01*
X161619Y232844D01*
X161522Y232821D01*
X161425Y232801D01*
X161327Y232785D01*
X161228Y232773D01*
X161129Y232765D01*
X161030Y232761D01*
X160930Y232761D01*
X160831Y232765D01*
X160732Y232773D01*
X160633Y232785D01*
X160535Y232801D01*
X160438Y232821D01*
X160341Y232844D01*
X160246Y232871D01*
X160151Y232902D01*
X160058Y232937D01*
X159967Y232976D01*
X159877Y233018D01*
X159788Y233063D01*
X159702Y233113D01*
X159618Y233165D01*
X159535Y233221D01*
X159455Y233280D01*
X159378Y233342D01*
X159303Y233407D01*
X159231Y233475D01*
X159161Y233546D01*
X159094Y233620D01*
X159031Y233696D01*
X158970Y233775D01*
X158913Y233856D01*
X158858Y233939D01*
X158808Y234025D01*
X158760Y234112D01*
X158716Y234201D01*
X158676Y234292D01*
X158639Y234385D01*
X158606Y234478D01*
X158577Y234573D01*
X158552Y234669D01*
X158530Y234766D01*
X158513Y234864D01*
X158499Y234963D01*
X158489Y235061D01*
X158483Y235161D01*
X158481Y235260D01*
D18*
X195718Y158212D02*
X195718Y150840D01*
X193261Y158212D02*
X198176Y158212D01*
X200745Y156984D02*
X200745Y152069D01*
X200745Y156984D02*
X201974Y158212D01*
X204431Y158212D01*
X205660Y156984D01*
X205660Y152069D01*
X204431Y150840D01*
X201974Y150840D01*
X200745Y152069D01*
X203203Y153297D02*
X205660Y150840D01*
X208229Y150840D02*
X208229Y158212D01*
X213144Y158212D01*
X210687Y154526D02*
X208229Y154526D01*
X215713Y150840D02*
X215713Y158212D01*
X219400Y158212D01*
X220628Y156984D01*
X220628Y154526D01*
X219400Y153297D01*
X215713Y153297D01*
X230682Y155755D02*
X233139Y158212D01*
X233139Y150840D01*
X230682Y150840D02*
X235597Y150840D01*
X238166Y152069D02*
X238166Y156984D01*
X239395Y158212D01*
X241852Y158212D01*
X243081Y156984D01*
X243081Y152069D01*
X241852Y150840D01*
X239395Y150840D01*
X238166Y152069D01*
X243081Y156984D01*
X245650Y156984D02*
X245650Y152069D01*
X245650Y156984D02*
X246879Y158212D01*
X249336Y158212D01*
X250565Y156984D01*
X250565Y152069D01*
X249336Y150840D01*
X246879Y150840D01*
X245650Y152069D01*
X250565Y156984D01*
D19*
X144230Y235260D03*
D20*
X144230Y230260D03*
D19*
X144230Y225260D03*
D20*
X144230Y220260D03*
D19*
X144230Y215260D03*
D20*
X144230Y210260D03*
D19*
X144230Y205260D03*
D20*
X144230Y200260D03*
D19*
X144230Y195260D03*
D20*
X144230Y190260D03*
D19*
X144230Y185260D03*
D20*
X144230Y180260D03*
D19*
X144230Y175260D03*
D20*
X144230Y170260D03*
D19*
X144230Y165260D03*
D20*
X144230Y160260D03*
D19*
X144230Y155260D03*
D20*
X144230Y150260D03*
D19*
X144230Y145260D03*
D20*
X144230Y140260D03*
D19*
X144230Y135260D03*
D20*
X144230Y130260D03*
D19*
X144230Y125260D03*
D20*
X144230Y120260D03*
D19*
X144230Y115260D03*
D21*
X160980Y98510D03*
D22*
X165980Y98510D03*
D21*
X170980Y98510D03*
D22*
X175980Y98510D03*
D21*
X180980Y98510D03*
D22*
X185980Y98510D03*
D21*
X190980Y98510D03*
D22*
X195980Y98510D03*
D21*
X200980Y98510D03*
D22*
X205980Y98510D03*
D21*
X210980Y98510D03*
D22*
X215980Y98510D03*
D21*
X220980Y98510D03*
D22*
X225980Y98510D03*
D21*
X230980Y98510D03*
D22*
X235980Y98510D03*
D21*
X240980Y98510D03*
D22*
X245980Y98510D03*
D21*
X250980Y98510D03*
D22*
X255980Y98510D03*
D21*
X260980Y98510D03*
D22*
X265980Y98510D03*
D21*
X270980Y98510D03*
D22*
X275980Y98510D03*
D21*
X280980Y98510D03*
D19*
X297730Y115260D03*
D20*
X297730Y120260D03*
D19*
X297730Y125260D03*
D20*
X297730Y130260D03*
D19*
X297730Y135260D03*
D20*
X297730Y140260D03*
D19*
X297730Y145260D03*
D20*
X297730Y150260D03*
D19*
X297730Y155260D03*
D20*
X297730Y160260D03*
D19*
X297730Y165260D03*
D20*
X297730Y170260D03*
D19*
X297730Y175260D03*
D20*
X297730Y180260D03*
D19*
X297730Y185260D03*
D20*
X297730Y190260D03*
D19*
X297730Y195260D03*
D20*
X297730Y200260D03*
D19*
X297730Y205260D03*
D20*
X297730Y210260D03*
D19*
X297730Y215260D03*
D20*
X297730Y220260D03*
D19*
X297730Y225260D03*
D20*
X297730Y230260D03*
D19*
X297730Y235260D03*
D21*
X280980Y252010D03*
D22*
X275980Y252010D03*
D21*
X270980Y252010D03*
D22*
X265980Y252010D03*
D21*
X260980Y252010D03*
D22*
X255980Y252010D03*
D21*
X250980Y252010D03*
D22*
X245980Y252010D03*
D21*
X240980Y252010D03*
D22*
X235980Y252010D03*
D21*
X230980Y252010D03*
D22*
X225980Y252010D03*
D21*
X220980Y252010D03*
D22*
X215980Y252010D03*
D21*
X210980Y252010D03*
D22*
X205980Y252010D03*
D21*
X200980Y252010D03*
D22*
X195980Y252010D03*
D21*
X190980Y252010D03*
D22*
X185980Y252010D03*
D21*
X180980Y252010D03*
D22*
X175980Y252010D03*
D21*
X170980Y252010D03*
D22*
X165980Y252010D03*
D21*
X160980Y252010D03*
D12*
X349730Y230260D02*
X349732Y230359D01*
X349738Y230459D01*
X349748Y230558D01*
X349762Y230656D01*
X349779Y230754D01*
X349801Y230851D01*
X349826Y230947D01*
X349855Y231042D01*
X349888Y231136D01*
X349925Y231228D01*
X349965Y231319D01*
X350009Y231408D01*
X350057Y231496D01*
X350108Y231581D01*
X350162Y231664D01*
X350219Y231746D01*
X350280Y231824D01*
X350344Y231901D01*
X350410Y231974D01*
X350480Y232045D01*
X350552Y232113D01*
X350627Y232179D01*
X350705Y232241D01*
X350785Y232300D01*
X350867Y232356D01*
X350951Y232408D01*
X351038Y232457D01*
X351126Y232503D01*
X351216Y232545D01*
X351308Y232584D01*
X351401Y232619D01*
X351495Y232650D01*
X351591Y232677D01*
X351688Y232700D01*
X351785Y232720D01*
X351883Y232736D01*
X351982Y232748D01*
X352081Y232756D01*
X352180Y232760D01*
X352280Y232760D01*
X352379Y232756D01*
X352478Y232748D01*
X352577Y232736D01*
X352675Y232720D01*
X352772Y232700D01*
X352869Y232677D01*
X352965Y232650D01*
X353059Y232619D01*
X353152Y232584D01*
X353244Y232545D01*
X353334Y232503D01*
X353422Y232457D01*
X353509Y232408D01*
X353593Y232356D01*
X353675Y232300D01*
X353755Y232241D01*
X353833Y232179D01*
X353908Y232113D01*
X353980Y232045D01*
X354050Y231974D01*
X354116Y231901D01*
X354180Y231824D01*
X354241Y231746D01*
X354298Y231664D01*
X354352Y231581D01*
X354403Y231496D01*
X354451Y231408D01*
X354495Y231319D01*
X354535Y231228D01*
X354572Y231136D01*
X354605Y231042D01*
X354634Y230947D01*
X354659Y230851D01*
X354681Y230754D01*
X354698Y230656D01*
X354712Y230558D01*
X354722Y230459D01*
X354728Y230359D01*
X354730Y230260D01*
X354728Y230161D01*
X354722Y230061D01*
X354712Y229962D01*
X354698Y229864D01*
X354681Y229766D01*
X354659Y229669D01*
X354634Y229573D01*
X354605Y229478D01*
X354572Y229384D01*
X354535Y229292D01*
X354495Y229201D01*
X354451Y229112D01*
X354403Y229024D01*
X354352Y228939D01*
X354298Y228856D01*
X354241Y228774D01*
X354180Y228696D01*
X354116Y228619D01*
X354050Y228546D01*
X353980Y228475D01*
X353908Y228407D01*
X353833Y228341D01*
X353755Y228279D01*
X353675Y228220D01*
X353593Y228164D01*
X353509Y228112D01*
X353422Y228063D01*
X353334Y228017D01*
X353244Y227975D01*
X353152Y227936D01*
X353059Y227901D01*
X352965Y227870D01*
X352869Y227843D01*
X352772Y227820D01*
X352675Y227800D01*
X352577Y227784D01*
X352478Y227772D01*
X352379Y227764D01*
X352280Y227760D01*
X352180Y227760D01*
X352081Y227764D01*
X351982Y227772D01*
X351883Y227784D01*
X351785Y227800D01*
X351688Y227820D01*
X351591Y227843D01*
X351495Y227870D01*
X351401Y227901D01*
X351308Y227936D01*
X351216Y227975D01*
X351126Y228017D01*
X351038Y228063D01*
X350951Y228112D01*
X350867Y228164D01*
X350785Y228220D01*
X350705Y228279D01*
X350627Y228341D01*
X350552Y228407D01*
X350480Y228475D01*
X350410Y228546D01*
X350344Y228619D01*
X350280Y228696D01*
X350219Y228774D01*
X350162Y228856D01*
X350108Y228939D01*
X350057Y229024D01*
X350009Y229112D01*
X349965Y229201D01*
X349925Y229292D01*
X349888Y229384D01*
X349855Y229478D01*
X349826Y229573D01*
X349801Y229669D01*
X349779Y229766D01*
X349762Y229864D01*
X349748Y229962D01*
X349738Y230061D01*
X349732Y230161D01*
X349730Y230260D01*
X349730Y237760D02*
X412230Y237760D01*
X412230Y167760D02*
X347230Y167760D01*
X344730Y170260D02*
X344730Y232760D01*
X414730Y235260D02*
X414730Y170260D01*
X349730Y237760D02*
X344730Y232760D01*
X412230Y237760D02*
X414730Y235260D01*
X414730Y170260D02*
X412230Y167760D01*
X347230Y167760D02*
X344730Y170260D01*
X345280Y54510D02*
X325280Y54510D01*
X345280Y54510D02*
X345280Y46054D01*
X345280Y42010D01*
X325280Y42010D01*
X325280Y46054D01*
X325280Y54510D01*
X325280Y46054D02*
X345280Y46054D01*
D14*
X206680Y83910D02*
X6680Y83910D01*
X206680Y83910D02*
X206680Y-90D01*
X166060Y-90D01*
X166060Y2910D01*
X151270Y2910D01*
X151270Y-90D01*
X125510Y-90D01*
X125510Y15410D01*
X87850Y15410D01*
X87850Y-90D01*
X125510Y-90D01*
X87850Y-90D02*
X6680Y-90D01*
X6680Y83910D01*
X17930Y74660D02*
X195430Y74660D01*
X195430Y9160D01*
X125510Y9160D01*
X87850Y9160D02*
X17930Y9160D01*
X17930Y74660D01*
D12*
X232410Y75184D02*
X232410Y32004D01*
X212090Y75184D02*
X212092Y75284D01*
X212098Y75383D01*
X212108Y75483D01*
X212121Y75581D01*
X212139Y75680D01*
X212160Y75777D01*
X212185Y75873D01*
X212214Y75969D01*
X212247Y76063D01*
X212283Y76156D01*
X212323Y76247D01*
X212367Y76337D01*
X212414Y76425D01*
X212464Y76511D01*
X212518Y76595D01*
X212575Y76677D01*
X212635Y76756D01*
X212699Y76834D01*
X212765Y76908D01*
X212834Y76980D01*
X212906Y77049D01*
X212980Y77115D01*
X213058Y77179D01*
X213137Y77239D01*
X213219Y77296D01*
X213303Y77350D01*
X213389Y77400D01*
X213477Y77447D01*
X213567Y77491D01*
X213658Y77531D01*
X213751Y77567D01*
X213845Y77600D01*
X213941Y77629D01*
X214037Y77654D01*
X214134Y77675D01*
X214233Y77693D01*
X214331Y77706D01*
X214431Y77716D01*
X214530Y77722D01*
X214630Y77724D01*
X212090Y32004D02*
X212092Y31904D01*
X212098Y31805D01*
X212108Y31705D01*
X212121Y31607D01*
X212139Y31508D01*
X212160Y31411D01*
X212185Y31315D01*
X212214Y31219D01*
X212247Y31125D01*
X212283Y31032D01*
X212323Y30941D01*
X212367Y30851D01*
X212414Y30763D01*
X212464Y30677D01*
X212518Y30593D01*
X212575Y30511D01*
X212635Y30432D01*
X212699Y30354D01*
X212765Y30280D01*
X212834Y30208D01*
X212906Y30139D01*
X212980Y30073D01*
X213058Y30009D01*
X213137Y29949D01*
X213219Y29892D01*
X213303Y29838D01*
X213389Y29788D01*
X213477Y29741D01*
X213567Y29697D01*
X213658Y29657D01*
X213751Y29621D01*
X213845Y29588D01*
X213941Y29559D01*
X214037Y29534D01*
X214134Y29513D01*
X214233Y29495D01*
X214331Y29482D01*
X214431Y29472D01*
X214530Y29466D01*
X214630Y29464D01*
X229870Y29464D02*
X229970Y29466D01*
X230069Y29472D01*
X230169Y29482D01*
X230267Y29495D01*
X230366Y29513D01*
X230463Y29534D01*
X230559Y29559D01*
X230655Y29588D01*
X230749Y29621D01*
X230842Y29657D01*
X230933Y29697D01*
X231023Y29741D01*
X231111Y29788D01*
X231197Y29838D01*
X231281Y29892D01*
X231363Y29949D01*
X231442Y30009D01*
X231520Y30073D01*
X231594Y30139D01*
X231666Y30208D01*
X231735Y30280D01*
X231801Y30354D01*
X231865Y30432D01*
X231925Y30511D01*
X231982Y30593D01*
X232036Y30677D01*
X232086Y30763D01*
X232133Y30851D01*
X232177Y30941D01*
X232217Y31032D01*
X232253Y31125D01*
X232286Y31219D01*
X232315Y31315D01*
X232340Y31411D01*
X232361Y31508D01*
X232379Y31607D01*
X232392Y31705D01*
X232402Y31805D01*
X232408Y31904D01*
X232410Y32004D01*
X232410Y75184D02*
X232408Y75284D01*
X232402Y75383D01*
X232392Y75483D01*
X232379Y75581D01*
X232361Y75680D01*
X232340Y75777D01*
X232315Y75873D01*
X232286Y75969D01*
X232253Y76063D01*
X232217Y76156D01*
X232177Y76247D01*
X232133Y76337D01*
X232086Y76425D01*
X232036Y76511D01*
X231982Y76595D01*
X231925Y76677D01*
X231865Y76756D01*
X231801Y76834D01*
X231735Y76908D01*
X231666Y76980D01*
X231594Y77049D01*
X231520Y77115D01*
X231442Y77179D01*
X231363Y77239D01*
X231281Y77296D01*
X231197Y77350D01*
X231111Y77400D01*
X231023Y77447D01*
X230933Y77491D01*
X230842Y77531D01*
X230749Y77567D01*
X230655Y77600D01*
X230559Y77629D01*
X230463Y77654D01*
X230366Y77675D01*
X230267Y77693D01*
X230169Y77706D01*
X230069Y77716D01*
X229970Y77722D01*
X229870Y77724D01*
X214630Y77724D01*
X214630Y29464D02*
X229870Y29464D01*
X212090Y32004D02*
X212090Y75184D01*
M02*
