G04 EAGLE Gerber RS-274X export*
G75*
%MOMM*%
%FSLAX34Y34*%
%LPD*%
%INLötstopplack top*%
%IPPOS*%
%AMOC8*
5,1,8,0,0,1.08239X$1,22.5*%
G01*
%ADD10C,0.000000*%
%ADD11R,2.641600X1.371600*%
%ADD12R,1.401600X1.601600*%
%ADD13R,1.701600X1.901600*%
%ADD14R,2.801600X1.701600*%
%ADD15R,1.601600X1.401600*%
%ADD16R,1.701600X0.901600*%
%ADD17R,1.101600X1.201600*%
%ADD18R,1.270000X1.701800*%
%ADD19R,0.152400X1.828800*%
%ADD20R,1.201600X1.101600*%
%ADD21R,1.000000X0.600000*%
%ADD22R,1.601600X0.741600*%
%ADD23R,1.601600X0.421600*%
%ADD24R,0.741600X1.601600*%
%ADD25R,0.421600X1.601600*%
%ADD26R,1.101600X0.701600*%
%ADD27R,1.101600X0.401600*%
%ADD28R,0.701600X1.101600*%
%ADD29R,0.401600X1.101600*%
%ADD30R,0.501600X1.151600*%
%ADD31C,1.609600*%
%ADD32R,1.701800X1.270000*%


D10*
X6350Y0D02*
X499110Y0D01*
X505460Y6350D02*
X505460Y304800D01*
X499110Y311150D02*
X6350Y311150D01*
X0Y304800D02*
X0Y6350D01*
X6350Y0D01*
X0Y304800D02*
X6350Y311150D01*
X499110Y311150D02*
X505460Y304800D01*
X505460Y6350D02*
X499110Y0D01*
D11*
X490220Y156210D03*
D12*
X47650Y289560D03*
X66650Y289560D03*
X368960Y59690D03*
X387960Y59690D03*
D13*
X365730Y27940D03*
X393730Y27940D03*
D14*
X424180Y57180D03*
X424180Y29180D03*
D15*
X88900Y268630D03*
X88900Y287630D03*
X133350Y269900D03*
X133350Y288900D03*
D12*
X468020Y295910D03*
X487020Y295910D03*
X370180Y295910D03*
X351180Y295910D03*
D16*
X11430Y213360D03*
D11*
X490220Y105410D03*
X490220Y86360D03*
X490220Y41910D03*
D16*
X11430Y111760D03*
X11430Y124460D03*
X11430Y137160D03*
X11430Y149860D03*
X11430Y162560D03*
X11430Y175260D03*
X11430Y187960D03*
X11430Y200660D03*
D17*
X49920Y264160D03*
X66920Y264160D03*
X400440Y295910D03*
X417440Y295910D03*
D11*
X490220Y175260D03*
D18*
X205740Y298450D03*
X220980Y298450D03*
X236220Y298450D03*
X341630Y137160D03*
X356870Y137160D03*
D19*
X349250Y137160D03*
D11*
X15240Y264160D03*
X490220Y238760D03*
X490220Y130810D03*
X15240Y289560D03*
X490220Y264160D03*
D17*
X329320Y77470D03*
X346320Y77470D03*
X416950Y262890D03*
X433950Y262890D03*
X291220Y53340D03*
X308220Y53340D03*
X260740Y53340D03*
X277740Y53340D03*
D20*
X455930Y39760D03*
X455930Y56760D03*
D11*
X490220Y194310D03*
D21*
X73280Y136460D03*
X73280Y128460D03*
X73280Y120460D03*
X73280Y112460D03*
X89280Y112460D03*
X89280Y120460D03*
X89280Y128460D03*
X89280Y136460D03*
X73280Y174560D03*
X73280Y166560D03*
X73280Y158560D03*
X73280Y150560D03*
X89280Y150560D03*
X89280Y158560D03*
X89280Y166560D03*
X89280Y174560D03*
X73280Y212660D03*
X73280Y204660D03*
X73280Y196660D03*
X73280Y188660D03*
X89280Y188660D03*
X89280Y196660D03*
X89280Y204660D03*
X89280Y212660D03*
D11*
X490220Y22860D03*
D22*
X140980Y236860D03*
D23*
X140980Y230260D03*
X140980Y225260D03*
X140980Y220260D03*
X140980Y215260D03*
X140980Y210260D03*
X140980Y205260D03*
X140980Y200260D03*
X140980Y195260D03*
X140980Y190260D03*
X140980Y185260D03*
X140980Y180260D03*
X140980Y175260D03*
X140980Y170260D03*
X140980Y165260D03*
X140980Y160260D03*
X140980Y155260D03*
X140980Y150260D03*
X140980Y145260D03*
X140980Y140260D03*
X140980Y135260D03*
X140980Y130260D03*
X140980Y125260D03*
X140980Y120260D03*
D22*
X140980Y113660D03*
D24*
X159380Y95260D03*
D25*
X165980Y95260D03*
X170980Y95260D03*
X175980Y95260D03*
X180980Y95260D03*
X185980Y95260D03*
X190980Y95260D03*
X195980Y95260D03*
X200980Y95260D03*
X205980Y95260D03*
X210980Y95260D03*
X215980Y95260D03*
X220980Y95260D03*
X225980Y95260D03*
X230980Y95260D03*
X235980Y95260D03*
X240980Y95260D03*
X245980Y95260D03*
X250980Y95260D03*
X255980Y95260D03*
X260980Y95260D03*
X265980Y95260D03*
X270980Y95260D03*
X275980Y95260D03*
D24*
X282580Y95260D03*
D22*
X300980Y113660D03*
D23*
X300980Y120260D03*
X300980Y125260D03*
X300980Y130260D03*
X300980Y135260D03*
X300980Y140260D03*
X300980Y145260D03*
X300980Y150260D03*
X300980Y155260D03*
X300980Y160260D03*
X300980Y165260D03*
X300980Y170260D03*
X300980Y175260D03*
X300980Y180260D03*
X300980Y185260D03*
X300980Y190260D03*
X300980Y195260D03*
X300980Y200260D03*
X300980Y205260D03*
X300980Y210260D03*
X300980Y215260D03*
X300980Y220260D03*
X300980Y225260D03*
X300980Y230260D03*
D22*
X300980Y236860D03*
D24*
X282580Y255260D03*
D25*
X275980Y255260D03*
X270980Y255260D03*
X265980Y255260D03*
X260980Y255260D03*
X255980Y255260D03*
X250980Y255260D03*
X245980Y255260D03*
X240980Y255260D03*
X235980Y255260D03*
X230980Y255260D03*
X225980Y255260D03*
X220980Y255260D03*
X215980Y255260D03*
X210980Y255260D03*
X205980Y255260D03*
X200980Y255260D03*
X195980Y255260D03*
X190980Y255260D03*
X185980Y255260D03*
X180980Y255260D03*
X175980Y255260D03*
X170980Y255260D03*
X165980Y255260D03*
D24*
X159380Y255260D03*
D26*
X337230Y231760D03*
D27*
X337230Y225260D03*
X337230Y220260D03*
X337230Y215260D03*
X337230Y210260D03*
X337230Y205260D03*
X337230Y200260D03*
X337230Y195260D03*
X337230Y190260D03*
X337230Y185260D03*
X337230Y180260D03*
D26*
X337230Y173760D03*
D28*
X350730Y160260D03*
D29*
X357230Y160260D03*
X362230Y160260D03*
X367230Y160260D03*
X372230Y160260D03*
X377230Y160260D03*
X382230Y160260D03*
X387230Y160260D03*
X392230Y160260D03*
X397230Y160260D03*
X402230Y160260D03*
D28*
X408730Y160260D03*
D26*
X422230Y173760D03*
D27*
X422230Y180260D03*
X422230Y185260D03*
X422230Y190260D03*
X422230Y195260D03*
X422230Y200260D03*
X422230Y205260D03*
X422230Y210260D03*
X422230Y215260D03*
X422230Y220260D03*
X422230Y225260D03*
D26*
X422230Y231760D03*
D28*
X408730Y245260D03*
D29*
X402230Y245260D03*
X397230Y245260D03*
X392230Y245260D03*
X387230Y245260D03*
X382230Y245260D03*
X377230Y245260D03*
X372230Y245260D03*
X367230Y245260D03*
X362230Y245260D03*
X357230Y245260D03*
D28*
X350730Y245260D03*
D30*
X328780Y39010D03*
X335280Y39010D03*
X341780Y39010D03*
X341780Y57510D03*
X335280Y57510D03*
X328780Y57510D03*
D31*
X55880Y29210D03*
X55880Y54610D03*
X81280Y29210D03*
X81280Y54610D03*
X106680Y29210D03*
X106680Y54610D03*
X132080Y29210D03*
X132080Y54610D03*
X157480Y29210D03*
X157480Y54610D03*
D11*
X15494Y93218D03*
D32*
X222250Y38354D03*
X222250Y53594D03*
X222250Y68834D03*
D16*
X11430Y226060D03*
X11430Y238760D03*
M02*
