G04 EAGLE Gerber RS-274X export*
G75*
%MOMM*%
%FSLAX34Y34*%
%LPD*%
%INunten Kupfer*%
%IPPOS*%
%AMOC8*
5,1,8,0,0,1.08239X$1,22.5*%
G01*
%ADD10C,0.000000*%
%ADD11R,1.000000X1.100000*%
%ADD12R,1.100000X1.000000*%
%ADD13R,0.500000X0.900000*%
%ADD14R,0.550000X1.200000*%
%ADD15C,1.508000*%
%ADD16R,1.600200X1.168400*%
%ADD17C,0.804800*%
%ADD18C,0.704800*%
%ADD19C,0.508000*%
%ADD20C,1.016000*%
%ADD21C,0.609600*%
%ADD22C,0.406400*%
%ADD23C,0.203200*%
%ADD24C,0.800000*%
%ADD25C,0.812800*%
%ADD26C,0.304800*%
%ADD27C,0.254000*%
%ADD28C,0.654800*%

G36*
X497630Y2553D02*
X497630Y2553D01*
X497729Y2556D01*
X497787Y2573D01*
X497847Y2581D01*
X497939Y2617D01*
X498035Y2645D01*
X498087Y2675D01*
X498143Y2698D01*
X498223Y2756D01*
X498308Y2806D01*
X498384Y2872D01*
X498400Y2884D01*
X498408Y2894D01*
X498429Y2912D01*
X502548Y7031D01*
X502608Y7109D01*
X502676Y7181D01*
X502705Y7234D01*
X502742Y7282D01*
X502782Y7373D01*
X502830Y7460D01*
X502845Y7518D01*
X502869Y7574D01*
X502884Y7672D01*
X502909Y7767D01*
X502915Y7868D01*
X502919Y7888D01*
X502917Y7900D01*
X502919Y7928D01*
X502919Y303222D01*
X502907Y303320D01*
X502904Y303419D01*
X502887Y303477D01*
X502879Y303537D01*
X502843Y303629D01*
X502815Y303725D01*
X502785Y303777D01*
X502762Y303833D01*
X502704Y303913D01*
X502654Y303998D01*
X502588Y304074D01*
X502576Y304090D01*
X502566Y304098D01*
X502548Y304119D01*
X498429Y308238D01*
X498351Y308298D01*
X498279Y308366D01*
X498226Y308395D01*
X498178Y308432D01*
X498087Y308472D01*
X498000Y308520D01*
X497942Y308535D01*
X497886Y308559D01*
X497788Y308574D01*
X497693Y308599D01*
X497592Y308605D01*
X497572Y308609D01*
X497560Y308607D01*
X497532Y308609D01*
X167898Y308609D01*
X167760Y308592D01*
X167622Y308579D01*
X167603Y308572D01*
X167583Y308569D01*
X167453Y308518D01*
X167322Y308471D01*
X167306Y308460D01*
X167287Y308452D01*
X167174Y308371D01*
X167059Y308293D01*
X167046Y308277D01*
X167030Y308266D01*
X166941Y308158D01*
X166849Y308054D01*
X166840Y308036D01*
X166827Y308021D01*
X166767Y307895D01*
X166704Y307771D01*
X166700Y307751D01*
X166691Y307733D01*
X166665Y307596D01*
X166635Y307461D01*
X166635Y307440D01*
X166631Y307421D01*
X166640Y307282D01*
X166644Y307143D01*
X166650Y307123D01*
X166651Y307103D01*
X166694Y306971D01*
X166733Y306837D01*
X166743Y306820D01*
X166749Y306801D01*
X166824Y306683D01*
X166894Y306563D01*
X166913Y306542D01*
X166919Y306532D01*
X166934Y306518D01*
X167001Y306442D01*
X167053Y306390D01*
X167388Y305811D01*
X167561Y305164D01*
X167561Y301829D01*
X161250Y301829D01*
X161132Y301814D01*
X161013Y301807D01*
X160975Y301794D01*
X160935Y301789D01*
X160824Y301746D01*
X160711Y301709D01*
X160677Y301687D01*
X160639Y301672D01*
X160543Y301603D01*
X160442Y301539D01*
X160414Y301509D01*
X160382Y301486D01*
X160306Y301394D01*
X160224Y301307D01*
X160205Y301272D01*
X160179Y301241D01*
X160128Y301133D01*
X160071Y301029D01*
X160061Y300989D01*
X160043Y300953D01*
X160023Y300846D01*
X160019Y300876D01*
X159975Y300986D01*
X159939Y301099D01*
X159917Y301134D01*
X159902Y301171D01*
X159832Y301267D01*
X159769Y301368D01*
X159739Y301396D01*
X159715Y301429D01*
X159624Y301505D01*
X159537Y301586D01*
X159502Y301606D01*
X159470Y301631D01*
X159363Y301682D01*
X159258Y301740D01*
X159219Y301750D01*
X159183Y301767D01*
X159066Y301789D01*
X158950Y301819D01*
X158890Y301823D01*
X158870Y301827D01*
X158850Y301825D01*
X158790Y301829D01*
X152479Y301829D01*
X152479Y305164D01*
X152652Y305811D01*
X152987Y306390D01*
X153039Y306442D01*
X153124Y306552D01*
X153213Y306659D01*
X153222Y306678D01*
X153234Y306694D01*
X153290Y306822D01*
X153349Y306947D01*
X153353Y306967D01*
X153361Y306986D01*
X153383Y307123D01*
X153409Y307260D01*
X153407Y307280D01*
X153411Y307300D01*
X153398Y307438D01*
X153389Y307577D01*
X153383Y307596D01*
X153381Y307616D01*
X153334Y307747D01*
X153291Y307879D01*
X153280Y307896D01*
X153273Y307916D01*
X153195Y308031D01*
X153121Y308148D01*
X153106Y308162D01*
X153095Y308179D01*
X152990Y308271D01*
X152889Y308366D01*
X152871Y308376D01*
X152856Y308389D01*
X152732Y308453D01*
X152611Y308520D01*
X152591Y308525D01*
X152573Y308534D01*
X152437Y308564D01*
X152303Y308599D01*
X152275Y308601D01*
X152263Y308604D01*
X152242Y308603D01*
X152142Y308609D01*
X142907Y308609D01*
X142770Y308592D01*
X142631Y308579D01*
X142612Y308572D01*
X142592Y308569D01*
X142463Y308518D01*
X142332Y308471D01*
X142315Y308460D01*
X142296Y308452D01*
X142184Y308371D01*
X142069Y308293D01*
X142055Y308277D01*
X142039Y308266D01*
X141950Y308158D01*
X141858Y308054D01*
X141849Y308036D01*
X141836Y308021D01*
X141777Y307895D01*
X141713Y307771D01*
X141709Y307751D01*
X141700Y307733D01*
X141674Y307597D01*
X141644Y307461D01*
X141644Y307440D01*
X141641Y307421D01*
X141649Y307282D01*
X141653Y307143D01*
X141659Y307123D01*
X141660Y307103D01*
X141703Y306971D01*
X141742Y306837D01*
X141752Y306820D01*
X141758Y306801D01*
X141833Y306683D01*
X141903Y306563D01*
X141922Y306542D01*
X141929Y306532D01*
X141944Y306518D01*
X142010Y306443D01*
X143765Y304688D01*
X143765Y291543D01*
X143771Y291493D01*
X143769Y291443D01*
X143791Y291336D01*
X143805Y291227D01*
X143823Y291181D01*
X143833Y291131D01*
X143881Y291033D01*
X143922Y290932D01*
X143951Y290891D01*
X143973Y290846D01*
X144070Y290717D01*
X147827Y286330D01*
X147936Y286231D01*
X148044Y286130D01*
X148054Y286124D01*
X148062Y286117D01*
X148193Y286048D01*
X148322Y285976D01*
X148333Y285974D01*
X148344Y285968D01*
X148487Y285934D01*
X148630Y285897D01*
X148646Y285896D01*
X148653Y285894D01*
X148668Y285895D01*
X148791Y285887D01*
X152226Y285887D01*
X152344Y285902D01*
X152463Y285909D01*
X152501Y285922D01*
X152542Y285927D01*
X152652Y285970D01*
X152765Y286007D01*
X152800Y286029D01*
X152837Y286044D01*
X152933Y286113D01*
X153034Y286177D01*
X153062Y286207D01*
X153095Y286230D01*
X153171Y286322D01*
X153252Y286409D01*
X153272Y286444D01*
X153297Y286475D01*
X153348Y286583D01*
X153406Y286687D01*
X153416Y286727D01*
X153433Y286763D01*
X153455Y286880D01*
X153485Y286995D01*
X153489Y287055D01*
X153493Y287075D01*
X153491Y287096D01*
X153495Y287156D01*
X153495Y288462D01*
X154427Y289394D01*
X154504Y289493D01*
X154586Y289588D01*
X154601Y289618D01*
X154622Y289645D01*
X154672Y289760D01*
X154728Y289873D01*
X154735Y289906D01*
X154749Y289937D01*
X154768Y290061D01*
X154794Y290184D01*
X154793Y290217D01*
X154798Y290251D01*
X154787Y290376D01*
X154781Y290502D01*
X154772Y290534D01*
X154769Y290567D01*
X154726Y290686D01*
X154690Y290806D01*
X154672Y290835D01*
X154661Y290867D01*
X154590Y290971D01*
X154525Y291078D01*
X154501Y291102D01*
X154482Y291130D01*
X154388Y291213D01*
X154298Y291301D01*
X154258Y291328D01*
X154244Y291340D01*
X154225Y291350D01*
X154164Y291390D01*
X153460Y291797D01*
X152987Y292270D01*
X152652Y292849D01*
X152479Y293496D01*
X152479Y296831D01*
X158790Y296831D01*
X158908Y296846D01*
X159027Y296853D01*
X159065Y296865D01*
X159105Y296871D01*
X159216Y296914D01*
X159329Y296951D01*
X159363Y296973D01*
X159401Y296988D01*
X159497Y297057D01*
X159598Y297121D01*
X159626Y297151D01*
X159658Y297174D01*
X159734Y297266D01*
X159816Y297353D01*
X159835Y297388D01*
X159861Y297419D01*
X159912Y297527D01*
X159969Y297631D01*
X159979Y297671D01*
X159997Y297707D01*
X160017Y297814D01*
X160021Y297784D01*
X160065Y297674D01*
X160101Y297561D01*
X160123Y297526D01*
X160138Y297489D01*
X160208Y297392D01*
X160271Y297292D01*
X160301Y297264D01*
X160325Y297231D01*
X160416Y297155D01*
X160503Y297074D01*
X160538Y297054D01*
X160570Y297029D01*
X160677Y296978D01*
X160782Y296920D01*
X160821Y296910D01*
X160857Y296893D01*
X160974Y296871D01*
X161090Y296841D01*
X161150Y296837D01*
X161170Y296833D01*
X161190Y296835D01*
X161250Y296831D01*
X167561Y296831D01*
X167561Y293496D01*
X167388Y292849D01*
X167053Y292270D01*
X166580Y291797D01*
X165876Y291390D01*
X165776Y291314D01*
X165672Y291244D01*
X165649Y291218D01*
X165622Y291198D01*
X165544Y291099D01*
X165461Y291005D01*
X165446Y290975D01*
X165425Y290949D01*
X165374Y290834D01*
X165316Y290722D01*
X165309Y290689D01*
X165295Y290658D01*
X165274Y290534D01*
X165247Y290412D01*
X165248Y290378D01*
X165242Y290345D01*
X165253Y290219D01*
X165256Y290094D01*
X165266Y290061D01*
X165269Y290028D01*
X165310Y289909D01*
X165345Y289788D01*
X165362Y289759D01*
X165373Y289727D01*
X165442Y289623D01*
X165506Y289514D01*
X165539Y289478D01*
X165549Y289462D01*
X165565Y289448D01*
X165613Y289394D01*
X166545Y288462D01*
X166545Y276198D01*
X165652Y275305D01*
X164846Y275305D01*
X164728Y275290D01*
X164609Y275283D01*
X164571Y275270D01*
X164530Y275265D01*
X164420Y275222D01*
X164307Y275185D01*
X164272Y275163D01*
X164235Y275148D01*
X164139Y275079D01*
X164038Y275015D01*
X164010Y274985D01*
X163977Y274962D01*
X163901Y274870D01*
X163820Y274783D01*
X163800Y274748D01*
X163775Y274717D01*
X163724Y274609D01*
X163666Y274505D01*
X163656Y274465D01*
X163639Y274429D01*
X163617Y274312D01*
X163587Y274197D01*
X163583Y274137D01*
X163579Y274117D01*
X163581Y274096D01*
X163577Y274036D01*
X163577Y262674D01*
X163592Y262556D01*
X163599Y262437D01*
X163612Y262399D01*
X163617Y262358D01*
X163660Y262248D01*
X163697Y262135D01*
X163719Y262100D01*
X163734Y262063D01*
X163803Y261967D01*
X163867Y261866D01*
X163897Y261838D01*
X163920Y261805D01*
X164012Y261729D01*
X164099Y261648D01*
X164134Y261628D01*
X164165Y261603D01*
X164273Y261552D01*
X164377Y261494D01*
X164417Y261484D01*
X164453Y261467D01*
X164570Y261445D01*
X164685Y261415D01*
X164745Y261411D01*
X164765Y261407D01*
X164786Y261409D01*
X164846Y261405D01*
X166152Y261405D01*
X167045Y260512D01*
X167045Y249248D01*
X166152Y248355D01*
X153888Y248355D01*
X152934Y249310D01*
X152856Y249370D01*
X152784Y249438D01*
X152731Y249467D01*
X152683Y249504D01*
X152592Y249544D01*
X152505Y249592D01*
X152447Y249607D01*
X152391Y249631D01*
X152293Y249646D01*
X152197Y249671D01*
X152097Y249677D01*
X152077Y249681D01*
X152065Y249679D01*
X152037Y249681D01*
X150069Y249681D01*
X150060Y249680D01*
X150051Y249681D01*
X149902Y249660D01*
X149754Y249641D01*
X149745Y249638D01*
X149736Y249637D01*
X149583Y249585D01*
X147364Y248665D01*
X130766Y248665D01*
X128339Y249671D01*
X126481Y251529D01*
X125475Y253956D01*
X125475Y256584D01*
X126481Y259011D01*
X128339Y260869D01*
X130766Y261875D01*
X147364Y261875D01*
X148561Y261379D01*
X148589Y261371D01*
X148616Y261358D01*
X148742Y261329D01*
X148868Y261295D01*
X148897Y261294D01*
X148926Y261288D01*
X149056Y261292D01*
X149186Y261290D01*
X149214Y261297D01*
X149244Y261298D01*
X149368Y261334D01*
X149495Y261364D01*
X149521Y261378D01*
X149549Y261386D01*
X149661Y261452D01*
X149776Y261513D01*
X149798Y261533D01*
X149823Y261548D01*
X149944Y261654D01*
X156092Y267801D01*
X156152Y267880D01*
X156220Y267952D01*
X156249Y268005D01*
X156286Y268053D01*
X156326Y268144D01*
X156374Y268230D01*
X156389Y268289D01*
X156413Y268345D01*
X156428Y268443D01*
X156453Y268538D01*
X156459Y268638D01*
X156463Y268659D01*
X156461Y268671D01*
X156463Y268699D01*
X156463Y274036D01*
X156448Y274154D01*
X156441Y274273D01*
X156428Y274311D01*
X156423Y274352D01*
X156380Y274462D01*
X156343Y274575D01*
X156321Y274610D01*
X156306Y274647D01*
X156237Y274743D01*
X156173Y274844D01*
X156143Y274872D01*
X156120Y274905D01*
X156028Y274981D01*
X155941Y275062D01*
X155906Y275082D01*
X155875Y275107D01*
X155767Y275158D01*
X155663Y275216D01*
X155623Y275226D01*
X155587Y275243D01*
X155470Y275265D01*
X155355Y275295D01*
X155295Y275299D01*
X155275Y275303D01*
X155254Y275301D01*
X155194Y275305D01*
X154388Y275305D01*
X153495Y276198D01*
X153495Y277504D01*
X153480Y277622D01*
X153473Y277741D01*
X153460Y277779D01*
X153455Y277820D01*
X153412Y277930D01*
X153375Y278043D01*
X153353Y278078D01*
X153338Y278115D01*
X153269Y278211D01*
X153205Y278312D01*
X153175Y278340D01*
X153152Y278373D01*
X153060Y278449D01*
X152973Y278530D01*
X152938Y278550D01*
X152907Y278575D01*
X152799Y278626D01*
X152695Y278684D01*
X152655Y278694D01*
X152619Y278711D01*
X152502Y278733D01*
X152387Y278763D01*
X152327Y278767D01*
X152307Y278771D01*
X152286Y278769D01*
X152226Y278773D01*
X148354Y278773D01*
X148304Y278767D01*
X148254Y278769D01*
X148147Y278747D01*
X148039Y278733D01*
X147992Y278715D01*
X147943Y278705D01*
X147858Y278663D01*
X146482Y278769D01*
X146460Y278768D01*
X146384Y278773D01*
X145012Y278773D01*
X144977Y278796D01*
X144888Y278827D01*
X143990Y279875D01*
X143974Y279890D01*
X143923Y279947D01*
X142953Y280917D01*
X142945Y280957D01*
X142897Y281056D01*
X142856Y281157D01*
X142827Y281198D01*
X142805Y281243D01*
X142708Y281372D01*
X134118Y291402D01*
X134009Y291501D01*
X133901Y291602D01*
X133891Y291608D01*
X133883Y291615D01*
X133752Y291684D01*
X133623Y291756D01*
X133612Y291758D01*
X133601Y291764D01*
X133458Y291798D01*
X133315Y291835D01*
X133299Y291836D01*
X133292Y291838D01*
X133277Y291837D01*
X133154Y291845D01*
X128382Y291845D01*
X126745Y293482D01*
X126745Y307340D01*
X126730Y307458D01*
X126723Y307577D01*
X126710Y307615D01*
X126705Y307656D01*
X126662Y307766D01*
X126625Y307879D01*
X126603Y307914D01*
X126588Y307951D01*
X126519Y308047D01*
X126455Y308148D01*
X126425Y308176D01*
X126402Y308209D01*
X126310Y308285D01*
X126223Y308366D01*
X126188Y308386D01*
X126157Y308411D01*
X126049Y308462D01*
X125945Y308520D01*
X125905Y308530D01*
X125869Y308547D01*
X125752Y308569D01*
X125637Y308599D01*
X125577Y308603D01*
X125557Y308607D01*
X125536Y308605D01*
X125476Y308609D01*
X117801Y308609D01*
X117664Y308592D01*
X117525Y308579D01*
X117506Y308572D01*
X117486Y308569D01*
X117357Y308518D01*
X117226Y308471D01*
X117209Y308460D01*
X117190Y308452D01*
X117078Y308371D01*
X116962Y308293D01*
X116949Y308277D01*
X116933Y308266D01*
X116844Y308158D01*
X116752Y308054D01*
X116743Y308036D01*
X116730Y308021D01*
X116671Y307895D01*
X116607Y307771D01*
X116603Y307751D01*
X116594Y307733D01*
X116568Y307596D01*
X116538Y307461D01*
X116538Y307440D01*
X116535Y307421D01*
X116543Y307282D01*
X116547Y307143D01*
X116553Y307123D01*
X116554Y307103D01*
X116597Y306971D01*
X116636Y306837D01*
X116646Y306820D01*
X116652Y306801D01*
X116695Y306734D01*
X116695Y293388D01*
X115802Y292495D01*
X109038Y292495D01*
X108145Y293388D01*
X108145Y306726D01*
X108187Y306822D01*
X108246Y306947D01*
X108249Y306967D01*
X108257Y306986D01*
X108279Y307123D01*
X108305Y307260D01*
X108304Y307280D01*
X108307Y307300D01*
X108294Y307438D01*
X108286Y307577D01*
X108279Y307596D01*
X108278Y307616D01*
X108230Y307747D01*
X108188Y307879D01*
X108177Y307896D01*
X108170Y307916D01*
X108092Y308031D01*
X108017Y308148D01*
X108003Y308162D01*
X107991Y308179D01*
X107887Y308271D01*
X107786Y308366D01*
X107768Y308376D01*
X107753Y308389D01*
X107629Y308453D01*
X107507Y308520D01*
X107488Y308525D01*
X107470Y308534D01*
X107334Y308564D01*
X107199Y308599D01*
X107172Y308601D01*
X107160Y308604D01*
X107139Y308603D01*
X107039Y308609D01*
X91698Y308609D01*
X91560Y308592D01*
X91422Y308579D01*
X91403Y308572D01*
X91383Y308569D01*
X91253Y308518D01*
X91122Y308471D01*
X91106Y308460D01*
X91087Y308452D01*
X90974Y308371D01*
X90859Y308293D01*
X90846Y308277D01*
X90830Y308266D01*
X90741Y308158D01*
X90649Y308054D01*
X90640Y308036D01*
X90627Y308021D01*
X90567Y307895D01*
X90504Y307771D01*
X90500Y307751D01*
X90491Y307733D01*
X90465Y307596D01*
X90435Y307461D01*
X90435Y307440D01*
X90431Y307421D01*
X90440Y307282D01*
X90444Y307143D01*
X90450Y307123D01*
X90451Y307103D01*
X90494Y306971D01*
X90533Y306837D01*
X90543Y306820D01*
X90549Y306801D01*
X90624Y306683D01*
X90694Y306563D01*
X90713Y306542D01*
X90719Y306532D01*
X90734Y306518D01*
X90801Y306442D01*
X90853Y306390D01*
X91188Y305811D01*
X91361Y305164D01*
X91361Y301829D01*
X85050Y301829D01*
X84932Y301814D01*
X84813Y301807D01*
X84775Y301794D01*
X84735Y301789D01*
X84624Y301746D01*
X84511Y301709D01*
X84477Y301687D01*
X84439Y301672D01*
X84343Y301603D01*
X84242Y301539D01*
X84214Y301509D01*
X84182Y301486D01*
X84106Y301394D01*
X84024Y301307D01*
X84005Y301272D01*
X83979Y301241D01*
X83928Y301133D01*
X83871Y301029D01*
X83861Y300989D01*
X83843Y300953D01*
X83823Y300846D01*
X83819Y300876D01*
X83775Y300986D01*
X83739Y301099D01*
X83717Y301134D01*
X83702Y301171D01*
X83632Y301267D01*
X83569Y301368D01*
X83539Y301396D01*
X83515Y301429D01*
X83424Y301505D01*
X83337Y301586D01*
X83302Y301606D01*
X83270Y301631D01*
X83163Y301682D01*
X83058Y301740D01*
X83019Y301750D01*
X82983Y301767D01*
X82866Y301789D01*
X82750Y301819D01*
X82690Y301823D01*
X82670Y301827D01*
X82650Y301825D01*
X82590Y301829D01*
X76279Y301829D01*
X76279Y305164D01*
X76452Y305811D01*
X76787Y306390D01*
X76839Y306442D01*
X76924Y306552D01*
X77013Y306659D01*
X77022Y306678D01*
X77034Y306694D01*
X77090Y306822D01*
X77149Y306947D01*
X77153Y306967D01*
X77161Y306986D01*
X77183Y307123D01*
X77209Y307260D01*
X77207Y307280D01*
X77211Y307300D01*
X77198Y307438D01*
X77189Y307577D01*
X77183Y307596D01*
X77181Y307616D01*
X77134Y307747D01*
X77091Y307879D01*
X77080Y307896D01*
X77073Y307916D01*
X76995Y308031D01*
X76921Y308148D01*
X76906Y308162D01*
X76895Y308179D01*
X76790Y308271D01*
X76689Y308366D01*
X76671Y308376D01*
X76656Y308389D01*
X76532Y308453D01*
X76411Y308520D01*
X76391Y308525D01*
X76373Y308534D01*
X76237Y308564D01*
X76103Y308599D01*
X76075Y308601D01*
X76063Y308604D01*
X76042Y308603D01*
X75942Y308609D01*
X7928Y308609D01*
X7830Y308597D01*
X7731Y308594D01*
X7673Y308577D01*
X7613Y308569D01*
X7521Y308533D01*
X7425Y308505D01*
X7373Y308475D01*
X7317Y308452D01*
X7237Y308394D01*
X7152Y308344D01*
X7076Y308278D01*
X7060Y308266D01*
X7052Y308256D01*
X7031Y308238D01*
X2912Y304119D01*
X2852Y304041D01*
X2784Y303969D01*
X2755Y303916D01*
X2718Y303868D01*
X2678Y303777D01*
X2630Y303690D01*
X2615Y303632D01*
X2591Y303576D01*
X2576Y303478D01*
X2551Y303383D01*
X2545Y303282D01*
X2541Y303262D01*
X2543Y303250D01*
X2541Y303222D01*
X2541Y7928D01*
X2553Y7830D01*
X2556Y7731D01*
X2573Y7673D01*
X2581Y7613D01*
X2617Y7521D01*
X2645Y7425D01*
X2675Y7373D01*
X2698Y7317D01*
X2756Y7237D01*
X2806Y7152D01*
X2872Y7076D01*
X2884Y7060D01*
X2894Y7052D01*
X2912Y7031D01*
X7031Y2912D01*
X7109Y2852D01*
X7181Y2784D01*
X7234Y2755D01*
X7282Y2718D01*
X7373Y2678D01*
X7460Y2630D01*
X7518Y2615D01*
X7574Y2591D01*
X7672Y2576D01*
X7767Y2551D01*
X7868Y2545D01*
X7888Y2541D01*
X7900Y2543D01*
X7928Y2541D01*
X497532Y2541D01*
X497630Y2553D01*
G37*
%LPC*%
G36*
X198246Y53419D02*
X198246Y53419D01*
X197599Y53592D01*
X197020Y53927D01*
X196547Y54400D01*
X196140Y55104D01*
X196064Y55204D01*
X195994Y55308D01*
X195968Y55331D01*
X195948Y55358D01*
X195849Y55436D01*
X195755Y55519D01*
X195725Y55534D01*
X195699Y55555D01*
X195584Y55606D01*
X195472Y55664D01*
X195439Y55671D01*
X195408Y55685D01*
X195284Y55706D01*
X195162Y55733D01*
X195128Y55732D01*
X195095Y55738D01*
X194969Y55727D01*
X194844Y55724D01*
X194811Y55714D01*
X194778Y55711D01*
X194659Y55670D01*
X194538Y55635D01*
X194509Y55618D01*
X194477Y55607D01*
X194373Y55538D01*
X194264Y55474D01*
X194228Y55441D01*
X194212Y55431D01*
X194198Y55415D01*
X194144Y55367D01*
X193212Y54435D01*
X180948Y54435D01*
X180055Y55328D01*
X180055Y66592D01*
X180948Y67485D01*
X181102Y67485D01*
X181220Y67500D01*
X181339Y67507D01*
X181377Y67520D01*
X181418Y67525D01*
X181528Y67568D01*
X181641Y67605D01*
X181676Y67627D01*
X181713Y67642D01*
X181809Y67711D01*
X181910Y67775D01*
X181938Y67805D01*
X181971Y67828D01*
X182047Y67920D01*
X182128Y68007D01*
X182148Y68042D01*
X182173Y68073D01*
X182224Y68181D01*
X182282Y68285D01*
X182292Y68325D01*
X182309Y68361D01*
X182331Y68478D01*
X182361Y68593D01*
X182365Y68653D01*
X182369Y68673D01*
X182367Y68694D01*
X182371Y68754D01*
X182371Y68834D01*
X182356Y68952D01*
X182349Y69071D01*
X182336Y69109D01*
X182331Y69150D01*
X182288Y69260D01*
X182251Y69373D01*
X182229Y69408D01*
X182214Y69445D01*
X182145Y69541D01*
X182081Y69642D01*
X182051Y69670D01*
X182028Y69703D01*
X181936Y69779D01*
X181849Y69860D01*
X181814Y69880D01*
X181783Y69905D01*
X181675Y69956D01*
X181571Y70014D01*
X181531Y70024D01*
X181495Y70041D01*
X181378Y70063D01*
X181263Y70093D01*
X181203Y70097D01*
X181183Y70101D01*
X181162Y70099D01*
X181102Y70103D01*
X130607Y70103D01*
X115823Y84887D01*
X115823Y86956D01*
X115808Y87074D01*
X115801Y87193D01*
X115788Y87231D01*
X115783Y87272D01*
X115740Y87382D01*
X115703Y87495D01*
X115681Y87530D01*
X115666Y87567D01*
X115597Y87663D01*
X115533Y87764D01*
X115503Y87792D01*
X115480Y87825D01*
X115388Y87901D01*
X115301Y87982D01*
X115266Y88002D01*
X115235Y88027D01*
X115127Y88078D01*
X115023Y88136D01*
X114983Y88146D01*
X114947Y88163D01*
X114830Y88185D01*
X114715Y88215D01*
X114655Y88219D01*
X114635Y88223D01*
X114614Y88221D01*
X114554Y88225D01*
X113358Y88225D01*
X112465Y89118D01*
X112465Y101382D01*
X113358Y102275D01*
X114554Y102275D01*
X114672Y102290D01*
X114791Y102297D01*
X114829Y102310D01*
X114870Y102315D01*
X114980Y102358D01*
X115093Y102395D01*
X115128Y102417D01*
X115165Y102432D01*
X115261Y102501D01*
X115362Y102565D01*
X115390Y102595D01*
X115423Y102618D01*
X115499Y102710D01*
X115580Y102797D01*
X115600Y102832D01*
X115625Y102863D01*
X115676Y102971D01*
X115734Y103075D01*
X115744Y103115D01*
X115761Y103151D01*
X115783Y103268D01*
X115813Y103383D01*
X115817Y103443D01*
X115821Y103463D01*
X115819Y103484D01*
X115823Y103544D01*
X115823Y112301D01*
X115811Y112399D01*
X115808Y112498D01*
X115791Y112556D01*
X115783Y112617D01*
X115747Y112709D01*
X115719Y112804D01*
X115689Y112856D01*
X115666Y112912D01*
X115608Y112992D01*
X115558Y113078D01*
X115492Y113153D01*
X115480Y113170D01*
X115470Y113177D01*
X115452Y113199D01*
X113499Y115151D01*
X113491Y115157D01*
X113485Y115164D01*
X113408Y115223D01*
X113367Y115261D01*
X113334Y115279D01*
X113247Y115346D01*
X113239Y115350D01*
X113231Y115356D01*
X113087Y115427D01*
X111171Y116220D01*
X109616Y117775D01*
X108775Y119805D01*
X108775Y122003D01*
X109616Y124033D01*
X111171Y125588D01*
X113087Y126381D01*
X113095Y126386D01*
X113104Y126389D01*
X113233Y126465D01*
X113363Y126539D01*
X113370Y126545D01*
X113378Y126550D01*
X113499Y126657D01*
X115452Y128609D01*
X115512Y128688D01*
X115580Y128760D01*
X115609Y128813D01*
X115646Y128861D01*
X115686Y128952D01*
X115734Y129038D01*
X115749Y129097D01*
X115773Y129153D01*
X115788Y129251D01*
X115813Y129346D01*
X115819Y129446D01*
X115823Y129467D01*
X115821Y129479D01*
X115823Y129507D01*
X115823Y180166D01*
X115808Y180284D01*
X115801Y180403D01*
X115788Y180441D01*
X115783Y180482D01*
X115740Y180592D01*
X115703Y180705D01*
X115681Y180740D01*
X115666Y180777D01*
X115597Y180873D01*
X115533Y180974D01*
X115503Y181002D01*
X115480Y181035D01*
X115388Y181111D01*
X115301Y181192D01*
X115266Y181212D01*
X115235Y181237D01*
X115127Y181288D01*
X115023Y181346D01*
X114983Y181356D01*
X114947Y181373D01*
X114830Y181395D01*
X114715Y181425D01*
X114655Y181429D01*
X114635Y181433D01*
X114614Y181431D01*
X114554Y181435D01*
X102698Y181435D01*
X101766Y182367D01*
X101667Y182444D01*
X101572Y182526D01*
X101542Y182541D01*
X101515Y182562D01*
X101400Y182612D01*
X101287Y182668D01*
X101254Y182675D01*
X101223Y182689D01*
X101099Y182708D01*
X100976Y182734D01*
X100943Y182733D01*
X100909Y182738D01*
X100784Y182727D01*
X100658Y182721D01*
X100626Y182712D01*
X100593Y182709D01*
X100474Y182666D01*
X100354Y182630D01*
X100325Y182612D01*
X100293Y182601D01*
X100189Y182530D01*
X100082Y182465D01*
X100058Y182441D01*
X100030Y182422D01*
X99947Y182328D01*
X99859Y182238D01*
X99832Y182198D01*
X99820Y182184D01*
X99810Y182165D01*
X99770Y182104D01*
X99363Y181400D01*
X98890Y180927D01*
X98311Y180592D01*
X97664Y180419D01*
X94329Y180419D01*
X94329Y186730D01*
X94314Y186848D01*
X94307Y186967D01*
X94294Y187005D01*
X94289Y187045D01*
X94246Y187156D01*
X94209Y187269D01*
X94187Y187303D01*
X94172Y187341D01*
X94103Y187437D01*
X94039Y187538D01*
X94009Y187566D01*
X93986Y187598D01*
X93894Y187674D01*
X93807Y187756D01*
X93772Y187775D01*
X93741Y187801D01*
X93633Y187852D01*
X93529Y187909D01*
X93489Y187919D01*
X93453Y187937D01*
X93346Y187957D01*
X93376Y187961D01*
X93486Y188005D01*
X93599Y188041D01*
X93634Y188063D01*
X93671Y188078D01*
X93767Y188148D01*
X93868Y188211D01*
X93896Y188241D01*
X93929Y188265D01*
X94005Y188356D01*
X94086Y188443D01*
X94106Y188478D01*
X94131Y188510D01*
X94182Y188617D01*
X94240Y188722D01*
X94250Y188761D01*
X94267Y188797D01*
X94289Y188914D01*
X94319Y189030D01*
X94323Y189090D01*
X94327Y189110D01*
X94325Y189130D01*
X94329Y189190D01*
X94329Y195501D01*
X97664Y195501D01*
X98311Y195328D01*
X98890Y194993D01*
X99363Y194520D01*
X99770Y193816D01*
X99846Y193716D01*
X99916Y193612D01*
X99942Y193589D01*
X99962Y193562D01*
X100061Y193484D01*
X100155Y193401D01*
X100185Y193386D01*
X100211Y193365D01*
X100326Y193314D01*
X100438Y193256D01*
X100471Y193249D01*
X100502Y193235D01*
X100626Y193214D01*
X100748Y193187D01*
X100782Y193188D01*
X100815Y193182D01*
X100941Y193193D01*
X101066Y193196D01*
X101099Y193206D01*
X101132Y193209D01*
X101251Y193250D01*
X101372Y193285D01*
X101401Y193302D01*
X101433Y193313D01*
X101537Y193382D01*
X101646Y193446D01*
X101682Y193479D01*
X101698Y193489D01*
X101712Y193505D01*
X101766Y193553D01*
X102698Y194485D01*
X114554Y194485D01*
X114672Y194500D01*
X114791Y194507D01*
X114829Y194520D01*
X114870Y194525D01*
X114980Y194568D01*
X115093Y194605D01*
X115128Y194627D01*
X115165Y194642D01*
X115261Y194711D01*
X115362Y194775D01*
X115390Y194805D01*
X115423Y194828D01*
X115499Y194920D01*
X115580Y195007D01*
X115600Y195042D01*
X115625Y195073D01*
X115676Y195181D01*
X115734Y195285D01*
X115744Y195325D01*
X115761Y195361D01*
X115783Y195478D01*
X115813Y195593D01*
X115817Y195653D01*
X115821Y195673D01*
X115819Y195694D01*
X115823Y195754D01*
X115823Y226409D01*
X115811Y226507D01*
X115808Y226606D01*
X115791Y226664D01*
X115783Y226724D01*
X115747Y226816D01*
X115719Y226911D01*
X115689Y226964D01*
X115666Y227020D01*
X115608Y227100D01*
X115558Y227185D01*
X115492Y227261D01*
X115480Y227277D01*
X115470Y227285D01*
X115452Y227306D01*
X112244Y230514D01*
X112166Y230574D01*
X112094Y230642D01*
X112041Y230671D01*
X111993Y230708D01*
X111902Y230748D01*
X111815Y230796D01*
X111757Y230811D01*
X111701Y230835D01*
X111603Y230850D01*
X111507Y230875D01*
X111407Y230881D01*
X111387Y230885D01*
X111375Y230883D01*
X111347Y230885D01*
X87742Y230885D01*
X87133Y231494D01*
X87126Y231500D01*
X87120Y231507D01*
X86999Y231598D01*
X86882Y231689D01*
X86874Y231693D01*
X86866Y231699D01*
X86722Y231770D01*
X86429Y231891D01*
X84571Y233749D01*
X84450Y234042D01*
X84445Y234050D01*
X84442Y234059D01*
X84434Y234072D01*
X84431Y234084D01*
X84386Y234154D01*
X84367Y234186D01*
X84292Y234318D01*
X84285Y234325D01*
X84281Y234332D01*
X84174Y234453D01*
X78485Y240142D01*
X78485Y254563D01*
X78484Y254572D01*
X78485Y254581D01*
X78464Y254730D01*
X78445Y254878D01*
X78442Y254887D01*
X78441Y254896D01*
X78389Y255048D01*
X78231Y255428D01*
X78231Y274737D01*
X78219Y274835D01*
X78216Y274934D01*
X78199Y274992D01*
X78191Y275052D01*
X78155Y275144D01*
X78127Y275239D01*
X78097Y275292D01*
X78074Y275348D01*
X78016Y275428D01*
X77966Y275513D01*
X77900Y275589D01*
X77888Y275605D01*
X77878Y275613D01*
X77859Y275634D01*
X77295Y276198D01*
X77295Y288462D01*
X78227Y289394D01*
X78304Y289493D01*
X78386Y289588D01*
X78401Y289618D01*
X78422Y289645D01*
X78472Y289760D01*
X78528Y289873D01*
X78535Y289906D01*
X78549Y289937D01*
X78568Y290061D01*
X78594Y290184D01*
X78593Y290217D01*
X78598Y290251D01*
X78587Y290376D01*
X78581Y290502D01*
X78572Y290534D01*
X78569Y290567D01*
X78526Y290686D01*
X78490Y290806D01*
X78472Y290835D01*
X78461Y290867D01*
X78390Y290971D01*
X78325Y291078D01*
X78301Y291102D01*
X78282Y291130D01*
X78188Y291213D01*
X78098Y291301D01*
X78058Y291328D01*
X78044Y291340D01*
X78025Y291350D01*
X77964Y291390D01*
X77260Y291797D01*
X76787Y292270D01*
X76452Y292849D01*
X76279Y293496D01*
X76279Y296831D01*
X82590Y296831D01*
X82708Y296846D01*
X82827Y296853D01*
X82865Y296865D01*
X82905Y296871D01*
X83016Y296914D01*
X83129Y296951D01*
X83163Y296973D01*
X83201Y296988D01*
X83297Y297057D01*
X83398Y297121D01*
X83426Y297151D01*
X83458Y297174D01*
X83534Y297266D01*
X83616Y297353D01*
X83635Y297388D01*
X83661Y297419D01*
X83712Y297527D01*
X83769Y297631D01*
X83779Y297671D01*
X83797Y297707D01*
X83817Y297814D01*
X83821Y297784D01*
X83865Y297674D01*
X83901Y297561D01*
X83923Y297526D01*
X83938Y297489D01*
X84008Y297392D01*
X84071Y297292D01*
X84101Y297264D01*
X84125Y297231D01*
X84216Y297155D01*
X84303Y297074D01*
X84338Y297054D01*
X84370Y297029D01*
X84477Y296978D01*
X84582Y296920D01*
X84621Y296910D01*
X84657Y296893D01*
X84774Y296871D01*
X84890Y296841D01*
X84950Y296837D01*
X84970Y296833D01*
X84990Y296835D01*
X85050Y296831D01*
X91361Y296831D01*
X91361Y293496D01*
X91188Y292849D01*
X90853Y292270D01*
X90380Y291797D01*
X89676Y291390D01*
X89576Y291314D01*
X89472Y291244D01*
X89449Y291218D01*
X89422Y291198D01*
X89344Y291099D01*
X89261Y291005D01*
X89246Y290975D01*
X89225Y290949D01*
X89174Y290834D01*
X89116Y290722D01*
X89109Y290689D01*
X89095Y290658D01*
X89074Y290534D01*
X89047Y290412D01*
X89048Y290378D01*
X89042Y290345D01*
X89053Y290219D01*
X89056Y290094D01*
X89066Y290061D01*
X89069Y290028D01*
X89110Y289909D01*
X89145Y289788D01*
X89162Y289759D01*
X89173Y289727D01*
X89242Y289623D01*
X89306Y289514D01*
X89339Y289478D01*
X89349Y289462D01*
X89365Y289448D01*
X89413Y289394D01*
X90345Y288462D01*
X90345Y288172D01*
X90360Y288054D01*
X90367Y287935D01*
X90380Y287897D01*
X90385Y287856D01*
X90428Y287746D01*
X90465Y287633D01*
X90487Y287598D01*
X90502Y287561D01*
X90571Y287465D01*
X90635Y287364D01*
X90665Y287336D01*
X90688Y287303D01*
X90780Y287227D01*
X90867Y287146D01*
X90902Y287126D01*
X90933Y287101D01*
X91041Y287050D01*
X91145Y286992D01*
X91185Y286982D01*
X91221Y286965D01*
X91338Y286943D01*
X91453Y286913D01*
X91513Y286909D01*
X91533Y286905D01*
X91554Y286907D01*
X91614Y286903D01*
X107896Y286903D01*
X107994Y286915D01*
X108093Y286918D01*
X108151Y286935D01*
X108211Y286943D01*
X108303Y286979D01*
X108399Y287007D01*
X108423Y287021D01*
X129322Y287021D01*
X134103Y282241D01*
X134103Y282240D01*
X134118Y282203D01*
X134187Y282107D01*
X134251Y282006D01*
X134281Y281978D01*
X134304Y281945D01*
X134396Y281869D01*
X134483Y281788D01*
X134518Y281768D01*
X134549Y281743D01*
X134652Y281694D01*
X135695Y280652D01*
X135695Y267388D01*
X134802Y266495D01*
X127915Y266495D01*
X127819Y266544D01*
X127780Y266553D01*
X127743Y266569D01*
X127625Y266588D01*
X127509Y266614D01*
X127469Y266613D01*
X127429Y266619D01*
X127310Y266608D01*
X127191Y266604D01*
X127152Y266593D01*
X127112Y266589D01*
X127000Y266549D01*
X126886Y266516D01*
X126851Y266495D01*
X126813Y266482D01*
X126714Y266415D01*
X126612Y266354D01*
X126567Y266314D01*
X126550Y266303D01*
X126536Y266288D01*
X126491Y266248D01*
X126230Y265987D01*
X125651Y265652D01*
X125004Y265479D01*
X123294Y265479D01*
X123294Y273915D01*
X123279Y274033D01*
X123272Y274152D01*
X123259Y274190D01*
X123254Y274230D01*
X123211Y274341D01*
X123174Y274454D01*
X123152Y274488D01*
X123137Y274526D01*
X123068Y274622D01*
X123004Y274723D01*
X122974Y274751D01*
X122951Y274783D01*
X122859Y274859D01*
X122772Y274941D01*
X122737Y274960D01*
X122706Y274986D01*
X122598Y275037D01*
X122494Y275094D01*
X122454Y275104D01*
X122418Y275122D01*
X122301Y275144D01*
X122186Y275174D01*
X122126Y275178D01*
X122106Y275181D01*
X122085Y275180D01*
X122025Y275184D01*
X121815Y275184D01*
X121697Y275169D01*
X121578Y275162D01*
X121540Y275149D01*
X121499Y275144D01*
X121389Y275100D01*
X121276Y275064D01*
X121241Y275042D01*
X121204Y275027D01*
X121107Y274957D01*
X121007Y274894D01*
X120979Y274864D01*
X120946Y274840D01*
X120870Y274749D01*
X120789Y274662D01*
X120769Y274627D01*
X120744Y274595D01*
X120693Y274488D01*
X120635Y274383D01*
X120625Y274344D01*
X120608Y274308D01*
X120586Y274191D01*
X120556Y274075D01*
X120552Y274015D01*
X120548Y273995D01*
X120550Y273975D01*
X120546Y273915D01*
X120546Y265479D01*
X118836Y265479D01*
X118189Y265652D01*
X117610Y265987D01*
X117349Y266248D01*
X117255Y266321D01*
X117166Y266400D01*
X117130Y266418D01*
X117098Y266443D01*
X116989Y266490D01*
X116883Y266544D01*
X116843Y266553D01*
X116806Y266569D01*
X116689Y266588D01*
X116572Y266614D01*
X116532Y266613D01*
X116492Y266619D01*
X116374Y266608D01*
X116254Y266604D01*
X116216Y266593D01*
X116175Y266589D01*
X116063Y266549D01*
X115949Y266516D01*
X115914Y266495D01*
X115876Y266482D01*
X115875Y266481D01*
X115836Y266480D01*
X115778Y266463D01*
X115718Y266455D01*
X115692Y266445D01*
X108062Y266445D01*
X103354Y271154D01*
X103276Y271214D01*
X103204Y271282D01*
X103151Y271311D01*
X103103Y271348D01*
X103012Y271388D01*
X102925Y271436D01*
X102867Y271451D01*
X102811Y271475D01*
X102713Y271490D01*
X102617Y271515D01*
X102517Y271521D01*
X102497Y271525D01*
X102485Y271523D01*
X102457Y271525D01*
X93123Y271525D01*
X93025Y271513D01*
X92926Y271510D01*
X92868Y271493D01*
X92808Y271485D01*
X92716Y271449D01*
X92621Y271421D01*
X92568Y271391D01*
X92512Y271368D01*
X92432Y271310D01*
X92347Y271260D01*
X92271Y271194D01*
X92255Y271182D01*
X92247Y271172D01*
X92226Y271154D01*
X90796Y269724D01*
X90736Y269646D01*
X90668Y269574D01*
X90639Y269521D01*
X90602Y269473D01*
X90562Y269382D01*
X90514Y269295D01*
X90499Y269237D01*
X90475Y269181D01*
X90460Y269083D01*
X90435Y268987D01*
X90429Y268887D01*
X90425Y268867D01*
X90427Y268855D01*
X90425Y268827D01*
X90425Y259493D01*
X90437Y259395D01*
X90440Y259296D01*
X90457Y259238D01*
X90465Y259178D01*
X90501Y259086D01*
X90529Y258991D01*
X90559Y258938D01*
X90582Y258882D01*
X90640Y258802D01*
X90690Y258717D01*
X90756Y258641D01*
X90768Y258625D01*
X90778Y258617D01*
X90796Y258596D01*
X93207Y256186D01*
X93214Y256180D01*
X93220Y256173D01*
X93339Y256083D01*
X93458Y255991D01*
X93466Y255987D01*
X93474Y255981D01*
X93618Y255911D01*
X93911Y255789D01*
X95769Y253931D01*
X95891Y253638D01*
X95895Y253630D01*
X95898Y253621D01*
X95974Y253492D01*
X96048Y253362D01*
X96054Y253356D01*
X96059Y253348D01*
X96166Y253227D01*
X104926Y244466D01*
X105004Y244406D01*
X105076Y244338D01*
X105129Y244309D01*
X105177Y244272D01*
X105268Y244232D01*
X105355Y244184D01*
X105413Y244169D01*
X105469Y244145D01*
X105567Y244130D01*
X105663Y244105D01*
X105763Y244099D01*
X105783Y244095D01*
X105795Y244097D01*
X105823Y244095D01*
X134508Y244095D01*
X134898Y243705D01*
X134976Y243644D01*
X135048Y243576D01*
X135101Y243547D01*
X135149Y243510D01*
X135240Y243470D01*
X135327Y243422D01*
X135385Y243407D01*
X135441Y243383D01*
X135539Y243368D01*
X135635Y243343D01*
X135735Y243337D01*
X135755Y243333D01*
X135767Y243335D01*
X135795Y243333D01*
X152291Y243333D01*
X152389Y243345D01*
X152488Y243348D01*
X152546Y243365D01*
X152606Y243373D01*
X152698Y243409D01*
X152793Y243437D01*
X152846Y243467D01*
X152902Y243490D01*
X152982Y243548D01*
X153067Y243598D01*
X153143Y243664D01*
X153159Y243676D01*
X153167Y243686D01*
X153188Y243705D01*
X153888Y244405D01*
X166152Y244405D01*
X167055Y243501D01*
X167060Y243468D01*
X167067Y243349D01*
X167080Y243311D01*
X167085Y243270D01*
X167128Y243160D01*
X167165Y243047D01*
X167187Y243012D01*
X167202Y242975D01*
X167271Y242879D01*
X167335Y242778D01*
X167365Y242750D01*
X167388Y242717D01*
X167480Y242641D01*
X167567Y242560D01*
X167602Y242540D01*
X167633Y242515D01*
X167741Y242464D01*
X167845Y242406D01*
X167885Y242396D01*
X167921Y242379D01*
X168038Y242357D01*
X168153Y242327D01*
X168213Y242323D01*
X168233Y242319D01*
X168254Y242321D01*
X168314Y242317D01*
X179357Y242317D01*
X179455Y242329D01*
X179554Y242332D01*
X179612Y242349D01*
X179673Y242357D01*
X179765Y242393D01*
X179860Y242421D01*
X179912Y242451D01*
X179968Y242474D01*
X180048Y242532D01*
X180134Y242582D01*
X180209Y242648D01*
X180226Y242660D01*
X180233Y242670D01*
X180255Y242688D01*
X187080Y249513D01*
X187140Y249592D01*
X187208Y249664D01*
X187237Y249717D01*
X187274Y249765D01*
X187314Y249856D01*
X187362Y249942D01*
X187377Y250001D01*
X187401Y250057D01*
X187416Y250155D01*
X187441Y250250D01*
X187447Y250350D01*
X187451Y250371D01*
X187449Y250383D01*
X187451Y250411D01*
X187451Y267671D01*
X187439Y267769D01*
X187436Y267868D01*
X187419Y267926D01*
X187411Y267987D01*
X187375Y268079D01*
X187347Y268174D01*
X187317Y268226D01*
X187294Y268282D01*
X187236Y268362D01*
X187186Y268448D01*
X187120Y268523D01*
X187108Y268540D01*
X187098Y268547D01*
X187080Y268568D01*
X186728Y268920D01*
X185959Y270776D01*
X185959Y272784D01*
X186728Y274640D01*
X186962Y274874D01*
X187022Y274952D01*
X187090Y275024D01*
X187119Y275077D01*
X187156Y275125D01*
X187196Y275216D01*
X187244Y275302D01*
X187259Y275361D01*
X187283Y275417D01*
X187298Y275515D01*
X187323Y275610D01*
X187329Y275710D01*
X187333Y275731D01*
X187331Y275743D01*
X187333Y275771D01*
X187333Y279226D01*
X187318Y279344D01*
X187311Y279463D01*
X187298Y279501D01*
X187293Y279542D01*
X187250Y279652D01*
X187213Y279765D01*
X187191Y279800D01*
X187176Y279837D01*
X187107Y279933D01*
X187043Y280034D01*
X187013Y280062D01*
X186990Y280095D01*
X186898Y280171D01*
X186811Y280252D01*
X186776Y280272D01*
X186745Y280297D01*
X186637Y280348D01*
X186533Y280406D01*
X186493Y280416D01*
X186457Y280433D01*
X186340Y280455D01*
X186225Y280485D01*
X186165Y280489D01*
X186145Y280493D01*
X186124Y280491D01*
X186064Y280495D01*
X184758Y280495D01*
X183865Y281388D01*
X183865Y292652D01*
X184758Y293545D01*
X197022Y293545D01*
X197954Y292613D01*
X198053Y292536D01*
X198148Y292454D01*
X198178Y292438D01*
X198205Y292418D01*
X198320Y292368D01*
X198433Y292312D01*
X198466Y292305D01*
X198497Y292291D01*
X198621Y292272D01*
X198744Y292246D01*
X198777Y292247D01*
X198811Y292242D01*
X198936Y292253D01*
X199061Y292259D01*
X199094Y292268D01*
X199127Y292271D01*
X199246Y292314D01*
X199366Y292350D01*
X199395Y292368D01*
X199427Y292379D01*
X199531Y292450D01*
X199638Y292515D01*
X199662Y292539D01*
X199690Y292558D01*
X199773Y292652D01*
X199861Y292742D01*
X199888Y292782D01*
X199900Y292796D01*
X199910Y292816D01*
X199950Y292876D01*
X200357Y293580D01*
X200830Y294053D01*
X201409Y294388D01*
X202056Y294561D01*
X205391Y294561D01*
X205391Y288250D01*
X205406Y288132D01*
X205413Y288013D01*
X205425Y287975D01*
X205431Y287935D01*
X205474Y287824D01*
X205511Y287711D01*
X205533Y287677D01*
X205548Y287639D01*
X205617Y287543D01*
X205681Y287442D01*
X205711Y287414D01*
X205734Y287382D01*
X205826Y287306D01*
X205913Y287224D01*
X205948Y287205D01*
X205979Y287179D01*
X206087Y287128D01*
X206191Y287071D01*
X206231Y287061D01*
X206267Y287043D01*
X206374Y287023D01*
X206344Y287019D01*
X206234Y286975D01*
X206121Y286939D01*
X206086Y286917D01*
X206049Y286902D01*
X205952Y286832D01*
X205852Y286769D01*
X205824Y286739D01*
X205791Y286715D01*
X205715Y286624D01*
X205634Y286537D01*
X205614Y286502D01*
X205589Y286470D01*
X205538Y286363D01*
X205480Y286258D01*
X205470Y286219D01*
X205453Y286183D01*
X205431Y286066D01*
X205401Y285950D01*
X205397Y285890D01*
X205393Y285870D01*
X205395Y285850D01*
X205391Y285790D01*
X205391Y279479D01*
X202056Y279479D01*
X201409Y279652D01*
X200830Y279987D01*
X200357Y280460D01*
X199950Y281164D01*
X199878Y281259D01*
X199843Y281315D01*
X199835Y281322D01*
X199804Y281368D01*
X199778Y281391D01*
X199758Y281418D01*
X199659Y281496D01*
X199565Y281579D01*
X199535Y281594D01*
X199509Y281615D01*
X199394Y281666D01*
X199282Y281724D01*
X199249Y281731D01*
X199218Y281745D01*
X199094Y281766D01*
X198972Y281793D01*
X198938Y281792D01*
X198905Y281798D01*
X198779Y281787D01*
X198654Y281784D01*
X198621Y281774D01*
X198588Y281771D01*
X198469Y281730D01*
X198348Y281695D01*
X198319Y281678D01*
X198287Y281667D01*
X198183Y281598D01*
X198074Y281534D01*
X198038Y281501D01*
X198022Y281491D01*
X198008Y281475D01*
X197954Y281427D01*
X197022Y280495D01*
X195716Y280495D01*
X195598Y280480D01*
X195479Y280473D01*
X195441Y280460D01*
X195400Y280455D01*
X195290Y280412D01*
X195177Y280375D01*
X195142Y280353D01*
X195105Y280338D01*
X195009Y280269D01*
X194908Y280205D01*
X194880Y280175D01*
X194847Y280152D01*
X194771Y280060D01*
X194690Y279973D01*
X194670Y279938D01*
X194645Y279907D01*
X194594Y279799D01*
X194536Y279695D01*
X194526Y279655D01*
X194509Y279619D01*
X194487Y279502D01*
X194457Y279387D01*
X194453Y279327D01*
X194449Y279307D01*
X194451Y279286D01*
X194447Y279226D01*
X194447Y276606D01*
X194462Y276488D01*
X194469Y276369D01*
X194482Y276331D01*
X194487Y276290D01*
X194531Y276179D01*
X194567Y276067D01*
X194589Y276032D01*
X194604Y275995D01*
X194673Y275899D01*
X194737Y275798D01*
X194767Y275770D01*
X194790Y275737D01*
X194882Y275661D01*
X194969Y275580D01*
X195004Y275560D01*
X195035Y275535D01*
X195143Y275484D01*
X195247Y275426D01*
X195287Y275416D01*
X195323Y275399D01*
X195440Y275377D01*
X195555Y275347D01*
X195615Y275343D01*
X195635Y275339D01*
X195656Y275341D01*
X195716Y275337D01*
X256241Y275337D01*
X256339Y275349D01*
X256438Y275352D01*
X256496Y275369D01*
X256557Y275377D01*
X256649Y275413D01*
X256744Y275441D01*
X256796Y275471D01*
X256852Y275494D01*
X256932Y275552D01*
X257018Y275602D01*
X257093Y275668D01*
X257110Y275680D01*
X257117Y275690D01*
X257138Y275708D01*
X257320Y275890D01*
X257380Y275968D01*
X257448Y276040D01*
X257477Y276093D01*
X257514Y276141D01*
X257554Y276232D01*
X257602Y276318D01*
X257617Y276377D01*
X257641Y276433D01*
X257656Y276531D01*
X257681Y276626D01*
X257687Y276726D01*
X257691Y276747D01*
X257689Y276759D01*
X257691Y276787D01*
X257691Y279226D01*
X257676Y279344D01*
X257669Y279463D01*
X257656Y279501D01*
X257651Y279542D01*
X257608Y279652D01*
X257571Y279765D01*
X257549Y279800D01*
X257534Y279837D01*
X257465Y279933D01*
X257401Y280034D01*
X257371Y280062D01*
X257348Y280095D01*
X257256Y280171D01*
X257169Y280252D01*
X257134Y280272D01*
X257103Y280297D01*
X256995Y280348D01*
X256891Y280406D01*
X256851Y280416D01*
X256815Y280433D01*
X256698Y280455D01*
X256583Y280485D01*
X256523Y280489D01*
X256503Y280493D01*
X256482Y280491D01*
X256422Y280495D01*
X254608Y280495D01*
X253715Y281388D01*
X253715Y292652D01*
X254608Y293545D01*
X266872Y293545D01*
X267804Y292613D01*
X267903Y292536D01*
X267998Y292454D01*
X268028Y292439D01*
X268055Y292418D01*
X268170Y292368D01*
X268283Y292312D01*
X268316Y292305D01*
X268347Y292291D01*
X268471Y292272D01*
X268594Y292246D01*
X268627Y292247D01*
X268661Y292242D01*
X268786Y292253D01*
X268912Y292259D01*
X268944Y292268D01*
X268977Y292271D01*
X269096Y292314D01*
X269216Y292350D01*
X269245Y292368D01*
X269277Y292379D01*
X269381Y292450D01*
X269488Y292515D01*
X269512Y292539D01*
X269540Y292558D01*
X269623Y292652D01*
X269711Y292742D01*
X269738Y292782D01*
X269750Y292796D01*
X269760Y292815D01*
X269800Y292876D01*
X270207Y293580D01*
X270680Y294053D01*
X271259Y294388D01*
X271906Y294561D01*
X275241Y294561D01*
X275241Y288250D01*
X275256Y288132D01*
X275263Y288013D01*
X275275Y287975D01*
X275281Y287935D01*
X275324Y287824D01*
X275361Y287711D01*
X275383Y287677D01*
X275398Y287639D01*
X275467Y287543D01*
X275531Y287442D01*
X275561Y287414D01*
X275584Y287382D01*
X275676Y287306D01*
X275763Y287224D01*
X275798Y287205D01*
X275829Y287179D01*
X275937Y287128D01*
X276041Y287071D01*
X276081Y287061D01*
X276117Y287043D01*
X276224Y287023D01*
X276194Y287019D01*
X276084Y286975D01*
X275971Y286939D01*
X275936Y286917D01*
X275899Y286902D01*
X275802Y286832D01*
X275702Y286769D01*
X275674Y286739D01*
X275641Y286715D01*
X275565Y286624D01*
X275484Y286537D01*
X275464Y286502D01*
X275439Y286470D01*
X275388Y286363D01*
X275330Y286258D01*
X275320Y286219D01*
X275303Y286183D01*
X275281Y286066D01*
X275251Y285950D01*
X275247Y285890D01*
X275243Y285870D01*
X275245Y285850D01*
X275241Y285790D01*
X275241Y279479D01*
X271906Y279479D01*
X271259Y279652D01*
X270680Y279987D01*
X270207Y280460D01*
X269800Y281164D01*
X269728Y281259D01*
X269693Y281315D01*
X269685Y281322D01*
X269654Y281368D01*
X269628Y281391D01*
X269608Y281418D01*
X269509Y281496D01*
X269415Y281579D01*
X269385Y281594D01*
X269359Y281615D01*
X269244Y281666D01*
X269132Y281724D01*
X269099Y281731D01*
X269068Y281745D01*
X268944Y281766D01*
X268822Y281793D01*
X268788Y281792D01*
X268755Y281798D01*
X268629Y281787D01*
X268504Y281784D01*
X268471Y281774D01*
X268438Y281771D01*
X268319Y281730D01*
X268198Y281695D01*
X268169Y281678D01*
X268137Y281667D01*
X268033Y281598D01*
X267924Y281534D01*
X267888Y281501D01*
X267872Y281491D01*
X267858Y281475D01*
X267804Y281427D01*
X266872Y280495D01*
X265058Y280495D01*
X264940Y280480D01*
X264821Y280473D01*
X264783Y280460D01*
X264742Y280455D01*
X264632Y280412D01*
X264519Y280375D01*
X264484Y280353D01*
X264447Y280338D01*
X264351Y280269D01*
X264250Y280205D01*
X264222Y280175D01*
X264189Y280152D01*
X264113Y280060D01*
X264032Y279973D01*
X264012Y279938D01*
X263987Y279907D01*
X263936Y279799D01*
X263878Y279695D01*
X263868Y279655D01*
X263851Y279619D01*
X263829Y279502D01*
X263799Y279387D01*
X263795Y279327D01*
X263791Y279307D01*
X263793Y279286D01*
X263789Y279226D01*
X263789Y276007D01*
X263801Y275909D01*
X263804Y275810D01*
X263821Y275752D01*
X263829Y275691D01*
X263865Y275599D01*
X263893Y275504D01*
X263923Y275452D01*
X263946Y275396D01*
X264004Y275316D01*
X264054Y275230D01*
X264120Y275155D01*
X264132Y275138D01*
X264142Y275131D01*
X264160Y275110D01*
X264630Y274640D01*
X265399Y272784D01*
X265399Y270776D01*
X264630Y268920D01*
X264278Y268568D01*
X264218Y268490D01*
X264150Y268418D01*
X264121Y268365D01*
X264084Y268317D01*
X264044Y268226D01*
X263996Y268140D01*
X263981Y268081D01*
X263957Y268025D01*
X263942Y267927D01*
X263917Y267832D01*
X263911Y267732D01*
X263907Y267711D01*
X263909Y267699D01*
X263907Y267671D01*
X263907Y170909D01*
X263919Y170811D01*
X263922Y170712D01*
X263939Y170654D01*
X263947Y170593D01*
X263983Y170501D01*
X264011Y170406D01*
X264041Y170354D01*
X264064Y170298D01*
X264122Y170218D01*
X264172Y170132D01*
X264238Y170057D01*
X264250Y170040D01*
X264260Y170033D01*
X264278Y170011D01*
X276469Y157820D01*
X276548Y157760D01*
X276620Y157692D01*
X276673Y157663D01*
X276721Y157626D01*
X276812Y157586D01*
X276898Y157538D01*
X276957Y157523D01*
X277013Y157499D01*
X277111Y157484D01*
X277206Y157459D01*
X277306Y157453D01*
X277327Y157449D01*
X277339Y157451D01*
X277367Y157449D01*
X277864Y157449D01*
X279720Y156680D01*
X281140Y155260D01*
X281909Y153404D01*
X281913Y153396D01*
X281916Y153387D01*
X281992Y153258D01*
X282066Y153128D01*
X282073Y153121D01*
X282078Y153113D01*
X282184Y152992D01*
X283385Y151792D01*
X283385Y139528D01*
X282453Y138596D01*
X282376Y138497D01*
X282294Y138402D01*
X282279Y138372D01*
X282258Y138345D01*
X282208Y138230D01*
X282152Y138117D01*
X282145Y138084D01*
X282131Y138053D01*
X282112Y137929D01*
X282086Y137806D01*
X282087Y137773D01*
X282082Y137739D01*
X282093Y137614D01*
X282099Y137488D01*
X282108Y137456D01*
X282111Y137423D01*
X282154Y137304D01*
X282190Y137184D01*
X282208Y137155D01*
X282219Y137123D01*
X282290Y137019D01*
X282355Y136912D01*
X282379Y136888D01*
X282398Y136860D01*
X282492Y136777D01*
X282582Y136689D01*
X282622Y136662D01*
X282636Y136650D01*
X282655Y136640D01*
X282716Y136600D01*
X283420Y136193D01*
X283893Y135720D01*
X284228Y135141D01*
X284401Y134494D01*
X284401Y131159D01*
X278090Y131159D01*
X277972Y131144D01*
X277853Y131137D01*
X277815Y131124D01*
X277775Y131119D01*
X277664Y131076D01*
X277551Y131039D01*
X277517Y131017D01*
X277479Y131002D01*
X277383Y130933D01*
X277282Y130869D01*
X277254Y130839D01*
X277222Y130816D01*
X277146Y130724D01*
X277064Y130637D01*
X277045Y130602D01*
X277019Y130571D01*
X276968Y130463D01*
X276911Y130359D01*
X276901Y130319D01*
X276883Y130283D01*
X276863Y130176D01*
X276859Y130206D01*
X276815Y130316D01*
X276779Y130429D01*
X276757Y130464D01*
X276742Y130501D01*
X276672Y130597D01*
X276609Y130698D01*
X276579Y130726D01*
X276555Y130759D01*
X276464Y130835D01*
X276377Y130916D01*
X276342Y130936D01*
X276310Y130961D01*
X276203Y131012D01*
X276098Y131070D01*
X276059Y131080D01*
X276023Y131097D01*
X275906Y131119D01*
X275790Y131149D01*
X275730Y131153D01*
X275710Y131157D01*
X275690Y131155D01*
X275630Y131159D01*
X269319Y131159D01*
X269319Y134494D01*
X269492Y135141D01*
X269827Y135720D01*
X270300Y136193D01*
X271004Y136600D01*
X271104Y136676D01*
X271208Y136746D01*
X271231Y136772D01*
X271258Y136792D01*
X271336Y136891D01*
X271419Y136985D01*
X271434Y137015D01*
X271455Y137041D01*
X271506Y137156D01*
X271564Y137268D01*
X271571Y137301D01*
X271585Y137332D01*
X271606Y137456D01*
X271633Y137578D01*
X271632Y137612D01*
X271638Y137645D01*
X271627Y137771D01*
X271624Y137896D01*
X271614Y137929D01*
X271611Y137962D01*
X271570Y138081D01*
X271535Y138202D01*
X271518Y138231D01*
X271507Y138263D01*
X271438Y138367D01*
X271374Y138476D01*
X271341Y138512D01*
X271331Y138528D01*
X271315Y138542D01*
X271267Y138596D01*
X270335Y139528D01*
X270335Y151792D01*
X270489Y151946D01*
X270562Y152040D01*
X270641Y152129D01*
X270660Y152165D01*
X270684Y152197D01*
X270732Y152306D01*
X270786Y152412D01*
X270795Y152452D01*
X270811Y152489D01*
X270829Y152607D01*
X270855Y152723D01*
X270854Y152763D01*
X270861Y152803D01*
X270849Y152921D01*
X270846Y153040D01*
X270834Y153079D01*
X270831Y153119D01*
X270790Y153232D01*
X270757Y153346D01*
X270737Y153381D01*
X270723Y153419D01*
X270656Y153517D01*
X270596Y153620D01*
X270556Y153665D01*
X270545Y153682D01*
X270529Y153695D01*
X270489Y153741D01*
X256793Y167437D01*
X256793Y263431D01*
X256781Y263529D01*
X256778Y263628D01*
X256761Y263686D01*
X256753Y263747D01*
X256717Y263839D01*
X256689Y263934D01*
X256659Y263986D01*
X256636Y264042D01*
X256578Y264122D01*
X256528Y264208D01*
X256462Y264283D01*
X256450Y264300D01*
X256440Y264307D01*
X256422Y264329D01*
X252899Y267852D01*
X252820Y267912D01*
X252748Y267980D01*
X252695Y268009D01*
X252647Y268046D01*
X252556Y268086D01*
X252470Y268134D01*
X252411Y268149D01*
X252355Y268173D01*
X252257Y268188D01*
X252162Y268213D01*
X252062Y268219D01*
X252041Y268223D01*
X252029Y268221D01*
X252001Y268223D01*
X203167Y268223D01*
X203069Y268211D01*
X202970Y268208D01*
X202912Y268191D01*
X202851Y268183D01*
X202759Y268147D01*
X202664Y268119D01*
X202612Y268089D01*
X202556Y268066D01*
X202476Y268008D01*
X202390Y267958D01*
X202315Y267892D01*
X202298Y267880D01*
X202291Y267870D01*
X202269Y267852D01*
X194936Y260519D01*
X194876Y260440D01*
X194808Y260368D01*
X194779Y260315D01*
X194742Y260267D01*
X194702Y260176D01*
X194654Y260090D01*
X194639Y260031D01*
X194615Y259975D01*
X194600Y259877D01*
X194575Y259782D01*
X194569Y259682D01*
X194565Y259661D01*
X194567Y259649D01*
X194565Y259621D01*
X194565Y246939D01*
X182829Y235203D01*
X168314Y235203D01*
X168196Y235188D01*
X168077Y235181D01*
X168039Y235168D01*
X167998Y235163D01*
X167888Y235120D01*
X167775Y235083D01*
X167740Y235061D01*
X167703Y235046D01*
X167607Y234977D01*
X167506Y234913D01*
X167478Y234883D01*
X167445Y234860D01*
X167369Y234768D01*
X167288Y234681D01*
X167268Y234646D01*
X167243Y234615D01*
X167192Y234507D01*
X167134Y234403D01*
X167124Y234363D01*
X167107Y234327D01*
X167085Y234210D01*
X167055Y234095D01*
X167051Y234035D01*
X167047Y234015D01*
X167049Y233994D01*
X167045Y233934D01*
X167045Y232248D01*
X166152Y231355D01*
X153888Y231355D01*
X152995Y232248D01*
X152995Y232918D01*
X152980Y233036D01*
X152973Y233155D01*
X152960Y233193D01*
X152955Y233234D01*
X152912Y233344D01*
X152875Y233457D01*
X152853Y233492D01*
X152838Y233529D01*
X152769Y233625D01*
X152705Y233726D01*
X152675Y233754D01*
X152652Y233787D01*
X152560Y233863D01*
X152473Y233944D01*
X152438Y233964D01*
X152407Y233989D01*
X152299Y234040D01*
X152195Y234098D01*
X152155Y234108D01*
X152119Y234125D01*
X152002Y234147D01*
X151887Y234177D01*
X151827Y234181D01*
X151807Y234185D01*
X151786Y234183D01*
X151726Y234187D01*
X130715Y234187D01*
X130617Y234175D01*
X130518Y234172D01*
X130460Y234155D01*
X130400Y234147D01*
X130308Y234111D01*
X130213Y234083D01*
X130160Y234053D01*
X130104Y234030D01*
X130024Y233972D01*
X129939Y233922D01*
X129863Y233856D01*
X129847Y233844D01*
X129839Y233834D01*
X129818Y233816D01*
X123308Y227306D01*
X123248Y227228D01*
X123180Y227156D01*
X123151Y227103D01*
X123114Y227055D01*
X123074Y226964D01*
X123026Y226877D01*
X123011Y226819D01*
X122987Y226763D01*
X122972Y226665D01*
X122947Y226569D01*
X122941Y226469D01*
X122937Y226449D01*
X122939Y226437D01*
X122937Y226409D01*
X122937Y192742D01*
X122949Y192644D01*
X122952Y192545D01*
X122969Y192487D01*
X122977Y192427D01*
X123013Y192335D01*
X123041Y192239D01*
X123071Y192187D01*
X123094Y192131D01*
X123152Y192051D01*
X123202Y191965D01*
X123268Y191890D01*
X123280Y191874D01*
X123290Y191866D01*
X123309Y191845D01*
X124064Y191090D01*
X124905Y189059D01*
X124905Y186861D01*
X124064Y184831D01*
X123308Y184075D01*
X123248Y183997D01*
X123180Y183925D01*
X123151Y183872D01*
X123114Y183824D01*
X123074Y183733D01*
X123026Y183646D01*
X123011Y183588D01*
X122987Y183532D01*
X122972Y183434D01*
X122947Y183339D01*
X122941Y183238D01*
X122937Y183218D01*
X122939Y183206D01*
X122937Y183178D01*
X122937Y103544D01*
X122952Y103426D01*
X122959Y103307D01*
X122972Y103269D01*
X122977Y103228D01*
X123020Y103118D01*
X123057Y103005D01*
X123079Y102970D01*
X123094Y102933D01*
X123163Y102837D01*
X123227Y102736D01*
X123257Y102708D01*
X123280Y102675D01*
X123372Y102599D01*
X123459Y102518D01*
X123494Y102498D01*
X123525Y102473D01*
X123633Y102422D01*
X123737Y102364D01*
X123777Y102354D01*
X123813Y102337D01*
X123930Y102315D01*
X124045Y102285D01*
X124105Y102281D01*
X124125Y102277D01*
X124146Y102279D01*
X124206Y102275D01*
X124622Y102275D01*
X125515Y101382D01*
X125515Y89118D01*
X124481Y88084D01*
X124408Y87990D01*
X124329Y87901D01*
X124310Y87865D01*
X124286Y87833D01*
X124238Y87724D01*
X124184Y87618D01*
X124175Y87578D01*
X124159Y87541D01*
X124141Y87423D01*
X124115Y87307D01*
X124116Y87267D01*
X124109Y87227D01*
X124121Y87108D01*
X124124Y86990D01*
X124136Y86951D01*
X124139Y86910D01*
X124180Y86798D01*
X124213Y86684D01*
X124233Y86649D01*
X124247Y86611D01*
X124314Y86513D01*
X124374Y86410D01*
X124414Y86365D01*
X124425Y86348D01*
X124441Y86335D01*
X124481Y86289D01*
X133181Y77588D01*
X133260Y77528D01*
X133332Y77460D01*
X133385Y77431D01*
X133433Y77394D01*
X133524Y77354D01*
X133610Y77306D01*
X133669Y77291D01*
X133725Y77267D01*
X133823Y77252D01*
X133918Y77227D01*
X134018Y77221D01*
X134039Y77217D01*
X134051Y77219D01*
X134079Y77217D01*
X154378Y77217D01*
X154476Y77229D01*
X154575Y77232D01*
X154633Y77249D01*
X154693Y77257D01*
X154785Y77293D01*
X154881Y77321D01*
X154933Y77351D01*
X154989Y77374D01*
X155069Y77432D01*
X155154Y77482D01*
X155230Y77548D01*
X155246Y77560D01*
X155254Y77570D01*
X155275Y77588D01*
X155838Y78151D01*
X155898Y78229D01*
X155966Y78301D01*
X155995Y78354D01*
X156032Y78402D01*
X156072Y78493D01*
X156120Y78580D01*
X156135Y78638D01*
X156159Y78694D01*
X156174Y78792D01*
X156199Y78887D01*
X156205Y78988D01*
X156209Y79008D01*
X156207Y79020D01*
X156209Y79048D01*
X156209Y80226D01*
X156194Y80344D01*
X156187Y80463D01*
X156174Y80501D01*
X156169Y80542D01*
X156126Y80652D01*
X156089Y80765D01*
X156067Y80800D01*
X156052Y80837D01*
X155983Y80933D01*
X155919Y81034D01*
X155889Y81062D01*
X155866Y81095D01*
X155774Y81171D01*
X155687Y81252D01*
X155652Y81272D01*
X155621Y81297D01*
X155513Y81348D01*
X155409Y81406D01*
X155369Y81416D01*
X155333Y81433D01*
X155216Y81455D01*
X155101Y81485D01*
X155041Y81489D01*
X155021Y81493D01*
X155000Y81491D01*
X154940Y81495D01*
X152618Y81495D01*
X151725Y82388D01*
X151725Y93652D01*
X152618Y94545D01*
X164882Y94545D01*
X165775Y93652D01*
X165775Y82388D01*
X164882Y81495D01*
X162560Y81495D01*
X162442Y81480D01*
X162323Y81473D01*
X162285Y81460D01*
X162244Y81455D01*
X162134Y81412D01*
X162021Y81375D01*
X161986Y81353D01*
X161949Y81338D01*
X161853Y81269D01*
X161752Y81205D01*
X161724Y81175D01*
X161691Y81152D01*
X161615Y81060D01*
X161534Y80973D01*
X161514Y80938D01*
X161489Y80907D01*
X161438Y80799D01*
X161380Y80695D01*
X161370Y80655D01*
X161353Y80619D01*
X161331Y80502D01*
X161301Y80387D01*
X161297Y80327D01*
X161293Y80307D01*
X161295Y80286D01*
X161291Y80226D01*
X161291Y79048D01*
X161303Y78950D01*
X161306Y78851D01*
X161323Y78793D01*
X161331Y78733D01*
X161367Y78641D01*
X161395Y78545D01*
X161425Y78493D01*
X161448Y78437D01*
X161506Y78357D01*
X161556Y78272D01*
X161622Y78196D01*
X161634Y78180D01*
X161644Y78172D01*
X161662Y78151D01*
X162225Y77588D01*
X162303Y77528D01*
X162375Y77460D01*
X162428Y77431D01*
X162476Y77394D01*
X162567Y77354D01*
X162654Y77306D01*
X162712Y77291D01*
X162768Y77267D01*
X162866Y77252D01*
X162961Y77227D01*
X163062Y77221D01*
X163082Y77217D01*
X163094Y77219D01*
X163122Y77217D01*
X181146Y77217D01*
X181244Y77229D01*
X181343Y77232D01*
X181401Y77249D01*
X181461Y77257D01*
X181553Y77293D01*
X181649Y77321D01*
X181701Y77351D01*
X181757Y77374D01*
X181837Y77432D01*
X181922Y77482D01*
X181998Y77548D01*
X182014Y77560D01*
X182022Y77570D01*
X182043Y77588D01*
X182799Y78344D01*
X184829Y79185D01*
X187027Y79185D01*
X189058Y78344D01*
X189813Y77589D01*
X189891Y77528D01*
X189963Y77460D01*
X190016Y77431D01*
X190064Y77394D01*
X190155Y77354D01*
X190242Y77306D01*
X190300Y77291D01*
X190356Y77267D01*
X190454Y77252D01*
X190549Y77227D01*
X190649Y77221D01*
X190670Y77217D01*
X190682Y77219D01*
X190710Y77217D01*
X251250Y77217D01*
X251348Y77229D01*
X251447Y77232D01*
X251505Y77249D01*
X251565Y77257D01*
X251657Y77293D01*
X251753Y77321D01*
X251805Y77351D01*
X251861Y77374D01*
X251941Y77432D01*
X252026Y77482D01*
X252102Y77548D01*
X252118Y77560D01*
X252126Y77570D01*
X252147Y77588D01*
X252903Y78344D01*
X254933Y79185D01*
X257131Y79185D01*
X259161Y78344D01*
X260716Y76789D01*
X261557Y74759D01*
X261557Y72561D01*
X260716Y70530D01*
X260079Y69893D01*
X260018Y69815D01*
X259950Y69743D01*
X259921Y69690D01*
X259884Y69642D01*
X259844Y69551D01*
X259796Y69464D01*
X259781Y69406D01*
X259757Y69350D01*
X259742Y69252D01*
X259717Y69157D01*
X259711Y69057D01*
X259707Y69036D01*
X259709Y69024D01*
X259707Y68996D01*
X259707Y68754D01*
X259722Y68636D01*
X259729Y68517D01*
X259742Y68479D01*
X259747Y68438D01*
X259790Y68328D01*
X259827Y68215D01*
X259849Y68180D01*
X259864Y68143D01*
X259933Y68047D01*
X259997Y67946D01*
X260027Y67918D01*
X260050Y67885D01*
X260142Y67809D01*
X260229Y67728D01*
X260264Y67708D01*
X260295Y67683D01*
X260403Y67632D01*
X260507Y67574D01*
X260547Y67564D01*
X260583Y67547D01*
X260700Y67525D01*
X260815Y67495D01*
X260875Y67491D01*
X260895Y67487D01*
X260916Y67489D01*
X260976Y67485D01*
X262282Y67485D01*
X263175Y66592D01*
X263175Y55328D01*
X262282Y54435D01*
X250018Y54435D01*
X249086Y55367D01*
X248987Y55444D01*
X248892Y55526D01*
X248862Y55541D01*
X248835Y55562D01*
X248720Y55612D01*
X248607Y55668D01*
X248574Y55675D01*
X248543Y55689D01*
X248419Y55708D01*
X248296Y55734D01*
X248263Y55733D01*
X248229Y55738D01*
X248104Y55727D01*
X247978Y55721D01*
X247946Y55712D01*
X247913Y55709D01*
X247794Y55666D01*
X247674Y55630D01*
X247645Y55612D01*
X247613Y55601D01*
X247509Y55530D01*
X247402Y55465D01*
X247378Y55441D01*
X247350Y55422D01*
X247267Y55328D01*
X247179Y55238D01*
X247152Y55198D01*
X247140Y55184D01*
X247130Y55165D01*
X247090Y55104D01*
X246683Y54400D01*
X246210Y53927D01*
X245631Y53592D01*
X244984Y53419D01*
X241649Y53419D01*
X241649Y59730D01*
X241634Y59848D01*
X241627Y59967D01*
X241614Y60005D01*
X241609Y60045D01*
X241566Y60156D01*
X241529Y60269D01*
X241507Y60303D01*
X241492Y60341D01*
X241423Y60437D01*
X241359Y60538D01*
X241329Y60566D01*
X241306Y60598D01*
X241214Y60674D01*
X241127Y60756D01*
X241092Y60775D01*
X241061Y60801D01*
X240953Y60852D01*
X240849Y60909D01*
X240809Y60919D01*
X240773Y60937D01*
X240656Y60959D01*
X240541Y60989D01*
X240481Y60993D01*
X240461Y60996D01*
X240440Y60995D01*
X240380Y60999D01*
X239189Y60999D01*
X239189Y62190D01*
X239174Y62308D01*
X239167Y62427D01*
X239154Y62465D01*
X239149Y62506D01*
X239105Y62616D01*
X239069Y62729D01*
X239047Y62764D01*
X239032Y62801D01*
X238962Y62897D01*
X238899Y62998D01*
X238869Y63026D01*
X238845Y63059D01*
X238754Y63135D01*
X238667Y63216D01*
X238632Y63236D01*
X238600Y63261D01*
X238493Y63312D01*
X238388Y63370D01*
X238349Y63380D01*
X238313Y63397D01*
X238196Y63419D01*
X238080Y63449D01*
X238020Y63453D01*
X238000Y63457D01*
X237980Y63455D01*
X237920Y63459D01*
X231109Y63459D01*
X231109Y66294D01*
X231282Y66941D01*
X231617Y67520D01*
X232033Y67936D01*
X232119Y68046D01*
X232207Y68153D01*
X232216Y68172D01*
X232228Y68188D01*
X232284Y68316D01*
X232343Y68441D01*
X232347Y68461D01*
X232355Y68480D01*
X232377Y68618D01*
X232403Y68754D01*
X232401Y68774D01*
X232405Y68794D01*
X232391Y68933D01*
X232383Y69071D01*
X232377Y69090D01*
X232375Y69110D01*
X232328Y69241D01*
X232285Y69373D01*
X232274Y69391D01*
X232267Y69410D01*
X232189Y69524D01*
X232115Y69642D01*
X232100Y69656D01*
X232089Y69673D01*
X231985Y69765D01*
X231883Y69860D01*
X231865Y69870D01*
X231850Y69883D01*
X231726Y69946D01*
X231605Y70014D01*
X231585Y70019D01*
X231567Y70028D01*
X231431Y70058D01*
X231297Y70093D01*
X231269Y70095D01*
X231257Y70098D01*
X231236Y70097D01*
X231136Y70103D01*
X212094Y70103D01*
X211956Y70086D01*
X211818Y70073D01*
X211799Y70066D01*
X211779Y70063D01*
X211649Y70012D01*
X211518Y69965D01*
X211502Y69954D01*
X211483Y69946D01*
X211370Y69864D01*
X211255Y69787D01*
X211242Y69771D01*
X211226Y69760D01*
X211136Y69652D01*
X211045Y69548D01*
X211036Y69530D01*
X211023Y69515D01*
X210963Y69389D01*
X210900Y69265D01*
X210896Y69245D01*
X210887Y69227D01*
X210861Y69091D01*
X210831Y68955D01*
X210831Y68934D01*
X210827Y68915D01*
X210836Y68776D01*
X210840Y68637D01*
X210846Y68617D01*
X210847Y68597D01*
X210890Y68465D01*
X210929Y68331D01*
X210939Y68314D01*
X210945Y68295D01*
X211019Y68177D01*
X211090Y68057D01*
X211109Y68036D01*
X211115Y68026D01*
X211130Y68012D01*
X211197Y67936D01*
X211613Y67520D01*
X211948Y66941D01*
X212121Y66294D01*
X212121Y63459D01*
X205310Y63459D01*
X205192Y63444D01*
X205073Y63437D01*
X205035Y63424D01*
X204995Y63419D01*
X204884Y63376D01*
X204771Y63339D01*
X204737Y63317D01*
X204699Y63302D01*
X204603Y63233D01*
X204502Y63169D01*
X204474Y63139D01*
X204442Y63116D01*
X204366Y63024D01*
X204284Y62937D01*
X204265Y62902D01*
X204239Y62871D01*
X204188Y62763D01*
X204131Y62659D01*
X204121Y62619D01*
X204103Y62583D01*
X204081Y62466D01*
X204051Y62351D01*
X204047Y62291D01*
X204044Y62271D01*
X204045Y62250D01*
X204041Y62190D01*
X204041Y60999D01*
X202850Y60999D01*
X202732Y60984D01*
X202613Y60977D01*
X202575Y60964D01*
X202534Y60959D01*
X202424Y60915D01*
X202311Y60879D01*
X202276Y60857D01*
X202239Y60842D01*
X202142Y60772D01*
X202042Y60709D01*
X202014Y60679D01*
X201981Y60655D01*
X201905Y60564D01*
X201824Y60477D01*
X201804Y60442D01*
X201779Y60410D01*
X201728Y60303D01*
X201670Y60198D01*
X201660Y60159D01*
X201643Y60123D01*
X201621Y60006D01*
X201591Y59890D01*
X201587Y59830D01*
X201583Y59810D01*
X201585Y59790D01*
X201581Y59730D01*
X201581Y53419D01*
X198246Y53419D01*
G37*
%LPD*%
%LPC*%
G36*
X188226Y10191D02*
X188226Y10191D01*
X186370Y10960D01*
X185003Y12328D01*
X184924Y12388D01*
X184852Y12456D01*
X184799Y12485D01*
X184751Y12522D01*
X184660Y12562D01*
X184574Y12610D01*
X184515Y12625D01*
X184459Y12649D01*
X184361Y12664D01*
X184266Y12689D01*
X184166Y12695D01*
X184145Y12699D01*
X184133Y12697D01*
X184105Y12699D01*
X73878Y12699D01*
X66039Y20538D01*
X66039Y23668D01*
X66031Y23738D01*
X66032Y23807D01*
X66011Y23895D01*
X65999Y23984D01*
X65974Y24049D01*
X65957Y24117D01*
X65915Y24196D01*
X65882Y24280D01*
X65841Y24336D01*
X65809Y24398D01*
X65748Y24464D01*
X65696Y24537D01*
X65642Y24582D01*
X65595Y24633D01*
X65520Y24683D01*
X65451Y24740D01*
X65387Y24770D01*
X65329Y24808D01*
X65244Y24837D01*
X65163Y24875D01*
X65094Y24888D01*
X65028Y24911D01*
X64939Y24918D01*
X64851Y24935D01*
X64781Y24931D01*
X64711Y24936D01*
X64623Y24921D01*
X64533Y24915D01*
X64467Y24894D01*
X64398Y24882D01*
X64316Y24845D01*
X64231Y24817D01*
X64172Y24780D01*
X64108Y24751D01*
X64038Y24695D01*
X63962Y24647D01*
X63914Y24596D01*
X63860Y24553D01*
X63805Y24481D01*
X63744Y24416D01*
X63710Y24354D01*
X63668Y24299D01*
X63597Y24154D01*
X63565Y24075D01*
X61015Y21525D01*
X57683Y20145D01*
X54077Y20145D01*
X50745Y21525D01*
X48195Y24075D01*
X47445Y25886D01*
X47433Y25907D01*
X47427Y25927D01*
X47425Y25930D01*
X47422Y25939D01*
X47352Y26049D01*
X47288Y26162D01*
X47267Y26183D01*
X47251Y26208D01*
X47157Y26297D01*
X47067Y26390D01*
X47041Y26406D01*
X47020Y26426D01*
X46906Y26489D01*
X46795Y26557D01*
X46767Y26565D01*
X46741Y26580D01*
X46616Y26612D01*
X46491Y26650D01*
X46462Y26652D01*
X46433Y26659D01*
X46273Y26669D01*
X43398Y26669D01*
X37419Y32648D01*
X37341Y32708D01*
X37269Y32776D01*
X37216Y32805D01*
X37168Y32842D01*
X37077Y32882D01*
X36990Y32930D01*
X36932Y32945D01*
X36876Y32969D01*
X36778Y32984D01*
X36683Y33009D01*
X36582Y33015D01*
X36562Y33019D01*
X36550Y33017D01*
X36522Y33019D01*
X33694Y33019D01*
X33576Y33004D01*
X33457Y32997D01*
X33419Y32984D01*
X33378Y32979D01*
X33268Y32936D01*
X33155Y32899D01*
X33120Y32877D01*
X33083Y32862D01*
X32987Y32793D01*
X32886Y32729D01*
X32858Y32699D01*
X32825Y32676D01*
X32749Y32584D01*
X32668Y32497D01*
X32648Y32462D01*
X32623Y32431D01*
X32572Y32323D01*
X32514Y32219D01*
X32504Y32179D01*
X32487Y32143D01*
X32465Y32026D01*
X32435Y31911D01*
X32431Y31851D01*
X32427Y31831D01*
X32428Y31818D01*
X32427Y31814D01*
X32428Y31802D01*
X32425Y31750D01*
X32425Y30318D01*
X31532Y29425D01*
X19268Y29425D01*
X18375Y30318D01*
X18375Y41582D01*
X19268Y42475D01*
X31532Y42475D01*
X32425Y41582D01*
X32425Y39370D01*
X32440Y39252D01*
X32447Y39133D01*
X32460Y39095D01*
X32465Y39054D01*
X32508Y38944D01*
X32545Y38831D01*
X32567Y38796D01*
X32582Y38759D01*
X32651Y38663D01*
X32715Y38562D01*
X32745Y38534D01*
X32768Y38501D01*
X32860Y38425D01*
X32947Y38344D01*
X32982Y38324D01*
X33013Y38299D01*
X33121Y38248D01*
X33225Y38190D01*
X33265Y38180D01*
X33301Y38163D01*
X33418Y38141D01*
X33533Y38111D01*
X33593Y38107D01*
X33613Y38103D01*
X33634Y38105D01*
X33694Y38101D01*
X39152Y38101D01*
X45131Y32122D01*
X45209Y32062D01*
X45281Y31994D01*
X45334Y31965D01*
X45382Y31928D01*
X45473Y31888D01*
X45560Y31840D01*
X45618Y31825D01*
X45674Y31801D01*
X45772Y31786D01*
X45867Y31761D01*
X45968Y31755D01*
X45988Y31751D01*
X46000Y31753D01*
X46028Y31751D01*
X46273Y31751D01*
X46302Y31754D01*
X46331Y31752D01*
X46460Y31774D01*
X46588Y31791D01*
X46616Y31801D01*
X46645Y31806D01*
X46763Y31860D01*
X46884Y31908D01*
X46908Y31925D01*
X46935Y31937D01*
X47036Y32018D01*
X47141Y32094D01*
X47160Y32117D01*
X47183Y32136D01*
X47261Y32239D01*
X47344Y32339D01*
X47357Y32366D01*
X47374Y32390D01*
X47445Y32534D01*
X48195Y34345D01*
X50745Y36895D01*
X54077Y38275D01*
X57683Y38275D01*
X61015Y36895D01*
X63565Y34345D01*
X63597Y34266D01*
X63632Y34205D01*
X63658Y34140D01*
X63710Y34068D01*
X63755Y33990D01*
X63803Y33939D01*
X63844Y33883D01*
X63914Y33826D01*
X63976Y33761D01*
X64036Y33725D01*
X64089Y33680D01*
X64171Y33642D01*
X64247Y33595D01*
X64314Y33574D01*
X64377Y33545D01*
X64465Y33528D01*
X64551Y33501D01*
X64621Y33498D01*
X64690Y33485D01*
X64779Y33490D01*
X64869Y33486D01*
X64937Y33500D01*
X65007Y33505D01*
X65092Y33532D01*
X65180Y33550D01*
X65243Y33581D01*
X65309Y33603D01*
X65385Y33651D01*
X65466Y33690D01*
X65519Y33735D01*
X65578Y33773D01*
X65640Y33838D01*
X65708Y33897D01*
X65748Y33954D01*
X65796Y34004D01*
X65839Y34083D01*
X65891Y34157D01*
X65916Y34222D01*
X65950Y34283D01*
X65972Y34370D01*
X66004Y34454D01*
X66012Y34523D01*
X66029Y34591D01*
X66039Y34752D01*
X66039Y47536D01*
X66029Y47615D01*
X66029Y47695D01*
X66009Y47772D01*
X65999Y47852D01*
X65970Y47926D01*
X65950Y48003D01*
X65912Y48073D01*
X65882Y48148D01*
X65836Y48212D01*
X65797Y48282D01*
X65743Y48340D01*
X65696Y48405D01*
X65634Y48456D01*
X65580Y48514D01*
X65512Y48557D01*
X65451Y48608D01*
X65379Y48642D01*
X65311Y48684D01*
X65235Y48709D01*
X65163Y48743D01*
X65085Y48758D01*
X65009Y48783D01*
X64929Y48788D01*
X64851Y48803D01*
X64771Y48798D01*
X64691Y48803D01*
X64613Y48788D01*
X64533Y48783D01*
X64457Y48759D01*
X64379Y48744D01*
X64307Y48710D01*
X64231Y48685D01*
X64163Y48643D01*
X64091Y48609D01*
X64029Y48558D01*
X63962Y48515D01*
X63907Y48457D01*
X63846Y48406D01*
X63745Y48285D01*
X63744Y48283D01*
X63743Y48282D01*
X63569Y48043D01*
X62447Y46921D01*
X61163Y45988D01*
X59750Y45268D01*
X58379Y44823D01*
X58379Y53380D01*
X58364Y53498D01*
X58357Y53617D01*
X58344Y53655D01*
X58339Y53695D01*
X58296Y53806D01*
X58259Y53919D01*
X58237Y53953D01*
X58222Y53991D01*
X58153Y54087D01*
X58089Y54188D01*
X58059Y54216D01*
X58036Y54248D01*
X57944Y54324D01*
X57857Y54406D01*
X57822Y54425D01*
X57791Y54451D01*
X57683Y54502D01*
X57579Y54559D01*
X57539Y54569D01*
X57503Y54587D01*
X57396Y54607D01*
X57426Y54611D01*
X57536Y54655D01*
X57649Y54691D01*
X57684Y54713D01*
X57721Y54728D01*
X57817Y54798D01*
X57918Y54861D01*
X57946Y54891D01*
X57979Y54915D01*
X58055Y55006D01*
X58136Y55093D01*
X58156Y55128D01*
X58181Y55160D01*
X58232Y55267D01*
X58290Y55372D01*
X58300Y55411D01*
X58317Y55447D01*
X58339Y55564D01*
X58369Y55680D01*
X58373Y55740D01*
X58377Y55760D01*
X58376Y55767D01*
X58377Y55769D01*
X58376Y55784D01*
X58379Y55840D01*
X58379Y64397D01*
X59750Y63952D01*
X61163Y63232D01*
X62447Y62299D01*
X63569Y61177D01*
X63743Y60938D01*
X63798Y60880D01*
X63844Y60815D01*
X63906Y60764D01*
X63961Y60706D01*
X64028Y60663D01*
X64089Y60612D01*
X64162Y60578D01*
X64229Y60535D01*
X64305Y60511D01*
X64377Y60477D01*
X64456Y60462D01*
X64532Y60437D01*
X64611Y60432D01*
X64690Y60417D01*
X64769Y60422D01*
X64849Y60417D01*
X64927Y60432D01*
X65007Y60437D01*
X65083Y60461D01*
X65162Y60476D01*
X65234Y60510D01*
X65309Y60535D01*
X65377Y60578D01*
X65449Y60612D01*
X65511Y60662D01*
X65578Y60705D01*
X65633Y60763D01*
X65695Y60814D01*
X65741Y60879D01*
X65796Y60937D01*
X65835Y61006D01*
X65882Y61071D01*
X65911Y61145D01*
X65950Y61215D01*
X65970Y61292D01*
X65999Y61367D01*
X66009Y61446D01*
X66029Y61523D01*
X66039Y61681D01*
X66039Y61682D01*
X66039Y61683D01*
X66039Y61684D01*
X66039Y67002D01*
X66027Y67100D01*
X66024Y67199D01*
X66007Y67257D01*
X65999Y67317D01*
X65963Y67409D01*
X65935Y67505D01*
X65905Y67557D01*
X65882Y67613D01*
X65824Y67693D01*
X65774Y67778D01*
X65708Y67854D01*
X65696Y67870D01*
X65686Y67878D01*
X65668Y67899D01*
X60959Y72608D01*
X60959Y81235D01*
X60947Y81333D01*
X60944Y81432D01*
X60938Y81452D01*
X60937Y81471D01*
X60925Y81509D01*
X60919Y81551D01*
X60883Y81643D01*
X60855Y81738D01*
X60845Y81756D01*
X60839Y81774D01*
X60818Y81807D01*
X60802Y81846D01*
X60744Y81926D01*
X60694Y82012D01*
X60674Y82035D01*
X60669Y82042D01*
X60658Y82053D01*
X60628Y82087D01*
X60616Y82104D01*
X60606Y82111D01*
X60588Y82133D01*
X59273Y83448D01*
X59194Y83508D01*
X59122Y83576D01*
X59069Y83605D01*
X59021Y83642D01*
X58930Y83682D01*
X58844Y83730D01*
X58785Y83745D01*
X58729Y83769D01*
X58631Y83784D01*
X58536Y83809D01*
X58436Y83815D01*
X58415Y83819D01*
X58403Y83817D01*
X58375Y83819D01*
X20538Y83819D01*
X10159Y94198D01*
X10159Y215682D01*
X18710Y224233D01*
X18770Y224311D01*
X18838Y224383D01*
X18867Y224436D01*
X18904Y224484D01*
X18944Y224575D01*
X18992Y224662D01*
X19007Y224720D01*
X19031Y224776D01*
X19046Y224874D01*
X19071Y224969D01*
X19077Y225070D01*
X19081Y225090D01*
X19079Y225102D01*
X19081Y225130D01*
X19081Y227064D01*
X19850Y228920D01*
X21270Y230340D01*
X23126Y231109D01*
X25134Y231109D01*
X26990Y230340D01*
X27042Y230288D01*
X27152Y230202D01*
X27259Y230114D01*
X27278Y230105D01*
X27294Y230093D01*
X27421Y230037D01*
X27547Y229978D01*
X27567Y229974D01*
X27586Y229966D01*
X27723Y229944D01*
X27860Y229918D01*
X27880Y229920D01*
X27900Y229916D01*
X28038Y229929D01*
X28177Y229938D01*
X28196Y229944D01*
X28216Y229946D01*
X28347Y229993D01*
X28479Y230036D01*
X28497Y230047D01*
X28516Y230054D01*
X28630Y230132D01*
X28748Y230206D01*
X28762Y230221D01*
X28779Y230232D01*
X28870Y230336D01*
X28966Y230438D01*
X28976Y230456D01*
X28989Y230471D01*
X29052Y230594D01*
X29120Y230716D01*
X29125Y230736D01*
X29134Y230754D01*
X29164Y230890D01*
X29199Y231024D01*
X29201Y231052D01*
X29204Y231064D01*
X29203Y231085D01*
X29209Y231185D01*
X29209Y233635D01*
X29197Y233733D01*
X29194Y233832D01*
X29177Y233890D01*
X29169Y233951D01*
X29133Y234043D01*
X29105Y234138D01*
X29075Y234190D01*
X29052Y234246D01*
X28994Y234326D01*
X28944Y234412D01*
X28878Y234487D01*
X28866Y234504D01*
X28856Y234511D01*
X28838Y234532D01*
X27470Y235900D01*
X26701Y237756D01*
X26701Y239764D01*
X27470Y241620D01*
X28890Y243040D01*
X30746Y243809D01*
X32754Y243809D01*
X34610Y243040D01*
X36030Y241620D01*
X36799Y239764D01*
X36799Y237756D01*
X36030Y235900D01*
X34662Y234532D01*
X34602Y234454D01*
X34534Y234382D01*
X34505Y234329D01*
X34468Y234281D01*
X34428Y234190D01*
X34380Y234104D01*
X34365Y234045D01*
X34341Y233989D01*
X34326Y233891D01*
X34301Y233796D01*
X34295Y233696D01*
X34291Y233675D01*
X34293Y233663D01*
X34291Y233635D01*
X34291Y219928D01*
X21962Y207599D01*
X21902Y207521D01*
X21834Y207449D01*
X21805Y207396D01*
X21768Y207348D01*
X21728Y207257D01*
X21680Y207170D01*
X21665Y207112D01*
X21641Y207056D01*
X21626Y206958D01*
X21601Y206863D01*
X21595Y206762D01*
X21591Y206742D01*
X21593Y206730D01*
X21591Y206702D01*
X21591Y103178D01*
X21603Y103080D01*
X21606Y102981D01*
X21623Y102923D01*
X21631Y102863D01*
X21667Y102771D01*
X21695Y102675D01*
X21725Y102623D01*
X21748Y102567D01*
X21806Y102487D01*
X21856Y102401D01*
X21922Y102326D01*
X21934Y102310D01*
X21944Y102302D01*
X21962Y102281D01*
X26081Y98162D01*
X26159Y98102D01*
X26231Y98034D01*
X26284Y98005D01*
X26332Y97968D01*
X26423Y97928D01*
X26510Y97880D01*
X26568Y97865D01*
X26624Y97841D01*
X26722Y97826D01*
X26817Y97801D01*
X26918Y97795D01*
X26938Y97791D01*
X26950Y97793D01*
X26978Y97791D01*
X67265Y97791D01*
X67363Y97803D01*
X67462Y97806D01*
X67520Y97823D01*
X67581Y97831D01*
X67673Y97867D01*
X67768Y97895D01*
X67820Y97925D01*
X67876Y97948D01*
X67956Y98006D01*
X68042Y98056D01*
X68117Y98122D01*
X68134Y98134D01*
X68141Y98144D01*
X68162Y98162D01*
X69530Y99530D01*
X71386Y100299D01*
X73394Y100299D01*
X75250Y99530D01*
X76670Y98110D01*
X77439Y96254D01*
X77439Y94246D01*
X76670Y92390D01*
X75302Y91022D01*
X75242Y90944D01*
X75174Y90872D01*
X75145Y90819D01*
X75143Y90817D01*
X75129Y90800D01*
X75127Y90797D01*
X75108Y90771D01*
X75068Y90680D01*
X75020Y90594D01*
X75007Y90541D01*
X74993Y90512D01*
X74991Y90503D01*
X74981Y90479D01*
X74966Y90381D01*
X74941Y90286D01*
X74937Y90217D01*
X74933Y90199D01*
X74934Y90184D01*
X74931Y90165D01*
X74933Y90153D01*
X74931Y90125D01*
X74931Y77778D01*
X74943Y77680D01*
X74946Y77581D01*
X74963Y77523D01*
X74971Y77463D01*
X75007Y77371D01*
X75035Y77275D01*
X75065Y77223D01*
X75088Y77167D01*
X75146Y77087D01*
X75196Y77002D01*
X75262Y76926D01*
X75274Y76910D01*
X75284Y76902D01*
X75302Y76881D01*
X79421Y72762D01*
X79499Y72702D01*
X79571Y72634D01*
X79624Y72605D01*
X79672Y72568D01*
X79763Y72528D01*
X79850Y72480D01*
X79908Y72465D01*
X79964Y72441D01*
X80062Y72426D01*
X80157Y72401D01*
X80258Y72395D01*
X80278Y72391D01*
X80290Y72393D01*
X80318Y72391D01*
X88682Y72391D01*
X96521Y64552D01*
X96521Y60152D01*
X96529Y60082D01*
X96528Y60012D01*
X96549Y59925D01*
X96561Y59836D01*
X96586Y59771D01*
X96603Y59703D01*
X96645Y59624D01*
X96678Y59540D01*
X96719Y59484D01*
X96751Y59422D01*
X96812Y59356D01*
X96864Y59283D01*
X96918Y59238D01*
X96965Y59187D01*
X97040Y59137D01*
X97109Y59080D01*
X97173Y59050D01*
X97231Y59012D01*
X97316Y58983D01*
X97397Y58945D01*
X97466Y58932D01*
X97532Y58909D01*
X97621Y58902D01*
X97709Y58885D01*
X97779Y58889D01*
X97849Y58884D01*
X97937Y58899D01*
X98027Y58905D01*
X98093Y58926D01*
X98162Y58938D01*
X98244Y58975D01*
X98329Y59003D01*
X98388Y59040D01*
X98452Y59069D01*
X98522Y59125D01*
X98598Y59173D01*
X98646Y59224D01*
X98701Y59267D01*
X98755Y59339D01*
X98816Y59404D01*
X98850Y59466D01*
X98892Y59521D01*
X98963Y59666D01*
X98995Y59745D01*
X101545Y62295D01*
X104877Y63675D01*
X108483Y63675D01*
X111815Y62295D01*
X114365Y59745D01*
X115745Y56413D01*
X115745Y52807D01*
X114365Y49475D01*
X111815Y46925D01*
X110509Y46385D01*
X110449Y46350D01*
X110384Y46324D01*
X110311Y46272D01*
X110233Y46227D01*
X110183Y46179D01*
X110127Y46138D01*
X110069Y46068D01*
X110005Y46006D01*
X109968Y45946D01*
X109924Y45893D01*
X109885Y45811D01*
X109839Y45735D01*
X109818Y45668D01*
X109788Y45605D01*
X109771Y45517D01*
X109745Y45431D01*
X109742Y45361D01*
X109728Y45292D01*
X109734Y45203D01*
X109730Y45113D01*
X109744Y45045D01*
X109748Y44975D01*
X109776Y44890D01*
X109794Y44802D01*
X109825Y44739D01*
X109846Y44673D01*
X109894Y44597D01*
X109934Y44516D01*
X109979Y44463D01*
X110016Y44404D01*
X110082Y44342D01*
X110140Y44274D01*
X110197Y44234D01*
X110248Y44186D01*
X110327Y44143D01*
X110400Y44091D01*
X110465Y44066D01*
X110527Y44032D01*
X110613Y44010D01*
X110698Y43978D01*
X110767Y43970D01*
X110834Y43953D01*
X110995Y43943D01*
X127765Y43943D01*
X127834Y43951D01*
X127904Y43950D01*
X127991Y43971D01*
X128080Y43983D01*
X128145Y44008D01*
X128213Y44025D01*
X128293Y44067D01*
X128376Y44100D01*
X128432Y44141D01*
X128494Y44173D01*
X128561Y44234D01*
X128633Y44286D01*
X128678Y44340D01*
X128730Y44387D01*
X128779Y44462D01*
X128836Y44531D01*
X128866Y44595D01*
X128904Y44653D01*
X128933Y44738D01*
X128972Y44819D01*
X128985Y44888D01*
X129008Y44954D01*
X129015Y45043D01*
X129032Y45131D01*
X129027Y45201D01*
X129033Y45271D01*
X129017Y45359D01*
X129012Y45449D01*
X128990Y45515D01*
X128978Y45584D01*
X128941Y45666D01*
X128914Y45751D01*
X128876Y45810D01*
X128848Y45874D01*
X128792Y45944D01*
X128744Y46020D01*
X128693Y46068D01*
X128649Y46122D01*
X128577Y46177D01*
X128512Y46238D01*
X128451Y46272D01*
X128395Y46314D01*
X128251Y46385D01*
X126945Y46925D01*
X124395Y49475D01*
X123015Y52807D01*
X123015Y56413D01*
X124395Y59745D01*
X126945Y62295D01*
X130277Y63675D01*
X133883Y63675D01*
X137215Y62295D01*
X139765Y59745D01*
X141145Y56413D01*
X141145Y52807D01*
X139765Y49475D01*
X137215Y46925D01*
X135909Y46385D01*
X135849Y46350D01*
X135784Y46324D01*
X135711Y46272D01*
X135633Y46227D01*
X135583Y46179D01*
X135527Y46138D01*
X135469Y46068D01*
X135405Y46006D01*
X135368Y45946D01*
X135324Y45893D01*
X135285Y45811D01*
X135239Y45735D01*
X135218Y45668D01*
X135188Y45605D01*
X135171Y45517D01*
X135145Y45431D01*
X135142Y45361D01*
X135128Y45292D01*
X135134Y45203D01*
X135130Y45113D01*
X135144Y45045D01*
X135148Y44975D01*
X135176Y44890D01*
X135194Y44802D01*
X135225Y44739D01*
X135246Y44673D01*
X135294Y44597D01*
X135334Y44516D01*
X135379Y44463D01*
X135416Y44404D01*
X135482Y44342D01*
X135540Y44274D01*
X135597Y44234D01*
X135648Y44186D01*
X135727Y44143D01*
X135800Y44091D01*
X135865Y44066D01*
X135927Y44032D01*
X136013Y44010D01*
X136098Y43978D01*
X136167Y43970D01*
X136234Y43953D01*
X136395Y43943D01*
X151106Y43943D01*
X151185Y43953D01*
X151264Y43953D01*
X151342Y43973D01*
X151421Y43983D01*
X151495Y44012D01*
X151572Y44032D01*
X151642Y44070D01*
X151717Y44100D01*
X151781Y44146D01*
X151851Y44185D01*
X151909Y44239D01*
X151974Y44286D01*
X152025Y44348D01*
X152083Y44402D01*
X152126Y44470D01*
X152177Y44531D01*
X152211Y44603D01*
X152254Y44671D01*
X152278Y44747D01*
X152312Y44819D01*
X152327Y44897D01*
X152352Y44973D01*
X152357Y45053D01*
X152372Y45131D01*
X152367Y45211D01*
X152372Y45290D01*
X152357Y45369D01*
X152352Y45449D01*
X152328Y45525D01*
X152313Y45603D01*
X152279Y45675D01*
X152254Y45751D01*
X152212Y45819D01*
X152178Y45891D01*
X152127Y45953D01*
X152084Y46020D01*
X152026Y46075D01*
X151976Y46136D01*
X151854Y46237D01*
X151853Y46238D01*
X151852Y46238D01*
X151852Y46239D01*
X150913Y46921D01*
X149791Y48043D01*
X148858Y49327D01*
X148138Y50740D01*
X147693Y52111D01*
X156250Y52111D01*
X156368Y52126D01*
X156487Y52133D01*
X156525Y52145D01*
X156565Y52151D01*
X156676Y52194D01*
X156789Y52231D01*
X156823Y52253D01*
X156861Y52268D01*
X156957Y52337D01*
X157058Y52401D01*
X157086Y52431D01*
X157118Y52454D01*
X157194Y52546D01*
X157276Y52633D01*
X157295Y52668D01*
X157321Y52699D01*
X157372Y52807D01*
X157429Y52911D01*
X157439Y52951D01*
X157457Y52987D01*
X157477Y53094D01*
X157481Y53064D01*
X157525Y52954D01*
X157561Y52841D01*
X157583Y52806D01*
X157598Y52769D01*
X157668Y52672D01*
X157731Y52572D01*
X157761Y52544D01*
X157785Y52511D01*
X157876Y52435D01*
X157963Y52354D01*
X157998Y52334D01*
X158030Y52309D01*
X158137Y52258D01*
X158242Y52200D01*
X158281Y52190D01*
X158317Y52173D01*
X158434Y52151D01*
X158550Y52121D01*
X158610Y52117D01*
X158630Y52113D01*
X158650Y52115D01*
X158710Y52111D01*
X167267Y52111D01*
X166822Y50740D01*
X166102Y49327D01*
X165169Y48043D01*
X164047Y46921D01*
X163108Y46239D01*
X163050Y46184D01*
X162986Y46138D01*
X162935Y46076D01*
X162877Y46021D01*
X162834Y45954D01*
X162783Y45893D01*
X162749Y45820D01*
X162706Y45753D01*
X162681Y45677D01*
X162648Y45605D01*
X162633Y45526D01*
X162608Y45450D01*
X162603Y45371D01*
X162588Y45292D01*
X162593Y45213D01*
X162588Y45133D01*
X162603Y45055D01*
X162608Y44975D01*
X162632Y44899D01*
X162647Y44820D01*
X162681Y44748D01*
X162706Y44673D01*
X162748Y44605D01*
X162782Y44533D01*
X162833Y44471D01*
X162876Y44404D01*
X162934Y44349D01*
X162985Y44287D01*
X163049Y44241D01*
X163107Y44186D01*
X163177Y44147D01*
X163242Y44100D01*
X163316Y44071D01*
X163386Y44032D01*
X163463Y44012D01*
X163538Y43983D01*
X163617Y43973D01*
X163694Y43953D01*
X163852Y43943D01*
X163853Y43943D01*
X163854Y43943D01*
X175469Y43943D01*
X175567Y43955D01*
X175666Y43958D01*
X175724Y43975D01*
X175785Y43983D01*
X175877Y44019D01*
X175972Y44047D01*
X176024Y44077D01*
X176080Y44100D01*
X176160Y44158D01*
X176246Y44208D01*
X176321Y44274D01*
X176338Y44286D01*
X176345Y44296D01*
X176366Y44314D01*
X177734Y45682D01*
X179590Y46451D01*
X181598Y46451D01*
X183454Y45682D01*
X184874Y44262D01*
X185643Y42406D01*
X185643Y40398D01*
X184874Y38542D01*
X183454Y37122D01*
X181598Y36353D01*
X179590Y36353D01*
X177734Y37122D01*
X176366Y38490D01*
X176288Y38550D01*
X176216Y38618D01*
X176163Y38647D01*
X176115Y38684D01*
X176024Y38724D01*
X175938Y38772D01*
X175879Y38787D01*
X175823Y38811D01*
X175725Y38826D01*
X175630Y38851D01*
X175530Y38857D01*
X175509Y38861D01*
X175497Y38859D01*
X175469Y38861D01*
X163712Y38861D01*
X163575Y38844D01*
X163436Y38831D01*
X163417Y38824D01*
X163397Y38821D01*
X163268Y38770D01*
X163137Y38723D01*
X163120Y38712D01*
X163101Y38704D01*
X162989Y38623D01*
X162874Y38545D01*
X162860Y38529D01*
X162844Y38518D01*
X162755Y38410D01*
X162663Y38306D01*
X162654Y38288D01*
X162641Y38273D01*
X162582Y38147D01*
X162519Y38023D01*
X162514Y38003D01*
X162506Y37985D01*
X162479Y37849D01*
X162449Y37713D01*
X162450Y37692D01*
X162446Y37673D01*
X162454Y37534D01*
X162459Y37395D01*
X162464Y37375D01*
X162465Y37355D01*
X162508Y37223D01*
X162547Y37089D01*
X162557Y37072D01*
X162564Y37053D01*
X162638Y36935D01*
X162709Y36815D01*
X162727Y36794D01*
X162734Y36784D01*
X162749Y36770D01*
X162815Y36695D01*
X165165Y34345D01*
X166545Y31013D01*
X166545Y27407D01*
X165165Y24075D01*
X162615Y21525D01*
X159470Y20223D01*
X159409Y20188D01*
X159344Y20162D01*
X159272Y20110D01*
X159194Y20065D01*
X159143Y20017D01*
X159087Y19976D01*
X159030Y19906D01*
X158965Y19844D01*
X158929Y19784D01*
X158884Y19731D01*
X158846Y19649D01*
X158799Y19573D01*
X158778Y19506D01*
X158749Y19443D01*
X158732Y19355D01*
X158705Y19269D01*
X158702Y19199D01*
X158689Y19130D01*
X158694Y19041D01*
X158690Y18951D01*
X158704Y18883D01*
X158709Y18813D01*
X158736Y18728D01*
X158754Y18640D01*
X158785Y18577D01*
X158807Y18511D01*
X158855Y18435D01*
X158894Y18354D01*
X158939Y18301D01*
X158977Y18242D01*
X159042Y18180D01*
X159100Y18112D01*
X159157Y18072D01*
X159208Y18024D01*
X159287Y17981D01*
X159360Y17929D01*
X159426Y17904D01*
X159487Y17870D01*
X159574Y17848D01*
X159658Y17816D01*
X159727Y17808D01*
X159795Y17791D01*
X159955Y17781D01*
X184105Y17781D01*
X184203Y17793D01*
X184302Y17796D01*
X184361Y17813D01*
X184421Y17821D01*
X184513Y17857D01*
X184608Y17885D01*
X184660Y17915D01*
X184716Y17938D01*
X184796Y17996D01*
X184882Y18046D01*
X184957Y18112D01*
X184974Y18124D01*
X184981Y18134D01*
X185003Y18152D01*
X186370Y19520D01*
X188226Y20289D01*
X190234Y20289D01*
X192090Y19520D01*
X193510Y18100D01*
X194279Y16244D01*
X194279Y14236D01*
X193510Y12380D01*
X192090Y10960D01*
X190234Y10191D01*
X188226Y10191D01*
G37*
%LPD*%
%LPC*%
G36*
X320039Y34956D02*
X320039Y34956D01*
X319995Y35066D01*
X319959Y35179D01*
X319937Y35214D01*
X319922Y35251D01*
X319852Y35347D01*
X319789Y35448D01*
X319759Y35476D01*
X319735Y35509D01*
X319644Y35585D01*
X319557Y35666D01*
X319522Y35686D01*
X319490Y35711D01*
X319383Y35762D01*
X319278Y35820D01*
X319239Y35830D01*
X319203Y35847D01*
X319086Y35869D01*
X318970Y35899D01*
X318910Y35903D01*
X318890Y35907D01*
X318870Y35905D01*
X318810Y35909D01*
X312499Y35909D01*
X312499Y39244D01*
X312672Y39891D01*
X313007Y40470D01*
X313480Y40943D01*
X314184Y41350D01*
X314284Y41426D01*
X314389Y41496D01*
X314411Y41522D01*
X314438Y41542D01*
X314516Y41640D01*
X314599Y41735D01*
X314614Y41765D01*
X314635Y41791D01*
X314686Y41906D01*
X314744Y42018D01*
X314751Y42051D01*
X314765Y42082D01*
X314786Y42206D01*
X314813Y42328D01*
X314812Y42362D01*
X314818Y42395D01*
X314807Y42521D01*
X314804Y42646D01*
X314794Y42679D01*
X314791Y42712D01*
X314750Y42831D01*
X314715Y42952D01*
X314698Y42981D01*
X314687Y43013D01*
X314617Y43117D01*
X314554Y43226D01*
X314521Y43262D01*
X314511Y43278D01*
X314495Y43292D01*
X314447Y43346D01*
X313515Y44278D01*
X313515Y56542D01*
X314143Y57170D01*
X314204Y57248D01*
X314272Y57320D01*
X314301Y57373D01*
X314338Y57421D01*
X314378Y57512D01*
X314426Y57599D01*
X314441Y57657D01*
X314465Y57713D01*
X314480Y57811D01*
X314505Y57907D01*
X314511Y58007D01*
X314515Y58027D01*
X314513Y58039D01*
X314515Y58067D01*
X314515Y58249D01*
X315356Y60279D01*
X316911Y61834D01*
X318941Y62675D01*
X321139Y62675D01*
X323170Y61834D01*
X323925Y61079D01*
X324003Y61018D01*
X324075Y60950D01*
X324128Y60921D01*
X324176Y60884D01*
X324267Y60844D01*
X324354Y60796D01*
X324412Y60781D01*
X324468Y60757D01*
X324566Y60742D01*
X324661Y60717D01*
X324761Y60711D01*
X324782Y60707D01*
X324794Y60709D01*
X324822Y60707D01*
X344711Y60707D01*
X344809Y60719D01*
X344908Y60722D01*
X344966Y60739D01*
X345027Y60747D01*
X345119Y60783D01*
X345214Y60811D01*
X345266Y60841D01*
X345322Y60864D01*
X345402Y60922D01*
X345488Y60972D01*
X345563Y61038D01*
X345580Y61050D01*
X345587Y61060D01*
X345609Y61078D01*
X402472Y117941D01*
X402532Y118020D01*
X402600Y118092D01*
X402629Y118145D01*
X402666Y118193D01*
X402706Y118284D01*
X402754Y118370D01*
X402769Y118429D01*
X402793Y118485D01*
X402808Y118583D01*
X402833Y118678D01*
X402839Y118778D01*
X402843Y118799D01*
X402841Y118811D01*
X402843Y118839D01*
X402843Y140241D01*
X402831Y140339D01*
X402828Y140438D01*
X402811Y140496D01*
X402803Y140557D01*
X402767Y140649D01*
X402739Y140744D01*
X402709Y140796D01*
X402686Y140852D01*
X402628Y140932D01*
X402578Y141018D01*
X402512Y141093D01*
X402500Y141110D01*
X402490Y141117D01*
X402472Y141139D01*
X398949Y144662D01*
X398870Y144722D01*
X398798Y144790D01*
X398745Y144819D01*
X398697Y144856D01*
X398606Y144896D01*
X398520Y144944D01*
X398461Y144959D01*
X398405Y144983D01*
X398307Y144998D01*
X398212Y145023D01*
X398112Y145029D01*
X398091Y145033D01*
X398079Y145031D01*
X398051Y145033D01*
X368474Y145033D01*
X368356Y145018D01*
X368237Y145011D01*
X368199Y144998D01*
X368158Y144993D01*
X368048Y144950D01*
X367935Y144913D01*
X367900Y144891D01*
X367863Y144876D01*
X367767Y144807D01*
X367666Y144743D01*
X367638Y144713D01*
X367605Y144690D01*
X367529Y144598D01*
X367448Y144511D01*
X367428Y144476D01*
X367403Y144445D01*
X367352Y144337D01*
X367294Y144233D01*
X367284Y144193D01*
X367267Y144157D01*
X367245Y144040D01*
X367215Y143925D01*
X367211Y143865D01*
X367207Y143845D01*
X367209Y143824D01*
X367205Y143764D01*
X367205Y142068D01*
X366273Y141136D01*
X366196Y141037D01*
X366114Y140942D01*
X366099Y140912D01*
X366078Y140885D01*
X366028Y140770D01*
X365972Y140657D01*
X365965Y140624D01*
X365951Y140593D01*
X365932Y140469D01*
X365906Y140346D01*
X365907Y140313D01*
X365902Y140279D01*
X365913Y140154D01*
X365919Y140028D01*
X365928Y139996D01*
X365931Y139963D01*
X365974Y139844D01*
X366010Y139724D01*
X366028Y139695D01*
X366039Y139663D01*
X366110Y139559D01*
X366175Y139452D01*
X366199Y139428D01*
X366218Y139400D01*
X366312Y139317D01*
X366402Y139229D01*
X366442Y139202D01*
X366456Y139190D01*
X366475Y139180D01*
X366536Y139140D01*
X367240Y138733D01*
X367713Y138260D01*
X368048Y137681D01*
X368221Y137034D01*
X368221Y133699D01*
X361910Y133699D01*
X361792Y133684D01*
X361673Y133677D01*
X361635Y133664D01*
X361595Y133659D01*
X361484Y133616D01*
X361371Y133579D01*
X361337Y133557D01*
X361299Y133542D01*
X361203Y133473D01*
X361102Y133409D01*
X361074Y133379D01*
X361042Y133356D01*
X360966Y133264D01*
X360884Y133177D01*
X360865Y133142D01*
X360839Y133111D01*
X360788Y133003D01*
X360731Y132899D01*
X360721Y132859D01*
X360703Y132823D01*
X360683Y132716D01*
X360679Y132746D01*
X360635Y132856D01*
X360599Y132969D01*
X360577Y133004D01*
X360562Y133041D01*
X360492Y133137D01*
X360429Y133238D01*
X360399Y133266D01*
X360375Y133299D01*
X360284Y133375D01*
X360197Y133456D01*
X360162Y133476D01*
X360130Y133501D01*
X360023Y133552D01*
X359918Y133610D01*
X359879Y133620D01*
X359843Y133637D01*
X359726Y133659D01*
X359610Y133689D01*
X359550Y133693D01*
X359530Y133697D01*
X359510Y133695D01*
X359450Y133699D01*
X353139Y133699D01*
X353139Y137034D01*
X353312Y137681D01*
X353647Y138260D01*
X354120Y138733D01*
X354824Y139140D01*
X354924Y139216D01*
X355028Y139286D01*
X355051Y139312D01*
X355078Y139332D01*
X355156Y139431D01*
X355239Y139525D01*
X355254Y139555D01*
X355275Y139581D01*
X355326Y139696D01*
X355384Y139808D01*
X355391Y139841D01*
X355405Y139872D01*
X355426Y139996D01*
X355453Y140118D01*
X355452Y140152D01*
X355458Y140185D01*
X355447Y140311D01*
X355444Y140436D01*
X355434Y140469D01*
X355431Y140502D01*
X355390Y140621D01*
X355355Y140742D01*
X355338Y140771D01*
X355327Y140803D01*
X355258Y140907D01*
X355194Y141016D01*
X355161Y141052D01*
X355151Y141068D01*
X355135Y141082D01*
X355087Y141136D01*
X354155Y142068D01*
X354155Y143882D01*
X354140Y144000D01*
X354133Y144119D01*
X354121Y144157D01*
X354115Y144198D01*
X354072Y144308D01*
X354035Y144421D01*
X354013Y144456D01*
X353998Y144493D01*
X353929Y144589D01*
X353865Y144690D01*
X353835Y144718D01*
X353812Y144751D01*
X353720Y144827D01*
X353633Y144908D01*
X353598Y144928D01*
X353567Y144953D01*
X353459Y145004D01*
X353355Y145062D01*
X353315Y145072D01*
X353279Y145089D01*
X353162Y145111D01*
X353047Y145141D01*
X352987Y145145D01*
X352967Y145149D01*
X352946Y145147D01*
X352886Y145151D01*
X349424Y145151D01*
X349306Y145136D01*
X349187Y145129D01*
X349149Y145116D01*
X349108Y145111D01*
X348998Y145068D01*
X348885Y145031D01*
X348850Y145009D01*
X348813Y144994D01*
X348717Y144925D01*
X348616Y144861D01*
X348588Y144831D01*
X348555Y144808D01*
X348479Y144716D01*
X348398Y144629D01*
X348378Y144594D01*
X348353Y144563D01*
X348302Y144455D01*
X348244Y144351D01*
X348234Y144311D01*
X348217Y144275D01*
X348195Y144158D01*
X348165Y144043D01*
X348161Y143983D01*
X348157Y143963D01*
X348159Y143942D01*
X348155Y143882D01*
X348155Y142068D01*
X347223Y141136D01*
X347146Y141037D01*
X347064Y140942D01*
X347049Y140912D01*
X347028Y140885D01*
X346978Y140770D01*
X346922Y140657D01*
X346915Y140624D01*
X346901Y140593D01*
X346882Y140469D01*
X346856Y140346D01*
X346857Y140313D01*
X346852Y140279D01*
X346863Y140154D01*
X346869Y140028D01*
X346878Y139996D01*
X346881Y139963D01*
X346924Y139844D01*
X346960Y139724D01*
X346978Y139695D01*
X346989Y139663D01*
X347060Y139559D01*
X347125Y139452D01*
X347149Y139428D01*
X347168Y139400D01*
X347262Y139317D01*
X347352Y139229D01*
X347392Y139202D01*
X347406Y139190D01*
X347425Y139180D01*
X347486Y139140D01*
X348190Y138733D01*
X348663Y138260D01*
X348998Y137681D01*
X349171Y137034D01*
X349171Y133699D01*
X342860Y133699D01*
X342742Y133684D01*
X342623Y133677D01*
X342585Y133664D01*
X342545Y133659D01*
X342434Y133616D01*
X342321Y133579D01*
X342287Y133557D01*
X342249Y133542D01*
X342153Y133473D01*
X342052Y133409D01*
X342024Y133379D01*
X341992Y133356D01*
X341916Y133264D01*
X341834Y133177D01*
X341815Y133142D01*
X341789Y133111D01*
X341738Y133003D01*
X341681Y132899D01*
X341671Y132859D01*
X341653Y132823D01*
X341633Y132716D01*
X341629Y132746D01*
X341585Y132856D01*
X341549Y132969D01*
X341527Y133004D01*
X341512Y133041D01*
X341442Y133137D01*
X341379Y133238D01*
X341349Y133266D01*
X341325Y133299D01*
X341234Y133375D01*
X341147Y133456D01*
X341112Y133476D01*
X341080Y133501D01*
X340973Y133552D01*
X340868Y133610D01*
X340829Y133620D01*
X340793Y133637D01*
X340676Y133659D01*
X340560Y133689D01*
X340500Y133693D01*
X340480Y133697D01*
X340460Y133695D01*
X340400Y133699D01*
X334089Y133699D01*
X334089Y137034D01*
X334262Y137681D01*
X334597Y138260D01*
X335070Y138733D01*
X335774Y139140D01*
X335874Y139216D01*
X335978Y139286D01*
X336001Y139312D01*
X336028Y139332D01*
X336106Y139431D01*
X336189Y139525D01*
X336204Y139555D01*
X336225Y139581D01*
X336276Y139696D01*
X336334Y139808D01*
X336341Y139841D01*
X336355Y139872D01*
X336376Y139996D01*
X336403Y140118D01*
X336402Y140152D01*
X336408Y140185D01*
X336397Y140311D01*
X336394Y140436D01*
X336384Y140469D01*
X336381Y140502D01*
X336340Y140621D01*
X336305Y140742D01*
X336288Y140771D01*
X336277Y140803D01*
X336208Y140907D01*
X336144Y141016D01*
X336111Y141052D01*
X336101Y141068D01*
X336085Y141082D01*
X336037Y141136D01*
X335105Y142068D01*
X335105Y154332D01*
X336020Y155246D01*
X336043Y155251D01*
X336152Y155265D01*
X336198Y155283D01*
X336247Y155293D01*
X336345Y155341D01*
X336447Y155382D01*
X336488Y155411D01*
X336532Y155433D01*
X336616Y155504D01*
X336705Y155568D01*
X336736Y155607D01*
X336774Y155639D01*
X336837Y155729D01*
X336908Y155813D01*
X336929Y155858D01*
X336957Y155899D01*
X336996Y156002D01*
X337043Y156101D01*
X337052Y156150D01*
X337070Y156196D01*
X337082Y156306D01*
X337103Y156413D01*
X337100Y156463D01*
X337105Y156512D01*
X337090Y156621D01*
X337083Y156731D01*
X337068Y156778D01*
X337061Y156827D01*
X337009Y156980D01*
X336105Y159161D01*
X336105Y161359D01*
X336946Y163389D01*
X338501Y164944D01*
X340531Y165785D01*
X342729Y165785D01*
X344759Y164944D01*
X346314Y163389D01*
X347155Y161359D01*
X347155Y159161D01*
X346251Y156980D01*
X346238Y156932D01*
X346217Y156887D01*
X346196Y156779D01*
X346167Y156673D01*
X346166Y156623D01*
X346157Y156574D01*
X346164Y156465D01*
X346162Y156355D01*
X346174Y156307D01*
X346177Y156257D01*
X346211Y156153D01*
X346236Y156046D01*
X346260Y156002D01*
X346275Y155955D01*
X346334Y155862D01*
X346385Y155765D01*
X346418Y155728D01*
X346445Y155686D01*
X346525Y155611D01*
X346599Y155529D01*
X346640Y155502D01*
X346677Y155468D01*
X346773Y155415D01*
X346865Y155355D01*
X346912Y155338D01*
X346955Y155314D01*
X347061Y155287D01*
X347165Y155251D01*
X347215Y155247D01*
X347247Y155239D01*
X348155Y154332D01*
X348155Y152518D01*
X348170Y152400D01*
X348177Y152281D01*
X348190Y152243D01*
X348195Y152202D01*
X348238Y152092D01*
X348275Y151979D01*
X348297Y151944D01*
X348312Y151907D01*
X348381Y151811D01*
X348445Y151710D01*
X348475Y151682D01*
X348498Y151649D01*
X348590Y151573D01*
X348677Y151492D01*
X348712Y151472D01*
X348743Y151447D01*
X348851Y151396D01*
X348955Y151338D01*
X348995Y151328D01*
X349031Y151311D01*
X349148Y151289D01*
X349263Y151259D01*
X349323Y151255D01*
X349343Y151251D01*
X349364Y151253D01*
X349424Y151249D01*
X352886Y151249D01*
X353004Y151264D01*
X353123Y151271D01*
X353161Y151284D01*
X353202Y151289D01*
X353312Y151332D01*
X353425Y151369D01*
X353460Y151391D01*
X353497Y151406D01*
X353593Y151475D01*
X353694Y151539D01*
X353722Y151569D01*
X353755Y151592D01*
X353831Y151684D01*
X353912Y151771D01*
X353932Y151806D01*
X353957Y151837D01*
X354008Y151945D01*
X354066Y152049D01*
X354076Y152089D01*
X354093Y152125D01*
X354115Y152242D01*
X354145Y152357D01*
X354149Y152417D01*
X354153Y152437D01*
X354151Y152458D01*
X354155Y152518D01*
X354155Y154332D01*
X355048Y155225D01*
X366312Y155225D01*
X367205Y154332D01*
X367205Y153416D01*
X367220Y153298D01*
X367227Y153179D01*
X367240Y153141D01*
X367245Y153100D01*
X367288Y152990D01*
X367325Y152877D01*
X367347Y152842D01*
X367362Y152805D01*
X367431Y152709D01*
X367495Y152608D01*
X367525Y152580D01*
X367548Y152547D01*
X367640Y152471D01*
X367727Y152390D01*
X367762Y152370D01*
X367793Y152345D01*
X367901Y152294D01*
X368005Y152236D01*
X368045Y152226D01*
X368081Y152209D01*
X368198Y152187D01*
X368313Y152157D01*
X368373Y152153D01*
X368393Y152149D01*
X368414Y152151D01*
X368474Y152147D01*
X398051Y152147D01*
X398149Y152159D01*
X398248Y152162D01*
X398306Y152179D01*
X398367Y152187D01*
X398459Y152223D01*
X398554Y152251D01*
X398606Y152281D01*
X398662Y152304D01*
X398742Y152362D01*
X398828Y152412D01*
X398903Y152478D01*
X398920Y152490D01*
X398927Y152500D01*
X398949Y152518D01*
X401456Y155025D01*
X401516Y155104D01*
X401584Y155176D01*
X401613Y155229D01*
X401650Y155277D01*
X401690Y155368D01*
X401738Y155454D01*
X401753Y155513D01*
X401777Y155569D01*
X401792Y155667D01*
X401817Y155762D01*
X401823Y155862D01*
X401827Y155883D01*
X401825Y155895D01*
X401827Y155923D01*
X401827Y166196D01*
X401812Y166314D01*
X401805Y166433D01*
X401792Y166471D01*
X401787Y166512D01*
X401744Y166622D01*
X401707Y166735D01*
X401685Y166770D01*
X401670Y166807D01*
X401601Y166903D01*
X401537Y167004D01*
X401507Y167032D01*
X401484Y167065D01*
X401392Y167141D01*
X401305Y167222D01*
X401270Y167242D01*
X401239Y167267D01*
X401131Y167318D01*
X401027Y167376D01*
X400987Y167386D01*
X400951Y167403D01*
X400834Y167425D01*
X400719Y167455D01*
X400659Y167459D01*
X400639Y167463D01*
X400618Y167461D01*
X400558Y167465D01*
X399878Y167465D01*
X398946Y168397D01*
X398847Y168474D01*
X398752Y168556D01*
X398722Y168571D01*
X398695Y168592D01*
X398580Y168642D01*
X398467Y168698D01*
X398434Y168705D01*
X398403Y168719D01*
X398279Y168738D01*
X398156Y168764D01*
X398123Y168763D01*
X398089Y168768D01*
X397964Y168757D01*
X397838Y168751D01*
X397806Y168742D01*
X397773Y168739D01*
X397654Y168696D01*
X397534Y168660D01*
X397505Y168642D01*
X397473Y168631D01*
X397369Y168560D01*
X397262Y168495D01*
X397238Y168471D01*
X397210Y168452D01*
X397127Y168358D01*
X397039Y168268D01*
X397012Y168228D01*
X397000Y168214D01*
X396990Y168195D01*
X396950Y168134D01*
X396543Y167430D01*
X396070Y166957D01*
X395491Y166622D01*
X394844Y166449D01*
X391509Y166449D01*
X391509Y172760D01*
X391494Y172878D01*
X391487Y172997D01*
X391474Y173035D01*
X391469Y173075D01*
X391426Y173186D01*
X391389Y173299D01*
X391367Y173333D01*
X391352Y173371D01*
X391283Y173467D01*
X391219Y173568D01*
X391189Y173596D01*
X391166Y173628D01*
X391074Y173704D01*
X390987Y173786D01*
X390952Y173805D01*
X390921Y173831D01*
X390813Y173882D01*
X390709Y173939D01*
X390669Y173949D01*
X390633Y173967D01*
X390526Y173987D01*
X390556Y173991D01*
X390666Y174035D01*
X390779Y174071D01*
X390814Y174093D01*
X390851Y174108D01*
X390947Y174178D01*
X391048Y174241D01*
X391076Y174271D01*
X391109Y174295D01*
X391185Y174386D01*
X391266Y174473D01*
X391286Y174508D01*
X391311Y174540D01*
X391362Y174647D01*
X391420Y174752D01*
X391430Y174791D01*
X391447Y174827D01*
X391469Y174944D01*
X391499Y175060D01*
X391503Y175120D01*
X391507Y175140D01*
X391505Y175160D01*
X391509Y175220D01*
X391509Y182204D01*
X391520Y182227D01*
X391578Y182331D01*
X391588Y182371D01*
X391605Y182407D01*
X391627Y182524D01*
X391657Y182639D01*
X391661Y182699D01*
X391665Y182719D01*
X391663Y182740D01*
X391667Y182800D01*
X391667Y184230D01*
X391652Y184348D01*
X391645Y184467D01*
X391632Y184505D01*
X391627Y184546D01*
X391584Y184656D01*
X391547Y184769D01*
X391525Y184804D01*
X391510Y184841D01*
X391509Y184843D01*
X391509Y191810D01*
X391494Y191928D01*
X391487Y192047D01*
X391474Y192085D01*
X391469Y192125D01*
X391426Y192236D01*
X391389Y192349D01*
X391367Y192383D01*
X391352Y192421D01*
X391283Y192517D01*
X391219Y192618D01*
X391189Y192646D01*
X391166Y192678D01*
X391074Y192754D01*
X390987Y192836D01*
X390952Y192855D01*
X390921Y192881D01*
X390813Y192932D01*
X390709Y192989D01*
X390669Y192999D01*
X390633Y193017D01*
X390526Y193037D01*
X390556Y193041D01*
X390666Y193085D01*
X390779Y193121D01*
X390814Y193143D01*
X390851Y193158D01*
X390947Y193228D01*
X391048Y193291D01*
X391076Y193321D01*
X391109Y193345D01*
X391185Y193436D01*
X391266Y193523D01*
X391286Y193558D01*
X391311Y193590D01*
X391362Y193697D01*
X391420Y193802D01*
X391430Y193841D01*
X391447Y193877D01*
X391469Y193994D01*
X391499Y194110D01*
X391503Y194170D01*
X391507Y194190D01*
X391505Y194210D01*
X391509Y194270D01*
X391509Y200734D01*
X391517Y200738D01*
X391613Y200807D01*
X391714Y200871D01*
X391742Y200901D01*
X391775Y200924D01*
X391851Y201016D01*
X391932Y201103D01*
X391952Y201138D01*
X391977Y201169D01*
X392028Y201277D01*
X392086Y201381D01*
X392096Y201421D01*
X392113Y201457D01*
X392135Y201574D01*
X392165Y201689D01*
X392169Y201749D01*
X392173Y201769D01*
X392171Y201790D01*
X392175Y201850D01*
X392175Y203280D01*
X392160Y203398D01*
X392153Y203517D01*
X392140Y203555D01*
X392135Y203596D01*
X392092Y203706D01*
X392055Y203819D01*
X392033Y203854D01*
X392018Y203891D01*
X391949Y203987D01*
X391885Y204088D01*
X391855Y204116D01*
X391832Y204149D01*
X391740Y204225D01*
X391653Y204306D01*
X391618Y204326D01*
X391587Y204351D01*
X391509Y204388D01*
X391509Y210860D01*
X391494Y210978D01*
X391487Y211097D01*
X391474Y211135D01*
X391469Y211175D01*
X391426Y211286D01*
X391389Y211399D01*
X391367Y211433D01*
X391352Y211471D01*
X391283Y211567D01*
X391219Y211668D01*
X391189Y211696D01*
X391166Y211728D01*
X391074Y211804D01*
X390987Y211886D01*
X390952Y211905D01*
X390921Y211931D01*
X390813Y211982D01*
X390709Y212039D01*
X390669Y212049D01*
X390633Y212067D01*
X390526Y212087D01*
X390556Y212091D01*
X390666Y212135D01*
X390779Y212171D01*
X390814Y212193D01*
X390851Y212208D01*
X390947Y212278D01*
X391048Y212341D01*
X391076Y212371D01*
X391109Y212395D01*
X391185Y212486D01*
X391266Y212573D01*
X391286Y212608D01*
X391311Y212640D01*
X391362Y212747D01*
X391420Y212852D01*
X391430Y212891D01*
X391447Y212927D01*
X391469Y213044D01*
X391499Y213160D01*
X391503Y213220D01*
X391507Y213240D01*
X391505Y213260D01*
X391509Y213320D01*
X391509Y219784D01*
X391517Y219788D01*
X391613Y219857D01*
X391714Y219921D01*
X391742Y219951D01*
X391775Y219974D01*
X391851Y220066D01*
X391932Y220153D01*
X391952Y220188D01*
X391977Y220219D01*
X392028Y220327D01*
X392086Y220431D01*
X392096Y220471D01*
X392113Y220507D01*
X392135Y220624D01*
X392165Y220739D01*
X392169Y220799D01*
X392173Y220819D01*
X392171Y220840D01*
X392175Y220900D01*
X392175Y222330D01*
X392160Y222448D01*
X392153Y222567D01*
X392140Y222605D01*
X392135Y222646D01*
X392092Y222756D01*
X392055Y222869D01*
X392033Y222904D01*
X392018Y222941D01*
X391949Y223037D01*
X391885Y223138D01*
X391855Y223166D01*
X391832Y223199D01*
X391740Y223275D01*
X391653Y223356D01*
X391618Y223376D01*
X391587Y223401D01*
X391509Y223438D01*
X391509Y229910D01*
X391494Y230028D01*
X391487Y230147D01*
X391474Y230185D01*
X391469Y230225D01*
X391426Y230336D01*
X391389Y230449D01*
X391367Y230483D01*
X391352Y230521D01*
X391283Y230617D01*
X391219Y230718D01*
X391189Y230746D01*
X391166Y230778D01*
X391074Y230854D01*
X390987Y230936D01*
X390952Y230955D01*
X390921Y230981D01*
X390813Y231032D01*
X390709Y231089D01*
X390669Y231099D01*
X390633Y231117D01*
X390526Y231137D01*
X390556Y231141D01*
X390666Y231185D01*
X390779Y231221D01*
X390814Y231243D01*
X390851Y231258D01*
X390947Y231328D01*
X391048Y231391D01*
X391076Y231421D01*
X391109Y231445D01*
X391185Y231536D01*
X391266Y231623D01*
X391286Y231658D01*
X391311Y231690D01*
X391362Y231797D01*
X391420Y231902D01*
X391430Y231941D01*
X391447Y231977D01*
X391469Y232094D01*
X391499Y232210D01*
X391503Y232270D01*
X391507Y232290D01*
X391505Y232310D01*
X391509Y232370D01*
X391509Y238681D01*
X394844Y238681D01*
X395491Y238508D01*
X396070Y238173D01*
X396543Y237700D01*
X396950Y236996D01*
X397026Y236896D01*
X397096Y236792D01*
X397122Y236769D01*
X397142Y236742D01*
X397241Y236664D01*
X397335Y236581D01*
X397365Y236566D01*
X397391Y236545D01*
X397506Y236494D01*
X397618Y236436D01*
X397651Y236429D01*
X397682Y236415D01*
X397806Y236394D01*
X397928Y236367D01*
X397962Y236368D01*
X397995Y236362D01*
X398121Y236373D01*
X398246Y236376D01*
X398279Y236386D01*
X398312Y236389D01*
X398431Y236430D01*
X398552Y236465D01*
X398581Y236482D01*
X398613Y236493D01*
X398717Y236562D01*
X398826Y236626D01*
X398862Y236659D01*
X398878Y236669D01*
X398892Y236685D01*
X398946Y236733D01*
X399878Y237665D01*
X400558Y237665D01*
X400676Y237680D01*
X400795Y237687D01*
X400833Y237700D01*
X400874Y237705D01*
X400984Y237748D01*
X401097Y237785D01*
X401132Y237807D01*
X401169Y237822D01*
X401265Y237891D01*
X401366Y237955D01*
X401394Y237985D01*
X401427Y238008D01*
X401503Y238100D01*
X401584Y238187D01*
X401604Y238222D01*
X401629Y238253D01*
X401680Y238361D01*
X401738Y238465D01*
X401748Y238505D01*
X401765Y238541D01*
X401787Y238658D01*
X401817Y238773D01*
X401821Y238833D01*
X401825Y238853D01*
X401823Y238874D01*
X401827Y238934D01*
X401827Y261740D01*
X401815Y261838D01*
X401812Y261937D01*
X401795Y261996D01*
X401787Y262056D01*
X401751Y262148D01*
X401723Y262243D01*
X401693Y262295D01*
X401670Y262351D01*
X401612Y262431D01*
X401562Y262517D01*
X401496Y262592D01*
X401484Y262609D01*
X401474Y262617D01*
X401456Y262638D01*
X400560Y263533D01*
X400482Y263594D01*
X400409Y263662D01*
X400356Y263691D01*
X400308Y263728D01*
X400218Y263768D01*
X400131Y263816D01*
X400072Y263831D01*
X400017Y263855D01*
X399919Y263870D01*
X399823Y263895D01*
X399723Y263901D01*
X399702Y263905D01*
X399690Y263903D01*
X399662Y263905D01*
X398736Y263905D01*
X396309Y264911D01*
X394451Y266769D01*
X393443Y269201D01*
X393433Y269284D01*
X393430Y269383D01*
X393413Y269442D01*
X393405Y269501D01*
X393369Y269594D01*
X393341Y269689D01*
X393311Y269741D01*
X393288Y269797D01*
X393230Y269877D01*
X393180Y269963D01*
X393114Y270038D01*
X393102Y270054D01*
X393092Y270062D01*
X393073Y270084D01*
X393019Y270138D01*
X392941Y270198D01*
X392869Y270266D01*
X392816Y270295D01*
X392768Y270333D01*
X392677Y270372D01*
X392590Y270420D01*
X392532Y270435D01*
X392476Y270459D01*
X392378Y270474D01*
X392283Y270499D01*
X392182Y270505D01*
X392162Y270509D01*
X392150Y270507D01*
X392122Y270509D01*
X385864Y270509D01*
X385746Y270494D01*
X385627Y270487D01*
X385589Y270474D01*
X385548Y270469D01*
X385438Y270426D01*
X385325Y270389D01*
X385290Y270367D01*
X385253Y270352D01*
X385157Y270283D01*
X385056Y270219D01*
X385028Y270189D01*
X384995Y270166D01*
X384919Y270074D01*
X384838Y269987D01*
X384818Y269952D01*
X384793Y269921D01*
X384742Y269813D01*
X384684Y269709D01*
X384674Y269669D01*
X384657Y269633D01*
X384635Y269516D01*
X384605Y269401D01*
X384601Y269341D01*
X384597Y269321D01*
X384599Y269300D01*
X384595Y269240D01*
X384595Y266700D01*
X384610Y266582D01*
X384617Y266463D01*
X384630Y266425D01*
X384635Y266384D01*
X384678Y266274D01*
X384715Y266161D01*
X384737Y266126D01*
X384752Y266089D01*
X384821Y265993D01*
X384885Y265892D01*
X384915Y265864D01*
X384938Y265831D01*
X385030Y265755D01*
X385117Y265674D01*
X385152Y265654D01*
X385183Y265629D01*
X385291Y265578D01*
X385395Y265520D01*
X385435Y265510D01*
X385471Y265493D01*
X385588Y265471D01*
X385703Y265441D01*
X385763Y265437D01*
X385783Y265433D01*
X385804Y265435D01*
X385862Y265431D01*
X388313Y262980D01*
X388391Y262920D01*
X388463Y262852D01*
X388516Y262823D01*
X388564Y262786D01*
X388655Y262746D01*
X388742Y262698D01*
X388800Y262683D01*
X388856Y262659D01*
X388954Y262644D01*
X389049Y262619D01*
X389150Y262613D01*
X389170Y262609D01*
X389182Y262611D01*
X389210Y262609D01*
X391878Y262609D01*
X394689Y259798D01*
X394689Y255822D01*
X391878Y253011D01*
X387902Y253011D01*
X385272Y255641D01*
X385178Y255714D01*
X385089Y255793D01*
X385053Y255811D01*
X385021Y255836D01*
X384912Y255883D01*
X384806Y255937D01*
X384766Y255946D01*
X384729Y255962D01*
X384612Y255981D01*
X384496Y256007D01*
X384455Y256006D01*
X384415Y256012D01*
X384297Y256001D01*
X384178Y255997D01*
X384139Y255986D01*
X384099Y255982D01*
X383986Y255942D01*
X383872Y255909D01*
X383837Y255889D01*
X383799Y255875D01*
X383785Y255865D01*
X372438Y255865D01*
X372390Y255914D01*
X372312Y255974D01*
X372240Y256042D01*
X372187Y256071D01*
X372139Y256108D01*
X372048Y256148D01*
X371961Y256196D01*
X371903Y256211D01*
X371847Y256235D01*
X371749Y256250D01*
X371653Y256275D01*
X371553Y256281D01*
X371533Y256285D01*
X371521Y256283D01*
X371493Y256285D01*
X367647Y256285D01*
X367549Y256273D01*
X367450Y256270D01*
X367392Y256253D01*
X367332Y256245D01*
X367240Y256209D01*
X367145Y256181D01*
X367092Y256151D01*
X367036Y256128D01*
X366956Y256070D01*
X366871Y256020D01*
X366795Y255954D01*
X366779Y255942D01*
X366771Y255932D01*
X366750Y255914D01*
X366702Y255865D01*
X355438Y255865D01*
X354545Y256758D01*
X354545Y269022D01*
X355438Y269915D01*
X357260Y269915D01*
X357378Y269930D01*
X357497Y269937D01*
X357535Y269950D01*
X357576Y269955D01*
X357686Y269998D01*
X357799Y270035D01*
X357834Y270057D01*
X357871Y270072D01*
X357967Y270141D01*
X358068Y270205D01*
X358096Y270235D01*
X358129Y270258D01*
X358205Y270350D01*
X358286Y270437D01*
X358289Y270442D01*
X363438Y275591D01*
X392122Y275591D01*
X392220Y275603D01*
X392319Y275606D01*
X392377Y275623D01*
X392437Y275631D01*
X392529Y275667D01*
X392624Y275694D01*
X392677Y275725D01*
X392733Y275748D01*
X392813Y275806D01*
X392898Y275856D01*
X392974Y275923D01*
X392990Y275934D01*
X392998Y275944D01*
X393019Y275962D01*
X393073Y276016D01*
X393134Y276095D01*
X393202Y276167D01*
X393231Y276220D01*
X393268Y276268D01*
X393308Y276359D01*
X393356Y276446D01*
X393371Y276504D01*
X393395Y276559D01*
X393410Y276658D01*
X393435Y276753D01*
X393441Y276853D01*
X393445Y276874D01*
X393443Y276886D01*
X393445Y276914D01*
X393445Y285794D01*
X394451Y288221D01*
X396309Y290079D01*
X398736Y291085D01*
X401364Y291085D01*
X403791Y290079D01*
X405649Y288221D01*
X406655Y285794D01*
X406655Y270898D01*
X406667Y270800D01*
X406670Y270701D01*
X406687Y270642D01*
X406695Y270582D01*
X406731Y270490D01*
X406759Y270395D01*
X406789Y270343D01*
X406812Y270287D01*
X406870Y270207D01*
X406920Y270121D01*
X406986Y270046D01*
X406998Y270029D01*
X407008Y270021D01*
X407027Y270000D01*
X407922Y269105D01*
X407922Y269104D01*
X410973Y266054D01*
X410973Y238934D01*
X410988Y238816D01*
X410995Y238697D01*
X411008Y238659D01*
X411013Y238618D01*
X411056Y238508D01*
X411093Y238395D01*
X411115Y238360D01*
X411130Y238323D01*
X411199Y238227D01*
X411263Y238126D01*
X411293Y238098D01*
X411316Y238065D01*
X411408Y237989D01*
X411495Y237908D01*
X411530Y237888D01*
X411561Y237863D01*
X411669Y237812D01*
X411773Y237754D01*
X411813Y237744D01*
X411849Y237727D01*
X411966Y237705D01*
X412081Y237675D01*
X412141Y237671D01*
X412161Y237667D01*
X412182Y237669D01*
X412242Y237665D01*
X412305Y237665D01*
X412319Y237657D01*
X412358Y237649D01*
X412395Y237633D01*
X412513Y237614D01*
X412629Y237588D01*
X412670Y237589D01*
X412709Y237583D01*
X412828Y237594D01*
X412947Y237597D01*
X412986Y237609D01*
X413026Y237612D01*
X413138Y237653D01*
X413180Y237665D01*
X425622Y237665D01*
X426515Y236772D01*
X426515Y225508D01*
X425622Y224615D01*
X413195Y224615D01*
X413181Y224623D01*
X413141Y224631D01*
X413104Y224647D01*
X412987Y224666D01*
X412870Y224692D01*
X412830Y224691D01*
X412790Y224697D01*
X412671Y224686D01*
X412553Y224682D01*
X412514Y224671D01*
X412474Y224668D01*
X412361Y224627D01*
X412320Y224615D01*
X412242Y224615D01*
X412124Y224600D01*
X412005Y224593D01*
X411967Y224580D01*
X411926Y224575D01*
X411816Y224532D01*
X411703Y224495D01*
X411668Y224473D01*
X411631Y224458D01*
X411535Y224389D01*
X411434Y224325D01*
X411406Y224295D01*
X411373Y224272D01*
X411297Y224180D01*
X411216Y224093D01*
X411196Y224058D01*
X411171Y224027D01*
X411120Y223919D01*
X411062Y223815D01*
X411052Y223775D01*
X411035Y223739D01*
X411013Y223622D01*
X410983Y223507D01*
X410979Y223447D01*
X410975Y223427D01*
X410977Y223406D01*
X410973Y223346D01*
X410973Y219884D01*
X410988Y219766D01*
X410995Y219647D01*
X411008Y219609D01*
X411013Y219568D01*
X411056Y219458D01*
X411093Y219345D01*
X411115Y219310D01*
X411130Y219273D01*
X411199Y219177D01*
X411263Y219076D01*
X411293Y219048D01*
X411316Y219015D01*
X411408Y218939D01*
X411495Y218858D01*
X411530Y218838D01*
X411561Y218813D01*
X411669Y218762D01*
X411773Y218704D01*
X411813Y218694D01*
X411849Y218677D01*
X411966Y218655D01*
X412081Y218625D01*
X412141Y218621D01*
X412161Y218617D01*
X412182Y218619D01*
X412242Y218615D01*
X412305Y218615D01*
X412319Y218607D01*
X412359Y218599D01*
X412396Y218583D01*
X412513Y218564D01*
X412630Y218538D01*
X412670Y218539D01*
X412710Y218533D01*
X412829Y218544D01*
X412947Y218548D01*
X412986Y218559D01*
X413026Y218562D01*
X413139Y218603D01*
X413180Y218615D01*
X425622Y218615D01*
X426515Y217722D01*
X426515Y206458D01*
X425622Y205565D01*
X413194Y205565D01*
X413076Y205550D01*
X412957Y205543D01*
X412919Y205530D01*
X412878Y205525D01*
X412768Y205482D01*
X412655Y205445D01*
X412620Y205423D01*
X412583Y205408D01*
X412487Y205339D01*
X412386Y205275D01*
X412358Y205245D01*
X412325Y205222D01*
X412249Y205130D01*
X412168Y205043D01*
X412148Y205008D01*
X412123Y204977D01*
X412072Y204869D01*
X412014Y204765D01*
X412004Y204725D01*
X411987Y204689D01*
X411965Y204572D01*
X411935Y204457D01*
X411931Y204397D01*
X411927Y204377D01*
X411929Y204356D01*
X411925Y204296D01*
X411925Y204006D01*
X411069Y201941D01*
X411067Y201932D01*
X411062Y201924D01*
X411025Y201779D01*
X410985Y201634D01*
X410985Y201625D01*
X410983Y201616D01*
X410973Y201455D01*
X410973Y200834D01*
X410988Y200716D01*
X410995Y200597D01*
X411008Y200559D01*
X411013Y200518D01*
X411056Y200408D01*
X411093Y200295D01*
X411115Y200260D01*
X411130Y200223D01*
X411199Y200127D01*
X411263Y200026D01*
X411293Y199998D01*
X411316Y199965D01*
X411408Y199889D01*
X411495Y199808D01*
X411530Y199788D01*
X411561Y199763D01*
X411669Y199712D01*
X411773Y199654D01*
X411813Y199644D01*
X411849Y199627D01*
X411966Y199605D01*
X412081Y199575D01*
X412135Y199572D01*
X413035Y198672D01*
X413035Y187408D01*
X411850Y186224D01*
X411778Y186172D01*
X411746Y186133D01*
X411709Y186101D01*
X411645Y186011D01*
X411575Y185927D01*
X411554Y185882D01*
X411526Y185841D01*
X411487Y185738D01*
X411440Y185639D01*
X411431Y185590D01*
X411413Y185544D01*
X411401Y185434D01*
X411380Y185327D01*
X411383Y185277D01*
X411378Y185228D01*
X411393Y185119D01*
X411400Y185009D01*
X411415Y184962D01*
X411422Y184913D01*
X411474Y184760D01*
X411535Y184614D01*
X411535Y182416D01*
X411474Y182270D01*
X411461Y182222D01*
X411440Y182177D01*
X411419Y182069D01*
X411390Y181963D01*
X411389Y181913D01*
X411380Y181864D01*
X411387Y181755D01*
X411385Y181645D01*
X411397Y181597D01*
X411400Y181547D01*
X411434Y181443D01*
X411459Y181336D01*
X411483Y181292D01*
X411498Y181245D01*
X411557Y181152D01*
X411608Y181055D01*
X411641Y181018D01*
X411668Y180976D01*
X411748Y180901D01*
X411822Y180819D01*
X411863Y180792D01*
X411879Y180777D01*
X413035Y179622D01*
X413035Y168358D01*
X412127Y167451D01*
X412124Y167450D01*
X412005Y167443D01*
X411967Y167430D01*
X411926Y167425D01*
X411816Y167382D01*
X411703Y167345D01*
X411668Y167323D01*
X411631Y167308D01*
X411535Y167239D01*
X411434Y167175D01*
X411406Y167145D01*
X411373Y167122D01*
X411297Y167030D01*
X411216Y166943D01*
X411196Y166908D01*
X411171Y166877D01*
X411120Y166769D01*
X411062Y166665D01*
X411052Y166625D01*
X411035Y166589D01*
X411013Y166472D01*
X410983Y166357D01*
X410979Y166297D01*
X410975Y166277D01*
X410977Y166256D01*
X410973Y166196D01*
X410973Y145426D01*
X410328Y144782D01*
X410268Y144703D01*
X410200Y144631D01*
X410171Y144578D01*
X410134Y144530D01*
X410094Y144439D01*
X410046Y144353D01*
X410031Y144294D01*
X410007Y144239D01*
X409992Y144141D01*
X409967Y144045D01*
X409961Y143945D01*
X409957Y143924D01*
X409959Y143912D01*
X409957Y143884D01*
X409957Y115367D01*
X348183Y53593D01*
X327834Y53593D01*
X327716Y53578D01*
X327597Y53571D01*
X327559Y53558D01*
X327518Y53553D01*
X327408Y53510D01*
X327295Y53473D01*
X327260Y53451D01*
X327223Y53436D01*
X327127Y53367D01*
X327026Y53303D01*
X326998Y53273D01*
X326965Y53250D01*
X326889Y53158D01*
X326808Y53071D01*
X326788Y53036D01*
X326763Y53005D01*
X326712Y52897D01*
X326654Y52793D01*
X326644Y52753D01*
X326627Y52717D01*
X326605Y52600D01*
X326575Y52485D01*
X326571Y52425D01*
X326567Y52405D01*
X326569Y52384D01*
X326565Y52324D01*
X326565Y44278D01*
X325633Y43346D01*
X325556Y43247D01*
X325473Y43152D01*
X325458Y43122D01*
X325438Y43095D01*
X325388Y42980D01*
X325332Y42867D01*
X325325Y42834D01*
X325311Y42803D01*
X325292Y42679D01*
X325266Y42556D01*
X325267Y42523D01*
X325262Y42489D01*
X325273Y42364D01*
X325279Y42238D01*
X325288Y42206D01*
X325291Y42173D01*
X325334Y42054D01*
X325370Y41934D01*
X325388Y41905D01*
X325399Y41873D01*
X325470Y41769D01*
X325535Y41662D01*
X325559Y41638D01*
X325578Y41610D01*
X325672Y41527D01*
X325762Y41439D01*
X325802Y41412D01*
X325816Y41400D01*
X325835Y41390D01*
X325896Y41350D01*
X326600Y40943D01*
X327073Y40470D01*
X327408Y39891D01*
X327581Y39244D01*
X327581Y35909D01*
X321270Y35909D01*
X321152Y35894D01*
X321033Y35887D01*
X320995Y35874D01*
X320955Y35869D01*
X320844Y35826D01*
X320731Y35789D01*
X320697Y35767D01*
X320659Y35752D01*
X320563Y35683D01*
X320462Y35619D01*
X320434Y35589D01*
X320402Y35566D01*
X320326Y35474D01*
X320244Y35387D01*
X320225Y35352D01*
X320199Y35321D01*
X320148Y35213D01*
X320091Y35109D01*
X320081Y35069D01*
X320063Y35033D01*
X320043Y34926D01*
X320039Y34956D01*
G37*
%LPD*%
%LPC*%
G36*
X224976Y109251D02*
X224976Y109251D01*
X223120Y110020D01*
X221700Y111440D01*
X220875Y113432D01*
X220870Y113440D01*
X220867Y113449D01*
X220791Y113578D01*
X220717Y113709D01*
X220711Y113715D01*
X220706Y113723D01*
X220663Y113772D01*
X220662Y113774D01*
X220660Y113775D01*
X220600Y113844D01*
X219425Y115018D01*
X219425Y116332D01*
X219410Y116450D01*
X219403Y116569D01*
X219390Y116607D01*
X219385Y116648D01*
X219342Y116758D01*
X219305Y116871D01*
X219283Y116906D01*
X219268Y116943D01*
X219199Y117039D01*
X219135Y117140D01*
X219105Y117168D01*
X219082Y117201D01*
X218990Y117277D01*
X218903Y117358D01*
X218868Y117378D01*
X218837Y117403D01*
X218729Y117454D01*
X218625Y117512D01*
X218585Y117522D01*
X218549Y117539D01*
X218432Y117561D01*
X218317Y117591D01*
X218257Y117595D01*
X218237Y117599D01*
X218216Y117597D01*
X218156Y117601D01*
X196857Y117601D01*
X191261Y123197D01*
X191261Y193294D01*
X191246Y193412D01*
X191239Y193531D01*
X191226Y193569D01*
X191221Y193610D01*
X191178Y193720D01*
X191141Y193833D01*
X191119Y193868D01*
X191104Y193905D01*
X191035Y194001D01*
X190971Y194102D01*
X190941Y194130D01*
X190918Y194163D01*
X190826Y194239D01*
X190739Y194320D01*
X190704Y194340D01*
X190673Y194365D01*
X190565Y194416D01*
X190461Y194474D01*
X190421Y194484D01*
X190385Y194501D01*
X190268Y194523D01*
X190153Y194553D01*
X190093Y194557D01*
X190073Y194561D01*
X190052Y194559D01*
X189992Y194563D01*
X181867Y194563D01*
X180974Y195456D01*
X180974Y208404D01*
X181223Y208653D01*
X181296Y208747D01*
X181375Y208836D01*
X181393Y208872D01*
X181418Y208904D01*
X181466Y209013D01*
X181520Y209119D01*
X181528Y209158D01*
X181544Y209196D01*
X181563Y209313D01*
X181589Y209429D01*
X181588Y209470D01*
X181594Y209510D01*
X181583Y209629D01*
X181580Y209747D01*
X181568Y209786D01*
X181565Y209826D01*
X181524Y209939D01*
X181491Y210053D01*
X181471Y210088D01*
X181457Y210126D01*
X181390Y210224D01*
X181330Y210327D01*
X181290Y210372D01*
X181278Y210389D01*
X181263Y210402D01*
X181223Y210448D01*
X180974Y210696D01*
X180974Y223644D01*
X181867Y224537D01*
X185674Y224537D01*
X185792Y224552D01*
X185911Y224559D01*
X185949Y224572D01*
X185990Y224577D01*
X186100Y224620D01*
X186213Y224657D01*
X186248Y224679D01*
X186285Y224694D01*
X186381Y224763D01*
X186482Y224827D01*
X186510Y224857D01*
X186543Y224880D01*
X186619Y224972D01*
X186700Y225059D01*
X186720Y225094D01*
X186745Y225125D01*
X186796Y225233D01*
X186854Y225337D01*
X186864Y225377D01*
X186881Y225413D01*
X186903Y225530D01*
X186933Y225645D01*
X186937Y225705D01*
X186941Y225725D01*
X186939Y225746D01*
X186943Y225806D01*
X186943Y227031D01*
X186931Y227129D01*
X186928Y227228D01*
X186911Y227286D01*
X186903Y227347D01*
X186867Y227439D01*
X186839Y227534D01*
X186809Y227586D01*
X186786Y227642D01*
X186728Y227722D01*
X186678Y227808D01*
X186612Y227883D01*
X186600Y227900D01*
X186590Y227907D01*
X186572Y227928D01*
X186220Y228280D01*
X185451Y230136D01*
X185451Y232144D01*
X186220Y234000D01*
X187640Y235420D01*
X189496Y236189D01*
X191504Y236189D01*
X193360Y235420D01*
X194780Y234000D01*
X195549Y232144D01*
X195549Y230136D01*
X194780Y228280D01*
X194428Y227928D01*
X194368Y227850D01*
X194300Y227778D01*
X194271Y227725D01*
X194234Y227677D01*
X194194Y227586D01*
X194146Y227500D01*
X194131Y227441D01*
X194107Y227385D01*
X194092Y227287D01*
X194067Y227192D01*
X194061Y227092D01*
X194057Y227071D01*
X194059Y227059D01*
X194057Y227031D01*
X194057Y225806D01*
X194072Y225688D01*
X194079Y225569D01*
X194092Y225531D01*
X194097Y225490D01*
X194141Y225379D01*
X194177Y225267D01*
X194199Y225232D01*
X194214Y225195D01*
X194283Y225099D01*
X194347Y224998D01*
X194377Y224970D01*
X194400Y224937D01*
X194492Y224861D01*
X194579Y224780D01*
X194614Y224760D01*
X194645Y224735D01*
X194753Y224684D01*
X194857Y224626D01*
X194897Y224616D01*
X194933Y224599D01*
X195050Y224577D01*
X195165Y224547D01*
X195225Y224543D01*
X195245Y224539D01*
X195266Y224541D01*
X195326Y224537D01*
X199133Y224537D01*
X200026Y223644D01*
X200026Y210696D01*
X199777Y210448D01*
X199704Y210353D01*
X199625Y210264D01*
X199607Y210228D01*
X199582Y210196D01*
X199535Y210087D01*
X199480Y209981D01*
X199472Y209942D01*
X199456Y209904D01*
X199437Y209787D01*
X199411Y209671D01*
X199412Y209630D01*
X199406Y209590D01*
X199417Y209472D01*
X199420Y209353D01*
X199432Y209314D01*
X199435Y209274D01*
X199476Y209162D01*
X199509Y209047D01*
X199529Y209012D01*
X199543Y208974D01*
X199610Y208876D01*
X199670Y208773D01*
X199710Y208728D01*
X199722Y208711D01*
X199737Y208698D01*
X199777Y208653D01*
X200026Y208404D01*
X200026Y206248D01*
X200041Y206130D01*
X200048Y206011D01*
X200061Y205973D01*
X200066Y205932D01*
X200109Y205822D01*
X200146Y205709D01*
X200168Y205674D01*
X200183Y205637D01*
X200252Y205541D01*
X200316Y205440D01*
X200346Y205412D01*
X200369Y205379D01*
X200461Y205303D01*
X200548Y205222D01*
X200583Y205202D01*
X200614Y205177D01*
X200722Y205126D01*
X200826Y205068D01*
X200866Y205058D01*
X200902Y205041D01*
X201019Y205019D01*
X201134Y204989D01*
X201194Y204985D01*
X201214Y204981D01*
X201235Y204983D01*
X201295Y204979D01*
X215381Y204979D01*
X215480Y204991D01*
X215579Y204994D01*
X215637Y205011D01*
X215697Y205019D01*
X215789Y205055D01*
X215884Y205083D01*
X215936Y205113D01*
X215993Y205136D01*
X216073Y205194D01*
X216158Y205244D01*
X216233Y205310D01*
X216250Y205322D01*
X216258Y205332D01*
X216279Y205350D01*
X217560Y206631D01*
X217620Y206709D01*
X217688Y206781D01*
X217717Y206834D01*
X217754Y206882D01*
X217794Y206973D01*
X217842Y207060D01*
X217857Y207119D01*
X217881Y207174D01*
X217896Y207272D01*
X217921Y207368D01*
X217927Y207468D01*
X217931Y207488D01*
X217929Y207501D01*
X217931Y207529D01*
X217931Y223346D01*
X217916Y223464D01*
X217909Y223583D01*
X217896Y223621D01*
X217891Y223662D01*
X217848Y223772D01*
X217811Y223885D01*
X217789Y223920D01*
X217774Y223957D01*
X217705Y224053D01*
X217641Y224154D01*
X217611Y224182D01*
X217588Y224215D01*
X217496Y224291D01*
X217409Y224372D01*
X217374Y224392D01*
X217343Y224417D01*
X217235Y224468D01*
X217131Y224526D01*
X217091Y224536D01*
X217055Y224553D01*
X216938Y224575D01*
X216823Y224605D01*
X216763Y224609D01*
X216743Y224613D01*
X216722Y224611D01*
X216662Y224615D01*
X216508Y224615D01*
X215615Y225508D01*
X215615Y236788D01*
X215620Y236794D01*
X215688Y236866D01*
X215717Y236919D01*
X215754Y236967D01*
X215794Y237058D01*
X215842Y237145D01*
X215857Y237203D01*
X215881Y237259D01*
X215896Y237357D01*
X215921Y237453D01*
X215927Y237553D01*
X215931Y237573D01*
X215929Y237585D01*
X215931Y237613D01*
X215931Y238494D01*
X216700Y240350D01*
X218120Y241770D01*
X219976Y242539D01*
X221984Y242539D01*
X223840Y241770D01*
X225260Y240350D01*
X226048Y238448D01*
X226062Y238423D01*
X226072Y238395D01*
X226141Y238285D01*
X226205Y238172D01*
X226226Y238151D01*
X226242Y238126D01*
X226337Y238037D01*
X226427Y237944D01*
X226452Y237928D01*
X226473Y237908D01*
X226587Y237845D01*
X226698Y237777D01*
X226726Y237769D01*
X226752Y237754D01*
X226878Y237722D01*
X227002Y237684D01*
X227031Y237682D01*
X227060Y237675D01*
X227220Y237665D01*
X228772Y237665D01*
X229704Y236733D01*
X229803Y236656D01*
X229898Y236574D01*
X229928Y236558D01*
X229955Y236538D01*
X230070Y236488D01*
X230183Y236432D01*
X230216Y236425D01*
X230247Y236411D01*
X230371Y236392D01*
X230494Y236366D01*
X230527Y236367D01*
X230561Y236362D01*
X230686Y236373D01*
X230811Y236379D01*
X230844Y236388D01*
X230877Y236391D01*
X230996Y236434D01*
X231116Y236470D01*
X231145Y236488D01*
X231177Y236499D01*
X231281Y236570D01*
X231388Y236635D01*
X231412Y236659D01*
X231440Y236678D01*
X231523Y236772D01*
X231611Y236862D01*
X231638Y236902D01*
X231650Y236916D01*
X231660Y236936D01*
X231700Y236996D01*
X232107Y237700D01*
X232580Y238173D01*
X233159Y238508D01*
X233806Y238681D01*
X237141Y238681D01*
X237141Y232370D01*
X237156Y232252D01*
X237163Y232133D01*
X237175Y232095D01*
X237181Y232055D01*
X237224Y231944D01*
X237261Y231831D01*
X237283Y231797D01*
X237298Y231759D01*
X237367Y231663D01*
X237431Y231562D01*
X237461Y231534D01*
X237484Y231502D01*
X237576Y231426D01*
X237663Y231344D01*
X237698Y231325D01*
X237729Y231299D01*
X237837Y231248D01*
X237941Y231191D01*
X237981Y231181D01*
X238017Y231163D01*
X238124Y231143D01*
X238094Y231139D01*
X237984Y231095D01*
X237871Y231059D01*
X237836Y231037D01*
X237799Y231022D01*
X237702Y230952D01*
X237602Y230889D01*
X237574Y230859D01*
X237541Y230835D01*
X237465Y230744D01*
X237384Y230657D01*
X237364Y230622D01*
X237339Y230590D01*
X237288Y230483D01*
X237230Y230378D01*
X237220Y230339D01*
X237203Y230303D01*
X237181Y230186D01*
X237151Y230070D01*
X237147Y230010D01*
X237143Y229990D01*
X237145Y229970D01*
X237141Y229910D01*
X237141Y223599D01*
X233806Y223599D01*
X233159Y223772D01*
X232580Y224107D01*
X232107Y224580D01*
X231700Y225284D01*
X231624Y225384D01*
X231554Y225488D01*
X231528Y225511D01*
X231508Y225538D01*
X231409Y225616D01*
X231315Y225699D01*
X231285Y225714D01*
X231259Y225735D01*
X231144Y225786D01*
X231032Y225844D01*
X230999Y225851D01*
X230968Y225865D01*
X230844Y225886D01*
X230722Y225913D01*
X230688Y225912D01*
X230655Y225918D01*
X230529Y225907D01*
X230404Y225904D01*
X230371Y225894D01*
X230338Y225891D01*
X230219Y225850D01*
X230098Y225815D01*
X230069Y225798D01*
X230037Y225787D01*
X229933Y225718D01*
X229824Y225654D01*
X229788Y225621D01*
X229772Y225611D01*
X229758Y225595D01*
X229704Y225547D01*
X228772Y224615D01*
X225298Y224615D01*
X225180Y224600D01*
X225061Y224593D01*
X225023Y224580D01*
X224982Y224575D01*
X224872Y224532D01*
X224759Y224495D01*
X224724Y224473D01*
X224687Y224458D01*
X224591Y224389D01*
X224490Y224325D01*
X224462Y224295D01*
X224429Y224272D01*
X224353Y224180D01*
X224272Y224093D01*
X224252Y224058D01*
X224227Y224027D01*
X224176Y223919D01*
X224118Y223815D01*
X224108Y223775D01*
X224091Y223739D01*
X224069Y223622D01*
X224039Y223507D01*
X224035Y223447D01*
X224031Y223427D01*
X224033Y223406D01*
X224029Y223346D01*
X224029Y204477D01*
X218433Y198881D01*
X201295Y198881D01*
X201177Y198866D01*
X201058Y198859D01*
X201020Y198846D01*
X200979Y198841D01*
X200869Y198798D01*
X200756Y198761D01*
X200721Y198739D01*
X200684Y198724D01*
X200588Y198655D01*
X200487Y198591D01*
X200459Y198561D01*
X200426Y198538D01*
X200350Y198446D01*
X200269Y198359D01*
X200249Y198324D01*
X200224Y198293D01*
X200173Y198185D01*
X200115Y198081D01*
X200105Y198041D01*
X200088Y198005D01*
X200066Y197888D01*
X200036Y197773D01*
X200032Y197713D01*
X200028Y197693D01*
X200030Y197672D01*
X200026Y197612D01*
X200026Y195456D01*
X199133Y194563D01*
X198628Y194563D01*
X198510Y194548D01*
X198391Y194541D01*
X198353Y194528D01*
X198312Y194523D01*
X198202Y194480D01*
X198089Y194443D01*
X198054Y194421D01*
X198017Y194406D01*
X197921Y194337D01*
X197820Y194273D01*
X197792Y194243D01*
X197759Y194220D01*
X197683Y194128D01*
X197602Y194041D01*
X197582Y194006D01*
X197557Y193975D01*
X197506Y193867D01*
X197448Y193763D01*
X197438Y193723D01*
X197421Y193687D01*
X197399Y193570D01*
X197369Y193455D01*
X197365Y193395D01*
X197361Y193375D01*
X197363Y193354D01*
X197359Y193294D01*
X197359Y126249D01*
X197371Y126150D01*
X197374Y126051D01*
X197391Y125993D01*
X197399Y125933D01*
X197435Y125841D01*
X197463Y125746D01*
X197493Y125694D01*
X197516Y125637D01*
X197574Y125557D01*
X197624Y125472D01*
X197690Y125397D01*
X197702Y125380D01*
X197712Y125372D01*
X197730Y125351D01*
X199011Y124070D01*
X199089Y124010D01*
X199161Y123942D01*
X199214Y123913D01*
X199262Y123876D01*
X199353Y123836D01*
X199440Y123788D01*
X199499Y123773D01*
X199554Y123749D01*
X199652Y123734D01*
X199748Y123709D01*
X199848Y123703D01*
X199868Y123699D01*
X199881Y123701D01*
X199909Y123699D01*
X218156Y123699D01*
X218274Y123714D01*
X218393Y123721D01*
X218431Y123734D01*
X218472Y123739D01*
X218582Y123782D01*
X218695Y123819D01*
X218730Y123841D01*
X218767Y123856D01*
X218863Y123925D01*
X218964Y123989D01*
X218992Y124019D01*
X219025Y124042D01*
X219101Y124134D01*
X219182Y124221D01*
X219202Y124256D01*
X219227Y124287D01*
X219278Y124395D01*
X219336Y124499D01*
X219346Y124539D01*
X219363Y124575D01*
X219385Y124692D01*
X219415Y124807D01*
X219419Y124867D01*
X219423Y124887D01*
X219421Y124908D01*
X219425Y124968D01*
X219425Y126282D01*
X220318Y127175D01*
X232582Y127175D01*
X233514Y126243D01*
X233613Y126166D01*
X233708Y126084D01*
X233738Y126069D01*
X233765Y126048D01*
X233880Y125998D01*
X233993Y125942D01*
X234026Y125935D01*
X234057Y125921D01*
X234181Y125902D01*
X234304Y125876D01*
X234337Y125877D01*
X234371Y125872D01*
X234496Y125883D01*
X234622Y125889D01*
X234654Y125898D01*
X234687Y125901D01*
X234806Y125944D01*
X234926Y125980D01*
X234955Y125998D01*
X234987Y126009D01*
X235091Y126080D01*
X235198Y126145D01*
X235222Y126169D01*
X235250Y126188D01*
X235333Y126282D01*
X235421Y126372D01*
X235448Y126412D01*
X235460Y126426D01*
X235470Y126445D01*
X235510Y126506D01*
X235917Y127210D01*
X236390Y127683D01*
X236969Y128018D01*
X237616Y128191D01*
X240951Y128191D01*
X240951Y121880D01*
X240966Y121762D01*
X240973Y121643D01*
X240985Y121605D01*
X240991Y121565D01*
X241034Y121454D01*
X241071Y121341D01*
X241093Y121307D01*
X241108Y121269D01*
X241178Y121173D01*
X241241Y121072D01*
X241271Y121044D01*
X241294Y121012D01*
X241386Y120936D01*
X241473Y120854D01*
X241508Y120835D01*
X241539Y120809D01*
X241647Y120758D01*
X241751Y120701D01*
X241791Y120691D01*
X241827Y120673D01*
X241934Y120653D01*
X241904Y120649D01*
X241794Y120605D01*
X241681Y120569D01*
X241646Y120547D01*
X241609Y120532D01*
X241512Y120462D01*
X241412Y120399D01*
X241384Y120369D01*
X241351Y120345D01*
X241275Y120254D01*
X241194Y120167D01*
X241174Y120132D01*
X241149Y120100D01*
X241098Y119993D01*
X241040Y119888D01*
X241030Y119849D01*
X241013Y119813D01*
X240991Y119696D01*
X240961Y119580D01*
X240957Y119520D01*
X240953Y119500D01*
X240955Y119480D01*
X240951Y119420D01*
X240951Y113109D01*
X237616Y113109D01*
X236969Y113282D01*
X236390Y113617D01*
X235917Y114090D01*
X235510Y114794D01*
X235434Y114894D01*
X235364Y114998D01*
X235338Y115021D01*
X235318Y115048D01*
X235219Y115126D01*
X235125Y115209D01*
X235095Y115224D01*
X235069Y115245D01*
X234954Y115296D01*
X234842Y115354D01*
X234809Y115361D01*
X234778Y115375D01*
X234654Y115396D01*
X234532Y115423D01*
X234498Y115422D01*
X234465Y115428D01*
X234339Y115417D01*
X234214Y115414D01*
X234181Y115404D01*
X234148Y115401D01*
X234029Y115360D01*
X233908Y115325D01*
X233879Y115308D01*
X233847Y115297D01*
X233743Y115228D01*
X233634Y115164D01*
X233598Y115131D01*
X233582Y115121D01*
X233568Y115105D01*
X233514Y115057D01*
X232582Y114125D01*
X232220Y114125D01*
X232191Y114122D01*
X232162Y114124D01*
X232034Y114102D01*
X231905Y114085D01*
X231877Y114075D01*
X231848Y114070D01*
X231730Y114016D01*
X231609Y113968D01*
X231585Y113951D01*
X231558Y113939D01*
X231457Y113858D01*
X231352Y113782D01*
X231333Y113759D01*
X231310Y113740D01*
X231232Y113637D01*
X231149Y113537D01*
X231136Y113510D01*
X231119Y113486D01*
X231048Y113342D01*
X230260Y111440D01*
X228840Y110020D01*
X226984Y109251D01*
X224976Y109251D01*
G37*
%LPD*%
G36*
X119458Y226073D02*
X119458Y226073D01*
X119577Y226076D01*
X119616Y226087D01*
X119656Y226091D01*
X119769Y226132D01*
X119883Y226165D01*
X119918Y226185D01*
X119956Y226199D01*
X120054Y226266D01*
X120157Y226326D01*
X120202Y226366D01*
X120219Y226377D01*
X120232Y226393D01*
X120278Y226433D01*
X134248Y240403D01*
X134333Y240512D01*
X134421Y240619D01*
X134430Y240638D01*
X134442Y240654D01*
X134498Y240782D01*
X134557Y240907D01*
X134561Y240927D01*
X134569Y240946D01*
X134591Y241084D01*
X134617Y241220D01*
X134615Y241240D01*
X134619Y241260D01*
X134606Y241399D01*
X134597Y241537D01*
X134591Y241556D01*
X134589Y241576D01*
X134542Y241708D01*
X134499Y241839D01*
X134488Y241857D01*
X134481Y241876D01*
X134403Y241991D01*
X134329Y242108D01*
X134314Y242122D01*
X134303Y242139D01*
X134199Y242231D01*
X134097Y242326D01*
X134079Y242336D01*
X134064Y242349D01*
X133941Y242412D01*
X133819Y242480D01*
X133799Y242485D01*
X133781Y242494D01*
X133645Y242524D01*
X133511Y242559D01*
X133483Y242561D01*
X133471Y242564D01*
X133450Y242563D01*
X133350Y242569D01*
X104666Y242569D01*
X88899Y258336D01*
X88899Y269984D01*
X91966Y273051D01*
X103614Y273051D01*
X108323Y268343D01*
X108401Y268282D01*
X108473Y268214D01*
X108526Y268185D01*
X108574Y268148D01*
X108665Y268108D01*
X108751Y268060D01*
X108810Y268045D01*
X108866Y268021D01*
X108964Y268006D01*
X109059Y267981D01*
X109159Y267975D01*
X109180Y267971D01*
X109192Y267973D01*
X109220Y267971D01*
X114300Y267971D01*
X114418Y267986D01*
X114537Y267993D01*
X114575Y268006D01*
X114616Y268011D01*
X114726Y268054D01*
X114839Y268091D01*
X114874Y268113D01*
X114911Y268128D01*
X115007Y268198D01*
X115108Y268261D01*
X115136Y268291D01*
X115169Y268314D01*
X115245Y268406D01*
X115326Y268493D01*
X115346Y268528D01*
X115371Y268559D01*
X115422Y268667D01*
X115480Y268771D01*
X115490Y268811D01*
X115507Y268847D01*
X115529Y268964D01*
X115559Y269079D01*
X115563Y269140D01*
X115567Y269160D01*
X115565Y269180D01*
X115569Y269240D01*
X115569Y280670D01*
X115554Y280788D01*
X115547Y280907D01*
X115534Y280945D01*
X115529Y280986D01*
X115486Y281096D01*
X115449Y281209D01*
X115427Y281244D01*
X115412Y281281D01*
X115343Y281377D01*
X115279Y281478D01*
X115249Y281506D01*
X115226Y281539D01*
X115134Y281615D01*
X115047Y281696D01*
X115012Y281716D01*
X114981Y281741D01*
X114873Y281792D01*
X114769Y281850D01*
X114729Y281860D01*
X114693Y281877D01*
X114576Y281899D01*
X114461Y281929D01*
X114401Y281933D01*
X114381Y281937D01*
X114360Y281935D01*
X114300Y281939D01*
X105409Y281939D01*
X105409Y283210D01*
X105394Y283328D01*
X105387Y283447D01*
X105374Y283485D01*
X105369Y283526D01*
X105326Y283636D01*
X105289Y283749D01*
X105267Y283784D01*
X105252Y283821D01*
X105183Y283917D01*
X105119Y284018D01*
X105089Y284046D01*
X105066Y284079D01*
X104974Y284155D01*
X104887Y284236D01*
X104852Y284256D01*
X104821Y284281D01*
X104713Y284332D01*
X104609Y284390D01*
X104569Y284400D01*
X104533Y284417D01*
X104416Y284439D01*
X104301Y284469D01*
X104241Y284473D01*
X104221Y284477D01*
X104200Y284475D01*
X104140Y284479D01*
X81280Y284479D01*
X81162Y284464D01*
X81043Y284457D01*
X81005Y284444D01*
X80964Y284439D01*
X80854Y284396D01*
X80741Y284359D01*
X80706Y284337D01*
X80669Y284322D01*
X80573Y284253D01*
X80472Y284189D01*
X80444Y284159D01*
X80411Y284136D01*
X80336Y284044D01*
X80254Y283957D01*
X80234Y283922D01*
X80209Y283891D01*
X80158Y283783D01*
X80100Y283679D01*
X80090Y283639D01*
X80073Y283603D01*
X80051Y283486D01*
X80021Y283371D01*
X80017Y283311D01*
X80013Y283291D01*
X80015Y283270D01*
X80014Y283261D01*
X80013Y283258D01*
X80014Y283254D01*
X80011Y283210D01*
X80011Y241300D01*
X80023Y241202D01*
X80026Y241103D01*
X80043Y241045D01*
X80051Y240984D01*
X80087Y240892D01*
X80115Y240797D01*
X80137Y240759D01*
X80139Y240752D01*
X80148Y240739D01*
X80168Y240689D01*
X80226Y240609D01*
X80276Y240523D01*
X80306Y240490D01*
X80310Y240484D01*
X80319Y240475D01*
X80342Y240448D01*
X80354Y240431D01*
X80364Y240424D01*
X80383Y240403D01*
X88003Y232783D01*
X88081Y232722D01*
X88153Y232654D01*
X88206Y232625D01*
X88254Y232588D01*
X88345Y232548D01*
X88431Y232500D01*
X88490Y232485D01*
X88546Y232461D01*
X88644Y232446D01*
X88739Y232421D01*
X88839Y232415D01*
X88860Y232411D01*
X88872Y232413D01*
X88900Y232411D01*
X112504Y232411D01*
X118483Y226433D01*
X118577Y226359D01*
X118666Y226281D01*
X118702Y226262D01*
X118734Y226238D01*
X118843Y226190D01*
X118949Y226136D01*
X118988Y226127D01*
X119026Y226111D01*
X119143Y226093D01*
X119259Y226067D01*
X119300Y226068D01*
X119340Y226061D01*
X119458Y226073D01*
G37*
%LPC*%
G36*
X473976Y151161D02*
X473976Y151161D01*
X472120Y151930D01*
X470700Y153350D01*
X469931Y155206D01*
X469931Y156781D01*
X469919Y156879D01*
X469916Y156978D01*
X469899Y157036D01*
X469891Y157096D01*
X469855Y157188D01*
X469827Y157283D01*
X469797Y157336D01*
X469774Y157392D01*
X469716Y157472D01*
X469666Y157557D01*
X469600Y157633D01*
X469588Y157649D01*
X469578Y157657D01*
X469560Y157678D01*
X466194Y161044D01*
X466116Y161104D01*
X466044Y161172D01*
X465991Y161201D01*
X465943Y161238D01*
X465852Y161278D01*
X465765Y161326D01*
X465707Y161341D01*
X465651Y161365D01*
X465553Y161380D01*
X465457Y161405D01*
X465357Y161411D01*
X465337Y161415D01*
X465325Y161413D01*
X465297Y161415D01*
X460524Y161415D01*
X460406Y161400D01*
X460287Y161393D01*
X460249Y161380D01*
X460208Y161375D01*
X460098Y161332D01*
X459985Y161295D01*
X459950Y161273D01*
X459913Y161258D01*
X459817Y161189D01*
X459716Y161125D01*
X459688Y161095D01*
X459655Y161072D01*
X459579Y160980D01*
X459498Y160893D01*
X459478Y160858D01*
X459453Y160827D01*
X459402Y160719D01*
X459344Y160615D01*
X459334Y160575D01*
X459317Y160539D01*
X459295Y160422D01*
X459265Y160307D01*
X459261Y160247D01*
X459257Y160227D01*
X459259Y160206D01*
X459255Y160146D01*
X459255Y159078D01*
X458362Y158185D01*
X452090Y158185D01*
X452033Y158229D01*
X451944Y158308D01*
X451908Y158326D01*
X451876Y158351D01*
X451767Y158398D01*
X451661Y158453D01*
X451622Y158461D01*
X451584Y158477D01*
X451467Y158496D01*
X451351Y158522D01*
X451310Y158521D01*
X451270Y158527D01*
X451152Y158516D01*
X451033Y158513D01*
X450994Y158501D01*
X450954Y158498D01*
X450842Y158457D01*
X450727Y158424D01*
X450693Y158404D01*
X450654Y158390D01*
X450556Y158323D01*
X450453Y158263D01*
X450408Y158223D01*
X450391Y158211D01*
X450378Y158196D01*
X450366Y158185D01*
X444090Y158185D01*
X444033Y158229D01*
X443944Y158308D01*
X443908Y158326D01*
X443876Y158351D01*
X443767Y158398D01*
X443661Y158453D01*
X443621Y158461D01*
X443584Y158477D01*
X443467Y158496D01*
X443351Y158522D01*
X443310Y158521D01*
X443270Y158527D01*
X443151Y158516D01*
X443033Y158513D01*
X442994Y158501D01*
X442954Y158498D01*
X442842Y158457D01*
X442727Y158424D01*
X442692Y158404D01*
X442654Y158390D01*
X442556Y158323D01*
X442453Y158263D01*
X442408Y158223D01*
X442391Y158211D01*
X442378Y158196D01*
X442365Y158185D01*
X436090Y158185D01*
X436033Y158229D01*
X435944Y158308D01*
X435908Y158326D01*
X435876Y158351D01*
X435767Y158398D01*
X435661Y158453D01*
X435621Y158461D01*
X435584Y158477D01*
X435467Y158496D01*
X435351Y158522D01*
X435310Y158521D01*
X435270Y158527D01*
X435151Y158516D01*
X435033Y158513D01*
X434994Y158501D01*
X434954Y158498D01*
X434842Y158457D01*
X434727Y158424D01*
X434692Y158404D01*
X434654Y158390D01*
X434556Y158323D01*
X434453Y158263D01*
X434408Y158223D01*
X434391Y158211D01*
X434378Y158196D01*
X434365Y158185D01*
X428098Y158185D01*
X427205Y159078D01*
X427205Y169342D01*
X428098Y170235D01*
X434388Y170235D01*
X434485Y170154D01*
X434504Y170145D01*
X434520Y170133D01*
X434648Y170077D01*
X434773Y170018D01*
X434793Y170015D01*
X434812Y170007D01*
X434949Y169985D01*
X435086Y169959D01*
X435106Y169960D01*
X435126Y169957D01*
X435264Y169970D01*
X435403Y169978D01*
X435422Y169985D01*
X435442Y169986D01*
X435573Y170034D01*
X435705Y170076D01*
X435723Y170087D01*
X435742Y170094D01*
X435857Y170172D01*
X435974Y170247D01*
X435988Y170261D01*
X436005Y170273D01*
X436097Y170377D01*
X436192Y170478D01*
X436202Y170496D01*
X436215Y170511D01*
X436278Y170635D01*
X436346Y170757D01*
X436351Y170776D01*
X436360Y170794D01*
X436390Y170930D01*
X436425Y171065D01*
X436427Y171093D01*
X436430Y171105D01*
X436429Y171125D01*
X436435Y171225D01*
X436435Y186388D01*
X445144Y195096D01*
X447152Y197105D01*
X470109Y197105D01*
X470207Y197117D01*
X470306Y197120D01*
X470364Y197137D01*
X470425Y197145D01*
X470517Y197181D01*
X470612Y197209D01*
X470664Y197239D01*
X470720Y197262D01*
X470800Y197320D01*
X470886Y197370D01*
X470961Y197436D01*
X470978Y197448D01*
X470985Y197458D01*
X471006Y197476D01*
X472120Y198590D01*
X473976Y199359D01*
X475984Y199359D01*
X477840Y198590D01*
X479260Y197170D01*
X480029Y195314D01*
X480029Y193306D01*
X479260Y191450D01*
X477840Y190030D01*
X475984Y189261D01*
X473976Y189261D01*
X472120Y190030D01*
X471006Y191144D01*
X470928Y191204D01*
X470856Y191272D01*
X470803Y191301D01*
X470755Y191338D01*
X470664Y191378D01*
X470578Y191426D01*
X470519Y191441D01*
X470463Y191465D01*
X470365Y191480D01*
X470270Y191505D01*
X470170Y191511D01*
X470149Y191515D01*
X470137Y191513D01*
X470109Y191515D01*
X449993Y191515D01*
X449895Y191503D01*
X449796Y191500D01*
X449738Y191483D01*
X449678Y191475D01*
X449586Y191439D01*
X449491Y191411D01*
X449438Y191381D01*
X449382Y191358D01*
X449302Y191300D01*
X449217Y191250D01*
X449141Y191184D01*
X449125Y191172D01*
X449117Y191162D01*
X449096Y191144D01*
X442396Y184444D01*
X442336Y184366D01*
X442268Y184294D01*
X442239Y184241D01*
X442202Y184193D01*
X442162Y184102D01*
X442114Y184015D01*
X442099Y183957D01*
X442075Y183901D01*
X442060Y183803D01*
X442035Y183707D01*
X442029Y183607D01*
X442025Y183587D01*
X442027Y183575D01*
X442025Y183547D01*
X442025Y171225D01*
X442042Y171087D01*
X442055Y170949D01*
X442062Y170930D01*
X442065Y170910D01*
X442116Y170781D01*
X442163Y170650D01*
X442174Y170633D01*
X442182Y170614D01*
X442263Y170502D01*
X442341Y170386D01*
X442357Y170373D01*
X442368Y170357D01*
X442476Y170268D01*
X442580Y170176D01*
X442598Y170167D01*
X442613Y170154D01*
X442739Y170095D01*
X442863Y170031D01*
X442883Y170027D01*
X442901Y170018D01*
X443037Y169992D01*
X443173Y169962D01*
X443194Y169962D01*
X443213Y169959D01*
X443352Y169967D01*
X443491Y169971D01*
X443511Y169977D01*
X443531Y169978D01*
X443663Y170021D01*
X443797Y170060D01*
X443814Y170070D01*
X443833Y170076D01*
X443951Y170151D01*
X444071Y170221D01*
X444092Y170240D01*
X444102Y170247D01*
X444114Y170259D01*
X444142Y170267D01*
X444202Y170275D01*
X444294Y170311D01*
X444389Y170339D01*
X444442Y170369D01*
X444498Y170392D01*
X444578Y170450D01*
X444663Y170500D01*
X444739Y170566D01*
X444755Y170578D01*
X444763Y170588D01*
X444784Y170606D01*
X452232Y178055D01*
X470109Y178055D01*
X470207Y178067D01*
X470306Y178070D01*
X470364Y178087D01*
X470425Y178095D01*
X470517Y178131D01*
X470612Y178159D01*
X470664Y178189D01*
X470720Y178212D01*
X470800Y178270D01*
X470886Y178320D01*
X470961Y178386D01*
X470978Y178398D01*
X470985Y178408D01*
X471006Y178426D01*
X472120Y179540D01*
X473976Y180309D01*
X475984Y180309D01*
X477840Y179540D01*
X479260Y178120D01*
X480029Y176264D01*
X480029Y174256D01*
X479260Y172400D01*
X477840Y170980D01*
X475984Y170211D01*
X473976Y170211D01*
X472120Y170980D01*
X471006Y172094D01*
X470928Y172154D01*
X470856Y172222D01*
X470803Y172251D01*
X470755Y172288D01*
X470664Y172328D01*
X470578Y172376D01*
X470519Y172391D01*
X470463Y172415D01*
X470365Y172430D01*
X470270Y172455D01*
X470170Y172461D01*
X470149Y172465D01*
X470137Y172463D01*
X470109Y172465D01*
X459195Y172465D01*
X459057Y172448D01*
X458919Y172435D01*
X458900Y172428D01*
X458880Y172425D01*
X458751Y172374D01*
X458620Y172327D01*
X458603Y172316D01*
X458584Y172308D01*
X458472Y172227D01*
X458356Y172149D01*
X458343Y172133D01*
X458327Y172122D01*
X458238Y172014D01*
X458146Y171910D01*
X458137Y171892D01*
X458124Y171877D01*
X458065Y171751D01*
X458001Y171627D01*
X457997Y171607D01*
X457988Y171589D01*
X457962Y171452D01*
X457932Y171317D01*
X457932Y171296D01*
X457929Y171277D01*
X457937Y171138D01*
X457941Y170999D01*
X457947Y170979D01*
X457948Y170959D01*
X457991Y170827D01*
X458030Y170693D01*
X458040Y170676D01*
X458046Y170657D01*
X458121Y170539D01*
X458191Y170419D01*
X458210Y170398D01*
X458217Y170388D01*
X458232Y170374D01*
X458298Y170299D01*
X459255Y169342D01*
X459255Y168274D01*
X459270Y168156D01*
X459277Y168037D01*
X459290Y167999D01*
X459295Y167958D01*
X459338Y167848D01*
X459375Y167735D01*
X459397Y167700D01*
X459412Y167663D01*
X459481Y167567D01*
X459545Y167466D01*
X459575Y167438D01*
X459598Y167405D01*
X459690Y167329D01*
X459777Y167248D01*
X459812Y167228D01*
X459843Y167203D01*
X459951Y167152D01*
X460055Y167094D01*
X460095Y167084D01*
X460131Y167067D01*
X460248Y167045D01*
X460363Y167015D01*
X460423Y167011D01*
X460443Y167007D01*
X460464Y167009D01*
X460524Y167005D01*
X468138Y167005D01*
X473512Y161630D01*
X473590Y161570D01*
X473662Y161502D01*
X473715Y161473D01*
X473763Y161436D01*
X473854Y161396D01*
X473941Y161348D01*
X473999Y161333D01*
X474055Y161309D01*
X474153Y161294D01*
X474249Y161269D01*
X474349Y161263D01*
X474369Y161259D01*
X474381Y161261D01*
X474409Y161259D01*
X475984Y161259D01*
X477840Y160490D01*
X479260Y159070D01*
X480029Y157214D01*
X480029Y155206D01*
X479260Y153350D01*
X477840Y151930D01*
X475984Y151161D01*
X473976Y151161D01*
G37*
%LPD*%
%LPC*%
G36*
X49796Y172751D02*
X49796Y172751D01*
X47940Y173520D01*
X46520Y174940D01*
X45751Y176796D01*
X45751Y178804D01*
X46520Y180660D01*
X47940Y182080D01*
X49796Y182849D01*
X51730Y182849D01*
X51828Y182861D01*
X51927Y182864D01*
X51985Y182881D01*
X52045Y182889D01*
X52137Y182925D01*
X52233Y182953D01*
X52285Y182983D01*
X52341Y183006D01*
X52421Y183064D01*
X52506Y183114D01*
X52582Y183180D01*
X52598Y183192D01*
X52606Y183202D01*
X52627Y183220D01*
X54492Y185085D01*
X54552Y185163D01*
X54620Y185235D01*
X54649Y185288D01*
X54686Y185336D01*
X54726Y185427D01*
X54774Y185514D01*
X54789Y185572D01*
X54813Y185628D01*
X54828Y185726D01*
X54853Y185821D01*
X54859Y185922D01*
X54863Y185942D01*
X54861Y185954D01*
X54863Y185982D01*
X54863Y199599D01*
X54851Y199697D01*
X54848Y199796D01*
X54831Y199854D01*
X54823Y199915D01*
X54787Y200007D01*
X54759Y200102D01*
X54729Y200154D01*
X54706Y200210D01*
X54648Y200290D01*
X54598Y200376D01*
X54532Y200451D01*
X54520Y200468D01*
X54510Y200475D01*
X54492Y200496D01*
X53124Y201864D01*
X52355Y203720D01*
X52355Y205728D01*
X53124Y207584D01*
X53431Y207890D01*
X53516Y208000D01*
X53604Y208107D01*
X53613Y208126D01*
X53625Y208142D01*
X53681Y208270D01*
X53740Y208395D01*
X53744Y208415D01*
X53752Y208434D01*
X53774Y208572D01*
X53800Y208708D01*
X53798Y208728D01*
X53802Y208748D01*
X53789Y208886D01*
X53780Y209025D01*
X53774Y209044D01*
X53772Y209064D01*
X53725Y209195D01*
X53682Y209327D01*
X53671Y209345D01*
X53664Y209364D01*
X53586Y209478D01*
X53512Y209596D01*
X53497Y209610D01*
X53486Y209627D01*
X53381Y209719D01*
X53280Y209814D01*
X53262Y209824D01*
X53247Y209837D01*
X53123Y209901D01*
X53002Y209968D01*
X52982Y209973D01*
X52964Y209982D01*
X52828Y210012D01*
X52694Y210047D01*
X52666Y210049D01*
X52654Y210052D01*
X52633Y210051D01*
X52533Y210057D01*
X52378Y210057D01*
X52280Y210045D01*
X52181Y210042D01*
X52123Y210025D01*
X52063Y210017D01*
X51971Y209981D01*
X51875Y209953D01*
X51823Y209923D01*
X51767Y209900D01*
X51687Y209842D01*
X51602Y209792D01*
X51526Y209726D01*
X51510Y209714D01*
X51502Y209704D01*
X51481Y209686D01*
X41012Y199217D01*
X40952Y199139D01*
X40884Y199067D01*
X40855Y199014D01*
X40818Y198966D01*
X40778Y198875D01*
X40730Y198788D01*
X40715Y198730D01*
X40691Y198674D01*
X40676Y198576D01*
X40651Y198481D01*
X40645Y198380D01*
X40641Y198360D01*
X40643Y198348D01*
X40641Y198320D01*
X40641Y193085D01*
X40653Y192987D01*
X40656Y192888D01*
X40673Y192830D01*
X40681Y192769D01*
X40717Y192677D01*
X40745Y192582D01*
X40775Y192530D01*
X40798Y192474D01*
X40856Y192394D01*
X40906Y192308D01*
X40972Y192233D01*
X40984Y192216D01*
X40994Y192209D01*
X41012Y192188D01*
X42380Y190820D01*
X43149Y188964D01*
X43149Y186956D01*
X42380Y185100D01*
X40960Y183680D01*
X39104Y182911D01*
X37096Y182911D01*
X35240Y183680D01*
X33820Y185100D01*
X33051Y186956D01*
X33051Y188964D01*
X33820Y190820D01*
X35188Y192188D01*
X35248Y192266D01*
X35316Y192338D01*
X35345Y192391D01*
X35382Y192439D01*
X35422Y192530D01*
X35470Y192616D01*
X35485Y192675D01*
X35509Y192731D01*
X35524Y192829D01*
X35549Y192924D01*
X35555Y193024D01*
X35559Y193045D01*
X35557Y193057D01*
X35559Y193085D01*
X35559Y200950D01*
X49748Y215139D01*
X59137Y215139D01*
X59235Y215151D01*
X59334Y215154D01*
X59392Y215171D01*
X59453Y215179D01*
X59545Y215215D01*
X59640Y215243D01*
X59692Y215273D01*
X59748Y215296D01*
X59828Y215354D01*
X59914Y215404D01*
X59989Y215470D01*
X60006Y215482D01*
X60013Y215492D01*
X60034Y215510D01*
X61402Y216878D01*
X63258Y217647D01*
X65266Y217647D01*
X67122Y216878D01*
X68542Y215458D01*
X69311Y213602D01*
X69311Y211594D01*
X68542Y209738D01*
X67122Y208318D01*
X65266Y207549D01*
X63598Y207549D01*
X63549Y207543D01*
X63499Y207545D01*
X63392Y207523D01*
X63282Y207509D01*
X63236Y207491D01*
X63188Y207481D01*
X63089Y207433D01*
X62987Y207392D01*
X62947Y207363D01*
X62902Y207341D01*
X62818Y207270D01*
X62729Y207206D01*
X62698Y207167D01*
X62660Y207135D01*
X62597Y207045D01*
X62527Y206961D01*
X62505Y206916D01*
X62477Y206875D01*
X62438Y206772D01*
X62391Y206673D01*
X62382Y206624D01*
X62364Y206578D01*
X62352Y206468D01*
X62331Y206361D01*
X62334Y206311D01*
X62329Y206262D01*
X62344Y206153D01*
X62351Y206043D01*
X62366Y205996D01*
X62373Y205947D01*
X62425Y205794D01*
X62453Y205728D01*
X62453Y203720D01*
X61684Y201864D01*
X60316Y200496D01*
X60256Y200418D01*
X60188Y200346D01*
X60159Y200293D01*
X60122Y200245D01*
X60082Y200154D01*
X60034Y200068D01*
X60019Y200009D01*
X59995Y199953D01*
X59980Y199855D01*
X59955Y199760D01*
X59949Y199660D01*
X59945Y199639D01*
X59947Y199627D01*
X59945Y199599D01*
X59945Y183352D01*
X56220Y179627D01*
X56160Y179549D01*
X56092Y179477D01*
X56063Y179424D01*
X56026Y179376D01*
X55986Y179285D01*
X55938Y179198D01*
X55923Y179140D01*
X55899Y179084D01*
X55884Y178986D01*
X55859Y178891D01*
X55853Y178790D01*
X55849Y178770D01*
X55851Y178758D01*
X55849Y178730D01*
X55849Y176796D01*
X55080Y174940D01*
X53660Y173520D01*
X51804Y172751D01*
X49796Y172751D01*
G37*
%LPD*%
%LPC*%
G36*
X279952Y217451D02*
X279952Y217451D01*
X277141Y220262D01*
X277141Y224238D01*
X279952Y227049D01*
X283928Y227049D01*
X285814Y225162D01*
X285892Y225102D01*
X285964Y225034D01*
X286017Y225005D01*
X286065Y224968D01*
X286156Y224928D01*
X286243Y224880D01*
X286301Y224865D01*
X286357Y224841D01*
X286455Y224826D01*
X286551Y224801D01*
X286651Y224795D01*
X286671Y224791D01*
X286683Y224793D01*
X286711Y224791D01*
X322272Y224791D01*
X322370Y224803D01*
X322469Y224806D01*
X322527Y224823D01*
X322587Y224831D01*
X322679Y224867D01*
X322775Y224895D01*
X322827Y224925D01*
X322883Y224948D01*
X322963Y225006D01*
X323048Y225056D01*
X323124Y225122D01*
X323140Y225134D01*
X323148Y225144D01*
X323169Y225162D01*
X329148Y231141D01*
X356825Y231141D01*
X356923Y231153D01*
X357022Y231156D01*
X357080Y231173D01*
X357141Y231181D01*
X357233Y231217D01*
X357328Y231245D01*
X357380Y231275D01*
X357436Y231298D01*
X357516Y231356D01*
X357602Y231406D01*
X357677Y231472D01*
X357694Y231484D01*
X357701Y231494D01*
X357722Y231512D01*
X359090Y232880D01*
X360946Y233649D01*
X362954Y233649D01*
X364810Y232880D01*
X366230Y231460D01*
X366999Y229604D01*
X366999Y227596D01*
X366230Y225740D01*
X364810Y224320D01*
X362954Y223551D01*
X360946Y223551D01*
X359090Y224320D01*
X357722Y225688D01*
X357644Y225748D01*
X357572Y225816D01*
X357519Y225845D01*
X357471Y225882D01*
X357380Y225922D01*
X357294Y225970D01*
X357235Y225985D01*
X357179Y226009D01*
X357081Y226024D01*
X356986Y226049D01*
X356886Y226055D01*
X356865Y226059D01*
X356853Y226057D01*
X356825Y226059D01*
X331778Y226059D01*
X331680Y226047D01*
X331581Y226044D01*
X331523Y226027D01*
X331463Y226019D01*
X331371Y225983D01*
X331275Y225955D01*
X331223Y225925D01*
X331167Y225902D01*
X331087Y225844D01*
X331002Y225794D01*
X330926Y225728D01*
X330910Y225716D01*
X330902Y225706D01*
X330881Y225688D01*
X324902Y219709D01*
X286711Y219709D01*
X286613Y219697D01*
X286514Y219694D01*
X286456Y219677D01*
X286396Y219669D01*
X286304Y219633D01*
X286209Y219605D01*
X286157Y219575D01*
X286100Y219552D01*
X286020Y219494D01*
X285935Y219444D01*
X285859Y219378D01*
X285843Y219366D01*
X285835Y219356D01*
X285814Y219338D01*
X283928Y217451D01*
X279952Y217451D01*
G37*
%LPD*%
%LPC*%
G36*
X313956Y160211D02*
X313956Y160211D01*
X312100Y160980D01*
X310680Y162400D01*
X309911Y164256D01*
X309911Y166264D01*
X310680Y168120D01*
X312100Y169540D01*
X313956Y170309D01*
X315964Y170309D01*
X317820Y169540D01*
X319188Y168172D01*
X319266Y168112D01*
X319338Y168044D01*
X319391Y168015D01*
X319439Y167978D01*
X319530Y167938D01*
X319616Y167890D01*
X319675Y167875D01*
X319731Y167851D01*
X319829Y167836D01*
X319924Y167811D01*
X320024Y167805D01*
X320045Y167801D01*
X320057Y167803D01*
X320085Y167801D01*
X330052Y167801D01*
X330150Y167813D01*
X330249Y167816D01*
X330307Y167833D01*
X330367Y167841D01*
X330459Y167877D01*
X330555Y167905D01*
X330607Y167935D01*
X330663Y167958D01*
X330743Y168016D01*
X330829Y168066D01*
X330904Y168132D01*
X330920Y168144D01*
X330928Y168154D01*
X330949Y168172D01*
X338718Y175941D01*
X340578Y177801D01*
X362459Y177801D01*
X362557Y177813D01*
X362656Y177816D01*
X362714Y177833D01*
X362774Y177841D01*
X362866Y177877D01*
X362961Y177905D01*
X363013Y177935D01*
X363070Y177958D01*
X363150Y178016D01*
X363235Y178066D01*
X363311Y178132D01*
X363327Y178144D01*
X363335Y178154D01*
X363356Y178172D01*
X365242Y180059D01*
X369218Y180059D01*
X372029Y177248D01*
X372029Y173272D01*
X369218Y170461D01*
X365242Y170461D01*
X363356Y172348D01*
X363278Y172408D01*
X363206Y172476D01*
X363153Y172505D01*
X363105Y172542D01*
X363014Y172582D01*
X362927Y172630D01*
X362869Y172645D01*
X362813Y172669D01*
X362715Y172684D01*
X362619Y172709D01*
X362519Y172715D01*
X362499Y172719D01*
X362487Y172717D01*
X362459Y172719D01*
X343208Y172719D01*
X343110Y172707D01*
X343011Y172704D01*
X342953Y172687D01*
X342893Y172679D01*
X342801Y172643D01*
X342705Y172615D01*
X342653Y172585D01*
X342597Y172562D01*
X342517Y172504D01*
X342431Y172454D01*
X342356Y172388D01*
X342340Y172376D01*
X342332Y172366D01*
X342311Y172348D01*
X334542Y164579D01*
X332682Y162719D01*
X320085Y162719D01*
X319987Y162707D01*
X319888Y162704D01*
X319830Y162687D01*
X319769Y162679D01*
X319677Y162643D01*
X319582Y162615D01*
X319530Y162585D01*
X319474Y162562D01*
X319394Y162504D01*
X319308Y162454D01*
X319233Y162388D01*
X319216Y162376D01*
X319209Y162366D01*
X319188Y162348D01*
X317820Y160980D01*
X315964Y160211D01*
X313956Y160211D01*
G37*
%LPD*%
%LPC*%
G36*
X430358Y205565D02*
X430358Y205565D01*
X429465Y206458D01*
X429465Y217722D01*
X430358Y218615D01*
X442622Y218615D01*
X443515Y217722D01*
X443515Y215900D01*
X443530Y215782D01*
X443537Y215663D01*
X443550Y215625D01*
X443555Y215584D01*
X443598Y215474D01*
X443635Y215361D01*
X443657Y215326D01*
X443672Y215289D01*
X443741Y215193D01*
X443805Y215092D01*
X443835Y215064D01*
X443858Y215031D01*
X443950Y214955D01*
X444037Y214874D01*
X444072Y214854D01*
X444103Y214829D01*
X444211Y214778D01*
X444315Y214720D01*
X444355Y214710D01*
X444391Y214693D01*
X444508Y214671D01*
X444623Y214641D01*
X444683Y214637D01*
X444703Y214633D01*
X444724Y214635D01*
X444784Y214631D01*
X448002Y214631D01*
X448100Y214643D01*
X448199Y214646D01*
X448257Y214663D01*
X448317Y214671D01*
X448409Y214707D01*
X448505Y214735D01*
X448557Y214765D01*
X448613Y214788D01*
X448693Y214846D01*
X448778Y214896D01*
X448854Y214962D01*
X448870Y214974D01*
X448878Y214984D01*
X448899Y215002D01*
X453018Y219121D01*
X453078Y219199D01*
X453146Y219271D01*
X453175Y219324D01*
X453212Y219372D01*
X453252Y219463D01*
X453300Y219550D01*
X453315Y219608D01*
X453339Y219664D01*
X453354Y219762D01*
X453379Y219857D01*
X453385Y219958D01*
X453389Y219978D01*
X453387Y219990D01*
X453389Y220018D01*
X453389Y226015D01*
X453377Y226113D01*
X453374Y226212D01*
X453357Y226270D01*
X453349Y226331D01*
X453313Y226423D01*
X453285Y226518D01*
X453255Y226570D01*
X453232Y226626D01*
X453174Y226706D01*
X453124Y226792D01*
X453058Y226867D01*
X453046Y226884D01*
X453036Y226891D01*
X453018Y226912D01*
X451650Y228280D01*
X450881Y230136D01*
X450881Y232144D01*
X451650Y234000D01*
X453070Y235420D01*
X454926Y236189D01*
X456934Y236189D01*
X458790Y235420D01*
X460210Y234000D01*
X460979Y232144D01*
X460979Y230136D01*
X460210Y228280D01*
X458842Y226912D01*
X458782Y226834D01*
X458714Y226762D01*
X458685Y226709D01*
X458648Y226661D01*
X458608Y226570D01*
X458560Y226484D01*
X458545Y226425D01*
X458521Y226369D01*
X458506Y226271D01*
X458481Y226176D01*
X458475Y226076D01*
X458471Y226055D01*
X458473Y226043D01*
X458471Y226015D01*
X458471Y217388D01*
X450632Y209549D01*
X444784Y209549D01*
X444666Y209534D01*
X444547Y209527D01*
X444509Y209514D01*
X444468Y209509D01*
X444358Y209466D01*
X444245Y209429D01*
X444210Y209407D01*
X444173Y209392D01*
X444077Y209323D01*
X443976Y209259D01*
X443948Y209229D01*
X443915Y209206D01*
X443839Y209114D01*
X443758Y209027D01*
X443738Y208992D01*
X443713Y208961D01*
X443662Y208853D01*
X443604Y208749D01*
X443594Y208709D01*
X443577Y208673D01*
X443555Y208556D01*
X443525Y208441D01*
X443521Y208381D01*
X443517Y208361D01*
X443519Y208340D01*
X443515Y208280D01*
X443515Y206458D01*
X442622Y205565D01*
X430358Y205565D01*
G37*
%LPD*%
%LPC*%
G36*
X313956Y175291D02*
X313956Y175291D01*
X312100Y176060D01*
X310680Y177480D01*
X309911Y179336D01*
X309911Y181344D01*
X310680Y183200D01*
X312100Y184620D01*
X313956Y185389D01*
X315890Y185389D01*
X315988Y185401D01*
X316087Y185404D01*
X316145Y185421D01*
X316205Y185429D01*
X316297Y185465D01*
X316393Y185493D01*
X316445Y185523D01*
X316501Y185546D01*
X316581Y185604D01*
X316666Y185654D01*
X316742Y185720D01*
X316758Y185732D01*
X316766Y185742D01*
X316787Y185760D01*
X346370Y215343D01*
X346430Y215421D01*
X346498Y215493D01*
X346527Y215546D01*
X346564Y215594D01*
X346604Y215685D01*
X346652Y215772D01*
X346667Y215830D01*
X346691Y215886D01*
X346706Y215984D01*
X346731Y216079D01*
X346737Y216180D01*
X346741Y216200D01*
X346739Y216212D01*
X346741Y216240D01*
X346741Y218174D01*
X347510Y220030D01*
X348930Y221450D01*
X350786Y222219D01*
X352794Y222219D01*
X354650Y221450D01*
X356070Y220030D01*
X356839Y218174D01*
X356839Y216166D01*
X356070Y214310D01*
X354650Y212890D01*
X352794Y212121D01*
X350860Y212121D01*
X350762Y212109D01*
X350663Y212106D01*
X350605Y212089D01*
X350545Y212081D01*
X350453Y212045D01*
X350357Y212017D01*
X350305Y211987D01*
X350249Y211964D01*
X350169Y211906D01*
X350084Y211856D01*
X350008Y211790D01*
X349992Y211778D01*
X349984Y211768D01*
X349963Y211750D01*
X320380Y182167D01*
X320320Y182089D01*
X320252Y182017D01*
X320223Y181964D01*
X320186Y181916D01*
X320146Y181825D01*
X320098Y181738D01*
X320083Y181680D01*
X320059Y181624D01*
X320044Y181526D01*
X320019Y181431D01*
X320013Y181330D01*
X320009Y181310D01*
X320011Y181298D01*
X320009Y181270D01*
X320009Y179336D01*
X319240Y177480D01*
X317820Y176060D01*
X315964Y175291D01*
X313956Y175291D01*
G37*
%LPD*%
%LPC*%
G36*
X165099Y151796D02*
X165099Y151796D01*
X165055Y151906D01*
X165019Y152019D01*
X164997Y152054D01*
X164982Y152091D01*
X164912Y152187D01*
X164849Y152288D01*
X164819Y152316D01*
X164795Y152349D01*
X164704Y152425D01*
X164617Y152506D01*
X164582Y152526D01*
X164550Y152551D01*
X164443Y152602D01*
X164338Y152660D01*
X164299Y152670D01*
X164263Y152687D01*
X164146Y152709D01*
X164030Y152739D01*
X163970Y152743D01*
X163950Y152747D01*
X163930Y152745D01*
X163870Y152749D01*
X157559Y152749D01*
X157559Y156084D01*
X157732Y156731D01*
X158067Y157310D01*
X158540Y157783D01*
X159244Y158190D01*
X159344Y158266D01*
X159448Y158336D01*
X159471Y158362D01*
X159498Y158382D01*
X159576Y158481D01*
X159659Y158575D01*
X159674Y158605D01*
X159695Y158631D01*
X159746Y158746D01*
X159804Y158858D01*
X159811Y158891D01*
X159825Y158922D01*
X159846Y159046D01*
X159873Y159168D01*
X159872Y159202D01*
X159878Y159235D01*
X159867Y159361D01*
X159864Y159486D01*
X159854Y159519D01*
X159851Y159552D01*
X159810Y159671D01*
X159775Y159792D01*
X159758Y159821D01*
X159747Y159853D01*
X159678Y159957D01*
X159614Y160066D01*
X159581Y160102D01*
X159571Y160118D01*
X159555Y160132D01*
X159507Y160186D01*
X158575Y161118D01*
X158575Y173382D01*
X159203Y174010D01*
X159264Y174088D01*
X159332Y174160D01*
X159361Y174213D01*
X159398Y174261D01*
X159438Y174352D01*
X159486Y174439D01*
X159501Y174497D01*
X159525Y174553D01*
X159540Y174651D01*
X159565Y174747D01*
X159571Y174847D01*
X159575Y174867D01*
X159573Y174879D01*
X159575Y174907D01*
X159575Y176359D01*
X160416Y178389D01*
X161971Y179944D01*
X164001Y180785D01*
X166199Y180785D01*
X168229Y179944D01*
X169784Y178389D01*
X170625Y176359D01*
X170625Y174907D01*
X170637Y174809D01*
X170640Y174710D01*
X170657Y174652D01*
X170665Y174592D01*
X170701Y174500D01*
X170729Y174405D01*
X170759Y174352D01*
X170782Y174296D01*
X170840Y174216D01*
X170890Y174131D01*
X170956Y174055D01*
X170968Y174039D01*
X170978Y174031D01*
X170997Y174010D01*
X171625Y173382D01*
X171625Y161118D01*
X170693Y160186D01*
X170616Y160087D01*
X170534Y159992D01*
X170519Y159962D01*
X170498Y159935D01*
X170448Y159820D01*
X170392Y159707D01*
X170385Y159674D01*
X170371Y159643D01*
X170352Y159519D01*
X170326Y159396D01*
X170327Y159363D01*
X170322Y159329D01*
X170333Y159204D01*
X170339Y159078D01*
X170348Y159046D01*
X170351Y159013D01*
X170394Y158894D01*
X170430Y158774D01*
X170448Y158745D01*
X170459Y158713D01*
X170530Y158609D01*
X170595Y158502D01*
X170619Y158478D01*
X170638Y158450D01*
X170732Y158367D01*
X170822Y158279D01*
X170862Y158252D01*
X170876Y158240D01*
X170895Y158230D01*
X170956Y158190D01*
X171660Y157783D01*
X172133Y157310D01*
X172468Y156731D01*
X172641Y156084D01*
X172641Y152749D01*
X166330Y152749D01*
X166212Y152734D01*
X166093Y152727D01*
X166055Y152714D01*
X166015Y152709D01*
X165904Y152666D01*
X165791Y152629D01*
X165757Y152607D01*
X165719Y152592D01*
X165623Y152523D01*
X165522Y152459D01*
X165494Y152429D01*
X165462Y152406D01*
X165386Y152314D01*
X165304Y152227D01*
X165285Y152192D01*
X165259Y152161D01*
X165208Y152053D01*
X165151Y151949D01*
X165141Y151909D01*
X165123Y151873D01*
X165103Y151766D01*
X165099Y151796D01*
G37*
%LPD*%
%LPC*%
G36*
X275761Y169735D02*
X275761Y169735D01*
X273731Y170576D01*
X272176Y172131D01*
X271335Y174161D01*
X271335Y175613D01*
X271323Y175711D01*
X271320Y175810D01*
X271303Y175868D01*
X271295Y175928D01*
X271259Y176020D01*
X271231Y176115D01*
X271201Y176168D01*
X271178Y176224D01*
X271120Y176304D01*
X271070Y176389D01*
X271004Y176465D01*
X270992Y176481D01*
X270982Y176489D01*
X270964Y176510D01*
X270335Y177138D01*
X270335Y189402D01*
X271267Y190334D01*
X271344Y190433D01*
X271426Y190528D01*
X271441Y190558D01*
X271462Y190585D01*
X271512Y190700D01*
X271568Y190813D01*
X271575Y190846D01*
X271589Y190877D01*
X271608Y191001D01*
X271634Y191124D01*
X271633Y191157D01*
X271638Y191191D01*
X271627Y191316D01*
X271621Y191442D01*
X271612Y191474D01*
X271609Y191507D01*
X271566Y191626D01*
X271530Y191746D01*
X271512Y191775D01*
X271501Y191807D01*
X271430Y191911D01*
X271365Y192018D01*
X271341Y192042D01*
X271322Y192070D01*
X271228Y192153D01*
X271138Y192241D01*
X271098Y192268D01*
X271084Y192280D01*
X271065Y192290D01*
X271004Y192330D01*
X270300Y192737D01*
X269827Y193210D01*
X269492Y193789D01*
X269319Y194436D01*
X269319Y197771D01*
X275630Y197771D01*
X275748Y197786D01*
X275867Y197793D01*
X275905Y197805D01*
X275945Y197811D01*
X276056Y197854D01*
X276169Y197891D01*
X276203Y197913D01*
X276241Y197928D01*
X276337Y197997D01*
X276438Y198061D01*
X276466Y198091D01*
X276498Y198114D01*
X276574Y198206D01*
X276656Y198293D01*
X276675Y198328D01*
X276701Y198359D01*
X276752Y198467D01*
X276809Y198571D01*
X276819Y198611D01*
X276837Y198647D01*
X276857Y198754D01*
X276861Y198724D01*
X276905Y198614D01*
X276941Y198501D01*
X276963Y198466D01*
X276978Y198429D01*
X277048Y198332D01*
X277111Y198232D01*
X277141Y198204D01*
X277165Y198171D01*
X277256Y198095D01*
X277343Y198014D01*
X277378Y197994D01*
X277410Y197969D01*
X277517Y197918D01*
X277622Y197860D01*
X277661Y197850D01*
X277697Y197833D01*
X277814Y197811D01*
X277930Y197781D01*
X277990Y197777D01*
X278010Y197773D01*
X278030Y197775D01*
X278090Y197771D01*
X284401Y197771D01*
X284401Y194436D01*
X284228Y193789D01*
X283893Y193210D01*
X283420Y192737D01*
X282716Y192330D01*
X282616Y192254D01*
X282512Y192184D01*
X282489Y192158D01*
X282462Y192138D01*
X282384Y192039D01*
X282301Y191945D01*
X282286Y191915D01*
X282265Y191889D01*
X282214Y191774D01*
X282156Y191662D01*
X282149Y191629D01*
X282135Y191598D01*
X282114Y191474D01*
X282087Y191352D01*
X282088Y191318D01*
X282082Y191285D01*
X282093Y191159D01*
X282096Y191034D01*
X282106Y191001D01*
X282109Y190968D01*
X282150Y190849D01*
X282185Y190728D01*
X282202Y190699D01*
X282213Y190667D01*
X282282Y190563D01*
X282346Y190454D01*
X282379Y190418D01*
X282389Y190402D01*
X282405Y190388D01*
X282453Y190334D01*
X283385Y189402D01*
X283385Y177138D01*
X282756Y176510D01*
X282696Y176432D01*
X282628Y176360D01*
X282599Y176307D01*
X282562Y176259D01*
X282522Y176168D01*
X282474Y176081D01*
X282459Y176023D01*
X282435Y175967D01*
X282420Y175869D01*
X282395Y175773D01*
X282389Y175673D01*
X282385Y175653D01*
X282387Y175641D01*
X282385Y175613D01*
X282385Y174161D01*
X281544Y172131D01*
X279989Y170576D01*
X277959Y169735D01*
X275761Y169735D01*
G37*
%LPD*%
%LPC*%
G36*
X101358Y78009D02*
X101358Y78009D01*
X99502Y78778D01*
X98082Y80198D01*
X97313Y82054D01*
X97313Y84062D01*
X98082Y85918D01*
X98222Y86058D01*
X98308Y86168D01*
X98396Y86275D01*
X98405Y86294D01*
X98417Y86310D01*
X98473Y86438D01*
X98532Y86563D01*
X98536Y86583D01*
X98544Y86602D01*
X98566Y86739D01*
X98592Y86876D01*
X98590Y86896D01*
X98594Y86916D01*
X98581Y87054D01*
X98572Y87193D01*
X98566Y87212D01*
X98564Y87232D01*
X98517Y87363D01*
X98474Y87495D01*
X98463Y87513D01*
X98456Y87532D01*
X98378Y87647D01*
X98304Y87764D01*
X98289Y87778D01*
X98278Y87795D01*
X98173Y87887D01*
X98072Y87982D01*
X98054Y87992D01*
X98039Y88005D01*
X97916Y88068D01*
X97794Y88136D01*
X97774Y88141D01*
X97756Y88150D01*
X97620Y88180D01*
X97486Y88215D01*
X97458Y88217D01*
X97446Y88220D01*
X97425Y88219D01*
X97325Y88225D01*
X96358Y88225D01*
X95465Y89118D01*
X95465Y101382D01*
X96358Y102275D01*
X107622Y102275D01*
X108515Y101382D01*
X108515Y89118D01*
X107622Y88225D01*
X107399Y88225D01*
X107261Y88208D01*
X107123Y88195D01*
X107104Y88188D01*
X107083Y88185D01*
X106954Y88134D01*
X106823Y88087D01*
X106806Y88076D01*
X106788Y88068D01*
X106675Y87987D01*
X106560Y87909D01*
X106547Y87893D01*
X106530Y87882D01*
X106442Y87774D01*
X106350Y87670D01*
X106340Y87652D01*
X106328Y87637D01*
X106268Y87511D01*
X106205Y87387D01*
X106201Y87367D01*
X106192Y87349D01*
X106166Y87213D01*
X106135Y87077D01*
X106136Y87056D01*
X106132Y87037D01*
X106141Y86898D01*
X106145Y86759D01*
X106151Y86739D01*
X106152Y86719D01*
X106195Y86587D01*
X106234Y86453D01*
X106244Y86436D01*
X106250Y86417D01*
X106325Y86299D01*
X106395Y86179D01*
X106414Y86158D01*
X106420Y86148D01*
X106435Y86134D01*
X106502Y86058D01*
X106642Y85918D01*
X107411Y84062D01*
X107411Y82054D01*
X106642Y80198D01*
X105222Y78778D01*
X103366Y78009D01*
X101358Y78009D01*
G37*
%LPD*%
%LPC*%
G36*
X152618Y98495D02*
X152618Y98495D01*
X151725Y99388D01*
X151725Y110652D01*
X152622Y111549D01*
X152626Y111549D01*
X152734Y111571D01*
X152843Y111585D01*
X152889Y111603D01*
X152938Y111613D01*
X153036Y111661D01*
X153138Y111702D01*
X153178Y111731D01*
X153223Y111753D01*
X153307Y111824D01*
X153396Y111888D01*
X153427Y111927D01*
X153465Y111959D01*
X153528Y112049D01*
X153598Y112133D01*
X153620Y112178D01*
X153648Y112219D01*
X153687Y112322D01*
X153734Y112421D01*
X153743Y112470D01*
X153761Y112517D01*
X153773Y112626D01*
X153794Y112733D01*
X153791Y112783D01*
X153796Y112833D01*
X153781Y112941D01*
X153774Y113051D01*
X153759Y113098D01*
X153752Y113147D01*
X153701Y113295D01*
X153701Y115304D01*
X154470Y117160D01*
X155890Y118580D01*
X157746Y119349D01*
X159754Y119349D01*
X161610Y118580D01*
X163030Y117160D01*
X163799Y115304D01*
X163799Y113294D01*
X163787Y113252D01*
X163766Y113207D01*
X163745Y113099D01*
X163716Y112993D01*
X163716Y112943D01*
X163706Y112894D01*
X163713Y112785D01*
X163711Y112675D01*
X163723Y112627D01*
X163726Y112577D01*
X163760Y112473D01*
X163785Y112366D01*
X163809Y112322D01*
X163824Y112275D01*
X163883Y112182D01*
X163934Y112085D01*
X163968Y112048D01*
X163994Y112006D01*
X164074Y111930D01*
X164148Y111849D01*
X164190Y111822D01*
X164226Y111788D01*
X164322Y111735D01*
X164414Y111675D01*
X164461Y111658D01*
X164504Y111634D01*
X164611Y111607D01*
X164715Y111571D01*
X164764Y111567D01*
X164812Y111555D01*
X164875Y111551D01*
X165775Y110652D01*
X165775Y99388D01*
X164882Y98495D01*
X152618Y98495D01*
G37*
%LPD*%
%LPC*%
G36*
X430358Y224615D02*
X430358Y224615D01*
X429465Y225508D01*
X429465Y236772D01*
X430358Y237665D01*
X442669Y237665D01*
X442707Y237636D01*
X442798Y237596D01*
X442885Y237548D01*
X442943Y237533D01*
X442999Y237509D01*
X443097Y237494D01*
X443193Y237469D01*
X443293Y237463D01*
X443313Y237459D01*
X443325Y237461D01*
X443353Y237459D01*
X444234Y237459D01*
X446090Y236690D01*
X447510Y235270D01*
X448279Y233414D01*
X448279Y231406D01*
X447510Y229550D01*
X446090Y228130D01*
X444298Y227388D01*
X444273Y227373D01*
X444245Y227364D01*
X444135Y227295D01*
X444022Y227230D01*
X444001Y227210D01*
X443976Y227194D01*
X443887Y227099D01*
X443794Y227009D01*
X443778Y226984D01*
X443758Y226962D01*
X443695Y226848D01*
X443627Y226738D01*
X443619Y226710D01*
X443604Y226684D01*
X443572Y226558D01*
X443534Y226434D01*
X443532Y226404D01*
X443525Y226376D01*
X443515Y226215D01*
X443515Y225508D01*
X442622Y224615D01*
X430358Y224615D01*
G37*
%LPD*%
G36*
X141069Y289574D02*
X141069Y289574D01*
X141207Y289583D01*
X141226Y289589D01*
X141246Y289591D01*
X141378Y289638D01*
X141509Y289681D01*
X141527Y289692D01*
X141546Y289699D01*
X141661Y289777D01*
X141778Y289851D01*
X141792Y289866D01*
X141809Y289877D01*
X141901Y289981D01*
X141996Y290083D01*
X142006Y290101D01*
X142019Y290116D01*
X142083Y290240D01*
X142150Y290361D01*
X142155Y290381D01*
X142164Y290399D01*
X142194Y290535D01*
X142229Y290669D01*
X142231Y290697D01*
X142234Y290709D01*
X142233Y290730D01*
X142239Y290830D01*
X142239Y303530D01*
X142227Y303628D01*
X142224Y303727D01*
X142218Y303749D01*
X142217Y303759D01*
X142206Y303793D01*
X142199Y303846D01*
X142163Y303938D01*
X142135Y304033D01*
X142120Y304059D01*
X142119Y304062D01*
X142109Y304078D01*
X142105Y304085D01*
X142082Y304141D01*
X142024Y304221D01*
X141974Y304307D01*
X141908Y304382D01*
X141896Y304399D01*
X141886Y304406D01*
X141868Y304428D01*
X139328Y306968D01*
X139249Y307028D01*
X139177Y307096D01*
X139124Y307125D01*
X139076Y307162D01*
X138985Y307202D01*
X138899Y307250D01*
X138840Y307265D01*
X138784Y307289D01*
X138686Y307304D01*
X138591Y307329D01*
X138491Y307335D01*
X138470Y307339D01*
X138458Y307337D01*
X138430Y307339D01*
X129540Y307339D01*
X129422Y307324D01*
X129303Y307317D01*
X129265Y307304D01*
X129224Y307299D01*
X129114Y307256D01*
X129001Y307219D01*
X128966Y307197D01*
X128929Y307182D01*
X128833Y307113D01*
X128732Y307049D01*
X128704Y307019D01*
X128671Y306996D01*
X128596Y306904D01*
X128514Y306817D01*
X128494Y306782D01*
X128469Y306751D01*
X128418Y306643D01*
X128360Y306539D01*
X128350Y306499D01*
X128333Y306463D01*
X128311Y306346D01*
X128281Y306231D01*
X128277Y306171D01*
X128273Y306151D01*
X128274Y306144D01*
X128273Y306142D01*
X128274Y306126D01*
X128271Y306070D01*
X128271Y294640D01*
X128286Y294522D01*
X128293Y294403D01*
X128306Y294365D01*
X128311Y294324D01*
X128354Y294214D01*
X128391Y294101D01*
X128413Y294066D01*
X128428Y294029D01*
X128498Y293933D01*
X128561Y293832D01*
X128591Y293804D01*
X128614Y293771D01*
X128706Y293696D01*
X128793Y293614D01*
X128828Y293594D01*
X128859Y293569D01*
X128967Y293518D01*
X129071Y293460D01*
X129111Y293450D01*
X129147Y293433D01*
X129264Y293411D01*
X129379Y293381D01*
X129440Y293377D01*
X129460Y293373D01*
X129480Y293375D01*
X129540Y293371D01*
X136634Y293371D01*
X140073Y289933D01*
X140182Y289847D01*
X140289Y289759D01*
X140308Y289750D01*
X140324Y289738D01*
X140452Y289682D01*
X140577Y289623D01*
X140597Y289619D01*
X140616Y289611D01*
X140754Y289589D01*
X140890Y289563D01*
X140910Y289565D01*
X140930Y289561D01*
X141069Y289574D01*
G37*
G36*
X260377Y263400D02*
X260377Y263400D01*
X260386Y263399D01*
X260575Y263421D01*
X260768Y263442D01*
X260777Y263445D01*
X260785Y263446D01*
X260967Y263505D01*
X261152Y263564D01*
X261160Y263568D01*
X261168Y263571D01*
X261337Y263666D01*
X261504Y263759D01*
X261511Y263764D01*
X261519Y263769D01*
X261665Y263895D01*
X261811Y264019D01*
X261817Y264026D01*
X261824Y264032D01*
X261941Y264183D01*
X262061Y264335D01*
X262065Y264343D01*
X262070Y264350D01*
X262156Y264522D01*
X262243Y264694D01*
X262246Y264702D01*
X262250Y264711D01*
X262300Y264897D01*
X262351Y265082D01*
X262352Y265091D01*
X262354Y265099D01*
X262381Y265430D01*
X262381Y271780D01*
X262379Y271798D01*
X262381Y271816D01*
X262360Y271998D01*
X262341Y272181D01*
X262336Y272198D01*
X262334Y272215D01*
X262277Y272390D01*
X262223Y272566D01*
X262215Y272581D01*
X262209Y272598D01*
X262119Y272758D01*
X262031Y272920D01*
X262020Y272933D01*
X262011Y272949D01*
X261891Y273088D01*
X261774Y273229D01*
X261760Y273240D01*
X261748Y273254D01*
X261603Y273366D01*
X261460Y273481D01*
X261444Y273489D01*
X261430Y273500D01*
X261265Y273582D01*
X261103Y273667D01*
X261086Y273672D01*
X261070Y273680D01*
X260891Y273727D01*
X260716Y273778D01*
X260698Y273780D01*
X260681Y273784D01*
X260350Y273811D01*
X254000Y273811D01*
X253991Y273810D01*
X253982Y273811D01*
X253789Y273790D01*
X253599Y273771D01*
X253591Y273769D01*
X253582Y273768D01*
X253397Y273709D01*
X253214Y273653D01*
X253207Y273649D01*
X253198Y273646D01*
X253030Y273553D01*
X252860Y273461D01*
X252854Y273456D01*
X252846Y273451D01*
X252699Y273327D01*
X252551Y273204D01*
X252546Y273197D01*
X252539Y273191D01*
X252419Y273039D01*
X252299Y272890D01*
X252295Y272882D01*
X252289Y272875D01*
X252201Y272702D01*
X252113Y272533D01*
X252111Y272524D01*
X252107Y272516D01*
X252055Y272330D01*
X252002Y272146D01*
X252001Y272137D01*
X251999Y272128D01*
X251985Y271935D01*
X251969Y271744D01*
X251970Y271736D01*
X251969Y271727D01*
X251994Y271534D01*
X252016Y271345D01*
X252019Y271336D01*
X252020Y271327D01*
X252081Y271145D01*
X252141Y270962D01*
X252145Y270954D01*
X252148Y270946D01*
X252244Y270779D01*
X252339Y270611D01*
X252345Y270604D01*
X252349Y270597D01*
X252564Y270344D01*
X258914Y263994D01*
X258921Y263988D01*
X258926Y263981D01*
X259076Y263861D01*
X259225Y263739D01*
X259233Y263734D01*
X259240Y263729D01*
X259411Y263640D01*
X259581Y263550D01*
X259589Y263547D01*
X259597Y263543D01*
X259783Y263490D01*
X259967Y263435D01*
X259976Y263434D01*
X259984Y263432D01*
X260176Y263416D01*
X260368Y263399D01*
X260377Y263400D01*
G37*
%LPC*%
G36*
X159979Y57109D02*
X159979Y57109D01*
X159979Y64397D01*
X161350Y63952D01*
X162763Y63232D01*
X164047Y62299D01*
X165169Y61177D01*
X166102Y59893D01*
X166822Y58480D01*
X167267Y57109D01*
X159979Y57109D01*
G37*
%LPD*%
%LPC*%
G36*
X147693Y57109D02*
X147693Y57109D01*
X148138Y58480D01*
X148858Y59893D01*
X149791Y61177D01*
X150913Y62299D01*
X152197Y63232D01*
X153610Y63952D01*
X154981Y64397D01*
X154981Y57109D01*
X147693Y57109D01*
G37*
%LPD*%
%LPC*%
G36*
X46093Y57109D02*
X46093Y57109D01*
X46538Y58480D01*
X47258Y59893D01*
X48191Y61177D01*
X49313Y62299D01*
X50597Y63232D01*
X52010Y63952D01*
X53381Y64397D01*
X53381Y57109D01*
X46093Y57109D01*
G37*
%LPD*%
%LPC*%
G36*
X52010Y45268D02*
X52010Y45268D01*
X50597Y45988D01*
X49313Y46921D01*
X48191Y48043D01*
X47258Y49327D01*
X46538Y50740D01*
X46093Y52111D01*
X53381Y52111D01*
X53381Y44823D01*
X52010Y45268D01*
G37*
%LPD*%
%LPC*%
G36*
X448499Y149479D02*
X448499Y149479D01*
X448499Y155251D01*
X450064Y155251D01*
X450775Y155060D01*
X450788Y155054D01*
X450839Y155042D01*
X450888Y155021D01*
X450993Y155005D01*
X451097Y154981D01*
X451150Y154982D01*
X451202Y154974D01*
X451309Y154985D01*
X451415Y154988D01*
X451466Y155002D01*
X451519Y155007D01*
X451601Y155038D01*
X452396Y155251D01*
X453961Y155251D01*
X453961Y149479D01*
X448499Y149479D01*
G37*
%LPD*%
%LPC*%
G36*
X440499Y149479D02*
X440499Y149479D01*
X440499Y155251D01*
X442064Y155251D01*
X442775Y155060D01*
X442788Y155054D01*
X442839Y155042D01*
X442888Y155021D01*
X442993Y155005D01*
X443097Y154981D01*
X443150Y154982D01*
X443202Y154974D01*
X443309Y154985D01*
X443415Y154988D01*
X443466Y155002D01*
X443519Y155007D01*
X443601Y155038D01*
X444396Y155251D01*
X445961Y155251D01*
X445961Y149479D01*
X440499Y149479D01*
G37*
%LPD*%
%LPC*%
G36*
X432499Y149479D02*
X432499Y149479D01*
X432499Y155251D01*
X434064Y155251D01*
X434775Y155060D01*
X434788Y155054D01*
X434839Y155042D01*
X434888Y155021D01*
X434993Y155005D01*
X435097Y154981D01*
X435150Y154982D01*
X435202Y154974D01*
X435309Y154985D01*
X435415Y154988D01*
X435466Y155002D01*
X435519Y155007D01*
X435601Y155038D01*
X436396Y155251D01*
X437961Y155251D01*
X437961Y149479D01*
X432499Y149479D01*
G37*
%LPD*%
%LPC*%
G36*
X432499Y141169D02*
X432499Y141169D01*
X432499Y146941D01*
X437961Y146941D01*
X437961Y141169D01*
X436396Y141169D01*
X435686Y141360D01*
X435673Y141366D01*
X435621Y141378D01*
X435573Y141399D01*
X435467Y141414D01*
X435363Y141439D01*
X435311Y141438D01*
X435258Y141446D01*
X435152Y141435D01*
X435045Y141432D01*
X434994Y141418D01*
X434942Y141413D01*
X434860Y141382D01*
X434064Y141169D01*
X432499Y141169D01*
G37*
%LPD*%
%LPC*%
G36*
X440499Y141169D02*
X440499Y141169D01*
X440499Y146941D01*
X445961Y146941D01*
X445961Y141169D01*
X444396Y141169D01*
X443686Y141360D01*
X443673Y141366D01*
X443621Y141378D01*
X443573Y141399D01*
X443467Y141414D01*
X443363Y141439D01*
X443311Y141438D01*
X443258Y141446D01*
X443152Y141435D01*
X443045Y141432D01*
X442994Y141418D01*
X442942Y141413D01*
X442860Y141382D01*
X442064Y141169D01*
X440499Y141169D01*
G37*
%LPD*%
%LPC*%
G36*
X448499Y141169D02*
X448499Y141169D01*
X448499Y146941D01*
X453961Y146941D01*
X453961Y141169D01*
X452396Y141169D01*
X451686Y141360D01*
X451673Y141366D01*
X451621Y141378D01*
X451573Y141399D01*
X451467Y141414D01*
X451363Y141439D01*
X451311Y141438D01*
X451258Y141446D01*
X451152Y141435D01*
X451045Y141432D01*
X450994Y141418D01*
X450942Y141413D01*
X450860Y141382D01*
X450064Y141169D01*
X448499Y141169D01*
G37*
%LPD*%
%LPC*%
G36*
X210389Y289519D02*
X210389Y289519D01*
X210389Y294561D01*
X213724Y294561D01*
X214371Y294388D01*
X214950Y294053D01*
X215423Y293580D01*
X215758Y293001D01*
X215931Y292354D01*
X215931Y289519D01*
X210389Y289519D01*
G37*
%LPD*%
%LPC*%
G36*
X279359Y202769D02*
X279359Y202769D01*
X279359Y208311D01*
X282194Y208311D01*
X282841Y208138D01*
X283420Y207803D01*
X283893Y207330D01*
X284228Y206751D01*
X284401Y206104D01*
X284401Y202769D01*
X279359Y202769D01*
G37*
%LPD*%
%LPC*%
G36*
X242139Y233639D02*
X242139Y233639D01*
X242139Y238681D01*
X245474Y238681D01*
X246121Y238508D01*
X246700Y238173D01*
X247173Y237700D01*
X247508Y237121D01*
X247681Y236474D01*
X247681Y233639D01*
X242139Y233639D01*
G37*
%LPD*%
%LPC*%
G36*
X27899Y55449D02*
X27899Y55449D01*
X27899Y60491D01*
X31234Y60491D01*
X31881Y60318D01*
X32460Y59983D01*
X32933Y59510D01*
X33268Y58931D01*
X33441Y58284D01*
X33441Y55449D01*
X27899Y55449D01*
G37*
%LPD*%
%LPC*%
G36*
X245949Y123149D02*
X245949Y123149D01*
X245949Y128191D01*
X249284Y128191D01*
X249931Y128018D01*
X250510Y127683D01*
X250983Y127210D01*
X251318Y126631D01*
X251491Y125984D01*
X251491Y123149D01*
X245949Y123149D01*
G37*
%LPD*%
%LPC*%
G36*
X280239Y289519D02*
X280239Y289519D01*
X280239Y294561D01*
X283574Y294561D01*
X284221Y294388D01*
X284800Y294053D01*
X285273Y293580D01*
X285608Y293001D01*
X285781Y292354D01*
X285781Y289519D01*
X280239Y289519D01*
G37*
%LPD*%
%LPC*%
G36*
X17359Y55449D02*
X17359Y55449D01*
X17359Y58284D01*
X17532Y58931D01*
X17867Y59510D01*
X18340Y59983D01*
X18919Y60318D01*
X19566Y60491D01*
X22901Y60491D01*
X22901Y55449D01*
X17359Y55449D01*
G37*
%LPD*%
%LPC*%
G36*
X363179Y123159D02*
X363179Y123159D01*
X363179Y128701D01*
X368221Y128701D01*
X368221Y125366D01*
X368048Y124719D01*
X367713Y124140D01*
X367240Y123667D01*
X366661Y123332D01*
X366014Y123159D01*
X363179Y123159D01*
G37*
%LPD*%
%LPC*%
G36*
X344129Y123159D02*
X344129Y123159D01*
X344129Y128701D01*
X349171Y128701D01*
X349171Y125366D01*
X348998Y124719D01*
X348663Y124140D01*
X348190Y123667D01*
X347611Y123332D01*
X346964Y123159D01*
X344129Y123159D01*
G37*
%LPD*%
%LPC*%
G36*
X380969Y195539D02*
X380969Y195539D01*
X380969Y198374D01*
X381142Y199021D01*
X381477Y199600D01*
X381950Y200073D01*
X382529Y200408D01*
X383176Y200581D01*
X386511Y200581D01*
X386511Y195539D01*
X380969Y195539D01*
G37*
%LPD*%
%LPC*%
G36*
X83789Y190459D02*
X83789Y190459D01*
X83789Y193294D01*
X83962Y193941D01*
X84297Y194520D01*
X84770Y194993D01*
X85349Y195328D01*
X85996Y195501D01*
X89331Y195501D01*
X89331Y190459D01*
X83789Y190459D01*
G37*
%LPD*%
%LPC*%
G36*
X279359Y120619D02*
X279359Y120619D01*
X279359Y126161D01*
X284401Y126161D01*
X284401Y122826D01*
X284228Y122179D01*
X283893Y121600D01*
X283420Y121127D01*
X282841Y120792D01*
X282194Y120619D01*
X279359Y120619D01*
G37*
%LPD*%
%LPC*%
G36*
X380969Y176489D02*
X380969Y176489D01*
X380969Y179324D01*
X381142Y179971D01*
X381477Y180550D01*
X381950Y181023D01*
X382529Y181358D01*
X383176Y181531D01*
X386511Y181531D01*
X386511Y176489D01*
X380969Y176489D01*
G37*
%LPD*%
%LPC*%
G36*
X380969Y214589D02*
X380969Y214589D01*
X380969Y217424D01*
X381142Y218071D01*
X381477Y218650D01*
X381950Y219123D01*
X382529Y219458D01*
X383176Y219631D01*
X386511Y219631D01*
X386511Y214589D01*
X380969Y214589D01*
G37*
%LPD*%
%LPC*%
G36*
X167599Y142209D02*
X167599Y142209D01*
X167599Y147751D01*
X172641Y147751D01*
X172641Y144416D01*
X172468Y143769D01*
X172133Y143190D01*
X171660Y142717D01*
X171081Y142382D01*
X170434Y142209D01*
X167599Y142209D01*
G37*
%LPD*%
%LPC*%
G36*
X380969Y233639D02*
X380969Y233639D01*
X380969Y236474D01*
X381142Y237121D01*
X381477Y237700D01*
X381950Y238173D01*
X382529Y238508D01*
X383176Y238681D01*
X386511Y238681D01*
X386511Y233639D01*
X380969Y233639D01*
G37*
%LPD*%
%LPC*%
G36*
X322539Y25369D02*
X322539Y25369D01*
X322539Y30911D01*
X327581Y30911D01*
X327581Y27576D01*
X327408Y26929D01*
X327073Y26350D01*
X326600Y25877D01*
X326021Y25542D01*
X325374Y25369D01*
X322539Y25369D01*
G37*
%LPD*%
%LPC*%
G36*
X280239Y279479D02*
X280239Y279479D01*
X280239Y284521D01*
X285781Y284521D01*
X285781Y281686D01*
X285608Y281039D01*
X285273Y280460D01*
X284800Y279987D01*
X284221Y279652D01*
X283574Y279479D01*
X280239Y279479D01*
G37*
%LPD*%
%LPC*%
G36*
X210389Y279479D02*
X210389Y279479D01*
X210389Y284521D01*
X215931Y284521D01*
X215931Y281686D01*
X215758Y281039D01*
X215423Y280460D01*
X214950Y279987D01*
X214371Y279652D01*
X213724Y279479D01*
X210389Y279479D01*
G37*
%LPD*%
%LPC*%
G36*
X269319Y202769D02*
X269319Y202769D01*
X269319Y206104D01*
X269492Y206751D01*
X269827Y207330D01*
X270300Y207803D01*
X270879Y208138D01*
X271526Y208311D01*
X274361Y208311D01*
X274361Y202769D01*
X269319Y202769D01*
G37*
%LPD*%
%LPC*%
G36*
X245949Y113109D02*
X245949Y113109D01*
X245949Y118151D01*
X251491Y118151D01*
X251491Y115316D01*
X251318Y114669D01*
X250983Y114090D01*
X250510Y113617D01*
X249931Y113282D01*
X249284Y113109D01*
X245949Y113109D01*
G37*
%LPD*%
%LPC*%
G36*
X242139Y223599D02*
X242139Y223599D01*
X242139Y228641D01*
X247681Y228641D01*
X247681Y225806D01*
X247508Y225159D01*
X247173Y224580D01*
X246700Y224107D01*
X246121Y223772D01*
X245474Y223599D01*
X242139Y223599D01*
G37*
%LPD*%
%LPC*%
G36*
X206579Y53419D02*
X206579Y53419D01*
X206579Y58461D01*
X212121Y58461D01*
X212121Y55626D01*
X211948Y54979D01*
X211613Y54400D01*
X211140Y53927D01*
X210561Y53592D01*
X209914Y53419D01*
X206579Y53419D01*
G37*
%LPD*%
%LPC*%
G36*
X27899Y45409D02*
X27899Y45409D01*
X27899Y50451D01*
X33441Y50451D01*
X33441Y47616D01*
X33268Y46969D01*
X32933Y46390D01*
X32460Y45917D01*
X31881Y45582D01*
X31234Y45409D01*
X27899Y45409D01*
G37*
%LPD*%
%LPC*%
G36*
X159766Y142209D02*
X159766Y142209D01*
X159119Y142382D01*
X158540Y142717D01*
X158067Y143190D01*
X157732Y143769D01*
X157559Y144416D01*
X157559Y147751D01*
X162601Y147751D01*
X162601Y142209D01*
X159766Y142209D01*
G37*
%LPD*%
%LPC*%
G36*
X355346Y123159D02*
X355346Y123159D01*
X354699Y123332D01*
X354120Y123667D01*
X353647Y124140D01*
X353312Y124719D01*
X353139Y125366D01*
X353139Y128701D01*
X358181Y128701D01*
X358181Y123159D01*
X355346Y123159D01*
G37*
%LPD*%
%LPC*%
G36*
X85996Y180419D02*
X85996Y180419D01*
X85349Y180592D01*
X84770Y180927D01*
X84297Y181400D01*
X83962Y181979D01*
X83789Y182626D01*
X83789Y185461D01*
X89331Y185461D01*
X89331Y180419D01*
X85996Y180419D01*
G37*
%LPD*%
%LPC*%
G36*
X271526Y120619D02*
X271526Y120619D01*
X270879Y120792D01*
X270300Y121127D01*
X269827Y121600D01*
X269492Y122179D01*
X269319Y122826D01*
X269319Y126161D01*
X274361Y126161D01*
X274361Y120619D01*
X271526Y120619D01*
G37*
%LPD*%
%LPC*%
G36*
X383176Y166449D02*
X383176Y166449D01*
X382529Y166622D01*
X381950Y166957D01*
X381477Y167430D01*
X381142Y168009D01*
X380969Y168656D01*
X380969Y171491D01*
X386511Y171491D01*
X386511Y166449D01*
X383176Y166449D01*
G37*
%LPD*%
%LPC*%
G36*
X383176Y223599D02*
X383176Y223599D01*
X382529Y223772D01*
X381950Y224107D01*
X381477Y224580D01*
X381142Y225159D01*
X380969Y225806D01*
X380969Y228641D01*
X386511Y228641D01*
X386511Y223599D01*
X383176Y223599D01*
G37*
%LPD*%
%LPC*%
G36*
X233316Y53419D02*
X233316Y53419D01*
X232669Y53592D01*
X232090Y53927D01*
X231617Y54400D01*
X231282Y54979D01*
X231109Y55626D01*
X231109Y58461D01*
X236651Y58461D01*
X236651Y53419D01*
X233316Y53419D01*
G37*
%LPD*%
%LPC*%
G36*
X383176Y204549D02*
X383176Y204549D01*
X382529Y204722D01*
X381950Y205057D01*
X381477Y205530D01*
X381142Y206109D01*
X380969Y206756D01*
X380969Y209591D01*
X386511Y209591D01*
X386511Y204549D01*
X383176Y204549D01*
G37*
%LPD*%
%LPC*%
G36*
X383176Y185499D02*
X383176Y185499D01*
X382529Y185672D01*
X381950Y186007D01*
X381477Y186480D01*
X381142Y187059D01*
X380969Y187706D01*
X380969Y190541D01*
X386511Y190541D01*
X386511Y185499D01*
X383176Y185499D01*
G37*
%LPD*%
%LPC*%
G36*
X19566Y45409D02*
X19566Y45409D01*
X18919Y45582D01*
X18340Y45917D01*
X17867Y46390D01*
X17532Y46969D01*
X17359Y47616D01*
X17359Y50451D01*
X22901Y50451D01*
X22901Y45409D01*
X19566Y45409D01*
G37*
%LPD*%
%LPC*%
G36*
X336296Y123159D02*
X336296Y123159D01*
X335649Y123332D01*
X335070Y123667D01*
X334597Y124140D01*
X334262Y124719D01*
X334089Y125366D01*
X334089Y128701D01*
X339131Y128701D01*
X339131Y123159D01*
X336296Y123159D01*
G37*
%LPD*%
%LPC*%
G36*
X314706Y25369D02*
X314706Y25369D01*
X314059Y25542D01*
X313480Y25877D01*
X313007Y26350D01*
X312672Y26929D01*
X312499Y27576D01*
X312499Y30911D01*
X317541Y30911D01*
X317541Y25369D01*
X314706Y25369D01*
G37*
%LPD*%
%LPC*%
G36*
X456499Y149479D02*
X456499Y149479D01*
X456499Y155251D01*
X458064Y155251D01*
X458711Y155078D01*
X459290Y154743D01*
X459763Y154270D01*
X460098Y153691D01*
X460271Y153044D01*
X460271Y149479D01*
X456499Y149479D01*
G37*
%LPD*%
%LPC*%
G36*
X456499Y141169D02*
X456499Y141169D01*
X456499Y146941D01*
X460271Y146941D01*
X460271Y143376D01*
X460098Y142729D01*
X459763Y142150D01*
X459290Y141677D01*
X458711Y141342D01*
X458064Y141169D01*
X456499Y141169D01*
G37*
%LPD*%
%LPC*%
G36*
X426189Y149479D02*
X426189Y149479D01*
X426189Y153044D01*
X426362Y153691D01*
X426697Y154270D01*
X427170Y154743D01*
X427749Y155078D01*
X428396Y155251D01*
X429961Y155251D01*
X429961Y149479D01*
X426189Y149479D01*
G37*
%LPD*%
%LPC*%
G36*
X428396Y141169D02*
X428396Y141169D01*
X427749Y141342D01*
X427170Y141677D01*
X426697Y142150D01*
X426362Y142729D01*
X426189Y143376D01*
X426189Y146941D01*
X429961Y146941D01*
X429961Y141169D01*
X428396Y141169D01*
G37*
%LPD*%
D10*
X6350Y0D02*
X499110Y0D01*
X505460Y6350D02*
X505460Y304800D01*
X499110Y311150D02*
X6350Y311150D01*
X0Y304800D02*
X0Y6350D01*
X6350Y0D01*
X0Y304800D02*
X6350Y311150D01*
X499110Y311150D02*
X505460Y304800D01*
X505460Y6350D02*
X499110Y0D01*
D11*
X165100Y167250D03*
X165100Y150250D03*
D12*
X226450Y120650D03*
X243450Y120650D03*
D11*
X276860Y183270D03*
X276860Y200270D03*
D12*
X222640Y231140D03*
X239640Y231140D03*
X108830Y187960D03*
X91830Y187960D03*
X187080Y60960D03*
X204080Y60960D03*
X256150Y60960D03*
X239150Y60960D03*
D11*
X276860Y145660D03*
X276860Y128660D03*
D12*
X260740Y287020D03*
X277740Y287020D03*
X190890Y287020D03*
X207890Y287020D03*
D11*
X360680Y148200D03*
X360680Y131200D03*
X341630Y148200D03*
X341630Y131200D03*
D12*
X406010Y193040D03*
X389010Y193040D03*
X406010Y173990D03*
X389010Y173990D03*
X406010Y212090D03*
X389010Y212090D03*
X406010Y231140D03*
X389010Y231140D03*
X419490Y231140D03*
X436490Y231140D03*
X419490Y212090D03*
X436490Y212090D03*
D11*
X320040Y50410D03*
X320040Y33410D03*
X83820Y282330D03*
X83820Y299330D03*
X160020Y282330D03*
X160020Y299330D03*
D12*
X25400Y52950D03*
X25400Y35950D03*
D11*
X118990Y95250D03*
X101990Y95250D03*
D12*
X158750Y88020D03*
X158750Y105020D03*
D11*
X378070Y262890D03*
X361070Y262890D03*
D13*
X431230Y164210D03*
X439230Y164210D03*
X447230Y164210D03*
X455230Y164210D03*
X455230Y148210D03*
X447230Y148210D03*
X439230Y148210D03*
X431230Y148210D03*
D14*
X131420Y274020D03*
X121920Y274020D03*
X112420Y274020D03*
X112420Y300020D03*
X131420Y300020D03*
D15*
X55880Y29210D03*
X55880Y54610D03*
X81280Y29210D03*
X81280Y54610D03*
X106680Y29210D03*
X106680Y54610D03*
X132080Y29210D03*
X132080Y54610D03*
X157480Y29210D03*
X157480Y54610D03*
D12*
X160020Y237880D03*
X160020Y254880D03*
D16*
X190500Y217170D03*
X190500Y201930D03*
D17*
X76200Y224790D03*
X36068Y276098D03*
X90170Y224790D03*
X62230Y224790D03*
X104140Y224790D03*
X438150Y135890D03*
X431800Y118110D03*
X450850Y118110D03*
X469900Y144780D03*
X469900Y118110D03*
X419100Y142240D03*
X419100Y158750D03*
X495300Y209042D03*
X476504Y209296D03*
X464058Y222504D03*
X469138Y239014D03*
X431546Y243332D03*
D18*
X175260Y271780D03*
X175260Y288290D03*
X220980Y281940D03*
X104140Y304038D03*
X149860Y273050D03*
X157480Y187960D03*
X157480Y226060D03*
X203200Y238760D03*
X281940Y237490D03*
X82550Y101600D03*
X304800Y260350D03*
X355600Y184150D03*
X372110Y203200D03*
X372110Y220472D03*
X387350Y284480D03*
X491490Y278130D03*
X165100Y133350D03*
X209550Y133350D03*
X203200Y81280D03*
X285750Y29210D03*
X250190Y29210D03*
X335280Y25400D03*
X419100Y88900D03*
X482600Y63500D03*
X247650Y281940D03*
X335788Y287274D03*
X177800Y114300D03*
X299720Y102870D03*
X266700Y114300D03*
X214630Y187960D03*
X246380Y207010D03*
X252730Y143510D03*
X350266Y38100D03*
X67310Y304038D03*
D17*
X220472Y7620D03*
X57150Y120396D03*
X51308Y75692D03*
X40386Y107696D03*
X57404Y12446D03*
X12446Y75946D03*
X25146Y12700D03*
D18*
X294640Y299720D03*
X450088Y283718D03*
D19*
X121920Y274020D02*
X121920Y264392D01*
D18*
X111760Y260350D03*
X111760Y247650D03*
X436880Y198882D03*
D17*
X177038Y27432D03*
X36068Y263398D03*
X90170Y237490D03*
X90170Y250190D03*
D20*
X90170Y237490D01*
D21*
X107442Y282330D02*
X111624Y282330D01*
D22*
X111760Y278130D01*
X112120Y278130D01*
X112420Y274020D01*
D23*
X131420Y274020D02*
X131420Y281330D01*
X128270Y284480D01*
X116840Y284480D01*
X112420Y280060D02*
X112420Y274020D01*
X112420Y280060D02*
X116840Y284480D01*
D18*
X276860Y152400D03*
X260350Y271780D03*
X191008Y271780D03*
D22*
X190890Y272170D01*
X190890Y287020D01*
X276860Y152400D02*
X276860Y145660D01*
X119380Y187960D02*
X119380Y238760D01*
X119380Y127508D02*
X119380Y114300D01*
X119380Y95250D01*
X119380Y86360D01*
X119380Y127508D02*
X119380Y187960D01*
X158750Y73660D02*
X162560Y73660D01*
D24*
X185928Y73660D03*
D22*
X162560Y73660D01*
X158750Y73660D02*
X154940Y73660D01*
X132080Y73660D01*
X119380Y86360D01*
D24*
X256032Y73660D03*
D22*
X185928Y73660D01*
D24*
X119380Y187960D03*
D22*
X108830Y187960D01*
X185928Y62112D02*
X187080Y60960D01*
X185928Y62112D02*
X185928Y73660D01*
X256150Y73542D02*
X256150Y60960D01*
X256150Y73542D02*
X256032Y73660D01*
X181356Y238760D02*
X191008Y248412D01*
X191008Y271780D01*
X181356Y238760D02*
X158750Y238760D01*
D21*
X119380Y238760D01*
D22*
X191008Y261620D02*
X201168Y271780D01*
D24*
X114300Y120904D03*
D22*
X114300Y122428D01*
X119380Y127508D01*
X114300Y120904D02*
X114300Y119380D01*
X119380Y114300D01*
D23*
X116840Y284480D02*
X109592Y284480D01*
X107442Y282330D01*
D21*
X83820Y282330D01*
D25*
X83820Y256540D02*
X90170Y250190D01*
X83820Y256540D02*
X83820Y282330D01*
D17*
X104140Y237490D03*
D20*
X90170Y237490D01*
D21*
X104140Y237490D02*
X105410Y238760D01*
X119380Y238760D01*
D22*
X260350Y271780D02*
X260350Y168910D01*
X276860Y152400D01*
D23*
X160020Y237880D02*
X158750Y238760D01*
X158750Y88020D02*
X158750Y73660D01*
X158750Y77470D02*
X154940Y73660D01*
X158750Y77470D02*
X158750Y82550D01*
X158750Y77470D02*
X162560Y73660D01*
X119380Y95250D02*
X118990Y95250D01*
D22*
X201168Y271780D02*
X260350Y271780D01*
X201168Y271780D02*
X191008Y271780D01*
D26*
X260740Y272170D02*
X260740Y287020D01*
X260740Y272170D02*
X260350Y271780D01*
D23*
X55880Y29210D02*
X44450Y29210D01*
X38100Y35560D01*
X25790Y35560D01*
X25400Y35950D01*
X158750Y105020D02*
X158750Y114300D01*
D18*
X158750Y114300D03*
X102362Y83058D03*
D23*
X102362Y94878D01*
X101990Y95250D01*
D22*
X146570Y282330D02*
X131420Y300020D01*
X146570Y282330D02*
X160020Y282330D01*
D25*
X158750Y255270D02*
X152400Y255270D01*
D17*
X132080Y255270D03*
D25*
X146050Y255270D02*
X152400Y255270D01*
D17*
X146050Y255270D03*
D24*
X276860Y175260D03*
X165100Y175260D03*
D22*
X276860Y175260D02*
X276860Y183270D01*
X165100Y175260D02*
X165100Y167250D01*
D20*
X146050Y255270D02*
X132080Y255270D01*
D22*
X160020Y254880D02*
X160020Y282330D01*
X160020Y254880D02*
X159140Y254880D01*
X158750Y255270D01*
X154305Y260985D02*
X160020Y266700D01*
X154305Y260985D02*
X152400Y259080D01*
X152400Y255270D01*
X159385Y260985D02*
X160020Y260350D01*
X159385Y260985D02*
X154305Y260985D01*
D18*
X190500Y231140D03*
D22*
X190500Y217170D01*
D18*
X474980Y194310D03*
D27*
X448310Y194310D01*
X439230Y185230D02*
X439230Y164210D01*
X439230Y185230D02*
X448310Y194310D01*
D18*
X474980Y175260D03*
D27*
X453390Y175260D01*
X447230Y169100D02*
X447230Y164210D01*
X447230Y169100D02*
X453390Y175260D01*
D18*
X474980Y156210D03*
D27*
X466980Y164210D01*
X455230Y164210D01*
D26*
X360680Y148200D02*
X341630Y148200D01*
D24*
X341630Y160260D03*
D26*
X406010Y174870D02*
X406010Y183515D01*
X406010Y193040D01*
X406010Y212090D02*
X406010Y231140D01*
D24*
X406400Y205105D03*
D27*
X406400Y211700D01*
X406010Y212090D01*
D24*
X406010Y183515D03*
X320040Y57150D03*
D26*
X320040Y50410D01*
D17*
X400050Y284480D03*
X400050Y270510D03*
D20*
X400050Y284480D01*
D21*
X406400Y175260D02*
X406400Y154940D01*
X406400Y147320D01*
X406400Y175260D02*
X406400Y211700D01*
X406400Y228600D01*
D22*
X406400Y147320D02*
X406400Y142240D01*
X406400Y116840D01*
X346710Y57150D01*
X320040Y57150D01*
X400050Y148590D02*
X406400Y147320D01*
X406010Y173990D02*
X406010Y174870D01*
X406400Y175260D01*
D27*
X412750Y211700D02*
X419490Y212090D01*
X412750Y211700D02*
X406400Y211700D01*
X406400Y231140D02*
X419490Y231140D01*
X406400Y231140D02*
X402590Y231140D01*
X406400Y228600D01*
D23*
X393700Y273050D02*
X364490Y273050D01*
X361070Y269630D02*
X361070Y262890D01*
X361070Y269630D02*
X364490Y273050D01*
X400050Y279400D02*
X400050Y284480D01*
X400050Y279400D02*
X393700Y273050D01*
X396240Y270510D02*
X400050Y270510D01*
X396240Y270510D02*
X393700Y273050D01*
D21*
X400050Y270510D02*
X406400Y264160D01*
X406400Y231140D01*
D22*
X400050Y148590D02*
X406400Y142240D01*
X400050Y148590D02*
X406400Y154940D01*
X360680Y148200D02*
X360054Y148590D01*
X400050Y148590D01*
D26*
X341630Y148200D02*
X341630Y160260D01*
D28*
X389890Y257810D03*
D23*
X384810Y262890D02*
X378070Y262890D01*
X384810Y262890D02*
X389890Y257810D01*
D18*
X455930Y231140D03*
D23*
X455930Y218440D01*
X449580Y212090D01*
X436490Y212090D01*
D18*
X443230Y232410D03*
D23*
X437760Y232410D01*
X436490Y231140D01*
D18*
X180594Y41402D03*
X72390Y95250D03*
D23*
X99568Y41402D02*
X180594Y41402D01*
X99568Y41402D02*
X93980Y46990D01*
X93980Y63500D01*
X72390Y76200D02*
X72390Y95250D01*
X72390Y76200D02*
X78740Y69850D01*
X87630Y69850D01*
X93980Y63500D01*
X72390Y95250D02*
X25400Y95250D01*
X19050Y101600D01*
X19050Y208280D01*
X31750Y220980D01*
X31750Y238760D01*
D18*
X31750Y238760D03*
X189230Y15240D03*
X63500Y86360D03*
D23*
X68580Y68580D02*
X68580Y21590D01*
X74930Y15240D01*
X189230Y15240D01*
X63500Y73660D02*
X63500Y86360D01*
X63500Y73660D02*
X68580Y68580D01*
D18*
X24130Y226060D03*
D23*
X12700Y214630D01*
X12700Y95250D01*
X21590Y86360D01*
X63500Y86360D01*
D18*
X38100Y187960D03*
D23*
X38100Y199898D01*
X50800Y212598D01*
X64262Y212598D01*
D18*
X64262Y212598D03*
X50800Y177800D03*
D23*
X57404Y184404D02*
X57404Y204724D01*
X57404Y184404D02*
X50800Y177800D01*
D18*
X57404Y204724D03*
D28*
X281940Y222250D03*
D18*
X361950Y228600D03*
D23*
X330200Y228600D01*
X323850Y222250D01*
X281940Y222250D01*
D18*
X314960Y180340D03*
X351790Y217170D03*
D23*
X314960Y180340D01*
D18*
X314960Y165260D03*
D23*
X331630Y165260D02*
X341630Y175260D01*
X367230Y175260D01*
D28*
X367230Y175260D03*
D23*
X331630Y165260D02*
X314960Y165260D01*
D26*
X217170Y201930D02*
X190500Y201930D01*
X217170Y201930D02*
X220980Y205740D01*
X220980Y230750D01*
X222640Y231140D01*
D18*
X220980Y237490D03*
D27*
X220980Y230750D01*
D26*
X190500Y201930D02*
X194310Y198120D01*
X194310Y124460D02*
X198120Y120650D01*
X226450Y120650D01*
X194310Y124460D02*
X194310Y198120D01*
D18*
X225980Y114300D03*
D27*
X226450Y114690D01*
X226450Y120650D01*
M02*
