G04 EAGLE Gerber RS-274X export*
G75*
%MOMM*%
%FSLAX34Y34*%
%LPD*%
%INseide unten*%
%IPPOS*%
%AMOC8*
5,1,8,0,0,1.08239X$1,22.5*%
G01*
%ADD10C,0.000000*%
%ADD11C,0.127000*%
%ADD12C,0.152400*%
%ADD13C,0.508000*%
%ADD14C,0.101600*%

G36*
X49572Y272296D02*
X49572Y272296D01*
X49614Y272293D01*
X49692Y272315D01*
X49773Y272329D01*
X49810Y272348D01*
X49851Y272360D01*
X49918Y272405D01*
X49990Y272444D01*
X50019Y272474D01*
X50054Y272498D01*
X50103Y272563D01*
X50160Y272622D01*
X50177Y272660D01*
X50203Y272694D01*
X50259Y272837D01*
X50263Y272845D01*
X50263Y272847D01*
X50264Y272850D01*
X57884Y300790D01*
X57897Y300912D01*
X57910Y301029D01*
X57910Y301032D01*
X57910Y301034D01*
X57883Y301153D01*
X57858Y301270D01*
X57857Y301272D01*
X57856Y301274D01*
X57793Y301378D01*
X57732Y301481D01*
X57730Y301483D01*
X57729Y301485D01*
X57636Y301563D01*
X57545Y301641D01*
X57543Y301642D01*
X57541Y301643D01*
X57431Y301687D01*
X57317Y301733D01*
X57314Y301733D01*
X57312Y301734D01*
X57303Y301734D01*
X57150Y301751D01*
X38100Y301751D01*
X37997Y301734D01*
X37893Y301723D01*
X37876Y301715D01*
X37857Y301712D01*
X37765Y301663D01*
X37670Y301618D01*
X37657Y301605D01*
X37640Y301596D01*
X37568Y301521D01*
X37492Y301449D01*
X37484Y301432D01*
X37471Y301418D01*
X37426Y301323D01*
X37378Y301231D01*
X37375Y301212D01*
X37367Y301195D01*
X37355Y301091D01*
X37339Y300988D01*
X37341Y300965D01*
X37340Y300951D01*
X37347Y300920D01*
X37358Y300821D01*
X43708Y272881D01*
X43730Y272827D01*
X43742Y272770D01*
X43776Y272714D01*
X43800Y272653D01*
X43838Y272609D01*
X43868Y272559D01*
X43918Y272517D01*
X43961Y272467D01*
X44011Y272437D01*
X44055Y272399D01*
X44116Y272375D01*
X44172Y272341D01*
X44229Y272329D01*
X44283Y272307D01*
X44381Y272296D01*
X44413Y272290D01*
X44427Y272291D01*
X44450Y272289D01*
X49530Y272289D01*
X49572Y272296D01*
G37*
D10*
X6350Y0D02*
X499110Y0D01*
X505460Y6350D02*
X505460Y304800D01*
X499110Y311150D02*
X6350Y311150D01*
X0Y304800D02*
X0Y6350D01*
X6350Y0D01*
X0Y304800D02*
X6350Y311150D01*
X499110Y311150D02*
X505460Y304800D01*
X505460Y6350D02*
X499110Y0D01*
D11*
X177933Y237871D02*
X171069Y237871D01*
X177933Y237871D02*
X177933Y242447D01*
X174501Y240159D02*
X174501Y237871D01*
X171069Y245355D02*
X177933Y245355D01*
X177933Y248787D01*
X176789Y249931D01*
X175645Y249931D01*
X174501Y248787D01*
X173357Y249931D01*
X172213Y249931D01*
X171069Y248787D01*
X171069Y245355D01*
X174501Y245355D02*
X174501Y248787D01*
X176789Y252839D02*
X177933Y253983D01*
X177933Y256271D01*
X176789Y257415D01*
X175645Y257415D01*
X174501Y256271D01*
X174501Y255127D01*
X174501Y256271D02*
X173357Y257415D01*
X172213Y257415D01*
X171069Y256271D01*
X171069Y253983D01*
X172213Y252839D01*
X106169Y203079D02*
X105025Y201935D01*
X106169Y203079D02*
X108457Y203079D01*
X109601Y201935D01*
X109601Y197359D01*
X108457Y196215D01*
X106169Y196215D01*
X105025Y197359D01*
X102117Y200791D02*
X99829Y203079D01*
X99829Y196215D01*
X102117Y196215D02*
X97541Y196215D01*
X91201Y196215D02*
X91201Y203079D01*
X94633Y199647D01*
X90057Y199647D01*
D12*
X97199Y277200D02*
X104401Y277200D01*
X97199Y277200D02*
X95758Y278640D01*
X95758Y281521D01*
X97199Y282962D01*
X104401Y282962D01*
X104401Y290877D02*
X95758Y290877D01*
X100080Y286555D02*
X104401Y290877D01*
X100080Y292317D02*
X100080Y286555D01*
D11*
X179329Y154055D02*
X180473Y152911D01*
X180473Y150623D01*
X179329Y149479D01*
X174753Y149479D01*
X173609Y150623D01*
X173609Y152911D01*
X174753Y154055D01*
X178185Y156963D02*
X180473Y159251D01*
X173609Y159251D01*
X173609Y156963D02*
X173609Y161539D01*
X174753Y164447D02*
X179329Y164447D01*
X180473Y165591D01*
X180473Y167879D01*
X179329Y169023D01*
X174753Y169023D01*
X173609Y167879D01*
X173609Y165591D01*
X174753Y164447D01*
X179329Y169023D01*
X238629Y136403D02*
X239773Y137547D01*
X242061Y137547D01*
X243205Y136403D01*
X243205Y131827D01*
X242061Y130683D01*
X239773Y130683D01*
X238629Y131827D01*
X235721Y135259D02*
X233433Y137547D01*
X233433Y130683D01*
X235721Y130683D02*
X231145Y130683D01*
X228237Y135259D02*
X225949Y137547D01*
X225949Y130683D01*
X228237Y130683D02*
X223661Y130683D01*
X266197Y131348D02*
X267341Y130204D01*
X267341Y127917D01*
X266197Y126773D01*
X261621Y126773D01*
X260477Y127917D01*
X260477Y130204D01*
X261621Y131348D01*
X265053Y134257D02*
X267341Y136545D01*
X260477Y136545D01*
X260477Y134257D02*
X260477Y138833D01*
X267341Y141741D02*
X267341Y146317D01*
X266197Y146317D01*
X261621Y141741D01*
X260477Y141741D01*
X266833Y182020D02*
X265689Y183164D01*
X266833Y182020D02*
X266833Y179733D01*
X265689Y178589D01*
X261113Y178589D01*
X259969Y179733D01*
X259969Y182020D01*
X261113Y183164D01*
X264545Y186073D02*
X266833Y188361D01*
X259969Y188361D01*
X259969Y186073D02*
X259969Y190649D01*
X259969Y193557D02*
X259969Y198133D01*
X259969Y193557D02*
X264545Y198133D01*
X265689Y198133D01*
X266833Y196989D01*
X266833Y194701D01*
X265689Y193557D01*
X240153Y246131D02*
X241297Y247275D01*
X243585Y247275D01*
X244729Y246131D01*
X244729Y241555D01*
X243585Y240411D01*
X241297Y240411D01*
X240153Y241555D01*
X237245Y244987D02*
X234957Y247275D01*
X234957Y240411D01*
X237245Y240411D02*
X232669Y240411D01*
X229761Y246131D02*
X228617Y247275D01*
X226329Y247275D01*
X225185Y246131D01*
X225185Y244987D01*
X226329Y243843D01*
X227473Y243843D01*
X226329Y243843D02*
X225185Y242699D01*
X225185Y241555D01*
X226329Y240411D01*
X228617Y240411D01*
X229761Y241555D01*
X203577Y301503D02*
X204721Y302647D01*
X207009Y302647D01*
X208153Y301503D01*
X208153Y296927D01*
X207009Y295783D01*
X204721Y295783D01*
X203577Y296927D01*
X200669Y300359D02*
X198381Y302647D01*
X198381Y295783D01*
X200669Y295783D02*
X196093Y295783D01*
X193185Y296927D02*
X192041Y295783D01*
X189753Y295783D01*
X188609Y296927D01*
X188609Y301503D01*
X189753Y302647D01*
X192041Y302647D01*
X193185Y301503D01*
X193185Y300359D01*
X192041Y299215D01*
X188609Y299215D01*
X268601Y301503D02*
X269745Y302647D01*
X272033Y302647D01*
X273177Y301503D01*
X273177Y296927D01*
X272033Y295783D01*
X269745Y295783D01*
X268601Y296927D01*
X265693Y300359D02*
X263405Y302647D01*
X263405Y295783D01*
X265693Y295783D02*
X261117Y295783D01*
X258209Y301503D02*
X257065Y302647D01*
X254777Y302647D01*
X253633Y301503D01*
X253633Y300359D01*
X254777Y299215D01*
X253633Y298071D01*
X253633Y296927D01*
X254777Y295783D01*
X257065Y295783D01*
X258209Y296927D01*
X258209Y298071D01*
X257065Y299215D01*
X258209Y300359D01*
X258209Y301503D01*
X257065Y299215D02*
X254777Y299215D01*
X75825Y276762D02*
X74681Y277906D01*
X75825Y276762D02*
X75825Y274475D01*
X74681Y273331D01*
X70105Y273331D01*
X68961Y274475D01*
X68961Y276762D01*
X70105Y277906D01*
X68961Y284247D02*
X75825Y284247D01*
X72393Y280815D01*
X72393Y285391D01*
X73537Y288299D02*
X75825Y290587D01*
X68961Y290587D01*
X68961Y288299D02*
X68961Y292875D01*
X150373Y285526D02*
X151517Y284382D01*
X151517Y282095D01*
X150373Y280951D01*
X145797Y280951D01*
X144653Y282095D01*
X144653Y284382D01*
X145797Y285526D01*
X144653Y291867D02*
X151517Y291867D01*
X148085Y288435D01*
X148085Y293011D01*
X144653Y295919D02*
X144653Y300495D01*
X144653Y295919D02*
X149229Y300495D01*
X150373Y300495D01*
X151517Y299351D01*
X151517Y297063D01*
X150373Y295919D01*
X14865Y32031D02*
X8001Y32031D01*
X14865Y32031D02*
X14865Y35462D01*
X13721Y36606D01*
X11433Y36606D01*
X10289Y35462D01*
X10289Y32031D01*
X10289Y34318D02*
X8001Y36606D01*
X12577Y39515D02*
X14865Y41803D01*
X8001Y41803D01*
X8001Y39515D02*
X8001Y44091D01*
X9145Y46999D02*
X13721Y46999D01*
X14865Y48143D01*
X14865Y50431D01*
X13721Y51575D01*
X9145Y51575D01*
X8001Y50431D01*
X8001Y48143D01*
X9145Y46999D01*
X13721Y51575D01*
X119761Y105537D02*
X119761Y112401D01*
X116329Y112401D01*
X115185Y111257D01*
X115185Y108969D01*
X116329Y107825D01*
X119761Y107825D01*
X117473Y107825D02*
X115185Y105537D01*
X112277Y110113D02*
X109989Y112401D01*
X109989Y105537D01*
X112277Y105537D02*
X107701Y105537D01*
X104793Y110113D02*
X102505Y112401D01*
X102505Y105537D01*
X104793Y105537D02*
X100217Y105537D01*
X171323Y86995D02*
X178187Y86995D01*
X178187Y90427D01*
X177043Y91571D01*
X174755Y91571D01*
X173611Y90427D01*
X173611Y86995D01*
X173611Y89283D02*
X171323Y91571D01*
X175899Y94479D02*
X178187Y96767D01*
X171323Y96767D01*
X171323Y94479D02*
X171323Y99055D01*
X171323Y101963D02*
X171323Y106539D01*
X171323Y101963D02*
X175899Y106539D01*
X177043Y106539D01*
X178187Y105395D01*
X178187Y103107D01*
X177043Y101963D01*
X206625Y74935D02*
X207769Y76079D01*
X210057Y76079D01*
X211201Y74935D01*
X211201Y70359D01*
X210057Y69215D01*
X207769Y69215D01*
X206625Y70359D01*
X203717Y73791D02*
X201429Y76079D01*
X201429Y69215D01*
X203717Y69215D02*
X199141Y69215D01*
X196233Y76079D02*
X191657Y76079D01*
X196233Y76079D02*
X196233Y72647D01*
X193945Y73791D01*
X192801Y73791D01*
X191657Y72647D01*
X191657Y70359D01*
X192801Y69215D01*
X195089Y69215D01*
X196233Y70359D01*
X378333Y272161D02*
X378333Y279025D01*
X374901Y279025D01*
X373757Y277881D01*
X373757Y275593D01*
X374901Y274449D01*
X378333Y274449D01*
X376045Y274449D02*
X373757Y272161D01*
X370849Y272161D02*
X366273Y272161D01*
X370849Y272161D02*
X366273Y276737D01*
X366273Y277881D01*
X367417Y279025D01*
X369705Y279025D01*
X370849Y277881D01*
X363365Y272161D02*
X358789Y272161D01*
X363365Y272161D02*
X358789Y276737D01*
X358789Y277881D01*
X359933Y279025D01*
X362221Y279025D01*
X363365Y277881D01*
X456565Y178949D02*
X456565Y172085D01*
X456565Y178949D02*
X453133Y178949D01*
X451989Y177805D01*
X451989Y175517D01*
X453133Y174373D01*
X456565Y174373D01*
X454277Y174373D02*
X451989Y172085D01*
X449081Y172085D02*
X449081Y178949D01*
X444505Y172085D01*
X444505Y178949D01*
X441597Y172085D02*
X437021Y172085D01*
X441597Y172085D02*
X437021Y176661D01*
X437021Y177805D01*
X438165Y178949D01*
X440453Y178949D01*
X441597Y177805D01*
X434113Y177805D02*
X432969Y178949D01*
X430681Y178949D01*
X429537Y177805D01*
X429537Y176661D01*
X430681Y175517D01*
X431825Y175517D01*
X430681Y175517D02*
X429537Y174373D01*
X429537Y173229D01*
X430681Y172085D01*
X432969Y172085D01*
X434113Y173229D01*
X332873Y131474D02*
X331729Y132618D01*
X332873Y131474D02*
X332873Y129187D01*
X331729Y128043D01*
X327153Y128043D01*
X326009Y129187D01*
X326009Y131474D01*
X327153Y132618D01*
X326009Y135527D02*
X326009Y140103D01*
X326009Y135527D02*
X330585Y140103D01*
X331729Y140103D01*
X332873Y138959D01*
X332873Y136671D01*
X331729Y135527D01*
X330585Y143011D02*
X332873Y145299D01*
X326009Y145299D01*
X326009Y143011D02*
X326009Y147587D01*
X373893Y132618D02*
X375037Y131474D01*
X375037Y129187D01*
X373893Y128043D01*
X369317Y128043D01*
X368173Y129187D01*
X368173Y131474D01*
X369317Y132618D01*
X368173Y135527D02*
X368173Y140103D01*
X368173Y135527D02*
X372749Y140103D01*
X373893Y140103D01*
X375037Y138959D01*
X375037Y136671D01*
X373893Y135527D01*
X373893Y143011D02*
X369317Y143011D01*
X373893Y143011D02*
X375037Y144155D01*
X375037Y146443D01*
X373893Y147587D01*
X369317Y147587D01*
X368173Y146443D01*
X368173Y144155D01*
X369317Y143011D01*
X373893Y147587D01*
X402713Y162057D02*
X403857Y163201D01*
X406145Y163201D01*
X407289Y162057D01*
X407289Y157481D01*
X406145Y156337D01*
X403857Y156337D01*
X402713Y157481D01*
X399805Y156337D02*
X395229Y156337D01*
X399805Y156337D02*
X395229Y160913D01*
X395229Y162057D01*
X396373Y163201D01*
X398661Y163201D01*
X399805Y162057D01*
X392321Y162057D02*
X391177Y163201D01*
X388889Y163201D01*
X387745Y162057D01*
X387745Y160913D01*
X388889Y159769D01*
X390033Y159769D01*
X388889Y159769D02*
X387745Y158625D01*
X387745Y157481D01*
X388889Y156337D01*
X391177Y156337D01*
X392321Y157481D01*
X375281Y195839D02*
X376425Y196983D01*
X378713Y196983D01*
X379857Y195839D01*
X379857Y191263D01*
X378713Y190119D01*
X376425Y190119D01*
X375281Y191263D01*
X372373Y190119D02*
X367797Y190119D01*
X372373Y190119D02*
X367797Y194695D01*
X367797Y195839D01*
X368941Y196983D01*
X371229Y196983D01*
X372373Y195839D01*
X364889Y190119D02*
X360313Y190119D01*
X364889Y190119D02*
X360313Y194695D01*
X360313Y195839D01*
X361457Y196983D01*
X363745Y196983D01*
X364889Y195839D01*
X375535Y214635D02*
X376679Y215779D01*
X378967Y215779D01*
X380111Y214635D01*
X380111Y210059D01*
X378967Y208915D01*
X376679Y208915D01*
X375535Y210059D01*
X372627Y208915D02*
X368051Y208915D01*
X372627Y208915D02*
X368051Y213491D01*
X368051Y214635D01*
X369195Y215779D01*
X371483Y215779D01*
X372627Y214635D01*
X361711Y215779D02*
X361711Y208915D01*
X365143Y212347D02*
X361711Y215779D01*
X360567Y212347D02*
X365143Y212347D01*
X402713Y245623D02*
X403857Y246767D01*
X406145Y246767D01*
X407289Y245623D01*
X407289Y241047D01*
X406145Y239903D01*
X403857Y239903D01*
X402713Y241047D01*
X399805Y239903D02*
X395229Y239903D01*
X399805Y239903D02*
X395229Y244479D01*
X395229Y245623D01*
X396373Y246767D01*
X398661Y246767D01*
X399805Y245623D01*
X392321Y246767D02*
X387745Y246767D01*
X392321Y246767D02*
X392321Y243335D01*
X390033Y244479D01*
X388889Y244479D01*
X387745Y243335D01*
X387745Y241047D01*
X388889Y239903D01*
X391177Y239903D01*
X392321Y241047D01*
X453259Y245115D02*
X454403Y246259D01*
X456691Y246259D01*
X457835Y245115D01*
X457835Y240539D01*
X456691Y239395D01*
X454403Y239395D01*
X453259Y240539D01*
X450351Y239395D02*
X445775Y239395D01*
X450351Y239395D02*
X445775Y243971D01*
X445775Y245115D01*
X446919Y246259D01*
X449207Y246259D01*
X450351Y245115D01*
X442867Y246259D02*
X438291Y246259D01*
X438291Y245115D01*
X442867Y240539D01*
X442867Y239395D01*
X459991Y204095D02*
X458847Y202951D01*
X459991Y204095D02*
X462279Y204095D01*
X463423Y202951D01*
X463423Y198375D01*
X462279Y197231D01*
X459991Y197231D01*
X458847Y198375D01*
X455939Y197231D02*
X451363Y197231D01*
X455939Y197231D02*
X451363Y201807D01*
X451363Y202951D01*
X452507Y204095D01*
X454795Y204095D01*
X455939Y202951D01*
X448455Y202951D02*
X447311Y204095D01*
X445023Y204095D01*
X443879Y202951D01*
X443879Y201807D01*
X445023Y200663D01*
X443879Y199519D01*
X443879Y198375D01*
X445023Y197231D01*
X447311Y197231D01*
X448455Y198375D01*
X448455Y199519D01*
X447311Y200663D01*
X448455Y201807D01*
X448455Y202951D01*
X447311Y200663D02*
X445023Y200663D01*
X309631Y33050D02*
X310775Y31906D01*
X310775Y29619D01*
X309631Y28475D01*
X305055Y28475D01*
X303911Y29619D01*
X303911Y31906D01*
X305055Y33050D01*
X309631Y35959D02*
X310775Y37103D01*
X310775Y39391D01*
X309631Y40535D01*
X308487Y40535D01*
X307343Y39391D01*
X307343Y38247D01*
X307343Y39391D02*
X306199Y40535D01*
X305055Y40535D01*
X303911Y39391D01*
X303911Y37103D01*
X305055Y35959D01*
X303911Y43443D02*
X303911Y48019D01*
X303911Y43443D02*
X308487Y48019D01*
X309631Y48019D01*
X310775Y46875D01*
X310775Y44587D01*
X309631Y43443D01*
X246631Y77095D02*
X245487Y75951D01*
X246631Y77095D02*
X248919Y77095D01*
X250063Y75951D01*
X250063Y71375D01*
X248919Y70231D01*
X246631Y70231D01*
X245487Y71375D01*
X242579Y74807D02*
X240291Y77095D01*
X240291Y70231D01*
X242579Y70231D02*
X238003Y70231D01*
X232807Y75951D02*
X230519Y77095D01*
X232807Y75951D02*
X235095Y73663D01*
X235095Y71375D01*
X233951Y70231D01*
X231663Y70231D01*
X230519Y71375D01*
X230519Y72519D01*
X231663Y73663D01*
X235095Y73663D01*
D12*
X497857Y17025D02*
X497857Y8382D01*
X492095Y8382D02*
X497857Y17025D01*
X492095Y17025D02*
X492095Y8382D01*
X485621Y15585D02*
X482740Y17025D01*
X485621Y15585D02*
X488502Y12704D01*
X488502Y9823D01*
X487061Y8382D01*
X484180Y8382D01*
X482740Y9823D01*
X482740Y11263D01*
X484180Y12704D01*
X488502Y12704D01*
X474825Y8382D02*
X474825Y17025D01*
X479147Y12704D01*
X473385Y12704D01*
X469792Y17025D02*
X469792Y8382D01*
X469792Y17025D02*
X465470Y17025D01*
X464029Y15585D01*
X464029Y12704D01*
X465470Y11263D01*
X469792Y11263D01*
X466910Y11263D02*
X464029Y8382D01*
X456115Y17025D02*
X454674Y15585D01*
X456115Y17025D02*
X458996Y17025D01*
X460436Y15585D01*
X460436Y9823D01*
X458996Y8382D01*
X456115Y8382D01*
X454674Y9823D01*
X454674Y12704D01*
X457555Y12704D01*
X451081Y17025D02*
X451081Y8382D01*
X451081Y17025D02*
X446760Y17025D01*
X445319Y15585D01*
X445319Y14144D01*
X446760Y12704D01*
X445319Y11263D01*
X445319Y9823D01*
X446760Y8382D01*
X451081Y8382D01*
X451081Y12704D02*
X446760Y12704D01*
X441726Y14144D02*
X438845Y8382D01*
X435964Y14144D01*
X432371Y8382D02*
X426609Y8382D01*
X432371Y8382D02*
X426609Y14144D01*
X426609Y15585D01*
X428049Y17025D01*
X430930Y17025D01*
X432371Y15585D01*
X423016Y6941D02*
X417253Y6941D01*
X413660Y8382D02*
X407898Y8382D01*
X413660Y8382D02*
X407898Y14144D01*
X407898Y15585D01*
X409339Y17025D01*
X412220Y17025D01*
X413660Y15585D01*
X404305Y15585D02*
X404305Y9823D01*
X404305Y15585D02*
X402865Y17025D01*
X399984Y17025D01*
X398543Y15585D01*
X398543Y9823D01*
X399984Y8382D01*
X402865Y8382D01*
X404305Y9823D01*
X398543Y15585D01*
X394950Y14144D02*
X392069Y17025D01*
X392069Y8382D01*
X394950Y8382D02*
X389188Y8382D01*
X385595Y9823D02*
X384154Y8382D01*
X381273Y8382D01*
X379833Y9823D01*
X379833Y15585D01*
X381273Y17025D01*
X384154Y17025D01*
X385595Y15585D01*
X385595Y14144D01*
X384154Y12704D01*
X379833Y12704D01*
X376240Y9823D02*
X376240Y15585D01*
X374799Y17025D01*
X371918Y17025D01*
X370477Y15585D01*
X370477Y9823D01*
X371918Y8382D01*
X374799Y8382D01*
X376240Y9823D01*
X370477Y15585D01*
X366885Y14144D02*
X364003Y17025D01*
X364003Y8382D01*
X361122Y8382D02*
X366885Y8382D01*
X357529Y9823D02*
X357529Y15585D01*
X356089Y17025D01*
X353208Y17025D01*
X351767Y15585D01*
X351767Y9823D01*
X353208Y8382D01*
X356089Y8382D01*
X357529Y9823D01*
X351767Y15585D01*
X348174Y17025D02*
X342412Y17025D01*
X348174Y17025D02*
X348174Y12704D01*
X345293Y14144D01*
X343852Y14144D01*
X342412Y12704D01*
X342412Y9823D01*
X343852Y8382D01*
X346734Y8382D01*
X348174Y9823D01*
X219373Y201422D02*
X217932Y202863D01*
X217932Y204303D01*
X219373Y205744D01*
X226575Y205744D01*
X226575Y207184D02*
X226575Y204303D01*
X223694Y210777D02*
X226575Y213658D01*
X217932Y213658D01*
X217932Y210777D02*
X217932Y216539D01*
D11*
X204851Y180703D02*
X207139Y178415D01*
X209427Y178415D01*
X211715Y180703D01*
X211715Y183405D02*
X211715Y187981D01*
X211715Y183405D02*
X208283Y183405D01*
X209427Y185693D01*
X209427Y186837D01*
X208283Y187981D01*
X205995Y187981D01*
X204851Y186837D01*
X204851Y184549D01*
X205995Y183405D01*
X211715Y190889D02*
X211715Y195465D01*
X210571Y195465D01*
X205995Y190889D01*
X204851Y190889D01*
X205995Y198373D02*
X210571Y198373D01*
X211715Y199517D01*
X211715Y201805D01*
X210571Y202949D01*
X205995Y202949D01*
X204851Y201805D01*
X204851Y199517D01*
X205995Y198373D01*
X210571Y202949D01*
X211715Y205857D02*
X204851Y205857D01*
X204851Y210433D01*
X211715Y213341D02*
X211715Y217917D01*
X211715Y213341D02*
X204851Y213341D01*
X204851Y217917D01*
X208283Y215629D02*
X208283Y213341D01*
X204851Y220825D02*
X204851Y224257D01*
X205995Y225401D01*
X207139Y224257D01*
X207139Y221969D01*
X208283Y220825D01*
X209427Y221969D01*
X209427Y225401D01*
X204851Y228310D02*
X207139Y230598D01*
X209427Y230598D01*
X211715Y228310D01*
X12827Y258699D02*
X5963Y258699D01*
X12827Y258699D02*
X12827Y255267D01*
X11683Y254123D01*
X7107Y254123D01*
X5963Y255267D01*
X5963Y258699D01*
X12827Y250071D02*
X12827Y247783D01*
X11683Y246639D01*
X9395Y246639D01*
X8251Y247783D01*
X8251Y250071D01*
X9395Y251215D01*
X11683Y251215D01*
X12827Y250071D01*
X12827Y243731D02*
X8251Y243731D01*
X8251Y240299D01*
X9395Y239155D01*
X12827Y239155D01*
X7107Y235103D02*
X4819Y235103D01*
X7107Y235103D02*
X8251Y236247D01*
X7107Y231361D02*
X11683Y231361D01*
X12827Y230217D01*
X8251Y230217D02*
X8251Y232504D01*
X8251Y220031D02*
X11683Y220031D01*
X12827Y218887D01*
X12827Y215455D01*
X8251Y215455D01*
X12827Y212547D02*
X12827Y209115D01*
X11683Y207971D01*
X10539Y209115D01*
X10539Y211403D01*
X9395Y212547D01*
X8251Y211403D01*
X8251Y207971D01*
X12827Y203919D02*
X12827Y201631D01*
X12827Y203919D02*
X11683Y205063D01*
X9395Y205063D01*
X8251Y203919D01*
X8251Y201631D01*
X9395Y200487D01*
X10539Y200487D01*
X10539Y205063D01*
X11683Y190094D02*
X5963Y190094D01*
X11683Y190094D02*
X12827Y188950D01*
X12827Y186662D01*
X11683Y185518D01*
X5963Y185518D01*
X5963Y179178D02*
X12827Y179178D01*
X9395Y182610D02*
X5963Y179178D01*
X9395Y178034D02*
X9395Y182610D01*
X15115Y175126D02*
X12827Y172838D01*
X11683Y172838D01*
X11683Y173982D01*
X12827Y173982D01*
X12827Y172838D01*
X5963Y166705D02*
X7107Y165561D01*
X5963Y166705D02*
X5963Y168993D01*
X7107Y170137D01*
X11683Y170137D01*
X12827Y168993D01*
X12827Y166705D01*
X11683Y165561D01*
X12827Y159220D02*
X5963Y159220D01*
X9395Y162652D01*
X9395Y158076D01*
X8251Y155168D02*
X5963Y152880D01*
X12827Y152880D01*
X12827Y155168D02*
X12827Y150592D01*
X15115Y147684D02*
X12827Y145396D01*
X11683Y145396D01*
X11683Y146540D01*
X12827Y146540D01*
X12827Y145396D01*
X5963Y139263D02*
X7107Y138119D01*
X5963Y139263D02*
X5963Y141551D01*
X7107Y142695D01*
X11683Y142695D01*
X12827Y141551D01*
X12827Y139263D01*
X11683Y138119D01*
X12827Y131779D02*
X5963Y131779D01*
X9395Y135210D01*
X9395Y130635D01*
X12827Y127726D02*
X12827Y123150D01*
X12827Y127726D02*
X8251Y123150D01*
X7107Y123150D01*
X5963Y124294D01*
X5963Y126582D01*
X7107Y127726D01*
X18155Y258699D02*
X25019Y258699D01*
X25019Y255267D01*
X23875Y254123D01*
X19299Y254123D01*
X18155Y255267D01*
X18155Y258699D01*
X25019Y250071D02*
X25019Y247783D01*
X23875Y246639D01*
X21587Y246639D01*
X20443Y247783D01*
X20443Y250071D01*
X21587Y251215D01*
X23875Y251215D01*
X25019Y250071D01*
X25019Y243731D02*
X20443Y243731D01*
X20443Y240299D01*
X21587Y239155D01*
X25019Y239155D01*
X19299Y235103D02*
X17011Y235103D01*
X19299Y235103D02*
X20443Y236247D01*
X19299Y231361D02*
X23875Y231361D01*
X25019Y230217D01*
X20443Y230217D02*
X20443Y232504D01*
X20443Y220031D02*
X23875Y220031D01*
X25019Y218887D01*
X25019Y215455D01*
X20443Y215455D01*
X25019Y212547D02*
X25019Y209115D01*
X23875Y207971D01*
X22731Y209115D01*
X22731Y211403D01*
X21587Y212547D01*
X20443Y211403D01*
X20443Y207971D01*
X25019Y203919D02*
X25019Y201631D01*
X25019Y203919D02*
X23875Y205063D01*
X21587Y205063D01*
X20443Y203919D01*
X20443Y201631D01*
X21587Y200487D01*
X22731Y200487D01*
X22731Y205063D01*
X25019Y190094D02*
X18155Y190094D01*
X18155Y185518D01*
X21587Y187806D02*
X21587Y190094D01*
X25019Y182610D02*
X18155Y182610D01*
X18155Y179178D01*
X19299Y178034D01*
X20443Y178034D01*
X21587Y179178D01*
X22731Y178034D01*
X23875Y178034D01*
X25019Y179178D01*
X25019Y182610D01*
X21587Y182610D02*
X21587Y179178D01*
X19299Y175126D02*
X18155Y173982D01*
X18155Y171694D01*
X19299Y170550D01*
X20443Y170550D01*
X21587Y171694D01*
X21587Y172838D01*
X21587Y171694D02*
X22731Y170550D01*
X23875Y170550D01*
X25019Y171694D01*
X25019Y173982D01*
X23875Y175126D01*
X23875Y167642D02*
X25019Y167642D01*
X21587Y167642D02*
X17011Y167642D01*
X23875Y165147D02*
X25019Y165147D01*
X21587Y165147D02*
X17011Y165147D01*
X23875Y162652D02*
X25019Y162652D01*
X21587Y162652D02*
X17011Y162652D01*
X12827Y298069D02*
X5963Y298069D01*
X8251Y295781D01*
X5963Y293493D01*
X12827Y293493D01*
X8251Y289441D02*
X8251Y287153D01*
X9395Y286009D01*
X12827Y286009D01*
X12827Y289441D01*
X11683Y290585D01*
X10539Y289441D01*
X10539Y286009D01*
X8251Y283101D02*
X12827Y278525D01*
X12827Y283101D02*
X8251Y278525D01*
X12827Y275617D02*
X12827Y273329D01*
X12827Y274473D02*
X5963Y274473D01*
X5963Y275617D02*
X5963Y273329D01*
X12827Y270627D02*
X12827Y268339D01*
X12827Y269483D02*
X5963Y269483D01*
X5963Y270627D02*
X5963Y268339D01*
X8251Y265638D02*
X8251Y264494D01*
X9395Y264494D01*
X9395Y265638D01*
X8251Y265638D01*
X11683Y265638D02*
X11683Y264494D01*
X12827Y264494D01*
X12827Y265638D01*
X11683Y265638D01*
X18155Y298069D02*
X25019Y298069D01*
X20443Y295781D02*
X18155Y298069D01*
X20443Y295781D02*
X18155Y293493D01*
X25019Y293493D01*
X20443Y289441D02*
X20443Y287153D01*
X21587Y286009D01*
X25019Y286009D01*
X25019Y289441D01*
X23875Y290585D01*
X22731Y289441D01*
X22731Y286009D01*
X20443Y283101D02*
X25019Y278525D01*
X25019Y283101D02*
X20443Y278525D01*
X18155Y275617D02*
X22731Y275617D01*
X25019Y273329D01*
X22731Y271041D01*
X18155Y271041D01*
X20443Y268132D02*
X20443Y266988D01*
X21587Y266988D01*
X21587Y268132D01*
X20443Y268132D01*
X23875Y268132D02*
X23875Y266988D01*
X25019Y266988D01*
X25019Y268132D01*
X23875Y268132D01*
D12*
X27940Y302260D02*
X3810Y302260D01*
X27940Y302260D02*
X27940Y290829D01*
X27940Y280829D02*
X27940Y269398D01*
X27940Y259398D02*
X27940Y247967D01*
X27940Y237967D02*
X27940Y226536D01*
X27940Y216536D02*
X27940Y205104D01*
X27940Y195104D02*
X27940Y183673D01*
X27940Y173673D02*
X27940Y162242D01*
X27940Y152242D02*
X27940Y140811D01*
X27940Y130811D02*
X27940Y119380D01*
X2540Y119380D01*
X2540Y130811D01*
X2540Y140811D02*
X2540Y152242D01*
X2540Y162242D02*
X2540Y173673D01*
X2540Y183673D02*
X2540Y195104D01*
X2540Y205104D02*
X2540Y216536D01*
X2540Y226536D02*
X2540Y237967D01*
X2540Y247967D02*
X2540Y259398D01*
X2540Y269398D02*
X2540Y280829D01*
X2540Y290829D02*
X2540Y302260D01*
X3810Y302260D01*
X63500Y308610D02*
X63500Y290750D01*
X63500Y280750D02*
X63500Y262890D01*
X75050Y262890D01*
X85050Y262890D02*
X96600Y262890D01*
X106600Y262890D02*
X118150Y262890D01*
X128150Y262890D02*
X139700Y262890D01*
X139700Y250745D01*
X139700Y240745D02*
X139700Y228600D01*
X155655Y228600D01*
X165655Y228600D02*
X181610Y228600D01*
X181610Y240745D01*
X181610Y250745D02*
X181610Y262890D01*
X181610Y280750D01*
X181610Y290750D02*
X181610Y308610D01*
X170258Y308610D01*
X160258Y308610D02*
X148907Y308610D01*
X138907Y308610D02*
X127555Y308610D01*
X117555Y308610D02*
X106203Y308610D01*
X96203Y308610D02*
X84852Y308610D01*
X74852Y308610D02*
X63500Y308610D01*
X139700Y262890D02*
X181610Y262890D01*
D13*
X45466Y265430D02*
X45468Y265508D01*
X45474Y265585D01*
X45484Y265663D01*
X45498Y265739D01*
X45515Y265815D01*
X45537Y265890D01*
X45562Y265963D01*
X45591Y266036D01*
X45624Y266106D01*
X45661Y266175D01*
X45700Y266242D01*
X45743Y266307D01*
X45790Y266369D01*
X45839Y266429D01*
X45892Y266487D01*
X45947Y266541D01*
X46005Y266593D01*
X46066Y266642D01*
X46129Y266688D01*
X46195Y266730D01*
X46262Y266769D01*
X46331Y266804D01*
X46402Y266836D01*
X46475Y266864D01*
X46549Y266889D01*
X46624Y266909D01*
X46700Y266926D01*
X46777Y266939D01*
X46854Y266948D01*
X46932Y266953D01*
X47009Y266954D01*
X47087Y266951D01*
X47165Y266944D01*
X47242Y266933D01*
X47318Y266918D01*
X47394Y266900D01*
X47468Y266877D01*
X47542Y266851D01*
X47613Y266821D01*
X47684Y266787D01*
X47752Y266750D01*
X47818Y266709D01*
X47883Y266665D01*
X47945Y266618D01*
X48004Y266568D01*
X48061Y266514D01*
X48115Y266458D01*
X48166Y266400D01*
X48214Y266338D01*
X48259Y266275D01*
X48300Y266209D01*
X48338Y266141D01*
X48373Y266071D01*
X48404Y266000D01*
X48431Y265927D01*
X48454Y265853D01*
X48474Y265777D01*
X48490Y265701D01*
X48502Y265624D01*
X48510Y265547D01*
X48514Y265469D01*
X48514Y265391D01*
X48510Y265313D01*
X48502Y265236D01*
X48490Y265159D01*
X48474Y265083D01*
X48454Y265007D01*
X48431Y264933D01*
X48404Y264860D01*
X48373Y264789D01*
X48338Y264719D01*
X48300Y264651D01*
X48259Y264585D01*
X48214Y264522D01*
X48166Y264460D01*
X48115Y264402D01*
X48061Y264346D01*
X48004Y264292D01*
X47945Y264242D01*
X47883Y264195D01*
X47818Y264151D01*
X47752Y264110D01*
X47684Y264073D01*
X47613Y264039D01*
X47542Y264009D01*
X47468Y263983D01*
X47394Y263960D01*
X47318Y263942D01*
X47242Y263927D01*
X47165Y263916D01*
X47087Y263909D01*
X47009Y263906D01*
X46932Y263907D01*
X46854Y263912D01*
X46777Y263921D01*
X46700Y263934D01*
X46624Y263951D01*
X46549Y263971D01*
X46475Y263996D01*
X46402Y264024D01*
X46331Y264056D01*
X46262Y264091D01*
X46195Y264130D01*
X46129Y264172D01*
X46066Y264218D01*
X46005Y264267D01*
X45947Y264319D01*
X45892Y264373D01*
X45839Y264431D01*
X45790Y264491D01*
X45743Y264553D01*
X45700Y264618D01*
X45661Y264685D01*
X45624Y264754D01*
X45591Y264824D01*
X45562Y264897D01*
X45537Y264970D01*
X45515Y265045D01*
X45498Y265121D01*
X45484Y265197D01*
X45474Y265275D01*
X45468Y265352D01*
X45466Y265430D01*
D12*
X161131Y161925D02*
X161131Y155575D01*
X169069Y155575D02*
X169069Y161925D01*
X231775Y116681D02*
X238125Y116681D01*
X238125Y124619D02*
X231775Y124619D01*
X280829Y188595D02*
X280829Y194945D01*
X272891Y194945D02*
X272891Y188595D01*
X234315Y227171D02*
X227965Y227171D01*
X227965Y235109D02*
X234315Y235109D01*
X103505Y191929D02*
X97155Y191929D01*
X97155Y183991D02*
X103505Y183991D01*
X192405Y56991D02*
X198755Y56991D01*
X198755Y64929D02*
X192405Y64929D01*
X244475Y64929D02*
X250825Y64929D01*
X250825Y56991D02*
X244475Y56991D01*
X272891Y133985D02*
X272891Y140335D01*
X280829Y140335D02*
X280829Y133985D01*
X272415Y283051D02*
X266065Y283051D01*
X266065Y290989D02*
X272415Y290989D01*
X202565Y283051D02*
X196215Y283051D01*
X196215Y290989D02*
X202565Y290989D01*
X356711Y142875D02*
X356711Y136525D01*
X364649Y136525D02*
X364649Y142875D01*
X337661Y142875D02*
X337661Y136525D01*
X345599Y136525D02*
X345599Y142875D01*
X394335Y197009D02*
X400685Y197009D01*
X400685Y189071D02*
X394335Y189071D01*
X394335Y177959D02*
X400685Y177959D01*
X400685Y170021D02*
X394335Y170021D01*
X394335Y216059D02*
X400685Y216059D01*
X400685Y208121D02*
X394335Y208121D01*
X394335Y235109D02*
X400685Y235109D01*
X400685Y227171D02*
X394335Y227171D01*
X424815Y227171D02*
X431165Y227171D01*
X431165Y235109D02*
X424815Y235109D01*
X424815Y208121D02*
X431165Y208121D01*
X431165Y216059D02*
X424815Y216059D01*
X316071Y45085D02*
X316071Y38735D01*
X324009Y38735D02*
X324009Y45085D01*
X87789Y287655D02*
X87789Y294005D01*
X79851Y294005D02*
X79851Y287655D01*
X163989Y287655D02*
X163989Y294005D01*
X156051Y294005D02*
X156051Y287655D01*
X21431Y47625D02*
X21431Y41275D01*
X29369Y41275D02*
X29369Y47625D01*
X107315Y99219D02*
X113665Y99219D01*
X113665Y91281D02*
X107315Y91281D01*
X162719Y93345D02*
X162719Y99695D01*
X154781Y99695D02*
X154781Y93345D01*
X366395Y266859D02*
X372745Y266859D01*
X372745Y258921D02*
X366395Y258921D01*
D14*
X458730Y163710D02*
X458730Y148710D01*
X427730Y148710D02*
X427730Y163710D01*
D12*
X107700Y278920D02*
X107700Y295120D01*
X136140Y295120D02*
X136140Y278920D01*
X127140Y295120D02*
X116700Y295120D01*
X126200Y278920D02*
X127140Y278920D01*
X117640Y278920D02*
X116700Y278920D01*
X135200Y278920D02*
X136140Y278920D01*
X108640Y278920D02*
X107700Y278920D01*
X107700Y295120D02*
X108640Y295120D01*
X135200Y295120D02*
X136140Y295120D01*
X163989Y249555D02*
X163989Y243205D01*
X156051Y243205D02*
X156051Y249555D01*
X200660Y223520D02*
X200660Y195580D01*
X182880Y193040D02*
X182780Y193042D01*
X182681Y193048D01*
X182581Y193058D01*
X182483Y193071D01*
X182384Y193089D01*
X182287Y193110D01*
X182191Y193135D01*
X182095Y193164D01*
X182001Y193197D01*
X181908Y193233D01*
X181817Y193273D01*
X181727Y193317D01*
X181639Y193364D01*
X181553Y193414D01*
X181469Y193468D01*
X181387Y193525D01*
X181308Y193585D01*
X181230Y193649D01*
X181156Y193715D01*
X181084Y193784D01*
X181015Y193856D01*
X180949Y193930D01*
X180885Y194008D01*
X180825Y194087D01*
X180768Y194169D01*
X180714Y194253D01*
X180664Y194339D01*
X180617Y194427D01*
X180573Y194517D01*
X180533Y194608D01*
X180497Y194701D01*
X180464Y194795D01*
X180435Y194891D01*
X180410Y194987D01*
X180389Y195084D01*
X180371Y195183D01*
X180358Y195281D01*
X180348Y195381D01*
X180342Y195480D01*
X180340Y195580D01*
X180340Y223520D02*
X180342Y223620D01*
X180348Y223719D01*
X180358Y223819D01*
X180371Y223917D01*
X180389Y224016D01*
X180410Y224113D01*
X180435Y224209D01*
X180464Y224305D01*
X180497Y224399D01*
X180533Y224492D01*
X180573Y224583D01*
X180617Y224673D01*
X180664Y224761D01*
X180714Y224847D01*
X180768Y224931D01*
X180825Y225013D01*
X180885Y225092D01*
X180949Y225170D01*
X181015Y225244D01*
X181084Y225316D01*
X181156Y225385D01*
X181230Y225451D01*
X181308Y225515D01*
X181387Y225575D01*
X181469Y225632D01*
X181553Y225686D01*
X181639Y225736D01*
X181727Y225783D01*
X181817Y225827D01*
X181908Y225867D01*
X182001Y225903D01*
X182095Y225936D01*
X182191Y225965D01*
X182287Y225990D01*
X182384Y226011D01*
X182483Y226029D01*
X182581Y226042D01*
X182681Y226052D01*
X182780Y226058D01*
X182880Y226060D01*
X198120Y226060D02*
X198220Y226058D01*
X198319Y226052D01*
X198419Y226042D01*
X198517Y226029D01*
X198616Y226011D01*
X198713Y225990D01*
X198809Y225965D01*
X198905Y225936D01*
X198999Y225903D01*
X199092Y225867D01*
X199183Y225827D01*
X199273Y225783D01*
X199361Y225736D01*
X199447Y225686D01*
X199531Y225632D01*
X199613Y225575D01*
X199692Y225515D01*
X199770Y225451D01*
X199844Y225385D01*
X199916Y225316D01*
X199985Y225244D01*
X200051Y225170D01*
X200115Y225092D01*
X200175Y225013D01*
X200232Y224931D01*
X200286Y224847D01*
X200336Y224761D01*
X200383Y224673D01*
X200427Y224583D01*
X200467Y224492D01*
X200503Y224399D01*
X200536Y224305D01*
X200565Y224209D01*
X200590Y224113D01*
X200611Y224016D01*
X200629Y223917D01*
X200642Y223819D01*
X200652Y223719D01*
X200658Y223620D01*
X200660Y223520D01*
X200660Y195580D02*
X200658Y195480D01*
X200652Y195381D01*
X200642Y195281D01*
X200629Y195183D01*
X200611Y195084D01*
X200590Y194987D01*
X200565Y194891D01*
X200536Y194795D01*
X200503Y194701D01*
X200467Y194608D01*
X200427Y194517D01*
X200383Y194427D01*
X200336Y194339D01*
X200286Y194253D01*
X200232Y194169D01*
X200175Y194087D01*
X200115Y194008D01*
X200051Y193930D01*
X199985Y193856D01*
X199916Y193784D01*
X199844Y193715D01*
X199770Y193649D01*
X199692Y193585D01*
X199613Y193525D01*
X199531Y193468D01*
X199447Y193414D01*
X199361Y193364D01*
X199273Y193317D01*
X199183Y193273D01*
X199092Y193233D01*
X198999Y193197D01*
X198905Y193164D01*
X198809Y193135D01*
X198713Y193110D01*
X198616Y193089D01*
X198517Y193071D01*
X198419Y193058D01*
X198319Y193048D01*
X198220Y193042D01*
X198120Y193040D01*
X182880Y193040D01*
X182880Y226060D02*
X198120Y226060D01*
X180340Y223520D02*
X180340Y195580D01*
M02*
