G04 EAGLE Gerber RS-274X export*
G75*
%MOMM*%
%FSLAX34Y34*%
%LPD*%
%INpad maske unten*%
%IPPOS*%
%AMOC8*
5,1,8,0,0,1.08239X$1,22.5*%
G01*
%ADD10R,0.800000X0.900000*%
%ADD11R,0.900000X0.800000*%
%ADD12R,0.400000X0.800000*%
%ADD13R,0.440000X1.090000*%


D10*
X165100Y167250D03*
X165100Y150250D03*
D11*
X226450Y120650D03*
X243450Y120650D03*
D10*
X276860Y183270D03*
X276860Y200270D03*
D11*
X222640Y231140D03*
X239640Y231140D03*
X108830Y187960D03*
X91830Y187960D03*
X187080Y60960D03*
X204080Y60960D03*
X256150Y60960D03*
X239150Y60960D03*
D10*
X276860Y145660D03*
X276860Y128660D03*
D11*
X260740Y287020D03*
X277740Y287020D03*
X190890Y287020D03*
X207890Y287020D03*
D10*
X360680Y148200D03*
X360680Y131200D03*
X341630Y148200D03*
X341630Y131200D03*
D11*
X406010Y193040D03*
X389010Y193040D03*
X406010Y173990D03*
X389010Y173990D03*
X406010Y212090D03*
X389010Y212090D03*
X406010Y231140D03*
X389010Y231140D03*
X419490Y231140D03*
X436490Y231140D03*
X419490Y212090D03*
X436490Y212090D03*
D10*
X320040Y50410D03*
X320040Y33410D03*
X83820Y282330D03*
X83820Y299330D03*
X160020Y282330D03*
X160020Y299330D03*
D11*
X25400Y52950D03*
X25400Y35950D03*
D10*
X118990Y95250D03*
X101990Y95250D03*
D11*
X158750Y88020D03*
X158750Y105020D03*
D10*
X378070Y262890D03*
X361070Y262890D03*
D12*
X431230Y164210D03*
X439230Y164210D03*
X447230Y164210D03*
X455230Y164210D03*
X455230Y148210D03*
X447230Y148210D03*
X439230Y148210D03*
X431230Y148210D03*
D13*
X131420Y274020D03*
X121920Y274020D03*
X112420Y274020D03*
X112420Y300020D03*
X131420Y300020D03*
D11*
X160020Y237880D03*
X160020Y254880D03*
M02*
