G04 EAGLE Gerber RS-274X export*
G75*
%MOMM*%
%FSLAX34Y34*%
%LPD*%
%INpad maske top*%
%IPPOS*%
%AMOC8*
5,1,8,0,0,1.08239X$1,22.5*%
G01*
%ADD10R,1.046000X1.246000*%
%ADD11R,1.346000X1.546000*%
%ADD12R,2.446000X1.346000*%
%ADD13R,1.246000X1.046000*%
%ADD14R,0.800000X0.900000*%
%ADD15R,0.900000X0.800000*%
%ADD16R,0.800000X0.400000*%
%ADD17R,1.372000X0.512000*%
%ADD18R,1.436000X0.256000*%
%ADD19R,0.512000X1.372000*%
%ADD20R,0.256000X1.436000*%
%ADD21R,0.880000X0.480000*%
%ADD22R,0.940000X0.240000*%
%ADD23R,0.480000X0.880000*%
%ADD24R,0.240000X0.940000*%
%ADD25R,0.320000X0.970000*%


D10*
X47650Y289560D03*
X66650Y289560D03*
X368960Y59690D03*
X387960Y59690D03*
D11*
X365730Y27940D03*
X393730Y27940D03*
D12*
X424180Y57180D03*
X424180Y29180D03*
D13*
X88900Y268630D03*
X88900Y287630D03*
X133350Y269900D03*
X133350Y288900D03*
D10*
X468020Y295910D03*
X487020Y295910D03*
X370180Y295910D03*
X351180Y295910D03*
D14*
X49920Y264160D03*
X66920Y264160D03*
X400440Y295910D03*
X417440Y295910D03*
X329320Y77470D03*
X346320Y77470D03*
X416950Y262890D03*
X433950Y262890D03*
X291220Y53340D03*
X308220Y53340D03*
X260740Y53340D03*
X277740Y53340D03*
D15*
X455930Y39760D03*
X455930Y56760D03*
D16*
X73280Y136460D03*
X73280Y128460D03*
X73280Y120460D03*
X73280Y112460D03*
X89280Y112460D03*
X89280Y120460D03*
X89280Y128460D03*
X89280Y136460D03*
X73280Y174560D03*
X73280Y166560D03*
X73280Y158560D03*
X73280Y150560D03*
X89280Y150560D03*
X89280Y158560D03*
X89280Y166560D03*
X89280Y174560D03*
X73280Y212660D03*
X73280Y204660D03*
X73280Y196660D03*
X73280Y188660D03*
X89280Y188660D03*
X89280Y196660D03*
X89280Y204660D03*
X89280Y212660D03*
D17*
X140980Y236860D03*
D18*
X140980Y230260D03*
X140980Y225260D03*
X140980Y220260D03*
X140980Y215260D03*
X140980Y210260D03*
X140980Y205260D03*
X140980Y200260D03*
X140980Y195260D03*
X140980Y190260D03*
X140980Y185260D03*
X140980Y180260D03*
X140980Y175260D03*
X140980Y170260D03*
X140980Y165260D03*
X140980Y160260D03*
X140980Y155260D03*
X140980Y150260D03*
X140980Y145260D03*
X140980Y140260D03*
X140980Y135260D03*
X140980Y130260D03*
X140980Y125260D03*
X140980Y120260D03*
D17*
X140980Y113660D03*
D19*
X159380Y95260D03*
D20*
X165980Y95260D03*
X170980Y95260D03*
X175980Y95260D03*
X180980Y95260D03*
X185980Y95260D03*
X190980Y95260D03*
X195980Y95260D03*
X200980Y95260D03*
X205980Y95260D03*
X210980Y95260D03*
X215980Y95260D03*
X220980Y95260D03*
X225980Y95260D03*
X230980Y95260D03*
X235980Y95260D03*
X240980Y95260D03*
X245980Y95260D03*
X250980Y95260D03*
X255980Y95260D03*
X260980Y95260D03*
X265980Y95260D03*
X270980Y95260D03*
X275980Y95260D03*
D19*
X282580Y95260D03*
D17*
X300980Y113660D03*
D18*
X300980Y120260D03*
X300980Y125260D03*
X300980Y130260D03*
X300980Y135260D03*
X300980Y140260D03*
X300980Y145260D03*
X300980Y150260D03*
X300980Y155260D03*
X300980Y160260D03*
X300980Y165260D03*
X300980Y170260D03*
X300980Y175260D03*
X300980Y180260D03*
X300980Y185260D03*
X300980Y190260D03*
X300980Y195260D03*
X300980Y200260D03*
X300980Y205260D03*
X300980Y210260D03*
X300980Y215260D03*
X300980Y220260D03*
X300980Y225260D03*
X300980Y230260D03*
D17*
X300980Y236860D03*
D19*
X282580Y255260D03*
D20*
X275980Y255260D03*
X270980Y255260D03*
X265980Y255260D03*
X260980Y255260D03*
X255980Y255260D03*
X250980Y255260D03*
X245980Y255260D03*
X240980Y255260D03*
X235980Y255260D03*
X230980Y255260D03*
X225980Y255260D03*
X220980Y255260D03*
X215980Y255260D03*
X210980Y255260D03*
X205980Y255260D03*
X200980Y255260D03*
X195980Y255260D03*
X190980Y255260D03*
X185980Y255260D03*
X180980Y255260D03*
X175980Y255260D03*
X170980Y255260D03*
X165980Y255260D03*
D19*
X159380Y255260D03*
D21*
X337230Y231760D03*
D22*
X337230Y225260D03*
X337230Y220260D03*
X337230Y215260D03*
X337230Y210260D03*
X337230Y205260D03*
X337230Y200260D03*
X337230Y195260D03*
X337230Y190260D03*
X337230Y185260D03*
X337230Y180260D03*
D21*
X337230Y173760D03*
D23*
X350730Y160260D03*
D24*
X357230Y160260D03*
X362230Y160260D03*
X367230Y160260D03*
X372230Y160260D03*
X377230Y160260D03*
X382230Y160260D03*
X387230Y160260D03*
X392230Y160260D03*
X397230Y160260D03*
X402230Y160260D03*
D23*
X408730Y160260D03*
D21*
X422230Y173760D03*
D22*
X422230Y180260D03*
X422230Y185260D03*
X422230Y190260D03*
X422230Y195260D03*
X422230Y200260D03*
X422230Y205260D03*
X422230Y210260D03*
X422230Y215260D03*
X422230Y220260D03*
X422230Y225260D03*
D21*
X422230Y231760D03*
D23*
X408730Y245260D03*
D24*
X402230Y245260D03*
X397230Y245260D03*
X392230Y245260D03*
X387230Y245260D03*
X382230Y245260D03*
X377230Y245260D03*
X372230Y245260D03*
X367230Y245260D03*
X362230Y245260D03*
X357230Y245260D03*
D23*
X350730Y245260D03*
D25*
X328780Y39010D03*
X335280Y39010D03*
X341780Y39010D03*
X341780Y57510D03*
X335280Y57510D03*
X328780Y57510D03*
M02*
