G04 #@! TF.GenerationSoftware,KiCad,Pcbnew,(6.0.4)*
G04 #@! TF.CreationDate,2022-07-13T22:26:53+02:00*
G04 #@! TF.ProjectId,n64rgbv2.1,6e363472-6762-4763-922e-312e6b696361,rev?*
G04 #@! TF.SameCoordinates,Original*
G04 #@! TF.FileFunction,Paste,Top*
G04 #@! TF.FilePolarity,Positive*
%FSLAX46Y46*%
G04 Gerber Fmt 4.6, Leading zero omitted, Abs format (unit mm)*
G04 Created by KiCad (PCBNEW (6.0.4)) date 2022-07-13 22:26:53*
%MOMM*%
%LPD*%
G01*
G04 APERTURE LIST*
G04 Aperture macros list*
%AMRoundRect*
0 Rectangle with rounded corners*
0 $1 Rounding radius*
0 $2 $3 $4 $5 $6 $7 $8 $9 X,Y pos of 4 corners*
0 Add a 4 corners polygon primitive as box body*
4,1,4,$2,$3,$4,$5,$6,$7,$8,$9,$2,$3,0*
0 Add four circle primitives for the rounded corners*
1,1,$1+$1,$2,$3*
1,1,$1+$1,$4,$5*
1,1,$1+$1,$6,$7*
1,1,$1+$1,$8,$9*
0 Add four rect primitives between the rounded corners*
20,1,$1+$1,$2,$3,$4,$5,0*
20,1,$1+$1,$4,$5,$6,$7,0*
20,1,$1+$1,$6,$7,$8,$9,0*
20,1,$1+$1,$8,$9,$2,$3,0*%
G04 Aperture macros list end*
%ADD10RoundRect,0.135000X0.325000X0.425000X-0.325000X0.425000X-0.325000X-0.425000X0.325000X-0.425000X0*%
%ADD11RoundRect,0.132500X-0.247500X0.287500X-0.247500X-0.287500X0.247500X-0.287500X0.247500X0.287500X0*%
%ADD12RoundRect,0.132500X0.287500X0.247500X-0.287500X0.247500X-0.287500X-0.247500X0.287500X-0.247500X0*%
%ADD13RoundRect,0.132500X-0.287500X-0.247500X0.287500X-0.247500X0.287500X0.247500X-0.287500X0.247500X0*%
%ADD14R,0.640000X0.400000*%
%ADD15R,0.640000X0.320000*%
%ADD16RoundRect,0.132500X0.247500X-0.287500X0.247500X0.287500X-0.247500X0.287500X-0.247500X-0.287500X0*%
%ADD17RoundRect,0.000000X-0.586899X0.247487X0.247487X-0.586899X0.586899X-0.247487X-0.247487X0.586899X0*%
%ADD18RoundRect,0.000000X-0.502046X0.332340X0.332340X-0.502046X0.502046X-0.332340X-0.332340X0.502046X0*%
%ADD19RoundRect,0.000000X0.502046X-0.332340X-0.332340X0.502046X-0.502046X0.332340X0.332340X-0.502046X0*%
%ADD20RoundRect,0.000000X-0.247487X-0.586899X0.586899X0.247487X0.247487X0.586899X-0.586899X-0.247487X0*%
%ADD21RoundRect,0.000000X0.332340X0.502046X-0.502046X-0.332340X-0.332340X-0.502046X0.502046X0.332340X0*%
%ADD22RoundRect,0.000000X-0.332340X-0.502046X0.502046X0.332340X0.332340X0.502046X-0.502046X-0.332340X0*%
%ADD23RoundRect,0.000000X0.247487X0.586899X-0.586899X-0.247487X-0.247487X-0.586899X0.586899X0.247487X0*%
%ADD24RoundRect,0.135000X-0.325000X-0.425000X0.325000X-0.425000X0.325000X0.425000X-0.325000X0.425000X0*%
%ADD25R,0.320000X0.840000*%
%ADD26RoundRect,0.000000X-0.590000X-0.240000X0.590000X-0.240000X0.590000X0.240000X-0.590000X0.240000X0*%
%ADD27RoundRect,0.000000X-0.590000X-0.120000X0.590000X-0.120000X0.590000X0.120000X-0.590000X0.120000X0*%
%ADD28RoundRect,0.000000X0.240000X-0.590000X0.240000X0.590000X-0.240000X0.590000X-0.240000X-0.590000X0*%
%ADD29RoundRect,0.000000X0.120000X-0.590000X0.120000X0.590000X-0.120000X0.590000X-0.120000X-0.590000X0*%
%ADD30RoundRect,0.000000X-0.240000X0.590000X-0.240000X-0.590000X0.240000X-0.590000X0.240000X0.590000X0*%
%ADD31R,0.800000X2.520000*%
G04 APERTURE END LIST*
D10*
X170176060Y-116733320D03*
X168126060Y-116733320D03*
D11*
X164655500Y-96153000D03*
X164655500Y-97903000D03*
X166243000Y-96153000D03*
X166243000Y-97903000D03*
D12*
X120636000Y-89916000D03*
X118886000Y-89916000D03*
D13*
X168263600Y-114086640D03*
X170013600Y-114086640D03*
D14*
X123168000Y-102208480D03*
D15*
X123168000Y-103008480D03*
X123168000Y-103808480D03*
D14*
X123168000Y-104608480D03*
X124968000Y-104608480D03*
D15*
X124968000Y-103808480D03*
X124968000Y-103008480D03*
D14*
X124968000Y-102208480D03*
X123168000Y-97890480D03*
D15*
X123168000Y-98690480D03*
X123168000Y-99490480D03*
D14*
X123168000Y-100290480D03*
X124968000Y-100290480D03*
D15*
X124968000Y-99490480D03*
X124968000Y-98690480D03*
D14*
X124968000Y-97890480D03*
D13*
X145937000Y-91864180D03*
X147687000Y-91864180D03*
X149493000Y-91864180D03*
X151243000Y-91864180D03*
D16*
X167894000Y-97903000D03*
X167894000Y-96153000D03*
D14*
X166486000Y-102940000D03*
D15*
X166486000Y-103740000D03*
X166486000Y-104540000D03*
D14*
X166486000Y-105340000D03*
X168286000Y-105340000D03*
D15*
X168286000Y-104540000D03*
X168286000Y-103740000D03*
D14*
X168286000Y-102940000D03*
X123168000Y-106526480D03*
D15*
X123168000Y-107326480D03*
X123168000Y-108126480D03*
D14*
X123168000Y-108926480D03*
X124968000Y-108926480D03*
D15*
X124968000Y-108126480D03*
X124968000Y-107326480D03*
D14*
X124968000Y-106526480D03*
D17*
X139646501Y-93133568D03*
D18*
X139186882Y-93593187D03*
X138833328Y-93946740D03*
X138479775Y-94300294D03*
D19*
X138126221Y-94653847D03*
D18*
X137772668Y-95007401D03*
X137419115Y-95360954D03*
X137065561Y-95714507D03*
X136712008Y-96068061D03*
X136358454Y-96421614D03*
X136004901Y-96775168D03*
X135651348Y-97128721D03*
X135297794Y-97482274D03*
X134944241Y-97835828D03*
X134590688Y-98189381D03*
X134237134Y-98542934D03*
X133883581Y-98896488D03*
X133530027Y-99250041D03*
X133176474Y-99603595D03*
X132822921Y-99957148D03*
X132469367Y-100310701D03*
X132115814Y-100664255D03*
X131762260Y-101017808D03*
X131408707Y-101371362D03*
D17*
X130949088Y-101830981D03*
D20*
X130949088Y-103969979D03*
D21*
X131408707Y-104429598D03*
D22*
X131762260Y-104783152D03*
X132115814Y-105136705D03*
X132469367Y-105490259D03*
X132822921Y-105843812D03*
X133176474Y-106197365D03*
X133530027Y-106550919D03*
X133883581Y-106904472D03*
X134237134Y-107258026D03*
X134590688Y-107611579D03*
X134944241Y-107965132D03*
X135297794Y-108318686D03*
X135651348Y-108672239D03*
X136004901Y-109025792D03*
X136358454Y-109379346D03*
X136712008Y-109732899D03*
X137065561Y-110086453D03*
X137419115Y-110440006D03*
X137772668Y-110793559D03*
X138126221Y-111147113D03*
X138479775Y-111500666D03*
X138833328Y-111854220D03*
X139186882Y-112207773D03*
D23*
X139646501Y-112667392D03*
D17*
X141785499Y-112667392D03*
D18*
X142245118Y-112207773D03*
X142598672Y-111854220D03*
X142952225Y-111500666D03*
X143305779Y-111147113D03*
X143659332Y-110793559D03*
X144012885Y-110440006D03*
X144366439Y-110086453D03*
X144719992Y-109732899D03*
X145073546Y-109379346D03*
X145427099Y-109025792D03*
X145780652Y-108672239D03*
X146134206Y-108318686D03*
X146487759Y-107965132D03*
X146841312Y-107611579D03*
X147194866Y-107258026D03*
X147548419Y-106904472D03*
X147901973Y-106550919D03*
X148255526Y-106197365D03*
X148609079Y-105843812D03*
X148962633Y-105490259D03*
X149316186Y-105136705D03*
X149669740Y-104783152D03*
X150023293Y-104429598D03*
D17*
X150482912Y-103969979D03*
D20*
X150482912Y-101830981D03*
D22*
X150023293Y-101371362D03*
X149669740Y-101017808D03*
X149316186Y-100664255D03*
D21*
X148962633Y-100310701D03*
D22*
X148609079Y-99957148D03*
X148255526Y-99603595D03*
X147901973Y-99250041D03*
X147548419Y-98896488D03*
X147194866Y-98542934D03*
X146841312Y-98189381D03*
X146487759Y-97835828D03*
X146134206Y-97482274D03*
X145780652Y-97128721D03*
X145427099Y-96775168D03*
X145073546Y-96421614D03*
X144719992Y-96068061D03*
X144366439Y-95714507D03*
X144012885Y-95360954D03*
X143659332Y-95007401D03*
X143305779Y-94653847D03*
X142952225Y-94300294D03*
X142598672Y-93946740D03*
X142245118Y-93593187D03*
D20*
X141785499Y-93133568D03*
D12*
X163943000Y-93223080D03*
X162193000Y-93223080D03*
X139101800Y-89966800D03*
X137351800Y-89966800D03*
D24*
X157471000Y-92994480D03*
X159521000Y-92994480D03*
X157471000Y-90962480D03*
X159521000Y-90962480D03*
D12*
X163943000Y-89197180D03*
X162193000Y-89197180D03*
D25*
X153782000Y-92898000D03*
X154432000Y-92898000D03*
X155082000Y-92898000D03*
X155082000Y-90998000D03*
X154432000Y-90998000D03*
X153782000Y-90998000D03*
D10*
X117103000Y-89916000D03*
X115053000Y-89916000D03*
D12*
X158355000Y-118516400D03*
X156605000Y-118516400D03*
D13*
X149493000Y-89857580D03*
X151243000Y-89857580D03*
D26*
X155578100Y-101529560D03*
D27*
X155578100Y-102179560D03*
X155578100Y-102679560D03*
X155578100Y-103179560D03*
X155578100Y-103679560D03*
X155578100Y-104179560D03*
X155578100Y-104679560D03*
X155578100Y-105179560D03*
X155578100Y-105679560D03*
X155578100Y-106179560D03*
X155578100Y-106679560D03*
D26*
X155578100Y-107329560D03*
D28*
X156840600Y-108592060D03*
D29*
X157490600Y-108592060D03*
X157990600Y-108592060D03*
X158490600Y-108592060D03*
X158990600Y-108592060D03*
X159490600Y-108592060D03*
X159990600Y-108592060D03*
X160490600Y-108592060D03*
X160990600Y-108592060D03*
X161490600Y-108592060D03*
X161990600Y-108592060D03*
D30*
X162640600Y-108592060D03*
D26*
X163903100Y-107329560D03*
D27*
X163903100Y-106679560D03*
X163903100Y-106179560D03*
X163903100Y-105679560D03*
X163903100Y-105179560D03*
X163903100Y-104679560D03*
X163903100Y-104179560D03*
X163903100Y-103679560D03*
X163903100Y-103179560D03*
X163903100Y-102679560D03*
X163903100Y-102179560D03*
D26*
X163903100Y-101529560D03*
D28*
X162640600Y-100267060D03*
D29*
X161990600Y-100267060D03*
X161490600Y-100267060D03*
X160990600Y-100267060D03*
X160490600Y-100267060D03*
X159990600Y-100267060D03*
X159490600Y-100267060D03*
X158990600Y-100267060D03*
X158490600Y-100267060D03*
X157990600Y-100267060D03*
X157490600Y-100267060D03*
D28*
X156840600Y-100267060D03*
D16*
X163004500Y-97903000D03*
X163004500Y-96153000D03*
D11*
X161417000Y-96153000D03*
X161417000Y-97903000D03*
D31*
X123185000Y-119104000D03*
X123185000Y-114054000D03*
X125725000Y-119104000D03*
X125725000Y-114054000D03*
X128265000Y-119104000D03*
X128265000Y-114054000D03*
X130805000Y-119104000D03*
X130805000Y-114054000D03*
X133345000Y-119104000D03*
X133345000Y-114054000D03*
M02*
