G04 #@! TF.GenerationSoftware,KiCad,Pcbnew,(5.1.5)-3*
G04 #@! TF.CreationDate,2020-08-09T17:15:23+02:00*
G04 #@! TF.ProjectId,n64rgbv2.1,6e363472-6762-4763-922e-312e6b696361,rev?*
G04 #@! TF.SameCoordinates,Original*
G04 #@! TF.FileFunction,Soldermask,Bot*
G04 #@! TF.FilePolarity,Negative*
%FSLAX46Y46*%
G04 Gerber Fmt 4.6, Leading zero omitted, Abs format (unit mm)*
G04 Created by KiCad (PCBNEW (5.1.5)-3) date 2020-08-09 17:15:23*
%MOMM*%
%LPD*%
G04 APERTURE LIST*
%ADD10C,3.000000*%
%ADD11C,0.100000*%
%ADD12R,1.662000X0.752000*%
%ADD13O,1.802000X1.802000*%
%ADD14R,1.802000X1.802000*%
G04 APERTURE END LIST*
D10*
X150943440Y-117475000D02*
G75*
G03X150943440Y-117475000I-1500000J0D01*
G01*
D11*
G36*
X123191205Y-100824494D02*
G01*
X123221317Y-100828960D01*
X123250846Y-100836357D01*
X123279508Y-100846613D01*
X123307027Y-100859628D01*
X123333138Y-100875278D01*
X123357589Y-100893412D01*
X123380145Y-100913855D01*
X123400588Y-100936411D01*
X123418722Y-100960862D01*
X123434372Y-100986973D01*
X123447387Y-101014492D01*
X123457643Y-101043154D01*
X123465040Y-101072683D01*
X123469506Y-101102795D01*
X123471000Y-101133200D01*
X123471000Y-105114800D01*
X123469506Y-105145205D01*
X123465040Y-105175317D01*
X123457643Y-105204846D01*
X123447387Y-105233508D01*
X123434372Y-105261027D01*
X123418722Y-105287138D01*
X123400588Y-105311589D01*
X123380145Y-105334145D01*
X123357589Y-105354588D01*
X123333138Y-105372722D01*
X123307027Y-105388372D01*
X123279508Y-105401387D01*
X123250846Y-105411643D01*
X123221317Y-105419040D01*
X123191205Y-105423506D01*
X123160800Y-105425000D01*
X120679200Y-105425000D01*
X120648795Y-105423506D01*
X120618683Y-105419040D01*
X120589154Y-105411643D01*
X120560492Y-105401387D01*
X120532973Y-105388372D01*
X120506862Y-105372722D01*
X120482411Y-105354588D01*
X120459855Y-105334145D01*
X120439412Y-105311589D01*
X120421278Y-105287138D01*
X120405628Y-105261027D01*
X120392613Y-105233508D01*
X120382357Y-105204846D01*
X120374960Y-105175317D01*
X120370494Y-105145205D01*
X120369000Y-105114800D01*
X120369000Y-101133200D01*
X120370494Y-101102795D01*
X120374960Y-101072683D01*
X120382357Y-101043154D01*
X120392613Y-101014492D01*
X120405628Y-100986973D01*
X120421278Y-100960862D01*
X120439412Y-100936411D01*
X120459855Y-100913855D01*
X120482411Y-100893412D01*
X120506862Y-100875278D01*
X120532973Y-100859628D01*
X120560492Y-100846613D01*
X120589154Y-100836357D01*
X120618683Y-100828960D01*
X120648795Y-100824494D01*
X120679200Y-100823000D01*
X123160800Y-100823000D01*
X123191205Y-100824494D01*
G37*
D12*
X161563240Y-116464040D03*
X161563240Y-118364040D03*
X164263240Y-118364040D03*
X164263240Y-117414040D03*
X164263240Y-116464040D03*
X129530920Y-91643280D03*
X129530920Y-89743280D03*
X126830920Y-89743280D03*
X126830920Y-90693280D03*
X126830920Y-91643280D03*
D11*
G36*
X129483779Y-111743266D02*
G01*
X129509309Y-111747053D01*
X129534345Y-111753325D01*
X129558646Y-111762020D01*
X129581977Y-111773055D01*
X129604115Y-111786323D01*
X129624845Y-111801698D01*
X129643969Y-111819031D01*
X129661302Y-111838155D01*
X129676677Y-111858885D01*
X129689945Y-111881023D01*
X129700980Y-111904354D01*
X129709675Y-111928655D01*
X129715947Y-111953691D01*
X129719734Y-111979221D01*
X129721000Y-112005000D01*
X129721000Y-112531000D01*
X129719734Y-112556779D01*
X129715947Y-112582309D01*
X129709675Y-112607345D01*
X129700980Y-112631646D01*
X129689945Y-112654977D01*
X129676677Y-112677115D01*
X129661302Y-112697845D01*
X129643969Y-112716969D01*
X129624845Y-112734302D01*
X129604115Y-112749677D01*
X129581977Y-112762945D01*
X129558646Y-112773980D01*
X129534345Y-112782675D01*
X129509309Y-112788947D01*
X129483779Y-112792734D01*
X129458000Y-112794000D01*
X128832000Y-112794000D01*
X128806221Y-112792734D01*
X128780691Y-112788947D01*
X128755655Y-112782675D01*
X128731354Y-112773980D01*
X128708023Y-112762945D01*
X128685885Y-112749677D01*
X128665155Y-112734302D01*
X128646031Y-112716969D01*
X128628698Y-112697845D01*
X128613323Y-112677115D01*
X128600055Y-112654977D01*
X128589020Y-112631646D01*
X128580325Y-112607345D01*
X128574053Y-112582309D01*
X128570266Y-112556779D01*
X128569000Y-112531000D01*
X128569000Y-112005000D01*
X128570266Y-111979221D01*
X128574053Y-111953691D01*
X128580325Y-111928655D01*
X128589020Y-111904354D01*
X128600055Y-111881023D01*
X128613323Y-111858885D01*
X128628698Y-111838155D01*
X128646031Y-111819031D01*
X128665155Y-111801698D01*
X128685885Y-111786323D01*
X128708023Y-111773055D01*
X128731354Y-111762020D01*
X128755655Y-111753325D01*
X128780691Y-111747053D01*
X128806221Y-111743266D01*
X128832000Y-111742000D01*
X129458000Y-111742000D01*
X129483779Y-111743266D01*
G37*
G36*
X127733779Y-111743266D02*
G01*
X127759309Y-111747053D01*
X127784345Y-111753325D01*
X127808646Y-111762020D01*
X127831977Y-111773055D01*
X127854115Y-111786323D01*
X127874845Y-111801698D01*
X127893969Y-111819031D01*
X127911302Y-111838155D01*
X127926677Y-111858885D01*
X127939945Y-111881023D01*
X127950980Y-111904354D01*
X127959675Y-111928655D01*
X127965947Y-111953691D01*
X127969734Y-111979221D01*
X127971000Y-112005000D01*
X127971000Y-112531000D01*
X127969734Y-112556779D01*
X127965947Y-112582309D01*
X127959675Y-112607345D01*
X127950980Y-112631646D01*
X127939945Y-112654977D01*
X127926677Y-112677115D01*
X127911302Y-112697845D01*
X127893969Y-112716969D01*
X127874845Y-112734302D01*
X127854115Y-112749677D01*
X127831977Y-112762945D01*
X127808646Y-112773980D01*
X127784345Y-112782675D01*
X127759309Y-112788947D01*
X127733779Y-112792734D01*
X127708000Y-112794000D01*
X127082000Y-112794000D01*
X127056221Y-112792734D01*
X127030691Y-112788947D01*
X127005655Y-112782675D01*
X126981354Y-112773980D01*
X126958023Y-112762945D01*
X126935885Y-112749677D01*
X126915155Y-112734302D01*
X126896031Y-112716969D01*
X126878698Y-112697845D01*
X126863323Y-112677115D01*
X126850055Y-112654977D01*
X126839020Y-112631646D01*
X126830325Y-112607345D01*
X126824053Y-112582309D01*
X126820266Y-112556779D01*
X126819000Y-112531000D01*
X126819000Y-112005000D01*
X126820266Y-111979221D01*
X126824053Y-111953691D01*
X126830325Y-111928655D01*
X126839020Y-111904354D01*
X126850055Y-111881023D01*
X126863323Y-111858885D01*
X126878698Y-111838155D01*
X126896031Y-111819031D01*
X126915155Y-111801698D01*
X126935885Y-111786323D01*
X126958023Y-111773055D01*
X126981354Y-111762020D01*
X127005655Y-111753325D01*
X127030691Y-111747053D01*
X127056221Y-111743266D01*
X127082000Y-111742000D01*
X127708000Y-111742000D01*
X127733779Y-111743266D01*
G37*
G36*
X129483779Y-113267266D02*
G01*
X129509309Y-113271053D01*
X129534345Y-113277325D01*
X129558646Y-113286020D01*
X129581977Y-113297055D01*
X129604115Y-113310323D01*
X129624845Y-113325698D01*
X129643969Y-113343031D01*
X129661302Y-113362155D01*
X129676677Y-113382885D01*
X129689945Y-113405023D01*
X129700980Y-113428354D01*
X129709675Y-113452655D01*
X129715947Y-113477691D01*
X129719734Y-113503221D01*
X129721000Y-113529000D01*
X129721000Y-114055000D01*
X129719734Y-114080779D01*
X129715947Y-114106309D01*
X129709675Y-114131345D01*
X129700980Y-114155646D01*
X129689945Y-114178977D01*
X129676677Y-114201115D01*
X129661302Y-114221845D01*
X129643969Y-114240969D01*
X129624845Y-114258302D01*
X129604115Y-114273677D01*
X129581977Y-114286945D01*
X129558646Y-114297980D01*
X129534345Y-114306675D01*
X129509309Y-114312947D01*
X129483779Y-114316734D01*
X129458000Y-114318000D01*
X128832000Y-114318000D01*
X128806221Y-114316734D01*
X128780691Y-114312947D01*
X128755655Y-114306675D01*
X128731354Y-114297980D01*
X128708023Y-114286945D01*
X128685885Y-114273677D01*
X128665155Y-114258302D01*
X128646031Y-114240969D01*
X128628698Y-114221845D01*
X128613323Y-114201115D01*
X128600055Y-114178977D01*
X128589020Y-114155646D01*
X128580325Y-114131345D01*
X128574053Y-114106309D01*
X128570266Y-114080779D01*
X128569000Y-114055000D01*
X128569000Y-113529000D01*
X128570266Y-113503221D01*
X128574053Y-113477691D01*
X128580325Y-113452655D01*
X128589020Y-113428354D01*
X128600055Y-113405023D01*
X128613323Y-113382885D01*
X128628698Y-113362155D01*
X128646031Y-113343031D01*
X128665155Y-113325698D01*
X128685885Y-113310323D01*
X128708023Y-113297055D01*
X128731354Y-113286020D01*
X128755655Y-113277325D01*
X128780691Y-113271053D01*
X128806221Y-113267266D01*
X128832000Y-113266000D01*
X129458000Y-113266000D01*
X129483779Y-113267266D01*
G37*
G36*
X127733779Y-113267266D02*
G01*
X127759309Y-113271053D01*
X127784345Y-113277325D01*
X127808646Y-113286020D01*
X127831977Y-113297055D01*
X127854115Y-113310323D01*
X127874845Y-113325698D01*
X127893969Y-113343031D01*
X127911302Y-113362155D01*
X127926677Y-113382885D01*
X127939945Y-113405023D01*
X127950980Y-113428354D01*
X127959675Y-113452655D01*
X127965947Y-113477691D01*
X127969734Y-113503221D01*
X127971000Y-113529000D01*
X127971000Y-114055000D01*
X127969734Y-114080779D01*
X127965947Y-114106309D01*
X127959675Y-114131345D01*
X127950980Y-114155646D01*
X127939945Y-114178977D01*
X127926677Y-114201115D01*
X127911302Y-114221845D01*
X127893969Y-114240969D01*
X127874845Y-114258302D01*
X127854115Y-114273677D01*
X127831977Y-114286945D01*
X127808646Y-114297980D01*
X127784345Y-114306675D01*
X127759309Y-114312947D01*
X127733779Y-114316734D01*
X127708000Y-114318000D01*
X127082000Y-114318000D01*
X127056221Y-114316734D01*
X127030691Y-114312947D01*
X127005655Y-114306675D01*
X126981354Y-114297980D01*
X126958023Y-114286945D01*
X126935885Y-114273677D01*
X126915155Y-114258302D01*
X126896031Y-114240969D01*
X126878698Y-114221845D01*
X126863323Y-114201115D01*
X126850055Y-114178977D01*
X126839020Y-114155646D01*
X126830325Y-114131345D01*
X126824053Y-114106309D01*
X126820266Y-114080779D01*
X126819000Y-114055000D01*
X126819000Y-113529000D01*
X126820266Y-113503221D01*
X126824053Y-113477691D01*
X126830325Y-113452655D01*
X126839020Y-113428354D01*
X126850055Y-113405023D01*
X126863323Y-113382885D01*
X126878698Y-113362155D01*
X126896031Y-113343031D01*
X126915155Y-113325698D01*
X126935885Y-113310323D01*
X126958023Y-113297055D01*
X126981354Y-113286020D01*
X127005655Y-113277325D01*
X127030691Y-113271053D01*
X127056221Y-113267266D01*
X127082000Y-113266000D01*
X127708000Y-113266000D01*
X127733779Y-113267266D01*
G37*
G36*
X120974779Y-118474266D02*
G01*
X121000309Y-118478053D01*
X121025345Y-118484325D01*
X121049646Y-118493020D01*
X121072977Y-118504055D01*
X121095115Y-118517323D01*
X121115845Y-118532698D01*
X121134969Y-118550031D01*
X121152302Y-118569155D01*
X121167677Y-118589885D01*
X121180945Y-118612023D01*
X121191980Y-118635354D01*
X121200675Y-118659655D01*
X121206947Y-118684691D01*
X121210734Y-118710221D01*
X121212000Y-118736000D01*
X121212000Y-119262000D01*
X121210734Y-119287779D01*
X121206947Y-119313309D01*
X121200675Y-119338345D01*
X121191980Y-119362646D01*
X121180945Y-119385977D01*
X121167677Y-119408115D01*
X121152302Y-119428845D01*
X121134969Y-119447969D01*
X121115845Y-119465302D01*
X121095115Y-119480677D01*
X121072977Y-119493945D01*
X121049646Y-119504980D01*
X121025345Y-119513675D01*
X121000309Y-119519947D01*
X120974779Y-119523734D01*
X120949000Y-119525000D01*
X120323000Y-119525000D01*
X120297221Y-119523734D01*
X120271691Y-119519947D01*
X120246655Y-119513675D01*
X120222354Y-119504980D01*
X120199023Y-119493945D01*
X120176885Y-119480677D01*
X120156155Y-119465302D01*
X120137031Y-119447969D01*
X120119698Y-119428845D01*
X120104323Y-119408115D01*
X120091055Y-119385977D01*
X120080020Y-119362646D01*
X120071325Y-119338345D01*
X120065053Y-119313309D01*
X120061266Y-119287779D01*
X120060000Y-119262000D01*
X120060000Y-118736000D01*
X120061266Y-118710221D01*
X120065053Y-118684691D01*
X120071325Y-118659655D01*
X120080020Y-118635354D01*
X120091055Y-118612023D01*
X120104323Y-118589885D01*
X120119698Y-118569155D01*
X120137031Y-118550031D01*
X120156155Y-118532698D01*
X120176885Y-118517323D01*
X120199023Y-118504055D01*
X120222354Y-118493020D01*
X120246655Y-118484325D01*
X120271691Y-118478053D01*
X120297221Y-118474266D01*
X120323000Y-118473000D01*
X120949000Y-118473000D01*
X120974779Y-118474266D01*
G37*
G36*
X119224779Y-118474266D02*
G01*
X119250309Y-118478053D01*
X119275345Y-118484325D01*
X119299646Y-118493020D01*
X119322977Y-118504055D01*
X119345115Y-118517323D01*
X119365845Y-118532698D01*
X119384969Y-118550031D01*
X119402302Y-118569155D01*
X119417677Y-118589885D01*
X119430945Y-118612023D01*
X119441980Y-118635354D01*
X119450675Y-118659655D01*
X119456947Y-118684691D01*
X119460734Y-118710221D01*
X119462000Y-118736000D01*
X119462000Y-119262000D01*
X119460734Y-119287779D01*
X119456947Y-119313309D01*
X119450675Y-119338345D01*
X119441980Y-119362646D01*
X119430945Y-119385977D01*
X119417677Y-119408115D01*
X119402302Y-119428845D01*
X119384969Y-119447969D01*
X119365845Y-119465302D01*
X119345115Y-119480677D01*
X119322977Y-119493945D01*
X119299646Y-119504980D01*
X119275345Y-119513675D01*
X119250309Y-119519947D01*
X119224779Y-119523734D01*
X119199000Y-119525000D01*
X118573000Y-119525000D01*
X118547221Y-119523734D01*
X118521691Y-119519947D01*
X118496655Y-119513675D01*
X118472354Y-119504980D01*
X118449023Y-119493945D01*
X118426885Y-119480677D01*
X118406155Y-119465302D01*
X118387031Y-119447969D01*
X118369698Y-119428845D01*
X118354323Y-119408115D01*
X118341055Y-119385977D01*
X118330020Y-119362646D01*
X118321325Y-119338345D01*
X118315053Y-119313309D01*
X118311266Y-119287779D01*
X118310000Y-119262000D01*
X118310000Y-118736000D01*
X118311266Y-118710221D01*
X118315053Y-118684691D01*
X118321325Y-118659655D01*
X118330020Y-118635354D01*
X118341055Y-118612023D01*
X118354323Y-118589885D01*
X118369698Y-118569155D01*
X118387031Y-118550031D01*
X118406155Y-118532698D01*
X118426885Y-118517323D01*
X118449023Y-118504055D01*
X118472354Y-118493020D01*
X118496655Y-118484325D01*
X118521691Y-118478053D01*
X118547221Y-118474266D01*
X118573000Y-118473000D01*
X119199000Y-118473000D01*
X119224779Y-118474266D01*
G37*
G36*
X129707199Y-93434946D02*
G01*
X129732729Y-93438733D01*
X129757765Y-93445005D01*
X129782066Y-93453700D01*
X129805397Y-93464735D01*
X129827535Y-93478003D01*
X129848265Y-93493378D01*
X129867389Y-93510711D01*
X129884722Y-93529835D01*
X129900097Y-93550565D01*
X129913365Y-93572703D01*
X129924400Y-93596034D01*
X129933095Y-93620335D01*
X129939367Y-93645371D01*
X129943154Y-93670901D01*
X129944420Y-93696680D01*
X129944420Y-94222680D01*
X129943154Y-94248459D01*
X129939367Y-94273989D01*
X129933095Y-94299025D01*
X129924400Y-94323326D01*
X129913365Y-94346657D01*
X129900097Y-94368795D01*
X129884722Y-94389525D01*
X129867389Y-94408649D01*
X129848265Y-94425982D01*
X129827535Y-94441357D01*
X129805397Y-94454625D01*
X129782066Y-94465660D01*
X129757765Y-94474355D01*
X129732729Y-94480627D01*
X129707199Y-94484414D01*
X129681420Y-94485680D01*
X129055420Y-94485680D01*
X129029641Y-94484414D01*
X129004111Y-94480627D01*
X128979075Y-94474355D01*
X128954774Y-94465660D01*
X128931443Y-94454625D01*
X128909305Y-94441357D01*
X128888575Y-94425982D01*
X128869451Y-94408649D01*
X128852118Y-94389525D01*
X128836743Y-94368795D01*
X128823475Y-94346657D01*
X128812440Y-94323326D01*
X128803745Y-94299025D01*
X128797473Y-94273989D01*
X128793686Y-94248459D01*
X128792420Y-94222680D01*
X128792420Y-93696680D01*
X128793686Y-93670901D01*
X128797473Y-93645371D01*
X128803745Y-93620335D01*
X128812440Y-93596034D01*
X128823475Y-93572703D01*
X128836743Y-93550565D01*
X128852118Y-93529835D01*
X128869451Y-93510711D01*
X128888575Y-93493378D01*
X128909305Y-93478003D01*
X128931443Y-93464735D01*
X128954774Y-93453700D01*
X128979075Y-93445005D01*
X129004111Y-93438733D01*
X129029641Y-93434946D01*
X129055420Y-93433680D01*
X129681420Y-93433680D01*
X129707199Y-93434946D01*
G37*
G36*
X127957199Y-93434946D02*
G01*
X127982729Y-93438733D01*
X128007765Y-93445005D01*
X128032066Y-93453700D01*
X128055397Y-93464735D01*
X128077535Y-93478003D01*
X128098265Y-93493378D01*
X128117389Y-93510711D01*
X128134722Y-93529835D01*
X128150097Y-93550565D01*
X128163365Y-93572703D01*
X128174400Y-93596034D01*
X128183095Y-93620335D01*
X128189367Y-93645371D01*
X128193154Y-93670901D01*
X128194420Y-93696680D01*
X128194420Y-94222680D01*
X128193154Y-94248459D01*
X128189367Y-94273989D01*
X128183095Y-94299025D01*
X128174400Y-94323326D01*
X128163365Y-94346657D01*
X128150097Y-94368795D01*
X128134722Y-94389525D01*
X128117389Y-94408649D01*
X128098265Y-94425982D01*
X128077535Y-94441357D01*
X128055397Y-94454625D01*
X128032066Y-94465660D01*
X128007765Y-94474355D01*
X127982729Y-94480627D01*
X127957199Y-94484414D01*
X127931420Y-94485680D01*
X127305420Y-94485680D01*
X127279641Y-94484414D01*
X127254111Y-94480627D01*
X127229075Y-94474355D01*
X127204774Y-94465660D01*
X127181443Y-94454625D01*
X127159305Y-94441357D01*
X127138575Y-94425982D01*
X127119451Y-94408649D01*
X127102118Y-94389525D01*
X127086743Y-94368795D01*
X127073475Y-94346657D01*
X127062440Y-94323326D01*
X127053745Y-94299025D01*
X127047473Y-94273989D01*
X127043686Y-94248459D01*
X127042420Y-94222680D01*
X127042420Y-93696680D01*
X127043686Y-93670901D01*
X127047473Y-93645371D01*
X127053745Y-93620335D01*
X127062440Y-93596034D01*
X127073475Y-93572703D01*
X127086743Y-93550565D01*
X127102118Y-93529835D01*
X127119451Y-93510711D01*
X127138575Y-93493378D01*
X127159305Y-93478003D01*
X127181443Y-93464735D01*
X127204774Y-93453700D01*
X127229075Y-93445005D01*
X127254111Y-93438733D01*
X127279641Y-93434946D01*
X127305420Y-93433680D01*
X127931420Y-93433680D01*
X127957199Y-93434946D01*
G37*
G36*
X159800779Y-117714306D02*
G01*
X159826309Y-117718093D01*
X159851345Y-117724365D01*
X159875646Y-117733060D01*
X159898977Y-117744095D01*
X159921115Y-117757363D01*
X159941845Y-117772738D01*
X159960969Y-117790071D01*
X159978302Y-117809195D01*
X159993677Y-117829925D01*
X160006945Y-117852063D01*
X160017980Y-117875394D01*
X160026675Y-117899695D01*
X160032947Y-117924731D01*
X160036734Y-117950261D01*
X160038000Y-117976040D01*
X160038000Y-118602040D01*
X160036734Y-118627819D01*
X160032947Y-118653349D01*
X160026675Y-118678385D01*
X160017980Y-118702686D01*
X160006945Y-118726017D01*
X159993677Y-118748155D01*
X159978302Y-118768885D01*
X159960969Y-118788009D01*
X159941845Y-118805342D01*
X159921115Y-118820717D01*
X159898977Y-118833985D01*
X159875646Y-118845020D01*
X159851345Y-118853715D01*
X159826309Y-118859987D01*
X159800779Y-118863774D01*
X159775000Y-118865040D01*
X159249000Y-118865040D01*
X159223221Y-118863774D01*
X159197691Y-118859987D01*
X159172655Y-118853715D01*
X159148354Y-118845020D01*
X159125023Y-118833985D01*
X159102885Y-118820717D01*
X159082155Y-118805342D01*
X159063031Y-118788009D01*
X159045698Y-118768885D01*
X159030323Y-118748155D01*
X159017055Y-118726017D01*
X159006020Y-118702686D01*
X158997325Y-118678385D01*
X158991053Y-118653349D01*
X158987266Y-118627819D01*
X158986000Y-118602040D01*
X158986000Y-117976040D01*
X158987266Y-117950261D01*
X158991053Y-117924731D01*
X158997325Y-117899695D01*
X159006020Y-117875394D01*
X159017055Y-117852063D01*
X159030323Y-117829925D01*
X159045698Y-117809195D01*
X159063031Y-117790071D01*
X159082155Y-117772738D01*
X159102885Y-117757363D01*
X159125023Y-117744095D01*
X159148354Y-117733060D01*
X159172655Y-117724365D01*
X159197691Y-117718093D01*
X159223221Y-117714306D01*
X159249000Y-117713040D01*
X159775000Y-117713040D01*
X159800779Y-117714306D01*
G37*
G36*
X159800779Y-115964306D02*
G01*
X159826309Y-115968093D01*
X159851345Y-115974365D01*
X159875646Y-115983060D01*
X159898977Y-115994095D01*
X159921115Y-116007363D01*
X159941845Y-116022738D01*
X159960969Y-116040071D01*
X159978302Y-116059195D01*
X159993677Y-116079925D01*
X160006945Y-116102063D01*
X160017980Y-116125394D01*
X160026675Y-116149695D01*
X160032947Y-116174731D01*
X160036734Y-116200261D01*
X160038000Y-116226040D01*
X160038000Y-116852040D01*
X160036734Y-116877819D01*
X160032947Y-116903349D01*
X160026675Y-116928385D01*
X160017980Y-116952686D01*
X160006945Y-116976017D01*
X159993677Y-116998155D01*
X159978302Y-117018885D01*
X159960969Y-117038009D01*
X159941845Y-117055342D01*
X159921115Y-117070717D01*
X159898977Y-117083985D01*
X159875646Y-117095020D01*
X159851345Y-117103715D01*
X159826309Y-117109987D01*
X159800779Y-117113774D01*
X159775000Y-117115040D01*
X159249000Y-117115040D01*
X159223221Y-117113774D01*
X159197691Y-117109987D01*
X159172655Y-117103715D01*
X159148354Y-117095020D01*
X159125023Y-117083985D01*
X159102885Y-117070717D01*
X159082155Y-117055342D01*
X159063031Y-117038009D01*
X159045698Y-117018885D01*
X159030323Y-116998155D01*
X159017055Y-116976017D01*
X159006020Y-116952686D01*
X158997325Y-116928385D01*
X158991053Y-116903349D01*
X158987266Y-116877819D01*
X158986000Y-116852040D01*
X158986000Y-116226040D01*
X158987266Y-116200261D01*
X158991053Y-116174731D01*
X158997325Y-116149695D01*
X159006020Y-116125394D01*
X159017055Y-116102063D01*
X159030323Y-116079925D01*
X159045698Y-116059195D01*
X159063031Y-116040071D01*
X159082155Y-116022738D01*
X159102885Y-116007363D01*
X159125023Y-115994095D01*
X159148354Y-115983060D01*
X159172655Y-115974365D01*
X159197691Y-115968093D01*
X159223221Y-115964306D01*
X159249000Y-115963040D01*
X159775000Y-115963040D01*
X159800779Y-115964306D01*
G37*
G36*
X166674019Y-117688806D02*
G01*
X166699549Y-117692593D01*
X166724585Y-117698865D01*
X166748886Y-117707560D01*
X166772217Y-117718595D01*
X166794355Y-117731863D01*
X166815085Y-117747238D01*
X166834209Y-117764571D01*
X166851542Y-117783695D01*
X166866917Y-117804425D01*
X166880185Y-117826563D01*
X166891220Y-117849894D01*
X166899915Y-117874195D01*
X166906187Y-117899231D01*
X166909974Y-117924761D01*
X166911240Y-117950540D01*
X166911240Y-118576540D01*
X166909974Y-118602319D01*
X166906187Y-118627849D01*
X166899915Y-118652885D01*
X166891220Y-118677186D01*
X166880185Y-118700517D01*
X166866917Y-118722655D01*
X166851542Y-118743385D01*
X166834209Y-118762509D01*
X166815085Y-118779842D01*
X166794355Y-118795217D01*
X166772217Y-118808485D01*
X166748886Y-118819520D01*
X166724585Y-118828215D01*
X166699549Y-118834487D01*
X166674019Y-118838274D01*
X166648240Y-118839540D01*
X166122240Y-118839540D01*
X166096461Y-118838274D01*
X166070931Y-118834487D01*
X166045895Y-118828215D01*
X166021594Y-118819520D01*
X165998263Y-118808485D01*
X165976125Y-118795217D01*
X165955395Y-118779842D01*
X165936271Y-118762509D01*
X165918938Y-118743385D01*
X165903563Y-118722655D01*
X165890295Y-118700517D01*
X165879260Y-118677186D01*
X165870565Y-118652885D01*
X165864293Y-118627849D01*
X165860506Y-118602319D01*
X165859240Y-118576540D01*
X165859240Y-117950540D01*
X165860506Y-117924761D01*
X165864293Y-117899231D01*
X165870565Y-117874195D01*
X165879260Y-117849894D01*
X165890295Y-117826563D01*
X165903563Y-117804425D01*
X165918938Y-117783695D01*
X165936271Y-117764571D01*
X165955395Y-117747238D01*
X165976125Y-117731863D01*
X165998263Y-117718595D01*
X166021594Y-117707560D01*
X166045895Y-117698865D01*
X166070931Y-117692593D01*
X166096461Y-117688806D01*
X166122240Y-117687540D01*
X166648240Y-117687540D01*
X166674019Y-117688806D01*
G37*
G36*
X166674019Y-115938806D02*
G01*
X166699549Y-115942593D01*
X166724585Y-115948865D01*
X166748886Y-115957560D01*
X166772217Y-115968595D01*
X166794355Y-115981863D01*
X166815085Y-115997238D01*
X166834209Y-116014571D01*
X166851542Y-116033695D01*
X166866917Y-116054425D01*
X166880185Y-116076563D01*
X166891220Y-116099894D01*
X166899915Y-116124195D01*
X166906187Y-116149231D01*
X166909974Y-116174761D01*
X166911240Y-116200540D01*
X166911240Y-116826540D01*
X166909974Y-116852319D01*
X166906187Y-116877849D01*
X166899915Y-116902885D01*
X166891220Y-116927186D01*
X166880185Y-116950517D01*
X166866917Y-116972655D01*
X166851542Y-116993385D01*
X166834209Y-117012509D01*
X166815085Y-117029842D01*
X166794355Y-117045217D01*
X166772217Y-117058485D01*
X166748886Y-117069520D01*
X166724585Y-117078215D01*
X166699549Y-117084487D01*
X166674019Y-117088274D01*
X166648240Y-117089540D01*
X166122240Y-117089540D01*
X166096461Y-117088274D01*
X166070931Y-117084487D01*
X166045895Y-117078215D01*
X166021594Y-117069520D01*
X165998263Y-117058485D01*
X165976125Y-117045217D01*
X165955395Y-117029842D01*
X165936271Y-117012509D01*
X165918938Y-116993385D01*
X165903563Y-116972655D01*
X165890295Y-116950517D01*
X165879260Y-116927186D01*
X165870565Y-116902885D01*
X165864293Y-116877849D01*
X165860506Y-116852319D01*
X165859240Y-116826540D01*
X165859240Y-116200540D01*
X165860506Y-116174761D01*
X165864293Y-116149231D01*
X165870565Y-116124195D01*
X165879260Y-116099894D01*
X165890295Y-116076563D01*
X165903563Y-116054425D01*
X165918938Y-116033695D01*
X165936271Y-116014571D01*
X165955395Y-115997238D01*
X165976125Y-115981863D01*
X165998263Y-115968595D01*
X166021594Y-115957560D01*
X166045895Y-115948865D01*
X166070931Y-115942593D01*
X166096461Y-115938806D01*
X166122240Y-115937540D01*
X166648240Y-115937540D01*
X166674019Y-115938806D01*
G37*
G36*
X132043659Y-89395806D02*
G01*
X132069189Y-89399593D01*
X132094225Y-89405865D01*
X132118526Y-89414560D01*
X132141857Y-89425595D01*
X132163995Y-89438863D01*
X132184725Y-89454238D01*
X132203849Y-89471571D01*
X132221182Y-89490695D01*
X132236557Y-89511425D01*
X132249825Y-89533563D01*
X132260860Y-89556894D01*
X132269555Y-89581195D01*
X132275827Y-89606231D01*
X132279614Y-89631761D01*
X132280880Y-89657540D01*
X132280880Y-90283540D01*
X132279614Y-90309319D01*
X132275827Y-90334849D01*
X132269555Y-90359885D01*
X132260860Y-90384186D01*
X132249825Y-90407517D01*
X132236557Y-90429655D01*
X132221182Y-90450385D01*
X132203849Y-90469509D01*
X132184725Y-90486842D01*
X132163995Y-90502217D01*
X132141857Y-90515485D01*
X132118526Y-90526520D01*
X132094225Y-90535215D01*
X132069189Y-90541487D01*
X132043659Y-90545274D01*
X132017880Y-90546540D01*
X131491880Y-90546540D01*
X131466101Y-90545274D01*
X131440571Y-90541487D01*
X131415535Y-90535215D01*
X131391234Y-90526520D01*
X131367903Y-90515485D01*
X131345765Y-90502217D01*
X131325035Y-90486842D01*
X131305911Y-90469509D01*
X131288578Y-90450385D01*
X131273203Y-90429655D01*
X131259935Y-90407517D01*
X131248900Y-90384186D01*
X131240205Y-90359885D01*
X131233933Y-90334849D01*
X131230146Y-90309319D01*
X131228880Y-90283540D01*
X131228880Y-89657540D01*
X131230146Y-89631761D01*
X131233933Y-89606231D01*
X131240205Y-89581195D01*
X131248900Y-89556894D01*
X131259935Y-89533563D01*
X131273203Y-89511425D01*
X131288578Y-89490695D01*
X131305911Y-89471571D01*
X131325035Y-89454238D01*
X131345765Y-89438863D01*
X131367903Y-89425595D01*
X131391234Y-89414560D01*
X131415535Y-89405865D01*
X131440571Y-89399593D01*
X131466101Y-89395806D01*
X131491880Y-89394540D01*
X132017880Y-89394540D01*
X132043659Y-89395806D01*
G37*
G36*
X132043659Y-91145806D02*
G01*
X132069189Y-91149593D01*
X132094225Y-91155865D01*
X132118526Y-91164560D01*
X132141857Y-91175595D01*
X132163995Y-91188863D01*
X132184725Y-91204238D01*
X132203849Y-91221571D01*
X132221182Y-91240695D01*
X132236557Y-91261425D01*
X132249825Y-91283563D01*
X132260860Y-91306894D01*
X132269555Y-91331195D01*
X132275827Y-91356231D01*
X132279614Y-91381761D01*
X132280880Y-91407540D01*
X132280880Y-92033540D01*
X132279614Y-92059319D01*
X132275827Y-92084849D01*
X132269555Y-92109885D01*
X132260860Y-92134186D01*
X132249825Y-92157517D01*
X132236557Y-92179655D01*
X132221182Y-92200385D01*
X132203849Y-92219509D01*
X132184725Y-92236842D01*
X132163995Y-92252217D01*
X132141857Y-92265485D01*
X132118526Y-92276520D01*
X132094225Y-92285215D01*
X132069189Y-92291487D01*
X132043659Y-92295274D01*
X132017880Y-92296540D01*
X131491880Y-92296540D01*
X131466101Y-92295274D01*
X131440571Y-92291487D01*
X131415535Y-92285215D01*
X131391234Y-92276520D01*
X131367903Y-92265485D01*
X131345765Y-92252217D01*
X131325035Y-92236842D01*
X131305911Y-92219509D01*
X131288578Y-92200385D01*
X131273203Y-92179655D01*
X131259935Y-92157517D01*
X131248900Y-92134186D01*
X131240205Y-92109885D01*
X131233933Y-92084849D01*
X131230146Y-92059319D01*
X131228880Y-92033540D01*
X131228880Y-91407540D01*
X131230146Y-91381761D01*
X131233933Y-91356231D01*
X131240205Y-91331195D01*
X131248900Y-91306894D01*
X131259935Y-91283563D01*
X131273203Y-91261425D01*
X131288578Y-91240695D01*
X131305911Y-91221571D01*
X131325035Y-91204238D01*
X131345765Y-91188863D01*
X131367903Y-91175595D01*
X131391234Y-91164560D01*
X131415535Y-91155865D01*
X131440571Y-91149593D01*
X131466101Y-91145806D01*
X131491880Y-91144540D01*
X132017880Y-91144540D01*
X132043659Y-91145806D01*
G37*
G36*
X124748779Y-89258746D02*
G01*
X124774309Y-89262533D01*
X124799345Y-89268805D01*
X124823646Y-89277500D01*
X124846977Y-89288535D01*
X124869115Y-89301803D01*
X124889845Y-89317178D01*
X124908969Y-89334511D01*
X124926302Y-89353635D01*
X124941677Y-89374365D01*
X124954945Y-89396503D01*
X124965980Y-89419834D01*
X124974675Y-89444135D01*
X124980947Y-89469171D01*
X124984734Y-89494701D01*
X124986000Y-89520480D01*
X124986000Y-90146480D01*
X124984734Y-90172259D01*
X124980947Y-90197789D01*
X124974675Y-90222825D01*
X124965980Y-90247126D01*
X124954945Y-90270457D01*
X124941677Y-90292595D01*
X124926302Y-90313325D01*
X124908969Y-90332449D01*
X124889845Y-90349782D01*
X124869115Y-90365157D01*
X124846977Y-90378425D01*
X124823646Y-90389460D01*
X124799345Y-90398155D01*
X124774309Y-90404427D01*
X124748779Y-90408214D01*
X124723000Y-90409480D01*
X124197000Y-90409480D01*
X124171221Y-90408214D01*
X124145691Y-90404427D01*
X124120655Y-90398155D01*
X124096354Y-90389460D01*
X124073023Y-90378425D01*
X124050885Y-90365157D01*
X124030155Y-90349782D01*
X124011031Y-90332449D01*
X123993698Y-90313325D01*
X123978323Y-90292595D01*
X123965055Y-90270457D01*
X123954020Y-90247126D01*
X123945325Y-90222825D01*
X123939053Y-90197789D01*
X123935266Y-90172259D01*
X123934000Y-90146480D01*
X123934000Y-89520480D01*
X123935266Y-89494701D01*
X123939053Y-89469171D01*
X123945325Y-89444135D01*
X123954020Y-89419834D01*
X123965055Y-89396503D01*
X123978323Y-89374365D01*
X123993698Y-89353635D01*
X124011031Y-89334511D01*
X124030155Y-89317178D01*
X124050885Y-89301803D01*
X124073023Y-89288535D01*
X124096354Y-89277500D01*
X124120655Y-89268805D01*
X124145691Y-89262533D01*
X124171221Y-89258746D01*
X124197000Y-89257480D01*
X124723000Y-89257480D01*
X124748779Y-89258746D01*
G37*
G36*
X124748779Y-91008746D02*
G01*
X124774309Y-91012533D01*
X124799345Y-91018805D01*
X124823646Y-91027500D01*
X124846977Y-91038535D01*
X124869115Y-91051803D01*
X124889845Y-91067178D01*
X124908969Y-91084511D01*
X124926302Y-91103635D01*
X124941677Y-91124365D01*
X124954945Y-91146503D01*
X124965980Y-91169834D01*
X124974675Y-91194135D01*
X124980947Y-91219171D01*
X124984734Y-91244701D01*
X124986000Y-91270480D01*
X124986000Y-91896480D01*
X124984734Y-91922259D01*
X124980947Y-91947789D01*
X124974675Y-91972825D01*
X124965980Y-91997126D01*
X124954945Y-92020457D01*
X124941677Y-92042595D01*
X124926302Y-92063325D01*
X124908969Y-92082449D01*
X124889845Y-92099782D01*
X124869115Y-92115157D01*
X124846977Y-92128425D01*
X124823646Y-92139460D01*
X124799345Y-92148155D01*
X124774309Y-92154427D01*
X124748779Y-92158214D01*
X124723000Y-92159480D01*
X124197000Y-92159480D01*
X124171221Y-92158214D01*
X124145691Y-92154427D01*
X124120655Y-92148155D01*
X124096354Y-92139460D01*
X124073023Y-92128425D01*
X124050885Y-92115157D01*
X124030155Y-92099782D01*
X124011031Y-92082449D01*
X123993698Y-92063325D01*
X123978323Y-92042595D01*
X123965055Y-92020457D01*
X123954020Y-91997126D01*
X123945325Y-91972825D01*
X123939053Y-91947789D01*
X123935266Y-91922259D01*
X123934000Y-91896480D01*
X123934000Y-91270480D01*
X123935266Y-91244701D01*
X123939053Y-91219171D01*
X123945325Y-91194135D01*
X123954020Y-91169834D01*
X123965055Y-91146503D01*
X123978323Y-91124365D01*
X123993698Y-91103635D01*
X124011031Y-91084511D01*
X124030155Y-91067178D01*
X124050885Y-91051803D01*
X124073023Y-91038535D01*
X124096354Y-91027500D01*
X124120655Y-91018805D01*
X124145691Y-91012533D01*
X124171221Y-91008746D01*
X124197000Y-91007480D01*
X124723000Y-91007480D01*
X124748779Y-91008746D01*
G37*
G36*
X151330279Y-89358246D02*
G01*
X151355809Y-89362033D01*
X151380845Y-89368305D01*
X151405146Y-89377000D01*
X151428477Y-89388035D01*
X151450615Y-89401303D01*
X151471345Y-89416678D01*
X151490469Y-89434011D01*
X151507802Y-89453135D01*
X151523177Y-89473865D01*
X151536445Y-89496003D01*
X151547480Y-89519334D01*
X151556175Y-89543635D01*
X151562447Y-89568671D01*
X151566234Y-89594201D01*
X151567500Y-89619980D01*
X151567500Y-90145980D01*
X151566234Y-90171759D01*
X151562447Y-90197289D01*
X151556175Y-90222325D01*
X151547480Y-90246626D01*
X151536445Y-90269957D01*
X151523177Y-90292095D01*
X151507802Y-90312825D01*
X151490469Y-90331949D01*
X151471345Y-90349282D01*
X151450615Y-90364657D01*
X151428477Y-90377925D01*
X151405146Y-90388960D01*
X151380845Y-90397655D01*
X151355809Y-90403927D01*
X151330279Y-90407714D01*
X151304500Y-90408980D01*
X150678500Y-90408980D01*
X150652721Y-90407714D01*
X150627191Y-90403927D01*
X150602155Y-90397655D01*
X150577854Y-90388960D01*
X150554523Y-90377925D01*
X150532385Y-90364657D01*
X150511655Y-90349282D01*
X150492531Y-90331949D01*
X150475198Y-90312825D01*
X150459823Y-90292095D01*
X150446555Y-90269957D01*
X150435520Y-90246626D01*
X150426825Y-90222325D01*
X150420553Y-90197289D01*
X150416766Y-90171759D01*
X150415500Y-90145980D01*
X150415500Y-89619980D01*
X150416766Y-89594201D01*
X150420553Y-89568671D01*
X150426825Y-89543635D01*
X150435520Y-89519334D01*
X150446555Y-89496003D01*
X150459823Y-89473865D01*
X150475198Y-89453135D01*
X150492531Y-89434011D01*
X150511655Y-89416678D01*
X150532385Y-89401303D01*
X150554523Y-89388035D01*
X150577854Y-89377000D01*
X150602155Y-89368305D01*
X150627191Y-89362033D01*
X150652721Y-89358246D01*
X150678500Y-89356980D01*
X151304500Y-89356980D01*
X151330279Y-89358246D01*
G37*
G36*
X153080279Y-89358246D02*
G01*
X153105809Y-89362033D01*
X153130845Y-89368305D01*
X153155146Y-89377000D01*
X153178477Y-89388035D01*
X153200615Y-89401303D01*
X153221345Y-89416678D01*
X153240469Y-89434011D01*
X153257802Y-89453135D01*
X153273177Y-89473865D01*
X153286445Y-89496003D01*
X153297480Y-89519334D01*
X153306175Y-89543635D01*
X153312447Y-89568671D01*
X153316234Y-89594201D01*
X153317500Y-89619980D01*
X153317500Y-90145980D01*
X153316234Y-90171759D01*
X153312447Y-90197289D01*
X153306175Y-90222325D01*
X153297480Y-90246626D01*
X153286445Y-90269957D01*
X153273177Y-90292095D01*
X153257802Y-90312825D01*
X153240469Y-90331949D01*
X153221345Y-90349282D01*
X153200615Y-90364657D01*
X153178477Y-90377925D01*
X153155146Y-90388960D01*
X153130845Y-90397655D01*
X153105809Y-90403927D01*
X153080279Y-90407714D01*
X153054500Y-90408980D01*
X152428500Y-90408980D01*
X152402721Y-90407714D01*
X152377191Y-90403927D01*
X152352155Y-90397655D01*
X152327854Y-90388960D01*
X152304523Y-90377925D01*
X152282385Y-90364657D01*
X152261655Y-90349282D01*
X152242531Y-90331949D01*
X152225198Y-90312825D01*
X152209823Y-90292095D01*
X152196555Y-90269957D01*
X152185520Y-90246626D01*
X152176825Y-90222325D01*
X152170553Y-90197289D01*
X152166766Y-90171759D01*
X152165500Y-90145980D01*
X152165500Y-89619980D01*
X152166766Y-89594201D01*
X152170553Y-89568671D01*
X152176825Y-89543635D01*
X152185520Y-89519334D01*
X152196555Y-89496003D01*
X152209823Y-89473865D01*
X152225198Y-89453135D01*
X152242531Y-89434011D01*
X152261655Y-89416678D01*
X152282385Y-89401303D01*
X152304523Y-89388035D01*
X152327854Y-89377000D01*
X152352155Y-89368305D01*
X152377191Y-89362033D01*
X152402721Y-89358246D01*
X152428500Y-89356980D01*
X153054500Y-89356980D01*
X153080279Y-89358246D01*
G37*
G36*
X158807005Y-89166311D02*
G01*
X158833425Y-89170230D01*
X158859335Y-89176720D01*
X158884483Y-89185718D01*
X158908628Y-89197138D01*
X158931538Y-89210869D01*
X158952992Y-89226780D01*
X158972782Y-89244718D01*
X158990720Y-89264508D01*
X159006631Y-89285962D01*
X159020362Y-89308872D01*
X159031782Y-89333017D01*
X159040780Y-89358165D01*
X159047270Y-89384075D01*
X159051189Y-89410495D01*
X159052500Y-89437173D01*
X159052500Y-90394827D01*
X159051189Y-90421505D01*
X159047270Y-90447925D01*
X159040780Y-90473835D01*
X159031782Y-90498983D01*
X159020362Y-90523128D01*
X159006631Y-90546038D01*
X158990720Y-90567492D01*
X158972782Y-90587282D01*
X158952992Y-90605220D01*
X158931538Y-90621131D01*
X158908628Y-90634862D01*
X158884483Y-90646282D01*
X158859335Y-90655280D01*
X158833425Y-90661770D01*
X158807005Y-90665689D01*
X158780327Y-90667000D01*
X158072673Y-90667000D01*
X158045995Y-90665689D01*
X158019575Y-90661770D01*
X157993665Y-90655280D01*
X157968517Y-90646282D01*
X157944372Y-90634862D01*
X157921462Y-90621131D01*
X157900008Y-90605220D01*
X157880218Y-90587282D01*
X157862280Y-90567492D01*
X157846369Y-90546038D01*
X157832638Y-90523128D01*
X157821218Y-90498983D01*
X157812220Y-90473835D01*
X157805730Y-90447925D01*
X157801811Y-90421505D01*
X157800500Y-90394827D01*
X157800500Y-89437173D01*
X157801811Y-89410495D01*
X157805730Y-89384075D01*
X157812220Y-89358165D01*
X157821218Y-89333017D01*
X157832638Y-89308872D01*
X157846369Y-89285962D01*
X157862280Y-89264508D01*
X157880218Y-89244718D01*
X157900008Y-89226780D01*
X157921462Y-89210869D01*
X157944372Y-89197138D01*
X157968517Y-89185718D01*
X157993665Y-89176720D01*
X158019575Y-89170230D01*
X158045995Y-89166311D01*
X158072673Y-89165000D01*
X158780327Y-89165000D01*
X158807005Y-89166311D01*
G37*
G36*
X156757005Y-89166311D02*
G01*
X156783425Y-89170230D01*
X156809335Y-89176720D01*
X156834483Y-89185718D01*
X156858628Y-89197138D01*
X156881538Y-89210869D01*
X156902992Y-89226780D01*
X156922782Y-89244718D01*
X156940720Y-89264508D01*
X156956631Y-89285962D01*
X156970362Y-89308872D01*
X156981782Y-89333017D01*
X156990780Y-89358165D01*
X156997270Y-89384075D01*
X157001189Y-89410495D01*
X157002500Y-89437173D01*
X157002500Y-90394827D01*
X157001189Y-90421505D01*
X156997270Y-90447925D01*
X156990780Y-90473835D01*
X156981782Y-90498983D01*
X156970362Y-90523128D01*
X156956631Y-90546038D01*
X156940720Y-90567492D01*
X156922782Y-90587282D01*
X156902992Y-90605220D01*
X156881538Y-90621131D01*
X156858628Y-90634862D01*
X156834483Y-90646282D01*
X156809335Y-90655280D01*
X156783425Y-90661770D01*
X156757005Y-90665689D01*
X156730327Y-90667000D01*
X156022673Y-90667000D01*
X155995995Y-90665689D01*
X155969575Y-90661770D01*
X155943665Y-90655280D01*
X155918517Y-90646282D01*
X155894372Y-90634862D01*
X155871462Y-90621131D01*
X155850008Y-90605220D01*
X155830218Y-90587282D01*
X155812280Y-90567492D01*
X155796369Y-90546038D01*
X155782638Y-90523128D01*
X155771218Y-90498983D01*
X155762220Y-90473835D01*
X155755730Y-90447925D01*
X155751811Y-90421505D01*
X155750500Y-90394827D01*
X155750500Y-89437173D01*
X155751811Y-89410495D01*
X155755730Y-89384075D01*
X155762220Y-89358165D01*
X155771218Y-89333017D01*
X155782638Y-89308872D01*
X155796369Y-89285962D01*
X155812280Y-89264508D01*
X155830218Y-89244718D01*
X155850008Y-89226780D01*
X155871462Y-89210869D01*
X155894372Y-89197138D01*
X155918517Y-89185718D01*
X155943665Y-89176720D01*
X155969575Y-89170230D01*
X155995995Y-89166311D01*
X156022673Y-89165000D01*
X156730327Y-89165000D01*
X156757005Y-89166311D01*
G37*
G36*
X160535239Y-101684866D02*
G01*
X160560769Y-101688653D01*
X160585805Y-101694925D01*
X160610106Y-101703620D01*
X160633437Y-101714655D01*
X160655575Y-101727923D01*
X160676305Y-101743298D01*
X160695429Y-101760631D01*
X160712762Y-101779755D01*
X160728137Y-101800485D01*
X160741405Y-101822623D01*
X160752440Y-101845954D01*
X160761135Y-101870255D01*
X160767407Y-101895291D01*
X160771194Y-101920821D01*
X160772460Y-101946600D01*
X160772460Y-102472600D01*
X160771194Y-102498379D01*
X160767407Y-102523909D01*
X160761135Y-102548945D01*
X160752440Y-102573246D01*
X160741405Y-102596577D01*
X160728137Y-102618715D01*
X160712762Y-102639445D01*
X160695429Y-102658569D01*
X160676305Y-102675902D01*
X160655575Y-102691277D01*
X160633437Y-102704545D01*
X160610106Y-102715580D01*
X160585805Y-102724275D01*
X160560769Y-102730547D01*
X160535239Y-102734334D01*
X160509460Y-102735600D01*
X159883460Y-102735600D01*
X159857681Y-102734334D01*
X159832151Y-102730547D01*
X159807115Y-102724275D01*
X159782814Y-102715580D01*
X159759483Y-102704545D01*
X159737345Y-102691277D01*
X159716615Y-102675902D01*
X159697491Y-102658569D01*
X159680158Y-102639445D01*
X159664783Y-102618715D01*
X159651515Y-102596577D01*
X159640480Y-102573246D01*
X159631785Y-102548945D01*
X159625513Y-102523909D01*
X159621726Y-102498379D01*
X159620460Y-102472600D01*
X159620460Y-101946600D01*
X159621726Y-101920821D01*
X159625513Y-101895291D01*
X159631785Y-101870255D01*
X159640480Y-101845954D01*
X159651515Y-101822623D01*
X159664783Y-101800485D01*
X159680158Y-101779755D01*
X159697491Y-101760631D01*
X159716615Y-101743298D01*
X159737345Y-101727923D01*
X159759483Y-101714655D01*
X159782814Y-101703620D01*
X159807115Y-101694925D01*
X159832151Y-101688653D01*
X159857681Y-101684866D01*
X159883460Y-101683600D01*
X160509460Y-101683600D01*
X160535239Y-101684866D01*
G37*
G36*
X162285239Y-101684866D02*
G01*
X162310769Y-101688653D01*
X162335805Y-101694925D01*
X162360106Y-101703620D01*
X162383437Y-101714655D01*
X162405575Y-101727923D01*
X162426305Y-101743298D01*
X162445429Y-101760631D01*
X162462762Y-101779755D01*
X162478137Y-101800485D01*
X162491405Y-101822623D01*
X162502440Y-101845954D01*
X162511135Y-101870255D01*
X162517407Y-101895291D01*
X162521194Y-101920821D01*
X162522460Y-101946600D01*
X162522460Y-102472600D01*
X162521194Y-102498379D01*
X162517407Y-102523909D01*
X162511135Y-102548945D01*
X162502440Y-102573246D01*
X162491405Y-102596577D01*
X162478137Y-102618715D01*
X162462762Y-102639445D01*
X162445429Y-102658569D01*
X162426305Y-102675902D01*
X162405575Y-102691277D01*
X162383437Y-102704545D01*
X162360106Y-102715580D01*
X162335805Y-102724275D01*
X162310769Y-102730547D01*
X162285239Y-102734334D01*
X162259460Y-102735600D01*
X161633460Y-102735600D01*
X161607681Y-102734334D01*
X161582151Y-102730547D01*
X161557115Y-102724275D01*
X161532814Y-102715580D01*
X161509483Y-102704545D01*
X161487345Y-102691277D01*
X161466615Y-102675902D01*
X161447491Y-102658569D01*
X161430158Y-102639445D01*
X161414783Y-102618715D01*
X161401515Y-102596577D01*
X161390480Y-102573246D01*
X161381785Y-102548945D01*
X161375513Y-102523909D01*
X161371726Y-102498379D01*
X161370460Y-102472600D01*
X161370460Y-101946600D01*
X161371726Y-101920821D01*
X161375513Y-101895291D01*
X161381785Y-101870255D01*
X161390480Y-101845954D01*
X161401515Y-101822623D01*
X161414783Y-101800485D01*
X161430158Y-101779755D01*
X161447491Y-101760631D01*
X161466615Y-101743298D01*
X161487345Y-101727923D01*
X161509483Y-101714655D01*
X161532814Y-101703620D01*
X161557115Y-101694925D01*
X161582151Y-101688653D01*
X161607681Y-101684866D01*
X161633460Y-101683600D01*
X162259460Y-101683600D01*
X162285239Y-101684866D01*
G37*
G36*
X160535440Y-103246966D02*
G01*
X160560970Y-103250753D01*
X160586006Y-103257025D01*
X160610307Y-103265720D01*
X160633638Y-103276755D01*
X160655776Y-103290023D01*
X160676506Y-103305398D01*
X160695630Y-103322731D01*
X160712963Y-103341855D01*
X160728338Y-103362585D01*
X160741606Y-103384723D01*
X160752641Y-103408054D01*
X160761336Y-103432355D01*
X160767608Y-103457391D01*
X160771395Y-103482921D01*
X160772661Y-103508700D01*
X160772661Y-104034700D01*
X160771395Y-104060479D01*
X160767608Y-104086009D01*
X160761336Y-104111045D01*
X160752641Y-104135346D01*
X160741606Y-104158677D01*
X160728338Y-104180815D01*
X160712963Y-104201545D01*
X160695630Y-104220669D01*
X160676506Y-104238002D01*
X160655776Y-104253377D01*
X160633638Y-104266645D01*
X160610307Y-104277680D01*
X160586006Y-104286375D01*
X160560970Y-104292647D01*
X160535440Y-104296434D01*
X160509661Y-104297700D01*
X159883661Y-104297700D01*
X159857882Y-104296434D01*
X159832352Y-104292647D01*
X159807316Y-104286375D01*
X159783015Y-104277680D01*
X159759684Y-104266645D01*
X159737546Y-104253377D01*
X159716816Y-104238002D01*
X159697692Y-104220669D01*
X159680359Y-104201545D01*
X159664984Y-104180815D01*
X159651716Y-104158677D01*
X159640681Y-104135346D01*
X159631986Y-104111045D01*
X159625714Y-104086009D01*
X159621927Y-104060479D01*
X159620661Y-104034700D01*
X159620661Y-103508700D01*
X159621927Y-103482921D01*
X159625714Y-103457391D01*
X159631986Y-103432355D01*
X159640681Y-103408054D01*
X159651716Y-103384723D01*
X159664984Y-103362585D01*
X159680359Y-103341855D01*
X159697692Y-103322731D01*
X159716816Y-103305398D01*
X159737546Y-103290023D01*
X159759684Y-103276755D01*
X159783015Y-103265720D01*
X159807316Y-103257025D01*
X159832352Y-103250753D01*
X159857882Y-103246966D01*
X159883661Y-103245700D01*
X160509661Y-103245700D01*
X160535440Y-103246966D01*
G37*
G36*
X162285440Y-103246966D02*
G01*
X162310970Y-103250753D01*
X162336006Y-103257025D01*
X162360307Y-103265720D01*
X162383638Y-103276755D01*
X162405776Y-103290023D01*
X162426506Y-103305398D01*
X162445630Y-103322731D01*
X162462963Y-103341855D01*
X162478338Y-103362585D01*
X162491606Y-103384723D01*
X162502641Y-103408054D01*
X162511336Y-103432355D01*
X162517608Y-103457391D01*
X162521395Y-103482921D01*
X162522661Y-103508700D01*
X162522661Y-104034700D01*
X162521395Y-104060479D01*
X162517608Y-104086009D01*
X162511336Y-104111045D01*
X162502641Y-104135346D01*
X162491606Y-104158677D01*
X162478338Y-104180815D01*
X162462963Y-104201545D01*
X162445630Y-104220669D01*
X162426506Y-104238002D01*
X162405776Y-104253377D01*
X162383638Y-104266645D01*
X162360307Y-104277680D01*
X162336006Y-104286375D01*
X162310970Y-104292647D01*
X162285440Y-104296434D01*
X162259661Y-104297700D01*
X161633661Y-104297700D01*
X161607882Y-104296434D01*
X161582352Y-104292647D01*
X161557316Y-104286375D01*
X161533015Y-104277680D01*
X161509684Y-104266645D01*
X161487546Y-104253377D01*
X161466816Y-104238002D01*
X161447692Y-104220669D01*
X161430359Y-104201545D01*
X161414984Y-104180815D01*
X161401716Y-104158677D01*
X161390681Y-104135346D01*
X161381986Y-104111045D01*
X161375714Y-104086009D01*
X161371927Y-104060479D01*
X161370661Y-104034700D01*
X161370661Y-103508700D01*
X161371927Y-103482921D01*
X161375714Y-103457391D01*
X161381986Y-103432355D01*
X161390681Y-103408054D01*
X161401716Y-103384723D01*
X161414984Y-103362585D01*
X161430359Y-103341855D01*
X161447692Y-103322731D01*
X161466816Y-103305398D01*
X161487546Y-103290023D01*
X161509684Y-103276755D01*
X161533015Y-103265720D01*
X161557316Y-103257025D01*
X161582352Y-103250753D01*
X161607882Y-103246966D01*
X161633661Y-103245700D01*
X162259661Y-103245700D01*
X162285440Y-103246966D01*
G37*
G36*
X160535339Y-104798906D02*
G01*
X160560869Y-104802693D01*
X160585905Y-104808965D01*
X160610206Y-104817660D01*
X160633537Y-104828695D01*
X160655675Y-104841963D01*
X160676405Y-104857338D01*
X160695529Y-104874671D01*
X160712862Y-104893795D01*
X160728237Y-104914525D01*
X160741505Y-104936663D01*
X160752540Y-104959994D01*
X160761235Y-104984295D01*
X160767507Y-105009331D01*
X160771294Y-105034861D01*
X160772560Y-105060640D01*
X160772560Y-105586640D01*
X160771294Y-105612419D01*
X160767507Y-105637949D01*
X160761235Y-105662985D01*
X160752540Y-105687286D01*
X160741505Y-105710617D01*
X160728237Y-105732755D01*
X160712862Y-105753485D01*
X160695529Y-105772609D01*
X160676405Y-105789942D01*
X160655675Y-105805317D01*
X160633537Y-105818585D01*
X160610206Y-105829620D01*
X160585905Y-105838315D01*
X160560869Y-105844587D01*
X160535339Y-105848374D01*
X160509560Y-105849640D01*
X159883560Y-105849640D01*
X159857781Y-105848374D01*
X159832251Y-105844587D01*
X159807215Y-105838315D01*
X159782914Y-105829620D01*
X159759583Y-105818585D01*
X159737445Y-105805317D01*
X159716715Y-105789942D01*
X159697591Y-105772609D01*
X159680258Y-105753485D01*
X159664883Y-105732755D01*
X159651615Y-105710617D01*
X159640580Y-105687286D01*
X159631885Y-105662985D01*
X159625613Y-105637949D01*
X159621826Y-105612419D01*
X159620560Y-105586640D01*
X159620560Y-105060640D01*
X159621826Y-105034861D01*
X159625613Y-105009331D01*
X159631885Y-104984295D01*
X159640580Y-104959994D01*
X159651615Y-104936663D01*
X159664883Y-104914525D01*
X159680258Y-104893795D01*
X159697591Y-104874671D01*
X159716715Y-104857338D01*
X159737445Y-104841963D01*
X159759583Y-104828695D01*
X159782914Y-104817660D01*
X159807215Y-104808965D01*
X159832251Y-104802693D01*
X159857781Y-104798906D01*
X159883560Y-104797640D01*
X160509560Y-104797640D01*
X160535339Y-104798906D01*
G37*
G36*
X162285339Y-104798906D02*
G01*
X162310869Y-104802693D01*
X162335905Y-104808965D01*
X162360206Y-104817660D01*
X162383537Y-104828695D01*
X162405675Y-104841963D01*
X162426405Y-104857338D01*
X162445529Y-104874671D01*
X162462862Y-104893795D01*
X162478237Y-104914525D01*
X162491505Y-104936663D01*
X162502540Y-104959994D01*
X162511235Y-104984295D01*
X162517507Y-105009331D01*
X162521294Y-105034861D01*
X162522560Y-105060640D01*
X162522560Y-105586640D01*
X162521294Y-105612419D01*
X162517507Y-105637949D01*
X162511235Y-105662985D01*
X162502540Y-105687286D01*
X162491505Y-105710617D01*
X162478237Y-105732755D01*
X162462862Y-105753485D01*
X162445529Y-105772609D01*
X162426405Y-105789942D01*
X162405675Y-105805317D01*
X162383537Y-105818585D01*
X162360206Y-105829620D01*
X162335905Y-105838315D01*
X162310869Y-105844587D01*
X162285339Y-105848374D01*
X162259560Y-105849640D01*
X161633560Y-105849640D01*
X161607781Y-105848374D01*
X161582251Y-105844587D01*
X161557215Y-105838315D01*
X161532914Y-105829620D01*
X161509583Y-105818585D01*
X161487445Y-105805317D01*
X161466715Y-105789942D01*
X161447591Y-105772609D01*
X161430258Y-105753485D01*
X161414883Y-105732755D01*
X161401615Y-105710617D01*
X161390580Y-105687286D01*
X161381885Y-105662985D01*
X161375613Y-105637949D01*
X161371826Y-105612419D01*
X161370560Y-105586640D01*
X161370560Y-105060640D01*
X161371826Y-105034861D01*
X161375613Y-105009331D01*
X161381885Y-104984295D01*
X161390580Y-104959994D01*
X161401615Y-104936663D01*
X161414883Y-104914525D01*
X161430258Y-104893795D01*
X161447591Y-104874671D01*
X161466715Y-104857338D01*
X161487445Y-104841963D01*
X161509583Y-104828695D01*
X161532914Y-104817660D01*
X161557215Y-104808965D01*
X161582251Y-104802693D01*
X161607781Y-104798906D01*
X161633560Y-104797640D01*
X162259560Y-104797640D01*
X162285339Y-104798906D01*
G37*
G36*
X160535440Y-106348306D02*
G01*
X160560970Y-106352093D01*
X160586006Y-106358365D01*
X160610307Y-106367060D01*
X160633638Y-106378095D01*
X160655776Y-106391363D01*
X160676506Y-106406738D01*
X160695630Y-106424071D01*
X160712963Y-106443195D01*
X160728338Y-106463925D01*
X160741606Y-106486063D01*
X160752641Y-106509394D01*
X160761336Y-106533695D01*
X160767608Y-106558731D01*
X160771395Y-106584261D01*
X160772661Y-106610040D01*
X160772661Y-107136040D01*
X160771395Y-107161819D01*
X160767608Y-107187349D01*
X160761336Y-107212385D01*
X160752641Y-107236686D01*
X160741606Y-107260017D01*
X160728338Y-107282155D01*
X160712963Y-107302885D01*
X160695630Y-107322009D01*
X160676506Y-107339342D01*
X160655776Y-107354717D01*
X160633638Y-107367985D01*
X160610307Y-107379020D01*
X160586006Y-107387715D01*
X160560970Y-107393987D01*
X160535440Y-107397774D01*
X160509661Y-107399040D01*
X159883661Y-107399040D01*
X159857882Y-107397774D01*
X159832352Y-107393987D01*
X159807316Y-107387715D01*
X159783015Y-107379020D01*
X159759684Y-107367985D01*
X159737546Y-107354717D01*
X159716816Y-107339342D01*
X159697692Y-107322009D01*
X159680359Y-107302885D01*
X159664984Y-107282155D01*
X159651716Y-107260017D01*
X159640681Y-107236686D01*
X159631986Y-107212385D01*
X159625714Y-107187349D01*
X159621927Y-107161819D01*
X159620661Y-107136040D01*
X159620661Y-106610040D01*
X159621927Y-106584261D01*
X159625714Y-106558731D01*
X159631986Y-106533695D01*
X159640681Y-106509394D01*
X159651716Y-106486063D01*
X159664984Y-106463925D01*
X159680359Y-106443195D01*
X159697692Y-106424071D01*
X159716816Y-106406738D01*
X159737546Y-106391363D01*
X159759684Y-106378095D01*
X159783015Y-106367060D01*
X159807316Y-106358365D01*
X159832352Y-106352093D01*
X159857882Y-106348306D01*
X159883661Y-106347040D01*
X160509661Y-106347040D01*
X160535440Y-106348306D01*
G37*
G36*
X162285440Y-106348306D02*
G01*
X162310970Y-106352093D01*
X162336006Y-106358365D01*
X162360307Y-106367060D01*
X162383638Y-106378095D01*
X162405776Y-106391363D01*
X162426506Y-106406738D01*
X162445630Y-106424071D01*
X162462963Y-106443195D01*
X162478338Y-106463925D01*
X162491606Y-106486063D01*
X162502641Y-106509394D01*
X162511336Y-106533695D01*
X162517608Y-106558731D01*
X162521395Y-106584261D01*
X162522661Y-106610040D01*
X162522661Y-107136040D01*
X162521395Y-107161819D01*
X162517608Y-107187349D01*
X162511336Y-107212385D01*
X162502641Y-107236686D01*
X162491606Y-107260017D01*
X162478338Y-107282155D01*
X162462963Y-107302885D01*
X162445630Y-107322009D01*
X162426506Y-107339342D01*
X162405776Y-107354717D01*
X162383638Y-107367985D01*
X162360307Y-107379020D01*
X162336006Y-107387715D01*
X162310970Y-107393987D01*
X162285440Y-107397774D01*
X162259661Y-107399040D01*
X161633661Y-107399040D01*
X161607882Y-107397774D01*
X161582352Y-107393987D01*
X161557316Y-107387715D01*
X161533015Y-107379020D01*
X161509684Y-107367985D01*
X161487546Y-107354717D01*
X161466816Y-107339342D01*
X161447692Y-107322009D01*
X161430359Y-107302885D01*
X161414984Y-107282155D01*
X161401716Y-107260017D01*
X161390681Y-107236686D01*
X161381986Y-107212385D01*
X161375714Y-107187349D01*
X161371927Y-107161819D01*
X161370661Y-107136040D01*
X161370661Y-106610040D01*
X161371927Y-106584261D01*
X161375714Y-106558731D01*
X161381986Y-106533695D01*
X161390681Y-106509394D01*
X161401716Y-106486063D01*
X161414984Y-106463925D01*
X161430359Y-106443195D01*
X161447692Y-106424071D01*
X161466816Y-106406738D01*
X161487546Y-106391363D01*
X161509684Y-106378095D01*
X161533015Y-106367060D01*
X161557316Y-106358365D01*
X161582352Y-106352093D01*
X161607882Y-106348306D01*
X161633661Y-106347040D01*
X162259661Y-106347040D01*
X162285440Y-106348306D01*
G37*
G36*
X158693779Y-104798906D02*
G01*
X158719309Y-104802693D01*
X158744345Y-104808965D01*
X158768646Y-104817660D01*
X158791977Y-104828695D01*
X158814115Y-104841963D01*
X158834845Y-104857338D01*
X158853969Y-104874671D01*
X158871302Y-104893795D01*
X158886677Y-104914525D01*
X158899945Y-104936663D01*
X158910980Y-104959994D01*
X158919675Y-104984295D01*
X158925947Y-105009331D01*
X158929734Y-105034861D01*
X158931000Y-105060640D01*
X158931000Y-105586640D01*
X158929734Y-105612419D01*
X158925947Y-105637949D01*
X158919675Y-105662985D01*
X158910980Y-105687286D01*
X158899945Y-105710617D01*
X158886677Y-105732755D01*
X158871302Y-105753485D01*
X158853969Y-105772609D01*
X158834845Y-105789942D01*
X158814115Y-105805317D01*
X158791977Y-105818585D01*
X158768646Y-105829620D01*
X158744345Y-105838315D01*
X158719309Y-105844587D01*
X158693779Y-105848374D01*
X158668000Y-105849640D01*
X158042000Y-105849640D01*
X158016221Y-105848374D01*
X157990691Y-105844587D01*
X157965655Y-105838315D01*
X157941354Y-105829620D01*
X157918023Y-105818585D01*
X157895885Y-105805317D01*
X157875155Y-105789942D01*
X157856031Y-105772609D01*
X157838698Y-105753485D01*
X157823323Y-105732755D01*
X157810055Y-105710617D01*
X157799020Y-105687286D01*
X157790325Y-105662985D01*
X157784053Y-105637949D01*
X157780266Y-105612419D01*
X157779000Y-105586640D01*
X157779000Y-105060640D01*
X157780266Y-105034861D01*
X157784053Y-105009331D01*
X157790325Y-104984295D01*
X157799020Y-104959994D01*
X157810055Y-104936663D01*
X157823323Y-104914525D01*
X157838698Y-104893795D01*
X157856031Y-104874671D01*
X157875155Y-104857338D01*
X157895885Y-104841963D01*
X157918023Y-104828695D01*
X157941354Y-104817660D01*
X157965655Y-104808965D01*
X157990691Y-104802693D01*
X158016221Y-104798906D01*
X158042000Y-104797640D01*
X158668000Y-104797640D01*
X158693779Y-104798906D01*
G37*
G36*
X156943779Y-104798906D02*
G01*
X156969309Y-104802693D01*
X156994345Y-104808965D01*
X157018646Y-104817660D01*
X157041977Y-104828695D01*
X157064115Y-104841963D01*
X157084845Y-104857338D01*
X157103969Y-104874671D01*
X157121302Y-104893795D01*
X157136677Y-104914525D01*
X157149945Y-104936663D01*
X157160980Y-104959994D01*
X157169675Y-104984295D01*
X157175947Y-105009331D01*
X157179734Y-105034861D01*
X157181000Y-105060640D01*
X157181000Y-105586640D01*
X157179734Y-105612419D01*
X157175947Y-105637949D01*
X157169675Y-105662985D01*
X157160980Y-105687286D01*
X157149945Y-105710617D01*
X157136677Y-105732755D01*
X157121302Y-105753485D01*
X157103969Y-105772609D01*
X157084845Y-105789942D01*
X157064115Y-105805317D01*
X157041977Y-105818585D01*
X157018646Y-105829620D01*
X156994345Y-105838315D01*
X156969309Y-105844587D01*
X156943779Y-105848374D01*
X156918000Y-105849640D01*
X156292000Y-105849640D01*
X156266221Y-105848374D01*
X156240691Y-105844587D01*
X156215655Y-105838315D01*
X156191354Y-105829620D01*
X156168023Y-105818585D01*
X156145885Y-105805317D01*
X156125155Y-105789942D01*
X156106031Y-105772609D01*
X156088698Y-105753485D01*
X156073323Y-105732755D01*
X156060055Y-105710617D01*
X156049020Y-105687286D01*
X156040325Y-105662985D01*
X156034053Y-105637949D01*
X156030266Y-105612419D01*
X156029000Y-105586640D01*
X156029000Y-105060640D01*
X156030266Y-105034861D01*
X156034053Y-105009331D01*
X156040325Y-104984295D01*
X156049020Y-104959994D01*
X156060055Y-104936663D01*
X156073323Y-104914525D01*
X156088698Y-104893795D01*
X156106031Y-104874671D01*
X156125155Y-104857338D01*
X156145885Y-104841963D01*
X156168023Y-104828695D01*
X156191354Y-104817660D01*
X156215655Y-104808965D01*
X156240691Y-104802693D01*
X156266221Y-104798906D01*
X156292000Y-104797640D01*
X156918000Y-104797640D01*
X156943779Y-104798906D01*
G37*
G36*
X158693779Y-103249506D02*
G01*
X158719309Y-103253293D01*
X158744345Y-103259565D01*
X158768646Y-103268260D01*
X158791977Y-103279295D01*
X158814115Y-103292563D01*
X158834845Y-103307938D01*
X158853969Y-103325271D01*
X158871302Y-103344395D01*
X158886677Y-103365125D01*
X158899945Y-103387263D01*
X158910980Y-103410594D01*
X158919675Y-103434895D01*
X158925947Y-103459931D01*
X158929734Y-103485461D01*
X158931000Y-103511240D01*
X158931000Y-104037240D01*
X158929734Y-104063019D01*
X158925947Y-104088549D01*
X158919675Y-104113585D01*
X158910980Y-104137886D01*
X158899945Y-104161217D01*
X158886677Y-104183355D01*
X158871302Y-104204085D01*
X158853969Y-104223209D01*
X158834845Y-104240542D01*
X158814115Y-104255917D01*
X158791977Y-104269185D01*
X158768646Y-104280220D01*
X158744345Y-104288915D01*
X158719309Y-104295187D01*
X158693779Y-104298974D01*
X158668000Y-104300240D01*
X158042000Y-104300240D01*
X158016221Y-104298974D01*
X157990691Y-104295187D01*
X157965655Y-104288915D01*
X157941354Y-104280220D01*
X157918023Y-104269185D01*
X157895885Y-104255917D01*
X157875155Y-104240542D01*
X157856031Y-104223209D01*
X157838698Y-104204085D01*
X157823323Y-104183355D01*
X157810055Y-104161217D01*
X157799020Y-104137886D01*
X157790325Y-104113585D01*
X157784053Y-104088549D01*
X157780266Y-104063019D01*
X157779000Y-104037240D01*
X157779000Y-103511240D01*
X157780266Y-103485461D01*
X157784053Y-103459931D01*
X157790325Y-103434895D01*
X157799020Y-103410594D01*
X157810055Y-103387263D01*
X157823323Y-103365125D01*
X157838698Y-103344395D01*
X157856031Y-103325271D01*
X157875155Y-103307938D01*
X157895885Y-103292563D01*
X157918023Y-103279295D01*
X157941354Y-103268260D01*
X157965655Y-103259565D01*
X157990691Y-103253293D01*
X158016221Y-103249506D01*
X158042000Y-103248240D01*
X158668000Y-103248240D01*
X158693779Y-103249506D01*
G37*
G36*
X156943779Y-103249506D02*
G01*
X156969309Y-103253293D01*
X156994345Y-103259565D01*
X157018646Y-103268260D01*
X157041977Y-103279295D01*
X157064115Y-103292563D01*
X157084845Y-103307938D01*
X157103969Y-103325271D01*
X157121302Y-103344395D01*
X157136677Y-103365125D01*
X157149945Y-103387263D01*
X157160980Y-103410594D01*
X157169675Y-103434895D01*
X157175947Y-103459931D01*
X157179734Y-103485461D01*
X157181000Y-103511240D01*
X157181000Y-104037240D01*
X157179734Y-104063019D01*
X157175947Y-104088549D01*
X157169675Y-104113585D01*
X157160980Y-104137886D01*
X157149945Y-104161217D01*
X157136677Y-104183355D01*
X157121302Y-104204085D01*
X157103969Y-104223209D01*
X157084845Y-104240542D01*
X157064115Y-104255917D01*
X157041977Y-104269185D01*
X157018646Y-104280220D01*
X156994345Y-104288915D01*
X156969309Y-104295187D01*
X156943779Y-104298974D01*
X156918000Y-104300240D01*
X156292000Y-104300240D01*
X156266221Y-104298974D01*
X156240691Y-104295187D01*
X156215655Y-104288915D01*
X156191354Y-104280220D01*
X156168023Y-104269185D01*
X156145885Y-104255917D01*
X156125155Y-104240542D01*
X156106031Y-104223209D01*
X156088698Y-104204085D01*
X156073323Y-104183355D01*
X156060055Y-104161217D01*
X156049020Y-104137886D01*
X156040325Y-104113585D01*
X156034053Y-104088549D01*
X156030266Y-104063019D01*
X156029000Y-104037240D01*
X156029000Y-103511240D01*
X156030266Y-103485461D01*
X156034053Y-103459931D01*
X156040325Y-103434895D01*
X156049020Y-103410594D01*
X156060055Y-103387263D01*
X156073323Y-103365125D01*
X156088698Y-103344395D01*
X156106031Y-103325271D01*
X156125155Y-103307938D01*
X156145885Y-103292563D01*
X156168023Y-103279295D01*
X156191354Y-103268260D01*
X156215655Y-103259565D01*
X156240691Y-103253293D01*
X156266221Y-103249506D01*
X156292000Y-103248240D01*
X156918000Y-103248240D01*
X156943779Y-103249506D01*
G37*
G36*
X143290779Y-99233266D02*
G01*
X143316309Y-99237053D01*
X143341345Y-99243325D01*
X143365646Y-99252020D01*
X143388977Y-99263055D01*
X143411115Y-99276323D01*
X143431845Y-99291698D01*
X143450969Y-99309031D01*
X143468302Y-99328155D01*
X143483677Y-99348885D01*
X143496945Y-99371023D01*
X143507980Y-99394354D01*
X143516675Y-99418655D01*
X143522947Y-99443691D01*
X143526734Y-99469221D01*
X143528000Y-99495000D01*
X143528000Y-100121000D01*
X143526734Y-100146779D01*
X143522947Y-100172309D01*
X143516675Y-100197345D01*
X143507980Y-100221646D01*
X143496945Y-100244977D01*
X143483677Y-100267115D01*
X143468302Y-100287845D01*
X143450969Y-100306969D01*
X143431845Y-100324302D01*
X143411115Y-100339677D01*
X143388977Y-100352945D01*
X143365646Y-100363980D01*
X143341345Y-100372675D01*
X143316309Y-100378947D01*
X143290779Y-100382734D01*
X143265000Y-100384000D01*
X142739000Y-100384000D01*
X142713221Y-100382734D01*
X142687691Y-100378947D01*
X142662655Y-100372675D01*
X142638354Y-100363980D01*
X142615023Y-100352945D01*
X142592885Y-100339677D01*
X142572155Y-100324302D01*
X142553031Y-100306969D01*
X142535698Y-100287845D01*
X142520323Y-100267115D01*
X142507055Y-100244977D01*
X142496020Y-100221646D01*
X142487325Y-100197345D01*
X142481053Y-100172309D01*
X142477266Y-100146779D01*
X142476000Y-100121000D01*
X142476000Y-99495000D01*
X142477266Y-99469221D01*
X142481053Y-99443691D01*
X142487325Y-99418655D01*
X142496020Y-99394354D01*
X142507055Y-99371023D01*
X142520323Y-99348885D01*
X142535698Y-99328155D01*
X142553031Y-99309031D01*
X142572155Y-99291698D01*
X142592885Y-99276323D01*
X142615023Y-99263055D01*
X142638354Y-99252020D01*
X142662655Y-99243325D01*
X142687691Y-99237053D01*
X142713221Y-99233266D01*
X142739000Y-99232000D01*
X143265000Y-99232000D01*
X143290779Y-99233266D01*
G37*
G36*
X143290779Y-97483266D02*
G01*
X143316309Y-97487053D01*
X143341345Y-97493325D01*
X143365646Y-97502020D01*
X143388977Y-97513055D01*
X143411115Y-97526323D01*
X143431845Y-97541698D01*
X143450969Y-97559031D01*
X143468302Y-97578155D01*
X143483677Y-97598885D01*
X143496945Y-97621023D01*
X143507980Y-97644354D01*
X143516675Y-97668655D01*
X143522947Y-97693691D01*
X143526734Y-97719221D01*
X143528000Y-97745000D01*
X143528000Y-98371000D01*
X143526734Y-98396779D01*
X143522947Y-98422309D01*
X143516675Y-98447345D01*
X143507980Y-98471646D01*
X143496945Y-98494977D01*
X143483677Y-98517115D01*
X143468302Y-98537845D01*
X143450969Y-98556969D01*
X143431845Y-98574302D01*
X143411115Y-98589677D01*
X143388977Y-98602945D01*
X143365646Y-98613980D01*
X143341345Y-98622675D01*
X143316309Y-98628947D01*
X143290779Y-98632734D01*
X143265000Y-98634000D01*
X142739000Y-98634000D01*
X142713221Y-98632734D01*
X142687691Y-98628947D01*
X142662655Y-98622675D01*
X142638354Y-98613980D01*
X142615023Y-98602945D01*
X142592885Y-98589677D01*
X142572155Y-98574302D01*
X142553031Y-98556969D01*
X142535698Y-98537845D01*
X142520323Y-98517115D01*
X142507055Y-98494977D01*
X142496020Y-98471646D01*
X142487325Y-98447345D01*
X142481053Y-98422309D01*
X142477266Y-98396779D01*
X142476000Y-98371000D01*
X142476000Y-97745000D01*
X142477266Y-97719221D01*
X142481053Y-97693691D01*
X142487325Y-97668655D01*
X142496020Y-97644354D01*
X142507055Y-97621023D01*
X142520323Y-97598885D01*
X142535698Y-97578155D01*
X142553031Y-97559031D01*
X142572155Y-97541698D01*
X142592885Y-97526323D01*
X142615023Y-97513055D01*
X142638354Y-97502020D01*
X142662655Y-97493325D01*
X142687691Y-97487053D01*
X142713221Y-97483266D01*
X142739000Y-97482000D01*
X143265000Y-97482000D01*
X143290779Y-97483266D01*
G37*
G36*
X152952852Y-97137254D02*
G01*
X152978382Y-97141041D01*
X153003418Y-97147313D01*
X153027719Y-97156008D01*
X153051050Y-97167043D01*
X153073188Y-97180311D01*
X153093918Y-97195686D01*
X153113042Y-97213019D01*
X153484981Y-97584958D01*
X153502314Y-97604082D01*
X153517689Y-97624812D01*
X153530957Y-97646950D01*
X153541992Y-97670281D01*
X153550687Y-97694582D01*
X153556959Y-97719618D01*
X153560746Y-97745148D01*
X153562012Y-97770927D01*
X153560746Y-97796706D01*
X153556959Y-97822236D01*
X153550687Y-97847272D01*
X153541992Y-97871573D01*
X153530957Y-97894904D01*
X153517689Y-97917042D01*
X153502314Y-97937772D01*
X153484981Y-97956896D01*
X153042332Y-98399545D01*
X153023208Y-98416878D01*
X153002478Y-98432253D01*
X152980340Y-98445521D01*
X152957009Y-98456556D01*
X152932708Y-98465251D01*
X152907672Y-98471523D01*
X152882142Y-98475310D01*
X152856363Y-98476576D01*
X152830584Y-98475310D01*
X152805054Y-98471523D01*
X152780018Y-98465251D01*
X152755717Y-98456556D01*
X152732386Y-98445521D01*
X152710248Y-98432253D01*
X152689518Y-98416878D01*
X152670394Y-98399545D01*
X152298455Y-98027606D01*
X152281122Y-98008482D01*
X152265747Y-97987752D01*
X152252479Y-97965614D01*
X152241444Y-97942283D01*
X152232749Y-97917982D01*
X152226477Y-97892946D01*
X152222690Y-97867416D01*
X152221424Y-97841637D01*
X152222690Y-97815858D01*
X152226477Y-97790328D01*
X152232749Y-97765292D01*
X152241444Y-97740991D01*
X152252479Y-97717660D01*
X152265747Y-97695522D01*
X152281122Y-97674792D01*
X152298455Y-97655668D01*
X152741104Y-97213019D01*
X152760228Y-97195686D01*
X152780958Y-97180311D01*
X152803096Y-97167043D01*
X152826427Y-97156008D01*
X152850728Y-97147313D01*
X152875764Y-97141041D01*
X152901294Y-97137254D01*
X152927073Y-97135988D01*
X152952852Y-97137254D01*
G37*
G36*
X151715416Y-98374690D02*
G01*
X151740946Y-98378477D01*
X151765982Y-98384749D01*
X151790283Y-98393444D01*
X151813614Y-98404479D01*
X151835752Y-98417747D01*
X151856482Y-98433122D01*
X151875606Y-98450455D01*
X152247545Y-98822394D01*
X152264878Y-98841518D01*
X152280253Y-98862248D01*
X152293521Y-98884386D01*
X152304556Y-98907717D01*
X152313251Y-98932018D01*
X152319523Y-98957054D01*
X152323310Y-98982584D01*
X152324576Y-99008363D01*
X152323310Y-99034142D01*
X152319523Y-99059672D01*
X152313251Y-99084708D01*
X152304556Y-99109009D01*
X152293521Y-99132340D01*
X152280253Y-99154478D01*
X152264878Y-99175208D01*
X152247545Y-99194332D01*
X151804896Y-99636981D01*
X151785772Y-99654314D01*
X151765042Y-99669689D01*
X151742904Y-99682957D01*
X151719573Y-99693992D01*
X151695272Y-99702687D01*
X151670236Y-99708959D01*
X151644706Y-99712746D01*
X151618927Y-99714012D01*
X151593148Y-99712746D01*
X151567618Y-99708959D01*
X151542582Y-99702687D01*
X151518281Y-99693992D01*
X151494950Y-99682957D01*
X151472812Y-99669689D01*
X151452082Y-99654314D01*
X151432958Y-99636981D01*
X151061019Y-99265042D01*
X151043686Y-99245918D01*
X151028311Y-99225188D01*
X151015043Y-99203050D01*
X151004008Y-99179719D01*
X150995313Y-99155418D01*
X150989041Y-99130382D01*
X150985254Y-99104852D01*
X150983988Y-99079073D01*
X150985254Y-99053294D01*
X150989041Y-99027764D01*
X150995313Y-99002728D01*
X151004008Y-98978427D01*
X151015043Y-98955096D01*
X151028311Y-98932958D01*
X151043686Y-98912228D01*
X151061019Y-98893104D01*
X151503668Y-98450455D01*
X151522792Y-98433122D01*
X151543522Y-98417747D01*
X151565660Y-98404479D01*
X151588991Y-98393444D01*
X151613292Y-98384749D01*
X151638328Y-98378477D01*
X151663858Y-98374690D01*
X151689637Y-98373424D01*
X151715416Y-98374690D01*
G37*
G36*
X143671779Y-109012266D02*
G01*
X143697309Y-109016053D01*
X143722345Y-109022325D01*
X143746646Y-109031020D01*
X143769977Y-109042055D01*
X143792115Y-109055323D01*
X143812845Y-109070698D01*
X143831969Y-109088031D01*
X143849302Y-109107155D01*
X143864677Y-109127885D01*
X143877945Y-109150023D01*
X143888980Y-109173354D01*
X143897675Y-109197655D01*
X143903947Y-109222691D01*
X143907734Y-109248221D01*
X143909000Y-109274000D01*
X143909000Y-109900000D01*
X143907734Y-109925779D01*
X143903947Y-109951309D01*
X143897675Y-109976345D01*
X143888980Y-110000646D01*
X143877945Y-110023977D01*
X143864677Y-110046115D01*
X143849302Y-110066845D01*
X143831969Y-110085969D01*
X143812845Y-110103302D01*
X143792115Y-110118677D01*
X143769977Y-110131945D01*
X143746646Y-110142980D01*
X143722345Y-110151675D01*
X143697309Y-110157947D01*
X143671779Y-110161734D01*
X143646000Y-110163000D01*
X143120000Y-110163000D01*
X143094221Y-110161734D01*
X143068691Y-110157947D01*
X143043655Y-110151675D01*
X143019354Y-110142980D01*
X142996023Y-110131945D01*
X142973885Y-110118677D01*
X142953155Y-110103302D01*
X142934031Y-110085969D01*
X142916698Y-110066845D01*
X142901323Y-110046115D01*
X142888055Y-110023977D01*
X142877020Y-110000646D01*
X142868325Y-109976345D01*
X142862053Y-109951309D01*
X142858266Y-109925779D01*
X142857000Y-109900000D01*
X142857000Y-109274000D01*
X142858266Y-109248221D01*
X142862053Y-109222691D01*
X142868325Y-109197655D01*
X142877020Y-109173354D01*
X142888055Y-109150023D01*
X142901323Y-109127885D01*
X142916698Y-109107155D01*
X142934031Y-109088031D01*
X142953155Y-109070698D01*
X142973885Y-109055323D01*
X142996023Y-109042055D01*
X143019354Y-109031020D01*
X143043655Y-109022325D01*
X143068691Y-109016053D01*
X143094221Y-109012266D01*
X143120000Y-109011000D01*
X143646000Y-109011000D01*
X143671779Y-109012266D01*
G37*
G36*
X143671779Y-107262266D02*
G01*
X143697309Y-107266053D01*
X143722345Y-107272325D01*
X143746646Y-107281020D01*
X143769977Y-107292055D01*
X143792115Y-107305323D01*
X143812845Y-107320698D01*
X143831969Y-107338031D01*
X143849302Y-107357155D01*
X143864677Y-107377885D01*
X143877945Y-107400023D01*
X143888980Y-107423354D01*
X143897675Y-107447655D01*
X143903947Y-107472691D01*
X143907734Y-107498221D01*
X143909000Y-107524000D01*
X143909000Y-108150000D01*
X143907734Y-108175779D01*
X143903947Y-108201309D01*
X143897675Y-108226345D01*
X143888980Y-108250646D01*
X143877945Y-108273977D01*
X143864677Y-108296115D01*
X143849302Y-108316845D01*
X143831969Y-108335969D01*
X143812845Y-108353302D01*
X143792115Y-108368677D01*
X143769977Y-108381945D01*
X143746646Y-108392980D01*
X143722345Y-108401675D01*
X143697309Y-108407947D01*
X143671779Y-108411734D01*
X143646000Y-108413000D01*
X143120000Y-108413000D01*
X143094221Y-108411734D01*
X143068691Y-108407947D01*
X143043655Y-108401675D01*
X143019354Y-108392980D01*
X142996023Y-108381945D01*
X142973885Y-108368677D01*
X142953155Y-108353302D01*
X142934031Y-108335969D01*
X142916698Y-108316845D01*
X142901323Y-108296115D01*
X142888055Y-108273977D01*
X142877020Y-108250646D01*
X142868325Y-108226345D01*
X142862053Y-108201309D01*
X142858266Y-108175779D01*
X142857000Y-108150000D01*
X142857000Y-107524000D01*
X142858266Y-107498221D01*
X142862053Y-107472691D01*
X142868325Y-107447655D01*
X142877020Y-107423354D01*
X142888055Y-107400023D01*
X142901323Y-107377885D01*
X142916698Y-107357155D01*
X142934031Y-107338031D01*
X142953155Y-107320698D01*
X142973885Y-107305323D01*
X142996023Y-107292055D01*
X143019354Y-107281020D01*
X143043655Y-107272325D01*
X143068691Y-107266053D01*
X143094221Y-107262266D01*
X143120000Y-107261000D01*
X143646000Y-107261000D01*
X143671779Y-107262266D01*
G37*
G36*
X138718779Y-111552266D02*
G01*
X138744309Y-111556053D01*
X138769345Y-111562325D01*
X138793646Y-111571020D01*
X138816977Y-111582055D01*
X138839115Y-111595323D01*
X138859845Y-111610698D01*
X138878969Y-111628031D01*
X138896302Y-111647155D01*
X138911677Y-111667885D01*
X138924945Y-111690023D01*
X138935980Y-111713354D01*
X138944675Y-111737655D01*
X138950947Y-111762691D01*
X138954734Y-111788221D01*
X138956000Y-111814000D01*
X138956000Y-112440000D01*
X138954734Y-112465779D01*
X138950947Y-112491309D01*
X138944675Y-112516345D01*
X138935980Y-112540646D01*
X138924945Y-112563977D01*
X138911677Y-112586115D01*
X138896302Y-112606845D01*
X138878969Y-112625969D01*
X138859845Y-112643302D01*
X138839115Y-112658677D01*
X138816977Y-112671945D01*
X138793646Y-112682980D01*
X138769345Y-112691675D01*
X138744309Y-112697947D01*
X138718779Y-112701734D01*
X138693000Y-112703000D01*
X138167000Y-112703000D01*
X138141221Y-112701734D01*
X138115691Y-112697947D01*
X138090655Y-112691675D01*
X138066354Y-112682980D01*
X138043023Y-112671945D01*
X138020885Y-112658677D01*
X138000155Y-112643302D01*
X137981031Y-112625969D01*
X137963698Y-112606845D01*
X137948323Y-112586115D01*
X137935055Y-112563977D01*
X137924020Y-112540646D01*
X137915325Y-112516345D01*
X137909053Y-112491309D01*
X137905266Y-112465779D01*
X137904000Y-112440000D01*
X137904000Y-111814000D01*
X137905266Y-111788221D01*
X137909053Y-111762691D01*
X137915325Y-111737655D01*
X137924020Y-111713354D01*
X137935055Y-111690023D01*
X137948323Y-111667885D01*
X137963698Y-111647155D01*
X137981031Y-111628031D01*
X138000155Y-111610698D01*
X138020885Y-111595323D01*
X138043023Y-111582055D01*
X138066354Y-111571020D01*
X138090655Y-111562325D01*
X138115691Y-111556053D01*
X138141221Y-111552266D01*
X138167000Y-111551000D01*
X138693000Y-111551000D01*
X138718779Y-111552266D01*
G37*
G36*
X138718779Y-109802266D02*
G01*
X138744309Y-109806053D01*
X138769345Y-109812325D01*
X138793646Y-109821020D01*
X138816977Y-109832055D01*
X138839115Y-109845323D01*
X138859845Y-109860698D01*
X138878969Y-109878031D01*
X138896302Y-109897155D01*
X138911677Y-109917885D01*
X138924945Y-109940023D01*
X138935980Y-109963354D01*
X138944675Y-109987655D01*
X138950947Y-110012691D01*
X138954734Y-110038221D01*
X138956000Y-110064000D01*
X138956000Y-110690000D01*
X138954734Y-110715779D01*
X138950947Y-110741309D01*
X138944675Y-110766345D01*
X138935980Y-110790646D01*
X138924945Y-110813977D01*
X138911677Y-110836115D01*
X138896302Y-110856845D01*
X138878969Y-110875969D01*
X138859845Y-110893302D01*
X138839115Y-110908677D01*
X138816977Y-110921945D01*
X138793646Y-110932980D01*
X138769345Y-110941675D01*
X138744309Y-110947947D01*
X138718779Y-110951734D01*
X138693000Y-110953000D01*
X138167000Y-110953000D01*
X138141221Y-110951734D01*
X138115691Y-110947947D01*
X138090655Y-110941675D01*
X138066354Y-110932980D01*
X138043023Y-110921945D01*
X138020885Y-110908677D01*
X138000155Y-110893302D01*
X137981031Y-110875969D01*
X137963698Y-110856845D01*
X137948323Y-110836115D01*
X137935055Y-110813977D01*
X137924020Y-110790646D01*
X137915325Y-110766345D01*
X137909053Y-110741309D01*
X137905266Y-110715779D01*
X137904000Y-110690000D01*
X137904000Y-110064000D01*
X137905266Y-110038221D01*
X137909053Y-110012691D01*
X137915325Y-109987655D01*
X137924020Y-109963354D01*
X137935055Y-109940023D01*
X137948323Y-109917885D01*
X137963698Y-109897155D01*
X137981031Y-109878031D01*
X138000155Y-109860698D01*
X138020885Y-109845323D01*
X138043023Y-109832055D01*
X138066354Y-109821020D01*
X138090655Y-109812325D01*
X138115691Y-109806053D01*
X138141221Y-109802266D01*
X138167000Y-109801000D01*
X138693000Y-109801000D01*
X138718779Y-109802266D01*
G37*
G36*
X135706779Y-102789766D02*
G01*
X135732309Y-102793553D01*
X135757345Y-102799825D01*
X135781646Y-102808520D01*
X135804977Y-102819555D01*
X135827115Y-102832823D01*
X135847845Y-102848198D01*
X135866969Y-102865531D01*
X135884302Y-102884655D01*
X135899677Y-102905385D01*
X135912945Y-102927523D01*
X135923980Y-102950854D01*
X135932675Y-102975155D01*
X135938947Y-103000191D01*
X135942734Y-103025721D01*
X135944000Y-103051500D01*
X135944000Y-103577500D01*
X135942734Y-103603279D01*
X135938947Y-103628809D01*
X135932675Y-103653845D01*
X135923980Y-103678146D01*
X135912945Y-103701477D01*
X135899677Y-103723615D01*
X135884302Y-103744345D01*
X135866969Y-103763469D01*
X135847845Y-103780802D01*
X135827115Y-103796177D01*
X135804977Y-103809445D01*
X135781646Y-103820480D01*
X135757345Y-103829175D01*
X135732309Y-103835447D01*
X135706779Y-103839234D01*
X135681000Y-103840500D01*
X135055000Y-103840500D01*
X135029221Y-103839234D01*
X135003691Y-103835447D01*
X134978655Y-103829175D01*
X134954354Y-103820480D01*
X134931023Y-103809445D01*
X134908885Y-103796177D01*
X134888155Y-103780802D01*
X134869031Y-103763469D01*
X134851698Y-103744345D01*
X134836323Y-103723615D01*
X134823055Y-103701477D01*
X134812020Y-103678146D01*
X134803325Y-103653845D01*
X134797053Y-103628809D01*
X134793266Y-103603279D01*
X134792000Y-103577500D01*
X134792000Y-103051500D01*
X134793266Y-103025721D01*
X134797053Y-103000191D01*
X134803325Y-102975155D01*
X134812020Y-102950854D01*
X134823055Y-102927523D01*
X134836323Y-102905385D01*
X134851698Y-102884655D01*
X134869031Y-102865531D01*
X134888155Y-102848198D01*
X134908885Y-102832823D01*
X134931023Y-102819555D01*
X134954354Y-102808520D01*
X134978655Y-102799825D01*
X135003691Y-102793553D01*
X135029221Y-102789766D01*
X135055000Y-102788500D01*
X135681000Y-102788500D01*
X135706779Y-102789766D01*
G37*
G36*
X133956779Y-102789766D02*
G01*
X133982309Y-102793553D01*
X134007345Y-102799825D01*
X134031646Y-102808520D01*
X134054977Y-102819555D01*
X134077115Y-102832823D01*
X134097845Y-102848198D01*
X134116969Y-102865531D01*
X134134302Y-102884655D01*
X134149677Y-102905385D01*
X134162945Y-102927523D01*
X134173980Y-102950854D01*
X134182675Y-102975155D01*
X134188947Y-103000191D01*
X134192734Y-103025721D01*
X134194000Y-103051500D01*
X134194000Y-103577500D01*
X134192734Y-103603279D01*
X134188947Y-103628809D01*
X134182675Y-103653845D01*
X134173980Y-103678146D01*
X134162945Y-103701477D01*
X134149677Y-103723615D01*
X134134302Y-103744345D01*
X134116969Y-103763469D01*
X134097845Y-103780802D01*
X134077115Y-103796177D01*
X134054977Y-103809445D01*
X134031646Y-103820480D01*
X134007345Y-103829175D01*
X133982309Y-103835447D01*
X133956779Y-103839234D01*
X133931000Y-103840500D01*
X133305000Y-103840500D01*
X133279221Y-103839234D01*
X133253691Y-103835447D01*
X133228655Y-103829175D01*
X133204354Y-103820480D01*
X133181023Y-103809445D01*
X133158885Y-103796177D01*
X133138155Y-103780802D01*
X133119031Y-103763469D01*
X133101698Y-103744345D01*
X133086323Y-103723615D01*
X133073055Y-103701477D01*
X133062020Y-103678146D01*
X133053325Y-103653845D01*
X133047053Y-103628809D01*
X133043266Y-103603279D01*
X133042000Y-103577500D01*
X133042000Y-103051500D01*
X133043266Y-103025721D01*
X133047053Y-103000191D01*
X133053325Y-102975155D01*
X133062020Y-102950854D01*
X133073055Y-102927523D01*
X133086323Y-102905385D01*
X133101698Y-102884655D01*
X133119031Y-102865531D01*
X133138155Y-102848198D01*
X133158885Y-102832823D01*
X133181023Y-102819555D01*
X133204354Y-102808520D01*
X133228655Y-102799825D01*
X133253691Y-102793553D01*
X133279221Y-102789766D01*
X133305000Y-102788500D01*
X133931000Y-102788500D01*
X133956779Y-102789766D01*
G37*
G36*
X136734365Y-92974781D02*
G01*
X136759895Y-92978568D01*
X136784931Y-92984840D01*
X136809232Y-92993535D01*
X136832563Y-93004570D01*
X136854701Y-93017838D01*
X136875431Y-93033213D01*
X136894555Y-93050546D01*
X137266494Y-93422485D01*
X137283827Y-93441609D01*
X137299202Y-93462339D01*
X137312470Y-93484477D01*
X137323505Y-93507808D01*
X137332200Y-93532109D01*
X137338472Y-93557145D01*
X137342259Y-93582675D01*
X137343525Y-93608454D01*
X137342259Y-93634233D01*
X137338472Y-93659763D01*
X137332200Y-93684799D01*
X137323505Y-93709100D01*
X137312470Y-93732431D01*
X137299202Y-93754569D01*
X137283827Y-93775299D01*
X137266494Y-93794423D01*
X136823845Y-94237072D01*
X136804721Y-94254405D01*
X136783991Y-94269780D01*
X136761853Y-94283048D01*
X136738522Y-94294083D01*
X136714221Y-94302778D01*
X136689185Y-94309050D01*
X136663655Y-94312837D01*
X136637876Y-94314103D01*
X136612097Y-94312837D01*
X136586567Y-94309050D01*
X136561531Y-94302778D01*
X136537230Y-94294083D01*
X136513899Y-94283048D01*
X136491761Y-94269780D01*
X136471031Y-94254405D01*
X136451907Y-94237072D01*
X136079968Y-93865133D01*
X136062635Y-93846009D01*
X136047260Y-93825279D01*
X136033992Y-93803141D01*
X136022957Y-93779810D01*
X136014262Y-93755509D01*
X136007990Y-93730473D01*
X136004203Y-93704943D01*
X136002937Y-93679164D01*
X136004203Y-93653385D01*
X136007990Y-93627855D01*
X136014262Y-93602819D01*
X136022957Y-93578518D01*
X136033992Y-93555187D01*
X136047260Y-93533049D01*
X136062635Y-93512319D01*
X136079968Y-93493195D01*
X136522617Y-93050546D01*
X136541741Y-93033213D01*
X136562471Y-93017838D01*
X136584609Y-93004570D01*
X136607940Y-92993535D01*
X136632241Y-92984840D01*
X136657277Y-92978568D01*
X136682807Y-92974781D01*
X136708586Y-92973515D01*
X136734365Y-92974781D01*
G37*
G36*
X135496929Y-94212217D02*
G01*
X135522459Y-94216004D01*
X135547495Y-94222276D01*
X135571796Y-94230971D01*
X135595127Y-94242006D01*
X135617265Y-94255274D01*
X135637995Y-94270649D01*
X135657119Y-94287982D01*
X136029058Y-94659921D01*
X136046391Y-94679045D01*
X136061766Y-94699775D01*
X136075034Y-94721913D01*
X136086069Y-94745244D01*
X136094764Y-94769545D01*
X136101036Y-94794581D01*
X136104823Y-94820111D01*
X136106089Y-94845890D01*
X136104823Y-94871669D01*
X136101036Y-94897199D01*
X136094764Y-94922235D01*
X136086069Y-94946536D01*
X136075034Y-94969867D01*
X136061766Y-94992005D01*
X136046391Y-95012735D01*
X136029058Y-95031859D01*
X135586409Y-95474508D01*
X135567285Y-95491841D01*
X135546555Y-95507216D01*
X135524417Y-95520484D01*
X135501086Y-95531519D01*
X135476785Y-95540214D01*
X135451749Y-95546486D01*
X135426219Y-95550273D01*
X135400440Y-95551539D01*
X135374661Y-95550273D01*
X135349131Y-95546486D01*
X135324095Y-95540214D01*
X135299794Y-95531519D01*
X135276463Y-95520484D01*
X135254325Y-95507216D01*
X135233595Y-95491841D01*
X135214471Y-95474508D01*
X134842532Y-95102569D01*
X134825199Y-95083445D01*
X134809824Y-95062715D01*
X134796556Y-95040577D01*
X134785521Y-95017246D01*
X134776826Y-94992945D01*
X134770554Y-94967909D01*
X134766767Y-94942379D01*
X134765501Y-94916600D01*
X134766767Y-94890821D01*
X134770554Y-94865291D01*
X134776826Y-94840255D01*
X134785521Y-94815954D01*
X134796556Y-94792623D01*
X134809824Y-94770485D01*
X134825199Y-94749755D01*
X134842532Y-94730631D01*
X135285181Y-94287982D01*
X135304305Y-94270649D01*
X135325035Y-94255274D01*
X135347173Y-94242006D01*
X135370504Y-94230971D01*
X135394805Y-94222276D01*
X135419841Y-94216004D01*
X135445371Y-94212217D01*
X135471150Y-94210951D01*
X135496929Y-94212217D01*
G37*
G36*
X145830779Y-100947766D02*
G01*
X145856309Y-100951553D01*
X145881345Y-100957825D01*
X145905646Y-100966520D01*
X145928977Y-100977555D01*
X145951115Y-100990823D01*
X145971845Y-101006198D01*
X145990969Y-101023531D01*
X146008302Y-101042655D01*
X146023677Y-101063385D01*
X146036945Y-101085523D01*
X146047980Y-101108854D01*
X146056675Y-101133155D01*
X146062947Y-101158191D01*
X146066734Y-101183721D01*
X146068000Y-101209500D01*
X146068000Y-101835500D01*
X146066734Y-101861279D01*
X146062947Y-101886809D01*
X146056675Y-101911845D01*
X146047980Y-101936146D01*
X146036945Y-101959477D01*
X146023677Y-101981615D01*
X146008302Y-102002345D01*
X145990969Y-102021469D01*
X145971845Y-102038802D01*
X145951115Y-102054177D01*
X145928977Y-102067445D01*
X145905646Y-102078480D01*
X145881345Y-102087175D01*
X145856309Y-102093447D01*
X145830779Y-102097234D01*
X145805000Y-102098500D01*
X145279000Y-102098500D01*
X145253221Y-102097234D01*
X145227691Y-102093447D01*
X145202655Y-102087175D01*
X145178354Y-102078480D01*
X145155023Y-102067445D01*
X145132885Y-102054177D01*
X145112155Y-102038802D01*
X145093031Y-102021469D01*
X145075698Y-102002345D01*
X145060323Y-101981615D01*
X145047055Y-101959477D01*
X145036020Y-101936146D01*
X145027325Y-101911845D01*
X145021053Y-101886809D01*
X145017266Y-101861279D01*
X145016000Y-101835500D01*
X145016000Y-101209500D01*
X145017266Y-101183721D01*
X145021053Y-101158191D01*
X145027325Y-101133155D01*
X145036020Y-101108854D01*
X145047055Y-101085523D01*
X145060323Y-101063385D01*
X145075698Y-101042655D01*
X145093031Y-101023531D01*
X145112155Y-101006198D01*
X145132885Y-100990823D01*
X145155023Y-100977555D01*
X145178354Y-100966520D01*
X145202655Y-100957825D01*
X145227691Y-100951553D01*
X145253221Y-100947766D01*
X145279000Y-100946500D01*
X145805000Y-100946500D01*
X145830779Y-100947766D01*
G37*
G36*
X145830779Y-99197766D02*
G01*
X145856309Y-99201553D01*
X145881345Y-99207825D01*
X145905646Y-99216520D01*
X145928977Y-99227555D01*
X145951115Y-99240823D01*
X145971845Y-99256198D01*
X145990969Y-99273531D01*
X146008302Y-99292655D01*
X146023677Y-99313385D01*
X146036945Y-99335523D01*
X146047980Y-99358854D01*
X146056675Y-99383155D01*
X146062947Y-99408191D01*
X146066734Y-99433721D01*
X146068000Y-99459500D01*
X146068000Y-100085500D01*
X146066734Y-100111279D01*
X146062947Y-100136809D01*
X146056675Y-100161845D01*
X146047980Y-100186146D01*
X146036945Y-100209477D01*
X146023677Y-100231615D01*
X146008302Y-100252345D01*
X145990969Y-100271469D01*
X145971845Y-100288802D01*
X145951115Y-100304177D01*
X145928977Y-100317445D01*
X145905646Y-100328480D01*
X145881345Y-100337175D01*
X145856309Y-100343447D01*
X145830779Y-100347234D01*
X145805000Y-100348500D01*
X145279000Y-100348500D01*
X145253221Y-100347234D01*
X145227691Y-100343447D01*
X145202655Y-100337175D01*
X145178354Y-100328480D01*
X145155023Y-100317445D01*
X145132885Y-100304177D01*
X145112155Y-100288802D01*
X145093031Y-100271469D01*
X145075698Y-100252345D01*
X145060323Y-100231615D01*
X145047055Y-100209477D01*
X145036020Y-100186146D01*
X145027325Y-100161845D01*
X145021053Y-100136809D01*
X145017266Y-100111279D01*
X145016000Y-100085500D01*
X145016000Y-99459500D01*
X145017266Y-99433721D01*
X145021053Y-99408191D01*
X145027325Y-99383155D01*
X145036020Y-99358854D01*
X145047055Y-99335523D01*
X145060323Y-99313385D01*
X145075698Y-99292655D01*
X145093031Y-99273531D01*
X145112155Y-99256198D01*
X145132885Y-99240823D01*
X145155023Y-99227555D01*
X145178354Y-99216520D01*
X145202655Y-99207825D01*
X145227691Y-99201553D01*
X145253221Y-99197766D01*
X145279000Y-99196500D01*
X145805000Y-99196500D01*
X145830779Y-99197766D01*
G37*
G36*
X145830779Y-103198266D02*
G01*
X145856309Y-103202053D01*
X145881345Y-103208325D01*
X145905646Y-103217020D01*
X145928977Y-103228055D01*
X145951115Y-103241323D01*
X145971845Y-103256698D01*
X145990969Y-103274031D01*
X146008302Y-103293155D01*
X146023677Y-103313885D01*
X146036945Y-103336023D01*
X146047980Y-103359354D01*
X146056675Y-103383655D01*
X146062947Y-103408691D01*
X146066734Y-103434221D01*
X146068000Y-103460000D01*
X146068000Y-104086000D01*
X146066734Y-104111779D01*
X146062947Y-104137309D01*
X146056675Y-104162345D01*
X146047980Y-104186646D01*
X146036945Y-104209977D01*
X146023677Y-104232115D01*
X146008302Y-104252845D01*
X145990969Y-104271969D01*
X145971845Y-104289302D01*
X145951115Y-104304677D01*
X145928977Y-104317945D01*
X145905646Y-104328980D01*
X145881345Y-104337675D01*
X145856309Y-104343947D01*
X145830779Y-104347734D01*
X145805000Y-104349000D01*
X145279000Y-104349000D01*
X145253221Y-104347734D01*
X145227691Y-104343947D01*
X145202655Y-104337675D01*
X145178354Y-104328980D01*
X145155023Y-104317945D01*
X145132885Y-104304677D01*
X145112155Y-104289302D01*
X145093031Y-104271969D01*
X145075698Y-104252845D01*
X145060323Y-104232115D01*
X145047055Y-104209977D01*
X145036020Y-104186646D01*
X145027325Y-104162345D01*
X145021053Y-104137309D01*
X145017266Y-104111779D01*
X145016000Y-104086000D01*
X145016000Y-103460000D01*
X145017266Y-103434221D01*
X145021053Y-103408691D01*
X145027325Y-103383655D01*
X145036020Y-103359354D01*
X145047055Y-103336023D01*
X145060323Y-103313885D01*
X145075698Y-103293155D01*
X145093031Y-103274031D01*
X145112155Y-103256698D01*
X145132885Y-103241323D01*
X145155023Y-103228055D01*
X145178354Y-103217020D01*
X145202655Y-103208325D01*
X145227691Y-103202053D01*
X145253221Y-103198266D01*
X145279000Y-103197000D01*
X145805000Y-103197000D01*
X145830779Y-103198266D01*
G37*
G36*
X145830779Y-104948266D02*
G01*
X145856309Y-104952053D01*
X145881345Y-104958325D01*
X145905646Y-104967020D01*
X145928977Y-104978055D01*
X145951115Y-104991323D01*
X145971845Y-105006698D01*
X145990969Y-105024031D01*
X146008302Y-105043155D01*
X146023677Y-105063885D01*
X146036945Y-105086023D01*
X146047980Y-105109354D01*
X146056675Y-105133655D01*
X146062947Y-105158691D01*
X146066734Y-105184221D01*
X146068000Y-105210000D01*
X146068000Y-105836000D01*
X146066734Y-105861779D01*
X146062947Y-105887309D01*
X146056675Y-105912345D01*
X146047980Y-105936646D01*
X146036945Y-105959977D01*
X146023677Y-105982115D01*
X146008302Y-106002845D01*
X145990969Y-106021969D01*
X145971845Y-106039302D01*
X145951115Y-106054677D01*
X145928977Y-106067945D01*
X145905646Y-106078980D01*
X145881345Y-106087675D01*
X145856309Y-106093947D01*
X145830779Y-106097734D01*
X145805000Y-106099000D01*
X145279000Y-106099000D01*
X145253221Y-106097734D01*
X145227691Y-106093947D01*
X145202655Y-106087675D01*
X145178354Y-106078980D01*
X145155023Y-106067945D01*
X145132885Y-106054677D01*
X145112155Y-106039302D01*
X145093031Y-106021969D01*
X145075698Y-106002845D01*
X145060323Y-105982115D01*
X145047055Y-105959977D01*
X145036020Y-105936646D01*
X145027325Y-105912345D01*
X145021053Y-105887309D01*
X145017266Y-105861779D01*
X145016000Y-105836000D01*
X145016000Y-105210000D01*
X145017266Y-105184221D01*
X145021053Y-105158691D01*
X145027325Y-105133655D01*
X145036020Y-105109354D01*
X145047055Y-105086023D01*
X145060323Y-105063885D01*
X145075698Y-105043155D01*
X145093031Y-105024031D01*
X145112155Y-105006698D01*
X145132885Y-104991323D01*
X145155023Y-104978055D01*
X145178354Y-104967020D01*
X145202655Y-104958325D01*
X145227691Y-104952053D01*
X145253221Y-104948266D01*
X145279000Y-104947000D01*
X145805000Y-104947000D01*
X145830779Y-104948266D01*
G37*
G36*
X139834279Y-106409266D02*
G01*
X139859809Y-106413053D01*
X139884845Y-106419325D01*
X139909146Y-106428020D01*
X139932477Y-106439055D01*
X139954615Y-106452323D01*
X139975345Y-106467698D01*
X139994469Y-106485031D01*
X140011802Y-106504155D01*
X140027177Y-106524885D01*
X140040445Y-106547023D01*
X140051480Y-106570354D01*
X140060175Y-106594655D01*
X140066447Y-106619691D01*
X140070234Y-106645221D01*
X140071500Y-106671000D01*
X140071500Y-107197000D01*
X140070234Y-107222779D01*
X140066447Y-107248309D01*
X140060175Y-107273345D01*
X140051480Y-107297646D01*
X140040445Y-107320977D01*
X140027177Y-107343115D01*
X140011802Y-107363845D01*
X139994469Y-107382969D01*
X139975345Y-107400302D01*
X139954615Y-107415677D01*
X139932477Y-107428945D01*
X139909146Y-107439980D01*
X139884845Y-107448675D01*
X139859809Y-107454947D01*
X139834279Y-107458734D01*
X139808500Y-107460000D01*
X139182500Y-107460000D01*
X139156721Y-107458734D01*
X139131191Y-107454947D01*
X139106155Y-107448675D01*
X139081854Y-107439980D01*
X139058523Y-107428945D01*
X139036385Y-107415677D01*
X139015655Y-107400302D01*
X138996531Y-107382969D01*
X138979198Y-107363845D01*
X138963823Y-107343115D01*
X138950555Y-107320977D01*
X138939520Y-107297646D01*
X138930825Y-107273345D01*
X138924553Y-107248309D01*
X138920766Y-107222779D01*
X138919500Y-107197000D01*
X138919500Y-106671000D01*
X138920766Y-106645221D01*
X138924553Y-106619691D01*
X138930825Y-106594655D01*
X138939520Y-106570354D01*
X138950555Y-106547023D01*
X138963823Y-106524885D01*
X138979198Y-106504155D01*
X138996531Y-106485031D01*
X139015655Y-106467698D01*
X139036385Y-106452323D01*
X139058523Y-106439055D01*
X139081854Y-106428020D01*
X139106155Y-106419325D01*
X139131191Y-106413053D01*
X139156721Y-106409266D01*
X139182500Y-106408000D01*
X139808500Y-106408000D01*
X139834279Y-106409266D01*
G37*
G36*
X138084279Y-106409266D02*
G01*
X138109809Y-106413053D01*
X138134845Y-106419325D01*
X138159146Y-106428020D01*
X138182477Y-106439055D01*
X138204615Y-106452323D01*
X138225345Y-106467698D01*
X138244469Y-106485031D01*
X138261802Y-106504155D01*
X138277177Y-106524885D01*
X138290445Y-106547023D01*
X138301480Y-106570354D01*
X138310175Y-106594655D01*
X138316447Y-106619691D01*
X138320234Y-106645221D01*
X138321500Y-106671000D01*
X138321500Y-107197000D01*
X138320234Y-107222779D01*
X138316447Y-107248309D01*
X138310175Y-107273345D01*
X138301480Y-107297646D01*
X138290445Y-107320977D01*
X138277177Y-107343115D01*
X138261802Y-107363845D01*
X138244469Y-107382969D01*
X138225345Y-107400302D01*
X138204615Y-107415677D01*
X138182477Y-107428945D01*
X138159146Y-107439980D01*
X138134845Y-107448675D01*
X138109809Y-107454947D01*
X138084279Y-107458734D01*
X138058500Y-107460000D01*
X137432500Y-107460000D01*
X137406721Y-107458734D01*
X137381191Y-107454947D01*
X137356155Y-107448675D01*
X137331854Y-107439980D01*
X137308523Y-107428945D01*
X137286385Y-107415677D01*
X137265655Y-107400302D01*
X137246531Y-107382969D01*
X137229198Y-107363845D01*
X137213823Y-107343115D01*
X137200555Y-107320977D01*
X137189520Y-107297646D01*
X137180825Y-107273345D01*
X137174553Y-107248309D01*
X137170766Y-107222779D01*
X137169500Y-107197000D01*
X137169500Y-106671000D01*
X137170766Y-106645221D01*
X137174553Y-106619691D01*
X137180825Y-106594655D01*
X137189520Y-106570354D01*
X137200555Y-106547023D01*
X137213823Y-106524885D01*
X137229198Y-106504155D01*
X137246531Y-106485031D01*
X137265655Y-106467698D01*
X137286385Y-106452323D01*
X137308523Y-106439055D01*
X137331854Y-106428020D01*
X137356155Y-106419325D01*
X137381191Y-106413053D01*
X137406721Y-106409266D01*
X137432500Y-106408000D01*
X138058500Y-106408000D01*
X138084279Y-106409266D01*
G37*
G36*
X132856503Y-96838577D02*
G01*
X132882033Y-96842364D01*
X132907069Y-96848636D01*
X132931370Y-96857331D01*
X132954701Y-96868366D01*
X132976839Y-96881634D01*
X132997569Y-96897009D01*
X133016693Y-96914342D01*
X133388632Y-97286281D01*
X133405965Y-97305405D01*
X133421340Y-97326135D01*
X133434608Y-97348273D01*
X133445643Y-97371604D01*
X133454338Y-97395905D01*
X133460610Y-97420941D01*
X133464397Y-97446471D01*
X133465663Y-97472250D01*
X133464397Y-97498029D01*
X133460610Y-97523559D01*
X133454338Y-97548595D01*
X133445643Y-97572896D01*
X133434608Y-97596227D01*
X133421340Y-97618365D01*
X133405965Y-97639095D01*
X133388632Y-97658219D01*
X132945983Y-98100868D01*
X132926859Y-98118201D01*
X132906129Y-98133576D01*
X132883991Y-98146844D01*
X132860660Y-98157879D01*
X132836359Y-98166574D01*
X132811323Y-98172846D01*
X132785793Y-98176633D01*
X132760014Y-98177899D01*
X132734235Y-98176633D01*
X132708705Y-98172846D01*
X132683669Y-98166574D01*
X132659368Y-98157879D01*
X132636037Y-98146844D01*
X132613899Y-98133576D01*
X132593169Y-98118201D01*
X132574045Y-98100868D01*
X132202106Y-97728929D01*
X132184773Y-97709805D01*
X132169398Y-97689075D01*
X132156130Y-97666937D01*
X132145095Y-97643606D01*
X132136400Y-97619305D01*
X132130128Y-97594269D01*
X132126341Y-97568739D01*
X132125075Y-97542960D01*
X132126341Y-97517181D01*
X132130128Y-97491651D01*
X132136400Y-97466615D01*
X132145095Y-97442314D01*
X132156130Y-97418983D01*
X132169398Y-97396845D01*
X132184773Y-97376115D01*
X132202106Y-97356991D01*
X132644755Y-96914342D01*
X132663879Y-96897009D01*
X132684609Y-96881634D01*
X132706747Y-96868366D01*
X132730078Y-96857331D01*
X132754379Y-96848636D01*
X132779415Y-96842364D01*
X132804945Y-96838577D01*
X132830724Y-96837311D01*
X132856503Y-96838577D01*
G37*
G36*
X134093939Y-95601141D02*
G01*
X134119469Y-95604928D01*
X134144505Y-95611200D01*
X134168806Y-95619895D01*
X134192137Y-95630930D01*
X134214275Y-95644198D01*
X134235005Y-95659573D01*
X134254129Y-95676906D01*
X134626068Y-96048845D01*
X134643401Y-96067969D01*
X134658776Y-96088699D01*
X134672044Y-96110837D01*
X134683079Y-96134168D01*
X134691774Y-96158469D01*
X134698046Y-96183505D01*
X134701833Y-96209035D01*
X134703099Y-96234814D01*
X134701833Y-96260593D01*
X134698046Y-96286123D01*
X134691774Y-96311159D01*
X134683079Y-96335460D01*
X134672044Y-96358791D01*
X134658776Y-96380929D01*
X134643401Y-96401659D01*
X134626068Y-96420783D01*
X134183419Y-96863432D01*
X134164295Y-96880765D01*
X134143565Y-96896140D01*
X134121427Y-96909408D01*
X134098096Y-96920443D01*
X134073795Y-96929138D01*
X134048759Y-96935410D01*
X134023229Y-96939197D01*
X133997450Y-96940463D01*
X133971671Y-96939197D01*
X133946141Y-96935410D01*
X133921105Y-96929138D01*
X133896804Y-96920443D01*
X133873473Y-96909408D01*
X133851335Y-96896140D01*
X133830605Y-96880765D01*
X133811481Y-96863432D01*
X133439542Y-96491493D01*
X133422209Y-96472369D01*
X133406834Y-96451639D01*
X133393566Y-96429501D01*
X133382531Y-96406170D01*
X133373836Y-96381869D01*
X133367564Y-96356833D01*
X133363777Y-96331303D01*
X133362511Y-96305524D01*
X133363777Y-96279745D01*
X133367564Y-96254215D01*
X133373836Y-96229179D01*
X133382531Y-96204878D01*
X133393566Y-96181547D01*
X133406834Y-96159409D01*
X133422209Y-96138679D01*
X133439542Y-96119555D01*
X133882191Y-95676906D01*
X133901315Y-95659573D01*
X133922045Y-95644198D01*
X133944183Y-95630930D01*
X133967514Y-95619895D01*
X133991815Y-95611200D01*
X134016851Y-95604928D01*
X134042381Y-95601141D01*
X134068160Y-95599875D01*
X134093939Y-95601141D01*
G37*
G36*
X157477505Y-117826811D02*
G01*
X157503925Y-117830730D01*
X157529835Y-117837220D01*
X157554983Y-117846218D01*
X157579128Y-117857638D01*
X157602038Y-117871369D01*
X157623492Y-117887280D01*
X157643282Y-117905218D01*
X157661220Y-117925008D01*
X157677131Y-117946462D01*
X157690862Y-117969372D01*
X157702282Y-117993517D01*
X157711280Y-118018665D01*
X157717770Y-118044575D01*
X157721689Y-118070995D01*
X157723000Y-118097673D01*
X157723000Y-118805327D01*
X157721689Y-118832005D01*
X157717770Y-118858425D01*
X157711280Y-118884335D01*
X157702282Y-118909483D01*
X157690862Y-118933628D01*
X157677131Y-118956538D01*
X157661220Y-118977992D01*
X157643282Y-118997782D01*
X157623492Y-119015720D01*
X157602038Y-119031631D01*
X157579128Y-119045362D01*
X157554983Y-119056782D01*
X157529835Y-119065780D01*
X157503925Y-119072270D01*
X157477505Y-119076189D01*
X157450827Y-119077500D01*
X156493173Y-119077500D01*
X156466495Y-119076189D01*
X156440075Y-119072270D01*
X156414165Y-119065780D01*
X156389017Y-119056782D01*
X156364872Y-119045362D01*
X156341962Y-119031631D01*
X156320508Y-119015720D01*
X156300718Y-118997782D01*
X156282780Y-118977992D01*
X156266869Y-118956538D01*
X156253138Y-118933628D01*
X156241718Y-118909483D01*
X156232720Y-118884335D01*
X156226230Y-118858425D01*
X156222311Y-118832005D01*
X156221000Y-118805327D01*
X156221000Y-118097673D01*
X156222311Y-118070995D01*
X156226230Y-118044575D01*
X156232720Y-118018665D01*
X156241718Y-117993517D01*
X156253138Y-117969372D01*
X156266869Y-117946462D01*
X156282780Y-117925008D01*
X156300718Y-117905218D01*
X156320508Y-117887280D01*
X156341962Y-117871369D01*
X156364872Y-117857638D01*
X156389017Y-117846218D01*
X156414165Y-117837220D01*
X156440075Y-117830730D01*
X156466495Y-117826811D01*
X156493173Y-117825500D01*
X157450827Y-117825500D01*
X157477505Y-117826811D01*
G37*
G36*
X157477505Y-115776811D02*
G01*
X157503925Y-115780730D01*
X157529835Y-115787220D01*
X157554983Y-115796218D01*
X157579128Y-115807638D01*
X157602038Y-115821369D01*
X157623492Y-115837280D01*
X157643282Y-115855218D01*
X157661220Y-115875008D01*
X157677131Y-115896462D01*
X157690862Y-115919372D01*
X157702282Y-115943517D01*
X157711280Y-115968665D01*
X157717770Y-115994575D01*
X157721689Y-116020995D01*
X157723000Y-116047673D01*
X157723000Y-116755327D01*
X157721689Y-116782005D01*
X157717770Y-116808425D01*
X157711280Y-116834335D01*
X157702282Y-116859483D01*
X157690862Y-116883628D01*
X157677131Y-116906538D01*
X157661220Y-116927992D01*
X157643282Y-116947782D01*
X157623492Y-116965720D01*
X157602038Y-116981631D01*
X157579128Y-116995362D01*
X157554983Y-117006782D01*
X157529835Y-117015780D01*
X157503925Y-117022270D01*
X157477505Y-117026189D01*
X157450827Y-117027500D01*
X156493173Y-117027500D01*
X156466495Y-117026189D01*
X156440075Y-117022270D01*
X156414165Y-117015780D01*
X156389017Y-117006782D01*
X156364872Y-116995362D01*
X156341962Y-116981631D01*
X156320508Y-116965720D01*
X156300718Y-116947782D01*
X156282780Y-116927992D01*
X156266869Y-116906538D01*
X156253138Y-116883628D01*
X156241718Y-116859483D01*
X156232720Y-116834335D01*
X156226230Y-116808425D01*
X156222311Y-116782005D01*
X156221000Y-116755327D01*
X156221000Y-116047673D01*
X156222311Y-116020995D01*
X156226230Y-115994575D01*
X156232720Y-115968665D01*
X156241718Y-115943517D01*
X156253138Y-115919372D01*
X156266869Y-115896462D01*
X156282780Y-115875008D01*
X156300718Y-115855218D01*
X156320508Y-115837280D01*
X156341962Y-115821369D01*
X156364872Y-115807638D01*
X156389017Y-115796218D01*
X156414165Y-115787220D01*
X156440075Y-115780730D01*
X156466495Y-115776811D01*
X156493173Y-115775500D01*
X157450827Y-115775500D01*
X157477505Y-115776811D01*
G37*
G36*
X166302305Y-111213511D02*
G01*
X166328725Y-111217430D01*
X166354635Y-111223920D01*
X166379783Y-111232918D01*
X166403928Y-111244338D01*
X166426838Y-111258069D01*
X166448292Y-111273980D01*
X166468082Y-111291918D01*
X166486020Y-111311708D01*
X166501931Y-111333162D01*
X166515662Y-111356072D01*
X166527082Y-111380217D01*
X166536080Y-111405365D01*
X166542570Y-111431275D01*
X166546489Y-111457695D01*
X166547800Y-111484373D01*
X166547800Y-112442027D01*
X166546489Y-112468705D01*
X166542570Y-112495125D01*
X166536080Y-112521035D01*
X166527082Y-112546183D01*
X166515662Y-112570328D01*
X166501931Y-112593238D01*
X166486020Y-112614692D01*
X166468082Y-112634482D01*
X166448292Y-112652420D01*
X166426838Y-112668331D01*
X166403928Y-112682062D01*
X166379783Y-112693482D01*
X166354635Y-112702480D01*
X166328725Y-112708970D01*
X166302305Y-112712889D01*
X166275627Y-112714200D01*
X165567973Y-112714200D01*
X165541295Y-112712889D01*
X165514875Y-112708970D01*
X165488965Y-112702480D01*
X165463817Y-112693482D01*
X165439672Y-112682062D01*
X165416762Y-112668331D01*
X165395308Y-112652420D01*
X165375518Y-112634482D01*
X165357580Y-112614692D01*
X165341669Y-112593238D01*
X165327938Y-112570328D01*
X165316518Y-112546183D01*
X165307520Y-112521035D01*
X165301030Y-112495125D01*
X165297111Y-112468705D01*
X165295800Y-112442027D01*
X165295800Y-111484373D01*
X165297111Y-111457695D01*
X165301030Y-111431275D01*
X165307520Y-111405365D01*
X165316518Y-111380217D01*
X165327938Y-111356072D01*
X165341669Y-111333162D01*
X165357580Y-111311708D01*
X165375518Y-111291918D01*
X165395308Y-111273980D01*
X165416762Y-111258069D01*
X165439672Y-111244338D01*
X165463817Y-111232918D01*
X165488965Y-111223920D01*
X165514875Y-111217430D01*
X165541295Y-111213511D01*
X165567973Y-111212200D01*
X166275627Y-111212200D01*
X166302305Y-111213511D01*
G37*
G36*
X164252305Y-111213511D02*
G01*
X164278725Y-111217430D01*
X164304635Y-111223920D01*
X164329783Y-111232918D01*
X164353928Y-111244338D01*
X164376838Y-111258069D01*
X164398292Y-111273980D01*
X164418082Y-111291918D01*
X164436020Y-111311708D01*
X164451931Y-111333162D01*
X164465662Y-111356072D01*
X164477082Y-111380217D01*
X164486080Y-111405365D01*
X164492570Y-111431275D01*
X164496489Y-111457695D01*
X164497800Y-111484373D01*
X164497800Y-112442027D01*
X164496489Y-112468705D01*
X164492570Y-112495125D01*
X164486080Y-112521035D01*
X164477082Y-112546183D01*
X164465662Y-112570328D01*
X164451931Y-112593238D01*
X164436020Y-112614692D01*
X164418082Y-112634482D01*
X164398292Y-112652420D01*
X164376838Y-112668331D01*
X164353928Y-112682062D01*
X164329783Y-112693482D01*
X164304635Y-112702480D01*
X164278725Y-112708970D01*
X164252305Y-112712889D01*
X164225627Y-112714200D01*
X163517973Y-112714200D01*
X163491295Y-112712889D01*
X163464875Y-112708970D01*
X163438965Y-112702480D01*
X163413817Y-112693482D01*
X163389672Y-112682062D01*
X163366762Y-112668331D01*
X163345308Y-112652420D01*
X163325518Y-112634482D01*
X163307580Y-112614692D01*
X163291669Y-112593238D01*
X163277938Y-112570328D01*
X163266518Y-112546183D01*
X163257520Y-112521035D01*
X163251030Y-112495125D01*
X163247111Y-112468705D01*
X163245800Y-112442027D01*
X163245800Y-111484373D01*
X163247111Y-111457695D01*
X163251030Y-111431275D01*
X163257520Y-111405365D01*
X163266518Y-111380217D01*
X163277938Y-111356072D01*
X163291669Y-111333162D01*
X163307580Y-111311708D01*
X163325518Y-111291918D01*
X163345308Y-111273980D01*
X163366762Y-111258069D01*
X163389672Y-111244338D01*
X163413817Y-111232918D01*
X163438965Y-111223920D01*
X163464875Y-111217430D01*
X163491295Y-111213511D01*
X163517973Y-111212200D01*
X164225627Y-111212200D01*
X164252305Y-111213511D01*
G37*
G36*
X134105265Y-93199831D02*
G01*
X134131685Y-93203750D01*
X134157595Y-93210240D01*
X134182743Y-93219238D01*
X134206888Y-93230658D01*
X134229798Y-93244389D01*
X134251252Y-93260300D01*
X134271042Y-93278238D01*
X134288980Y-93298028D01*
X134304891Y-93319482D01*
X134318622Y-93342392D01*
X134330042Y-93366537D01*
X134339040Y-93391685D01*
X134345530Y-93417595D01*
X134349449Y-93444015D01*
X134350760Y-93470693D01*
X134350760Y-94428347D01*
X134349449Y-94455025D01*
X134345530Y-94481445D01*
X134339040Y-94507355D01*
X134330042Y-94532503D01*
X134318622Y-94556648D01*
X134304891Y-94579558D01*
X134288980Y-94601012D01*
X134271042Y-94620802D01*
X134251252Y-94638740D01*
X134229798Y-94654651D01*
X134206888Y-94668382D01*
X134182743Y-94679802D01*
X134157595Y-94688800D01*
X134131685Y-94695290D01*
X134105265Y-94699209D01*
X134078587Y-94700520D01*
X133370933Y-94700520D01*
X133344255Y-94699209D01*
X133317835Y-94695290D01*
X133291925Y-94688800D01*
X133266777Y-94679802D01*
X133242632Y-94668382D01*
X133219722Y-94654651D01*
X133198268Y-94638740D01*
X133178478Y-94620802D01*
X133160540Y-94601012D01*
X133144629Y-94579558D01*
X133130898Y-94556648D01*
X133119478Y-94532503D01*
X133110480Y-94507355D01*
X133103990Y-94481445D01*
X133100071Y-94455025D01*
X133098760Y-94428347D01*
X133098760Y-93470693D01*
X133100071Y-93444015D01*
X133103990Y-93417595D01*
X133110480Y-93391685D01*
X133119478Y-93366537D01*
X133130898Y-93342392D01*
X133144629Y-93319482D01*
X133160540Y-93298028D01*
X133178478Y-93278238D01*
X133198268Y-93260300D01*
X133219722Y-93244389D01*
X133242632Y-93230658D01*
X133266777Y-93219238D01*
X133291925Y-93210240D01*
X133317835Y-93203750D01*
X133344255Y-93199831D01*
X133370933Y-93198520D01*
X134078587Y-93198520D01*
X134105265Y-93199831D01*
G37*
G36*
X132055265Y-93199831D02*
G01*
X132081685Y-93203750D01*
X132107595Y-93210240D01*
X132132743Y-93219238D01*
X132156888Y-93230658D01*
X132179798Y-93244389D01*
X132201252Y-93260300D01*
X132221042Y-93278238D01*
X132238980Y-93298028D01*
X132254891Y-93319482D01*
X132268622Y-93342392D01*
X132280042Y-93366537D01*
X132289040Y-93391685D01*
X132295530Y-93417595D01*
X132299449Y-93444015D01*
X132300760Y-93470693D01*
X132300760Y-94428347D01*
X132299449Y-94455025D01*
X132295530Y-94481445D01*
X132289040Y-94507355D01*
X132280042Y-94532503D01*
X132268622Y-94556648D01*
X132254891Y-94579558D01*
X132238980Y-94601012D01*
X132221042Y-94620802D01*
X132201252Y-94638740D01*
X132179798Y-94654651D01*
X132156888Y-94668382D01*
X132132743Y-94679802D01*
X132107595Y-94688800D01*
X132081685Y-94695290D01*
X132055265Y-94699209D01*
X132028587Y-94700520D01*
X131320933Y-94700520D01*
X131294255Y-94699209D01*
X131267835Y-94695290D01*
X131241925Y-94688800D01*
X131216777Y-94679802D01*
X131192632Y-94668382D01*
X131169722Y-94654651D01*
X131148268Y-94638740D01*
X131128478Y-94620802D01*
X131110540Y-94601012D01*
X131094629Y-94579558D01*
X131080898Y-94556648D01*
X131069478Y-94532503D01*
X131060480Y-94507355D01*
X131053990Y-94481445D01*
X131050071Y-94455025D01*
X131048760Y-94428347D01*
X131048760Y-93470693D01*
X131050071Y-93444015D01*
X131053990Y-93417595D01*
X131060480Y-93391685D01*
X131069478Y-93366537D01*
X131080898Y-93342392D01*
X131094629Y-93319482D01*
X131110540Y-93298028D01*
X131128478Y-93278238D01*
X131148268Y-93260300D01*
X131169722Y-93244389D01*
X131192632Y-93230658D01*
X131216777Y-93219238D01*
X131241925Y-93210240D01*
X131267835Y-93203750D01*
X131294255Y-93199831D01*
X131320933Y-93198520D01*
X132028587Y-93198520D01*
X132055265Y-93199831D01*
G37*
G36*
X122044505Y-89028311D02*
G01*
X122070925Y-89032230D01*
X122096835Y-89038720D01*
X122121983Y-89047718D01*
X122146128Y-89059138D01*
X122169038Y-89072869D01*
X122190492Y-89088780D01*
X122210282Y-89106718D01*
X122228220Y-89126508D01*
X122244131Y-89147962D01*
X122257862Y-89170872D01*
X122269282Y-89195017D01*
X122278280Y-89220165D01*
X122284770Y-89246075D01*
X122288689Y-89272495D01*
X122290000Y-89299173D01*
X122290000Y-90006827D01*
X122288689Y-90033505D01*
X122284770Y-90059925D01*
X122278280Y-90085835D01*
X122269282Y-90110983D01*
X122257862Y-90135128D01*
X122244131Y-90158038D01*
X122228220Y-90179492D01*
X122210282Y-90199282D01*
X122190492Y-90217220D01*
X122169038Y-90233131D01*
X122146128Y-90246862D01*
X122121983Y-90258282D01*
X122096835Y-90267280D01*
X122070925Y-90273770D01*
X122044505Y-90277689D01*
X122017827Y-90279000D01*
X121060173Y-90279000D01*
X121033495Y-90277689D01*
X121007075Y-90273770D01*
X120981165Y-90267280D01*
X120956017Y-90258282D01*
X120931872Y-90246862D01*
X120908962Y-90233131D01*
X120887508Y-90217220D01*
X120867718Y-90199282D01*
X120849780Y-90179492D01*
X120833869Y-90158038D01*
X120820138Y-90135128D01*
X120808718Y-90110983D01*
X120799720Y-90085835D01*
X120793230Y-90059925D01*
X120789311Y-90033505D01*
X120788000Y-90006827D01*
X120788000Y-89299173D01*
X120789311Y-89272495D01*
X120793230Y-89246075D01*
X120799720Y-89220165D01*
X120808718Y-89195017D01*
X120820138Y-89170872D01*
X120833869Y-89147962D01*
X120849780Y-89126508D01*
X120867718Y-89106718D01*
X120887508Y-89088780D01*
X120908962Y-89072869D01*
X120931872Y-89059138D01*
X120956017Y-89047718D01*
X120981165Y-89038720D01*
X121007075Y-89032230D01*
X121033495Y-89028311D01*
X121060173Y-89027000D01*
X122017827Y-89027000D01*
X122044505Y-89028311D01*
G37*
G36*
X122044505Y-91078311D02*
G01*
X122070925Y-91082230D01*
X122096835Y-91088720D01*
X122121983Y-91097718D01*
X122146128Y-91109138D01*
X122169038Y-91122869D01*
X122190492Y-91138780D01*
X122210282Y-91156718D01*
X122228220Y-91176508D01*
X122244131Y-91197962D01*
X122257862Y-91220872D01*
X122269282Y-91245017D01*
X122278280Y-91270165D01*
X122284770Y-91296075D01*
X122288689Y-91322495D01*
X122290000Y-91349173D01*
X122290000Y-92056827D01*
X122288689Y-92083505D01*
X122284770Y-92109925D01*
X122278280Y-92135835D01*
X122269282Y-92160983D01*
X122257862Y-92185128D01*
X122244131Y-92208038D01*
X122228220Y-92229492D01*
X122210282Y-92249282D01*
X122190492Y-92267220D01*
X122169038Y-92283131D01*
X122146128Y-92296862D01*
X122121983Y-92308282D01*
X122096835Y-92317280D01*
X122070925Y-92323770D01*
X122044505Y-92327689D01*
X122017827Y-92329000D01*
X121060173Y-92329000D01*
X121033495Y-92327689D01*
X121007075Y-92323770D01*
X120981165Y-92317280D01*
X120956017Y-92308282D01*
X120931872Y-92296862D01*
X120908962Y-92283131D01*
X120887508Y-92267220D01*
X120867718Y-92249282D01*
X120849780Y-92229492D01*
X120833869Y-92208038D01*
X120820138Y-92185128D01*
X120808718Y-92160983D01*
X120799720Y-92135835D01*
X120793230Y-92109925D01*
X120789311Y-92083505D01*
X120788000Y-92056827D01*
X120788000Y-91349173D01*
X120789311Y-91322495D01*
X120793230Y-91296075D01*
X120799720Y-91270165D01*
X120808718Y-91245017D01*
X120820138Y-91220872D01*
X120833869Y-91197962D01*
X120849780Y-91176508D01*
X120867718Y-91156718D01*
X120887508Y-91138780D01*
X120908962Y-91122869D01*
X120931872Y-91109138D01*
X120956017Y-91097718D01*
X120981165Y-91088720D01*
X121007075Y-91082230D01*
X121033495Y-91078311D01*
X121060173Y-91077000D01*
X122017827Y-91077000D01*
X122044505Y-91078311D01*
G37*
D13*
X133350000Y-116459000D03*
X133350000Y-118999000D03*
X130810000Y-116459000D03*
X130810000Y-118999000D03*
X128270000Y-116459000D03*
X128270000Y-118999000D03*
X125730000Y-116459000D03*
X125730000Y-118999000D03*
X123190000Y-116459000D03*
D14*
X123190000Y-118999000D03*
M02*
