M48
; DRILL file {KiCad (5.1.5)-3} date 09.08.2020 17:15:25
; FORMAT={-:-/ absolute / inch / decimal}
; #@! TF.CreationDate,2020-08-09T17:15:25+02:00
; #@! TF.GenerationSoftware,Kicad,Pcbnew,(5.1.5)-3
; #@! TF.FileFunction,Plated,1,2,PTH
FMAT,2
INCH
T1C0.0157
T2C0.0197
T3C0.0236
T4C0.0394
T5C0.1260
%
G90
G05
T1
X4.505Y-3.605
X4.655Y-4.08
X4.665Y-3.92
X4.69Y-3.98
X4.95Y-3.5
X4.97Y-3.985
X4.97Y-4.158
X5.015Y-4.2975
X5.085Y-4.2975
X5.085Y-4.05
X5.1325Y-4.295
X5.1325Y-4.05
X5.16Y-3.5
X5.16Y-4.39
X5.17Y-3.86
X5.19Y-4.295
X5.1925Y-4.2355
X5.25Y-3.6425
X5.255Y-4.2975
X5.2575Y-4.1
X5.32Y-4.135
X5.325Y-3.955
X5.345Y-3.645
X5.365Y-4.49
X5.365Y-4.695
X5.37Y-3.88
X5.3722Y-4.1633
X5.408Y-4.094
X5.41Y-3.87
X5.4225Y-4.25
X5.43Y-3.83
X5.46Y-3.795
X5.475Y-4.58
X5.4925Y-4.315
X5.63Y-3.81
X5.645Y-4.205
X5.69Y-4.225
X5.7086Y-3.8819
X5.715Y-3.685
X5.725Y-4.19
X5.73Y-4.045
X5.84Y-4.335
X5.885Y-3.71
X5.885Y-4.05
X5.926Y-3.916
X5.96Y-4.255
X6.01Y-3.62
X6.055Y-3.925
X6.08Y-3.53
X6.11Y-3.71
X6.1475Y-4.3275
X6.1874Y-4.2092
X6.255Y-4.2075
X6.295Y-3.75
X6.3184Y-3.785
X6.33Y-3.68
X6.338Y-3.634
X6.395Y-4.1466
X6.3964Y-4.1014
X6.49Y-3.91
X6.505Y-4.6225
X6.51Y-4.1125
X6.525Y-3.65
X6.535Y-3.935
X6.6875Y-4.0725
X6.6875Y-4.1775
T2
X4.8174Y-3.6698
X4.8578Y-3.6698
X4.8988Y-3.6698
X6.5046Y-4.492
X6.5448Y-4.4916
X6.5856Y-4.4918
T3
X4.53Y-4.665
X4.624Y-4.62
X4.655Y-4.52
X4.705Y-3.74
X4.73Y-4.44
X4.745Y-3.795
X4.79Y-3.74
X4.82Y-4.44
X4.96Y-3.74
X5.018Y-3.793
X5.33Y-3.54
X5.585Y-3.52
X5.625Y-3.61
X6.28Y-4.72
X6.386Y-4.422
X6.56Y-4.3
X6.655Y-4.3
X6.655Y-4.375
X6.665Y-3.77
X6.665Y-3.915
X6.682Y-4.668
X6.74Y-4.3
X6.74Y-4.375
X6.825Y-3.91
T4
X4.85Y-4.585
X4.85Y-4.685
X4.95Y-4.585
X4.95Y-4.685
X5.05Y-4.585
X5.05Y-4.685
X5.15Y-4.585
X5.15Y-4.685
X5.25Y-4.585
X5.25Y-4.685
T5
X5.8836Y-4.625
T0
M30
