M48
; DRILL file {KiCad (6.0.4)} date Wed Jul 13 22:26:56 2022
; FORMAT={-:-/ absolute / metric / decimal}
; #@! TF.CreationDate,2022-07-13T22:26:56+02:00
; #@! TF.GenerationSoftware,Kicad,Pcbnew,(6.0.4)
; #@! TF.FileFunction,MixedPlating,1,2
FMAT,2
METRIC
; #@! TA.AperFunction,Plated,PTH,ViaDrill
T1C0.400
; #@! TA.AperFunction,Plated,PTH,ViaDrill
T2C0.500
; #@! TA.AperFunction,Plated,PTH,ViaDrill
T3C0.600
; #@! TA.AperFunction,Plated,PTH,ComponentDrill
T4C1.000
; #@! TA.AperFunction,Plated,PTH,ViaDrill
T5C3.200
%
G90
G05
T1
X114.427Y-91.567
X118.237Y-103.632
X118.491Y-99.568
X119.126Y-101.092
X125.73Y-88.9
X126.238Y-101.219
X126.238Y-105.613
X127.381Y-109.156
X129.155Y-102.874
X129.155Y-109.164
X130.365Y-102.874
X130.365Y-109.094
X131.064Y-88.9
X131.064Y-111.506
X131.318Y-98.044
X131.889Y-107.582
X131.945Y-109.084
X133.35Y-92.519
X133.525Y-109.164
X133.54Y-104.14
X135.255Y-100.457
X135.763Y-92.583
X136.271Y-114.046
X136.271Y-119.253
X136.398Y-98.552
X136.455Y-104.574
X136.455Y-105.724
X137.414Y-98.298
X137.675Y-103.004
X137.731Y-107.95
X137.922Y-97.282
X138.684Y-96.393
X139.065Y-116.332
X139.51Y-109.601
X143.002Y-96.774
X143.383Y-106.807
X144.526Y-107.315
X144.999Y-98.601
X145.161Y-93.599
X145.415Y-106.426
X145.542Y-102.743
X148.336Y-110.109
X149.479Y-94.234
X149.479Y-102.87
X150.52Y-99.466
X151.384Y-108.077
X152.654Y-91.948
X153.797Y-99.695
X154.432Y-89.662
X155.194Y-94.234
X156.147Y-109.918
X157.16Y-106.914
X158.877Y-106.87
X159.893Y-95.25
X160.488Y-96.14
X160.782Y-93.472
X160.985Y-92.304
X162.433Y-105.324
X162.469Y-104.176
X164.846Y-99.314
X165.227Y-117.411
X165.354Y-104.457
X165.735Y-92.71
X165.989Y-99.949
X169.862Y-103.441
X169.862Y-106.108
T2
X122.362Y-93.213
X123.388Y-93.213
X124.43Y-93.213
X165.217Y-114.097
X166.238Y-114.087
X167.274Y-114.092
T3
X115.062Y-118.491
X117.45Y-117.348
X118.237Y-114.808
X119.507Y-94.996
X120.142Y-112.776
X120.523Y-96.393
X121.666Y-94.996
X121.74Y-110.904
X125.984Y-94.996
X127.457Y-96.342
X135.382Y-89.916
X141.859Y-89.408
X142.875Y-91.694
X159.512Y-119.888
X162.204Y-112.319
X166.624Y-109.22
X169.037Y-109.22
X169.037Y-111.125
X169.291Y-95.758
X169.291Y-99.441
X169.723Y-118.567
X171.196Y-109.22
X171.196Y-111.125
X173.355Y-99.314
T4
X123.19Y-115.314
X123.19Y-117.854
X125.73Y-115.314
X125.73Y-117.854
X128.27Y-115.314
X128.27Y-117.854
X130.81Y-115.314
X130.81Y-117.854
X133.35Y-115.314
X133.35Y-117.854
T5
X149.443Y-117.475
T0
M30
